<?xml version="1.0" encoding="UTF-8" standalone="no"?>
<svg
   xmlns:dc="http://purl.org/dc/elements/1.1/"
   xmlns:cc="http://creativecommons.org/ns#"
   xmlns:rdf="http://www.w3.org/1999/02/22-rdf-syntax-ns#"
   xmlns:svg="http://www.w3.org/2000/svg"
   xmlns="http://www.w3.org/2000/svg"
   xmlns:sodipodi="http://sodipodi.sourceforge.net/DTD/sodipodi-0.dtd"
   xmlns:inkscape="http://www.inkscape.org/namespaces/inkscape"
   width="80mm"
   height="80mm"
   viewBox="-31 -32 80 80"
   version="1.1"
   id="svg1542"
   inkscape:version="1.0.1 (3bc2e813f5, 2020-09-07)"
   sodipodi:docname="A10.svg">
  <defs
     id="defs1536" />
  <sodipodi:namedview
     id="base"
     pagecolor="#ffffff"
     bordercolor="#666666"
     borderopacity="1.0"
     inkscape:pageopacity="0.0"
     inkscape:pageshadow="2"
     inkscape:zoom="11.2"
     inkscape:cx="152.7259"
     inkscape:cy="153.61795"
     inkscape:document-units="mm"
     inkscape:current-layer="layer2"
     inkscape:document-rotation="0"
     showgrid="false"
     inkscape:window-width="1920"
     inkscape:window-height="1001"
     inkscape:window-x="1911"
     inkscape:window-y="112"
     inkscape:window-maximized="1"
     inkscape:snap-global="false" />
  <metadata
     id="metadata1539">
    <rdf:RDF>
      <cc:Work
         rdf:about="">
        <dc:format>image/svg+xml</dc:format>
        <dc:type
           rdf:resource="http://purl.org/dc/dcmitype/StillImage" />
        <dc:title></dc:title>
        <dc:creator>
          <cc:Agent>
            <dc:title>RexKramer1</dc:title>
          </cc:Agent>
        </dc:creator>
        <dc:rights>
          <cc:Agent>
            <dc:title>GNU General Public License v3.0</dc:title>
          </cc:Agent>
        </dc:rights>
      </cc:Work>
    </rdf:RDF>
  </metadata>
  <g
     inkscape:groupmode="layer"
     id="layer2"
     inkscape:label="Outline"
     style="display:inline">
    <path
       id="path1418"
       style="fill:none;stroke:#000000;stroke-width:0.265px;stroke-linecap:butt;stroke-linejoin:miter;stroke-opacity:1"
       d="M 8.7510779,0.34909809 8.7315311,0.11456307 8.5230553,0.10804795 8.470933,0.17319656 8.5165373,0.43379106 8.3406357,0.70741525 8.2103385,1.2611785 8.106101,1.8214566 8.080043,2.3491604 8.053985,2.8964088 8.073532,4.2124109 8.053985,5.0593429 7.982323,5.1896402 8.00187,5.3003929 8.047474,5.3720559 V 6.3427705 L 7.975812,6.5447314 8.05399,6.6294244 8.040961,7.0007716 7.0116126,7.0072816 6.9594936,6.9291036 6.8878306,7.0007666 6.5555725,7.0072766 6.4839015,6.9095586 6.4448125,6.9681926 6.4057252,6.5577581 6.3470911,6.3623124 6.2689128,6.1603515 6.1321008,6.0430841 5.9887741,6.1538368 5.9171105,6.3492825 5.8128726,6.6750255 v 0.3127136 l -0.052119,0.058634 -0.5472483,0.039089 -0.019543,-0.084693 H 5.1679013 L 5.0962377,7.091977 4.0017409,7.17667 3.9365925,7.0789472 3.8714437,7.1896999 2.8681551,7.2939374 l 0.01303,-0.065148 0.078178,-0.01303 -0.01303,-0.032574 -0.078178,-0.01303 -0.078178,-0.3061984 -0.071663,0.2931686 -0.1042379,0.02606 0.01303,0.065149 0.091208,0.039089 -2.46261769,0.234535 -0.10423778,0.1042375 -0.13029724,0.4430104 -0.06514861,0.5472487 v 0.1693864 l 0.02605944,0.7492093 3.60271848,0.3192283 0.039089,0.071662 0.039089,0.013029 0.039089,-0.078178 2.0261223,0.1693868 v 0.07166 l 0.1759012,0.0065 0.01303,-0.06515 0.6254267,-0.0065 -0.02606,0.149842 0.039089,2.1043 0.052119,0.501644 0.1433271,0.306198 0.2280201,0.07818 0.084693,0.09121 0.2215055,0.07166 0.2019606,-0.06515 0.065151,-0.123783 0.2149916,-0.03909 0.052115,-0.08469 0.2280203,0.149843 0.2149901,0.384377 v 0.67103 H 5.8259047 l -0.01303,-0.143327 -0.091208,-0.123782 -0.084693,0.123782 -0.01303,0.416951 -0.071663,0.104239 0.00651,0.221504 h 0.058634 l 0.019543,0.560278 0.097723,0.716635 0.084693,-0.592851 0.1498418,0.566792 2.3192911,0.01303 0.013029,-0.22802 0.091208,0.299684 0.2215052,0.136811 0.045604,0.09772 0.065151,-0.09772 0.1563562,-0.06515 0.1433275,-0.299684 v 0.156357 l 2.3258055,0.0065 0.149841,-0.579822 0.07818,0.664515 h 0.04561 l 0.05211,-0.397406 0.03909,-0.390892 0.01954,-0.0456 -0.01303,-0.508159 0.07818,-0.06515 -0.03258,-0.169385 -0.06515,-0.05212 -0.01303,-0.410437 -0.06514,-0.156357 -0.09121,0.05863 -0.03258,0.24105 -2.4039846,-0.03909 0.0065,-0.573308 0.084693,-0.312714 0.2084758,-0.260594 0.1889311,-0.07818 0.065151,0.09772 0.1954462,0.05863 0.097723,0.110753 0.1759015,0.03909 0.221505,-0.05863 0.05212,-0.07818 0.260594,-0.0456 0.143327,-0.508159 0.05863,-0.358317 0.01955,-0.970716 -0.01303,-1.153129 -0.0065,-0.104238 h 0.605882 l 0.03257,0.07166 0.182416,-0.01303 0.05212,-0.08469 2.019608,-0.1628719 0.03257,0.065151 h 0.02606 L 13.878253,9.8542551 17.48097,9.574116 17.50609,8.8762978 17.55676,8.8025908 17.501488,8.65977 17.40014,7.9226976 17.33104,7.6739356 17.243513,7.5541614 17.086885,7.5173086 14.6914,7.2915799 l 0.0092,-0.046067 0.08292,-0.04146 -0.09674,-0.023034 -0.0092,-0.1796616 -0.05989,-0.119774 -0.05067,0.1105608 -0.01843,0.1934816 -0.08753,0.00921 0.08292,0.096741 -1.013475,-0.082921 -0.06449,-0.1289876 -0.05068,0.1243812 -1.064148,-0.1059545 -0.04606,-0.1013472 -0.05989,0.105954 -0.612691,-0.046067 -0.02764,-0.3224688 -0.08753,-0.3731433 -0.07831,-0.1658412 -0.128987,-0.1474144 -0.179662,0.1382012 -0.05989,0.170448 -0.05068,0.3685361 -0.0092,0.2441552 -0.05528,-0.013818 0.0046,0.087527 h -0.377751 l -0.03225,-0.087527 -0.03685,0.00921 -0.04606,0.069101 L 9.4167088,7.0151762 9.3890674,6.6189998 9.4673809,6.5775391 9.4535638,6.3840574 9.4950223,6.3610231 9.4120973,6.1168687 9.3890615,3.1916124 9.467375,3.1317253 V 2.6710914 L 9.3844901,2.6065976 9.3614566,2.1321072 9.3153895,1.8188514 9.1956153,1.2291934 9.0528075,0.71324267 8.9238197,0.459874 Z" />
  </g>
  <g
     inkscape:groupmode="layer"
     id="layer3"
     inkscape:label="Accent"
     style="display:inline">
    <path
       id="path1449"
       style="fill:none;stroke:#000000;stroke-width:0.265px;stroke-linecap:butt;stroke-linejoin:miter;stroke-opacity:1"
       d="m 5.81939,14.238784 -0.01303,1.316002 m 5.693989,-1.250854 0.01303,1.263883 m -1.7329531,-2.456103 0.3257421,-0.06515 0.364832,0.06515 m -3.5701433,0 0.3648319,-0.06515 0.3257435,0.05212 m 1.8241612,-2.91866 0.3778621,0.07818 h 0.5993676 l 0.45604,-0.06515 m -4.3128385,-0.05212 0.325743,0.09121 0.7687538,-0.01303 0.3648327,-0.03909 m 1.0032886,5.850347 0.052122,-0.299683 0.026058,-0.234536 V 14.258326 M 8.347156,15.99128 8.2689767,15.457062 8.255948,14.219237 m 1.1653964,-4.062254 -0.00921,0.83842 -0.00922,0.948981 0.01843,0.368535 0.064494,0.451456 0.1013471,0.257976 M 8.03012,10.129342 l -0.027641,0.81078 -0.01843,0.902913 -0.00921,0.460671 -0.046064,0.423817 -0.1013478,0.285615 m 1.5754926,-5.9887137 0.00921,3.1417717 0.064494,-0.2119082 0.092134,-0.1566285 1.0963952,-0.00921 0.119775,0.055283 0.07371,0.2026947 M 8.0485459,6.9967853 V 10.147771 L 8.0116931,10.110918 7.8827061,9.8713693 7.8274232,9.7700215 6.8139484,9.7792402 6.6112533,9.8345231 6.537546,10.037218 M 8.3157322,2.9705322 8.5829213,2.8231178 8.8316833,2.8139035 9.1265117,2.9521046 M 8.4631463,1.7727891 8.3249457,2.3808739 8.2512379,2.9797453 8.2328078,3.6062569 8.278872,4.195915 8.4723533,5.0251215 8.582914,5.0251211 8.7303289,5.3291635 8.8777431,5.0435479 8.9883045,5.0343358 9.1080787,4.5644521 9.1725729,4.1867025 9.191003,3.5233362 V 2.9705271 L 9.1265146,2.3992959 8.9514597,1.7727843 Z" />
  </g>
</svg>
