<?xml version="1.0" encoding="UTF-8" standalone="no"?>
<svg
   xmlns:dc="http://purl.org/dc/elements/1.1/"
   xmlns:cc="http://creativecommons.org/ns#"
   xmlns:rdf="http://www.w3.org/1999/02/22-rdf-syntax-ns#"
   xmlns:svg="http://www.w3.org/2000/svg"
   xmlns="http://www.w3.org/2000/svg"
   xmlns:sodipodi="http://sodipodi.sourceforge.net/DTD/sodipodi-0.dtd"
   xmlns:inkscape="http://www.inkscape.org/namespaces/inkscape"
   width="90mm"
   height="90mm"
   viewBox="-1 -3 90 90"
   version="1.1"
   id="svg1542"
   inkscape:version="1.0.1 (3bc2e813f5, 2020-09-07)"
   sodipodi:docname="A225.svg">
  <defs
     id="defs1536" />
  <sodipodi:namedview
     id="base"
     pagecolor="#ffffff"
     bordercolor="#666666"
     borderopacity="1.0"
     inkscape:pageopacity="0.0"
     inkscape:pageshadow="2"
     inkscape:zoom="1.979899"
     inkscape:cx="108.46427"
     inkscape:cy="145.69171"
     inkscape:document-units="mm"
     inkscape:current-layer="layer2"
     inkscape:document-rotation="0"
     showgrid="false"
     inkscape:snap-global="false"
     inkscape:window-width="1920"
     inkscape:window-height="1121"
     inkscape:window-x="-9"
     inkscape:window-y="-9"
     inkscape:window-maximized="1"
     viewbox-x="-1"
     viewbox-y="-3" />
<metadata
     id="metadata1539">
    <rdf:RDF>
      <cc:Work
         rdf:about="">
        <dc:format>image/svg+xml</dc:format>
        <dc:type
           rdf:resource="http://purl.org/dc/dcmitype/StillImage" />
        <dc:title></dc:title>
        <dc:creator>
          <cc:Agent>
            <dc:title>RexKramer1</dc:title>
          </cc:Agent>
        </dc:creator>
        <dc:rights>
          <cc:Agent>
            <dc:title>GNU General Public License v3.0</dc:title>
          </cc:Agent>
        </dc:rights>
      </cc:Work>
    </rdf:RDF>
  </metadata>
  <g
     inkscape:groupmode="layer"
     id="layer2"
     inkscape:label="Outline"
     style="display:inline">
    <path
       style="fill:none;stroke:#000000;stroke-width:0.264583px;stroke-linecap:butt;stroke-linejoin:miter;stroke-opacity:1"
       d="m 42.562671,0.40090428 -1.269529,1.00226072 -1.436574,2.8397388 -0.801809,4.0424515 -0.23386,6.1806077 0.06682,9.153981 -4.476766,3.040192 -0.03341,-0.367496 0.08352,-0.167044 v -2.03793 l -0.05011,-0.618061 -0.267269,-0.367495 -2.3052,-0.01671 -0.150339,0.400904 -0.100227,1.319643 0.08352,1.436574 0.167042,0.718289 0.250565,1.085781 -5.311981,3.474506 0.150339,-0.651471 0.01669,-1.436573 -0.05011,-1.269532 -0.133636,-0.400902 -2.455538,-0.0167 -0.133634,0.317383 -0.03341,1.319644 0.0167,1.436574 0.150339,0.785103 0.250566,1.00226 h 0.183747 l 0.01671,0.167045 -5.362095,3.524613 -0.0167,-0.367496 0.233861,-0.718286 0.0167,-1.536798 -0.06682,-1.202713 -0.15034,-0.417608 -2.188269,-0.06682 -0.133635,0.517835 -0.06682,1.085783 -0.05011,1.353053 0.167043,0.918737 0.183748,1.102484 0.283974,0.05012 -0.0167,0.334084 -15.2343632,9.170689 -1.43657368,1.269526 -0.68487816,1.637028 -0.0668174,1.820772 11.55940744,-3.674957 0.11693,0.467726 0.183748,-0.03341 0.183748,-0.567944 2.92326,-0.98556 0.150339,0.334087 0.183748,0.01669 0.11693,-0.58465 2.956669,-1.002262 0.116931,0.384201 0.183748,0.03341 0.11693,-0.53454 2.622582,-1.00226 4.025747,-1.018966 0.08352,0.367495 h 0.26727 l 0.100226,-0.501129 4.376537,-1.186008 0.100227,0.451017 h 0.267269 l 0.05011,-0.53454 1.336349,-0.367496 1.169302,0.03341 0.133636,0.467722 0.250566,-0.0167 0.08352,-0.484426 3.708365,-0.01669 0.167042,0.451017 h 0.217157 l 0.03341,-0.534538 0.918739,0.100224 0.183748,16.052877 0.434314,4.059155 0.567946,2.522358 -11.793267,9.354433 -0.317381,-3.157122 -0.233863,-0.100227 -0.701582,3.641548 -0.05011,2.789627 0.283974,2.255086 0.317381,0.317383 0.250566,2.589173 0.133636,-0.01669 0.267269,-1.937703 0.434313,0.434314 0.05011,-0.65147 13.129615,-6.481287 0.41761,1.703843 0.200451,0.233862 1.202714,-0.03341 0.200451,-0.334087 0.283975,-1.670436 13.26325,6.364356 0.200451,0.618061 0.100226,-0.01669 0.250566,-0.35079 0.417608,1.870887 0.150339,-0.0167 0.217157,-2.57247 0.233862,-0.334086 0.283972,-2.071338 -0.01669,-2.405425 -0.835218,-4.059156 -0.35079,-0.03341 -0.183748,3.240643 -12.043833,-9.287615 0.718285,-4.476766 0.150339,-3.908817 -0.217156,-14.215398 h 1.069078 l 0.150341,0.451017 0.150339,-0.0167 0.167042,-0.451016 3.641548,0.03341 0.200451,0.434314 h 0.167044 l 0.183748,-0.484426 h 1.186008 l 1.302941,0.384201 0.100224,0.434311 0.200454,0.0167 0.167042,-0.367496 4.46006,1.102487 0.11693,0.451017 h 0.250565 l 0.08352,-0.317384 2.472243,0.65147 0.08352,0.317384 h 0.167042 l 0.08352,-0.317384 1.252825,0.317384 2.956669,0.935442 0.167042,0.584653 0.167045,-0.03341 0.11693,-0.384199 2.939965,0.902033 0.167045,0.551244 0.233859,0.06682 0.167043,-0.451017 3.107009,1.00226 0.133634,0.517835 0.233862,0.05011 0.150339,-0.451017 11.743155,3.741775 0.100225,-1.052375 -0.567947,-1.870888 -0.835218,-1.152599 -0.952148,-0.668173 -15.83572,-8.970235 0.05012,-0.35079 0.35079,-0.11693 c 0,0 0.150338,-0.818515 0.167044,-0.902036 0.01669,-0.08352 0.11693,-1.469982 0.11693,-1.469982 l -0.03341,-0.91874 -0.133633,-1.102487 -0.150341,-0.43431 h -2.255086 l -0.267269,0.400902 0.01669,2.07134 0.283975,1.436574 0.100226,0.334087 -5.796407,-3.491209 0.03341,-0.183748 0.283974,-0.01669 0.150339,-1.018966 0.250566,-0.718288 -0.01669,-1.469983 -0.133636,-1.219417 -0.183748,-0.46772 -2.321904,0.08352 -0.200451,0.300678 -0.06682,1.436574 0.150339,1.403165 0.150339,0.601358 -5.612659,-3.374279 0.267269,-0.300678 0.100224,-0.734991 0.183748,-0.835219 -0.05011,-1.419869 -0.100227,-1.286235 -0.167042,-0.484426 -2.388722,0.08352 c 0,0 -0.200451,0.183748 -0.200451,0.283974 0,0.100226 0.03341,1.453278 0.03341,1.453278 l 0.100226,1.436573 0.100227,0.417609 -4.66051,-3.023482 L 46.371263,14.415907 46.070586,8.3188208 45.235367,4.0926215 43.915724,1.5368566 Z"
       id="path1420" />
  </g>
  <g
     inkscape:groupmode="layer"
     id="layer3"
     inkscape:label="Accent">
    <path
       id="path1487"
       style="fill:none;stroke:#000000;stroke-width:0.264583px;stroke-linecap:butt;stroke-linejoin:miter;stroke-opacity:1"
       d="m 57.830357,73.067523 -0.472472,6.142111 M 28.277343,73.351003 28.702566,79.44587 M 45.593378,63.665364 c -0.37501,2.337578 -0.769696,4.670245 -1.228424,6.992559 l -0.236235,2.220611 m 1.700895,-9.024181 -0.307108,-0.259861 -0.259857,-0.354351 m -4.937316,0.448847 1.157552,6.968935 0.377979,2.291482 m -1.771764,-9.07143 0.590587,-0.590587 m 2.100141,-32.601506 0.233862,1.720549 0.250563,1.319641 0.267272,1.921002 0.250563,1.703842 0.53454,4.877668 0.35079,4.643808 0.06682,5.061418 0.06682,6.046973 0.23386,1.854181 0.400904,-1.77066 c 0,0 -0.01669,-1.737251 0.03341,-1.88759 0.05012,-0.150339 0.01671,-2.388722 0.01671,-2.388722 l 0.183749,-1.753957 0.300678,-3.57473 0.283974,-3.658251 -0.100226,-3.69166 m -3.57474,-10.406808 -0.250566,1.720548 -0.200451,1.286235 -0.267271,1.987817 -0.183748,1.65373 -0.534538,5.178346 -0.200454,4.359836 0.100227,4.727329 -0.06682,7.266389 -0.250565,0.968854 -0.334087,-2.305201 -0.03341,-3.77518 -0.23386,-2.388722 -0.434313,-3.190531 -0.46772,-4.610399 -0.01669,-2.33861 m 6.600878,-11.170298 -0.236236,-0.874069 -0.354351,-0.425223 -0.472472,0.590587 -0.14174,0.921319 -0.07087,2.078868 0.04725,1.299292 0.141742,1.960753 0.283483,1.653646 0.165364,0.68508 0.218516,-3e-6 0.15946,-0.667363 0.354352,-1.694987 m -6.331105,-5.362535 0.188989,-1.063056 0.401598,-0.401601 0.425225,0.661458 0.165364,0.803199 0.07087,3.472656 -0.04724,1.889881 -0.09449,1.169364 -0.212611,1.192988 -0.354354,10e-7 -0.330729,-1.133927 -0.236233,-1.724517 m 6.921676,-11.481028 -0.54334,0.755952 -0.118118,1.086682 0.118118,15.68601 -0.307107,0.614212 -0.07087,0.54334 m -6.661829,-18.638949 0.472469,0.779576 0.14174,1.039434 0.02363,15.686012 0.330729,0.685083 0.165364,0.637833 m 27.300278,-5.882772 0.584652,0.283975 m -1.269529,-0.718288 0.734992,0.467722 -0.08352,-1.703842 0.183748,-2.321904 0.367495,1.804069 0.100227,2.522355 0.367496,0.183748 m -8.51922,-5.228461 0.651468,0.451017 m -1.520095,-0.935442 0.851922,0.517834 -0.05011,-1.319643 0.217157,-2.338607 0.334087,1.386459 0.167042,2.722808 0.317384,0.233863 m -8.702967,-5.445617 0.718286,0.467719 m -1.570207,-0.952145 0.868624,0.501129 0.0167,-1.870886 0.267269,-1.687139 0.334086,2.438834 0.08352,1.553504 0.467723,0.35079 m -35.223813,9.13276 0.755952,-0.4016 m -1.133929,0.673269 0.389788,-0.259858 0.03544,-2.043432 0.342541,-2.421411 0.224423,1.405599 0.08269,2.681267 0.637835,-0.389788 m 5.610572,-3.767949 0.897694,-0.484283 m -1.169364,0.614211 0.448846,-0.283479 0.04725,-2.244236 0.354352,-1.771764 0.283482,1.748142 0.04725,1.937128 0.921317,-0.590589 m 5.858627,-3.803386 0.755951,-0.425222 m -1.27567,0.708705 c 0.118118,-0.07087 0.543341,-0.330729 0.543341,-0.330729 l 0.07087,-1.441034 0.212611,-2.456845 0.259858,1.133928 0.188989,2.4096 0.992188,-0.614212 m 6.681401,-18.19989 -0.243992,2.939101 -0.01181,3.779761 0.425225,3.449033 1.240234,5.149926 0.425223,-0.02362 0.566965,-2.397786 0.519715,-2.598586 0.377977,-3.578963 0.0078,-3.785206 -0.358056,-2.8273504 m 1.275671,-0.1819986 0.11693,6.49799 0.133633,3.056896 0.708504,5.309955 -0.808728,-1.000234 -0.267269,-0.851922 m -5.328687,-13.0962066 -0.03341,6.6483296 -0.150339,2.53906 -0.706476,5.960238 0.506023,-0.514621 0.601358,-1.570209 M 42.569569,6.4255951 41.789992,6.5909597 41.459263,7.1343006 41.128535,8.3863467 41.388392,8.2209822 41.671874,7.5122767 41.884486,7.2996652 42.569569,7.110677 43.32552,7.3232887 43.609003,7.6540179 43.797989,8.2918526 43.96884,8.4352713 43.671275,7.1703283 43.341977,6.5964448 Z m -3.42541,1.8898811 1.228423,-0.094494 0.259858,0.377976 0.685081,-2.5513392 2.4096,0.023625 0.708705,2.5985861 0.448847,-0.3543525 h 1.157552 M 41.293899,1.4882812 h 2.574962" />
  </g>
</svg>
