<?xml version="1.0" encoding="UTF-8" standalone="no"?>
<svg
   xmlns:dc="http://purl.org/dc/elements/1.1/"
   xmlns:cc="http://creativecommons.org/ns#"
   xmlns:rdf="http://www.w3.org/1999/02/22-rdf-syntax-ns#"
   xmlns:svg="http://www.w3.org/2000/svg"
   xmlns="http://www.w3.org/2000/svg"
   xmlns:sodipodi="http://sodipodi.sourceforge.net/DTD/sodipodi-0.dtd"
   xmlns:inkscape="http://www.inkscape.org/namespaces/inkscape"
   width="80mm"
   height="80mm"
   viewBox="-23 -24 80 80"
   version="1.1"
   id="svg1542"
   inkscape:version="1.0.1 (3bc2e813f5, 2020-09-07)"
   sodipodi:docname="A318.svg">
  <defs
     id="defs1536" />
  <sodipodi:namedview
     id="base"
     pagecolor="#ffffff"
     bordercolor="#666666"
     borderopacity="1.0"
     inkscape:pageopacity="0.0"
     inkscape:pageshadow="2"
     inkscape:zoom="2.8"
     inkscape:cx="137.03098"
     inkscape:cy="174.42246"
     inkscape:document-units="mm"
     inkscape:current-layer="layer5"
     inkscape:document-rotation="0"
     showgrid="false"
     inkscape:snap-nodes="false"
     inkscape:window-width="1920"
     inkscape:window-height="1121"
     inkscape:window-x="-9"
     inkscape:window-y="-9"
     inkscape:window-maximized="1" />
<metadata
     id="metadata1539">
    <rdf:RDF>
      <cc:Work
         rdf:about="">
        <dc:format>image/svg+xml</dc:format>
        <dc:type
           rdf:resource="http://purl.org/dc/dcmitype/StillImage" />
        <dc:title></dc:title>
        <dc:creator>
          <cc:Agent>
            <dc:title>RexKramer1</dc:title>
          </cc:Agent>
        </dc:creator>
        <dc:rights>
          <cc:Agent>
            <dc:title>GNU General Public License v3.0</dc:title>
          </cc:Agent>
        </dc:rights>
      </cc:Work>
    </rdf:RDF>
  </metadata>
  <g
     inkscape:groupmode="layer"
     id="layer5"
     inkscape:label="Outline"
     style="display:inline">
    <path
       style="fill:none;stroke:#000000;stroke-width:0.265;stroke-linecap:butt;stroke-linejoin:miter;stroke-miterlimit:4;stroke-dasharray:none;stroke-opacity:1"
       d="M 16.824137,0.19891389 16.019292,0.90907133 15.309135,2.37673 l -0.284063,1.6096903 -0.189376,1.8464093 0.0089,4.9540534 -0.318034,0.619329 -2.326662,1.188439 0.167386,-0.920621 -0.03349,-1.355825 -0.150649,-0.569112 -0.284554,-0.3515106 -1.465956,-0.013965 -0.248556,0.3077345 -0.11836,0.7930081 0.01183,2.012113 0.118359,0.461604 0.272229,0.05919 0.106523,0.508945 -9.95404131,5.349855 -0.44976638,0.437931 -0.0591799,2.035785 0.30773492,-0.01183 V 20.627785 L 4.7632857,19.20747 4.8698094,19.834776 h 0.3195708 l 0.011837,-0.757502 3.2785603,-1.053399 0.1538679,0.639141 0.272227,0.01183 0.1301949,-0.840355 1.5623477,-0.532617 h 0.272226 l 0.07102,0.816679 0.189375,0.02367 0.106525,-0.864025 h 0.426094 l 0.272226,0.816682 0.201212,0.02367 0.09469,-0.864025 2.532894,0.01183 0.04734,3.941374 0.402423,3.231217 0.331406,1.43215 -0.224883,0.520783 -4.485829,3.077348 -0.177537,0.189375 -0.02367,1.230942 5.539228,-1.136254 0.189375,0.911371 0.2959,0.366913 0.04734,0.37875 0.485275,0.02367 0.02367,-0.402424 0.213049,-0.201211 0.213047,-1.124415 5.5629,1.159924 v -1.23095 l -0.189374,-0.260391 -4.414813,-3.018168 -0.248557,-0.757501 0.331408,-1.799066 0.272227,-2.414536 v -4.154421 l 2.532895,0.02367 0.153868,0.710157 h 0.201211 l 0.177541,-0.781173 0.544452,-0.01182 0.09469,0.79301 h 0.224884 l 0.0355,-0.781175 0.307734,0.01183 1.491332,0.532616 0.153866,0.85219 0.23672,-0.01182 0.130195,-0.698322 3.349575,1.006056 0.07102,0.721993 0.213046,-0.02367 0.106524,-0.579961 4.521336,1.313791 0.04734,0.733827 0.307736,-0.01182 -0.142031,-1.964768 -0.213049,-0.343245 -10.249939,-5.267 0.01183,-0.579962 h 0.331407 l 0.02367,-1.443987 -0.07102,-1.6451992 -0.307735,-0.5207819 -1.538674,0.011832 -0.213048,0.3787506 -0.0355,1.0534015 0.05918,1.183594 0.08285,0.710159 L 19.143981,11.24188 18.82441,10.567231 18.812589,5.7736673 18.670546,3.879896 18.244452,2.1400104 17.510624,0.77887516 Z"
       id="path2774" />
  </g>
  <g
     inkscape:groupmode="layer"
     id="layer6"
     inkscape:label="Accent">
    <path
       id="path2758"
       style="fill:none;stroke:#000000;stroke-width:0.264583px;stroke-linecap:butt;stroke-linejoin:miter;stroke-opacity:1"
       d="m 16.923386,22.371263 -0.15034,3.791884 0.167043,4.510175 0.200454,-4.510175 z m 1.419868,3.240643 -0.384199,1.202712 -0.283974,1.570209 -0.03341,1.369756 m -2.088043,-3.908817 0.517834,1.486686 0.150342,1.186008 -0.01669,1.286235 m 2.622566,-19.310223 0.150339,6.79867 m -4.125974,-6.564807 -0.08352,6.631625 m 7.594522,-4.460034 -0.09449,-2.734423 0.23033,-0.100399 0.177176,0.09449 0.09449,2.651739 0.100402,0.377978 m 0.401598,0.236237 -1.65955,-0.856352 m -10.72824,0.706552 0.116927,-0.334089 0.0167,-2.681047 0.208804,-0.08352 0.175395,0.08352 -0.0084,2.6894 M 10.54682,13.508405 12.229576,12.54414 M 17.49554,2.0637915 17.41911,2.2081662 16.977496,1.9533876 16.994486,1.7920281 Z m 0.51805,0.6114685 -0.195331,0.016981 -0.16136,-0.2887484 0.06794,-0.1188973 z m 0.178345,0.6369469 -0.101912,0.00854 -0.118897,-0.3312116 0.161361,-0.016981 z m -2.01802,-1.2586568 0.07643,0.1443747 0.441614,-0.2547785 -0.01699,-0.1613596 z m -0.51805,0.6114686 0.195331,0.016981 0.16136,-0.2887484 -0.06794,-0.1188973 z m -0.178345,0.6369468 0.101912,0.00854 0.118897,-0.3312116 -0.161361,-0.016981 z" />
  </g>
</svg>
