<?xml version="1.0" encoding="UTF-8" standalone="no"?>
<svg
   xmlns:dc="http://purl.org/dc/elements/1.1/"
   xmlns:cc="http://creativecommons.org/ns#"
   xmlns:rdf="http://www.w3.org/1999/02/22-rdf-syntax-ns#"
   xmlns:svg="http://www.w3.org/2000/svg"
   xmlns="http://www.w3.org/2000/svg"
   xmlns:sodipodi="http://sodipodi.sourceforge.net/DTD/sodipodi-0.dtd"
   xmlns:inkscape="http://www.inkscape.org/namespaces/inkscape"
   width="80mm"
   height="80mm"
   viewBox="-8 -7 80 80"
   version="1.1"
   id="svg8"
   inkscape:version="1.0.1 (3bc2e813f5, 2020-09-07)"
   sodipodi:docname="A359.svg">
  <defs
     id="defs2" />
  <sodipodi:namedview
     id="base"
     pagecolor="#ffffff"
     bordercolor="#666666"
     borderopacity="1.0"
     inkscape:pageopacity="0.0"
     inkscape:pageshadow="2"
     inkscape:zoom="2.8"
     inkscape:cx="129.63055"
     inkscape:cy="149.44086"
     inkscape:document-units="mm"
     inkscape:current-layer="layer2"
     inkscape:document-rotation="0"
     showgrid="false"
     inkscape:window-width="1920"
     inkscape:window-height="1121"
     inkscape:window-x="-9"
     inkscape:window-y="-9"
     inkscape:window-maximized="1"
     fit-margin-top="0"
     fit-margin-left="0"
     fit-margin-right="0"
     fit-margin-bottom="0"
     units="mm"
     inkscape:snap-global="false" />
<metadata
     id="metadata1539">
    <rdf:RDF>
      <cc:Work
         rdf:about="">
        <dc:format>image/svg+xml</dc:format>
        <dc:type
           rdf:resource="http://purl.org/dc/dcmitype/StillImage" />
        <dc:title></dc:title>
        <dc:creator>
          <cc:Agent>
            <dc:title>RexKramer1</dc:title>
          </cc:Agent>
        </dc:creator>
        <dc:rights>
          <cc:Agent>
            <dc:title>GNU General Public License v3.0</dc:title>
          </cc:Agent>
        </dc:rights>
      </cc:Work>
    </rdf:RDF>
  </metadata>
  <g
     inkscape:groupmode="layer"
     id="layer2"
     inkscape:label="Outline"
     style="display:inline">
    <path
       id="path25"
       style="fill:none;stroke:#000000;stroke-width:0.265;stroke-linecap:butt;stroke-linejoin:miter;stroke-miterlimit:4;stroke-dasharray:none;stroke-opacity:1"
       d="m 31.952408,-0.81698234 -0.606888,0.3319721 -0.490495,0.8751488 -0.400154,0.82717314 -0.477752,1.6419381 -0.548691,2.4142422 -0.219475,1.9752888 -0.246913,2.0027239 0.02744,11.6596913 -0.54869,0.877906 -0.987646,0.795602 -4.115184,3.100108 0.24691,-1.234555 v -2.085028 l -0.109738,-0.960211 -0.411519,-0.493822 -2.9355,0.02743 -0.329214,0.493823 -0.137172,0.685863 -0.02744,2.578851 0.30178,2.194765 0.630994,0.05486 0.137174,0.713299 -17.9696431,12.592464 -1.6735077,1.426599 -0.87790599,0.987642 -0.384085,1.097389 -0.05486,1.069946 0.08231,0.576124 0.192042,-0.713299 0.274347,-0.630995 0.76816699,-0.685867 1.5637703,-0.713298 11.9889065,-4.993087 0.329215,0.850471 0.274346,-0.02744 0.164607,-1.069949 3.566493,-1.399162 0.329215,0.795602 0.274345,-0.02743 0.301782,-1.097383 1.673509,-0.521256 1.152251,-0.164607 1.06995,-0.08231 0.356648,0.960212 h 0.30178 l 0.219477,-1.01508 3.868275,-0.08231 0.137172,2.002723 0.274347,1.371729 0.109737,10.836657 0.164607,1.700943 0.521257,3.154977 0.740733,3.209843 -6.858642,5.294869 -0.576126,0.823037 -0.438952,1.207123 -0.137173,1.207119 8.751627,-3.182407 0.329215,1.124815 0.274345,0.46639 0.137173,2.551413 0.219477,0.02743 0.03429,-2.613145 0.281205,-0.486963 0.322355,-1.063089 8.706848,3.176463 -0.0388,-0.969963 -0.361927,-1.380097 -0.86022,-1.0254 -6.712113,-5.121378 0.721669,-3.168817 0.548976,-3.242896 0.164893,-1.541948 0.0388,-10.785939 0.326458,-1.486508 0.100323,-2.121737 3.814982,0.06388 0.200647,0.828483 0.426784,-0.02272 0.116394,-0.753239 2.289103,0.271589 1.90112,0.581975 0.310385,1.202748 0.27159,-0.0388 0.232788,-0.892364 3.569447,1.396741 0.232793,1.086352 0.387982,0.0388 0.0388,-0.853564 13.191438,5.470565 1.008754,0.659572 0.620776,0.853564 0.03881,0.659572 0.155195,0.03881 v -1.047546 l -0.27161,-1.16395 -0.426784,-0.969959 -1.04755,-1.047555 L 43.196292,27.61944 43.44848,26.979268 h 0.601371 l 0.329787,-2.463695 -0.01938,-2.192107 -0.232792,-0.892361 -0.368584,-0.484979 -2.754684,0.01939 -0.42678,0.387983 -0.213392,0.892362 0.0582,2.483094 0.135794,0.911761 -5.25721,-4.09323 L 35.048621,20.713322 35.009821,9.1902337 34.83523,7.1339214 34.524843,5.1746055 33.962267,2.7497093 33.496686,1.2365739 33.050506,0.28601446 32.526728,-0.48995214 Z" />
  </g>
  <g
     inkscape:groupmode="layer"
     id="layer7"
     inkscape:label="Accent"
     style="display:inline">
    <path
       id="path878"
       style="display:inline;fill:none;stroke:#000000;stroke-width:0.265;stroke-linecap:butt;stroke-linejoin:miter;stroke-miterlimit:4;stroke-dasharray:none;stroke-opacity:1"
       d="m 31.755669,64.044982 -0.191688,-5.466813 -0.02743,-3.868277 0.384083,-1.316859 0.425235,1.289427 -0.02744,3.936859 -0.17182,5.391358 z m 11.408486,-36.391465 -0.324029,-0.214638 -0.252188,-4.752797 -0.290985,-0.232789 -0.329787,0.329786 -0.01941,3.957431 -1.421886,-1.065705 z m -22.492054,0.04066 0.440955,-0.255294 0.0776,-4.578204 0.368582,-0.426783 0.407383,0.426783 0.01939,3.802236 1.319802,-0.944027 z m 11.22801,25.73477 0.118118,12.425966 m 1.49207,-8.777041 -0.534541,2.238383 v 1.469982 l -0.250565,1.68714 m -2.338607,-5.412209 0.551243,2.338608 -0.06682,1.436573 0.283975,1.653731 m 9.355896,-36.818761 2.693083,2.019811 m -22.572266,0.03544 2.716702,-1.996186 m 11.681994,-5.134798 -0.100226,18.374782 m -5.946746,-18.408192 -0.100227,17.84024 m 3.939179,-36.3996976 0.274345,-0.3017802 0.396034,0.6035603 -0.450902,1e-7 z M 32.678066,1.9096844 32.19796,1.5667522 31.80016,1.5804692 31.333772,1.8410976 31.004558,1.4981657 31.662986,1.0866471 h 0.61728 l 0.658427,0.4663877 z m -2.175074,0.2319758 0.493823,0.027435 0.178324,-0.2057592 -0.315496,-0.3292147 z m -0.208136,0.6160597 0.233193,0.027435 0.356651,-0.4389531 -0.466388,-0.013717 z m 2.865695,-0.277884 0.432093,0.013717 0.08231,0.3703668 -0.246909,0.013717 z m 0.522748,0.3924364 -0.08231,-0.3703667 -0.432093,-0.013717 0.267486,0.3978012 c 0.08035,0.00231 0.246911,-0.013717 0.246911,-0.013717 z" />
  </g>
</svg>
