<?xml version="1.0" encoding="UTF-8" standalone="no"?>
<!-- Created with Inkscape (http://www.inkscape.org/) -->

<svg
   width="80mm"
   height="80mm"
   viewBox="-28 -18 80 80"
   version="1.1"
   id="svg5"
   inkscape:version="1.2.1 (9c6d41e410, 2022-07-14)"
   sodipodi:docname="B1_fast.svg"
   xml:space="preserve"
   xmlns:inkscape="http://www.inkscape.org/namespaces/inkscape"
   xmlns:sodipodi="http://sodipodi.sourceforge.net/DTD/sodipodi-0.dtd"
   xmlns="http://www.w3.org/2000/svg"
   xmlns:svg="http://www.w3.org/2000/svg"
   xmlns:rdf="http://www.w3.org/1999/02/22-rdf-syntax-ns#"
   xmlns:cc="http://creativecommons.org/ns#"
   xmlns:dc="http://purl.org/dc/elements/1.1/"><sodipodi:namedview
     id="namedview7"
     pagecolor="#ffffff"
     bordercolor="#000000"
     borderopacity="0.25"
     inkscape:showpageshadow="2"
     inkscape:pageopacity="0.0"
     inkscape:pagecheckerboard="false"
     inkscape:deskcolor="#d1d1d1"
     inkscape:document-units="mm"
     showgrid="true"
     inkscape:zoom="2.0158804"
     inkscape:cx="49.854148"
     inkscape:cy="143.60971"
     inkscape:window-width="1920"
     inkscape:window-height="1121"
     inkscape:window-x="2391"
     inkscape:window-y="140"
     inkscape:window-maximized="1"
     inkscape:current-layer="svg5"><inkscape:grid
       type="xygrid"
       id="grid9" /></sodipodi:namedview><defs
     id="defs2" /><g
     inkscape:groupmode="layer"
     id="layer2"
     inkscape:label="Outline"
     style="display:inline;opacity:1;stroke:#000000"><path
       style="display:inline;opacity:1;fill:none;stroke:#000000;stroke-width:0.264583;stroke-opacity:1"
       d="m 12.112792,0.4582366 0.491219,0.8563368 0.382491,1.5334544 0.165874,1.1151512 0.0509,0.9266119 0.580046,0.7192577 0.0232,0.3480278 -0.556845,-0.3016242 0.116009,2.900915 0.161253,1.9827348 0.534807,3.283402 1.299305,4.501161 1.015934,2.465911 0.488888,1.030772 0.49898,0.353656 0.324826,0.462874 0.166393,0.720904 0.03398,0.557528 5.870069,14.477958 0.06961,0.324826 -0.06961,0.301625 -1.554525,0.99768 h -0.185613 l -4.640371,-7.006963 -0.06961,0.812067 h -1.322507 l -0.116009,-0.232018 -0.301622,-0.04641 -0.06961,0.278423 -1.345708,-0.0232 -0.06961,-0.440832 -0.162412,0.39443 -0.278421,3.016242 -0.208817,1.206495 5.089167,4.47233 0.224057,0.271626 0.09281,0.33725 v 1.044086 l -0.139213,0.13921 -6.055683,-2.064964 -0.0314,0.601116 -0.279831,1.051604 -0.431225,0.273034 -0.417634,-0.324827 -0.278421,-0.99768 -0.0464,-0.626451 -5.7076572,2.064967 -0.208817,-0.04641 -0.0232,-1.206494 0.116009,-0.324827 0.301625,-0.348027 4.7795812,-4.199538 -0.232018,-1.345705 -0.162412,-2.784224 -0.2320212,-0.580046 -0.09281,0.348028 -1.276104,0.0232 -0.0928,-0.301625 -0.232022,-0.0696 -0.0464,0.348027 -1.345708,0.0464 -0.116009,-0.39443 -4.454755,6.682134 -0.162415,0.116009 -1.53132083,-1.090488 -0.1856158,-0.440836 0.092808,-0.348027 5.96287763,-14.361949 -0.116009,-0.487238 0.0464,-0.60325 0.394433,-0.626449 0.533641,-0.417634 0.487241,-1.044083 1.090485,-2.412992 1.3225072,-4.454757 0.672854,-3.294663 0.116009,-2.0417641 V 5.6786541 l -0.562479,0.2891988 0.02883,-0.3356025 0.60325,-0.8816705 0.11601,-0.7424595 0.185613,-1.1832947 0.394433,-1.5313223 z"
       id="path2377" /></g><g
     inkscape:groupmode="layer"
     id="layer3"
     inkscape:label="Accent"
     style="display:inline;opacity:1;stroke:#000000;stroke-opacity:1"><path
       id="path2417"
       style="opacity:1;fill:none;stroke:#000000;stroke-width:0.264583;stroke-opacity:1"
       d="m 14.108152,33.056845 0.51044,-0.603248 0.371231,-0.139213 0.51044,0.116009 0.09281,1.11369 H 15.9411 l 0.139211,-2.157773 -0.0464,-3.341068 0.208817,-2.343385 1.067284,-1.554525 0.580046,-0.185616 m -2.398616,8.440084 -0.07125,-1.15901 -0.278906,-1.361715 m 2.198428,3.067957 -0.967964,-1.492961 -0.278906,-0.09844 m -7.6452832,0.984373 c 0,-0.08203 0.147656,-1.214057 0.147656,-1.214057 l 0.213281,-1.246872 m -2.1164,3.346862 0.885934,-1.492961 0.278905,-0.147656 m 2.116399,1.722649 -0.442968,-0.590622 -0.574214,-0.344529 -0.475782,0.0164 -0.114843,0.95156 -0.229687,0.0164 -0.180467,-0.918747 -0.164063,-2.493741 -0.04922,-4.068736 -0.918747,-1.739056 -0.442965,-0.229687 M 11.573357,5.5232807 12.45822,5.5085327 12.654858,6.1279382 c -0.07858,-0.033241 -0.12341,0.4396867 -0.240882,-0.1769732 l -0.634153,-0.014748 -0.245795,0.1966365 0.113067,-0.3736096 0.825874,0.00984 m -1.189669,0.4073514 0.255628,-0.9045284 1.068789,0.00288 0.28969,0.9004562 -0.264062,0.2707247 -0.258712,-0.2510611 -0.530919,0.00119 -0.304786,0.2556302 z m 2.079272,31.7824467 -1.081503,-0.629237 m -1.83873,0.786666 1.081501,-0.707893 v 0 m 0.06237,1.439064 c 0,-0.07866 0.09832,-2.418633 0.09832,-2.418633 l 0.2163,-0.432599 0.275291,0.37361 0.05899,2.497283 v 0 m -0.329382,4.679292 -0.221217,-0.191722 -0.08848,-0.786546 -0.196636,-0.526003 0.132729,-0.678396 0.03038,-0.635462 0.02861,-1.763505 0.294955,-0.235966 0.309702,0.240881 0.06391,1.764814 0.04425,0.673482 0.113066,0.634151 -0.250712,0.580079 -0.0049,0.73247 z" /></g><metadata
     id="metadata373"><rdf:RDF><cc:Work
         rdf:about=""><dc:creator><cc:Agent><dc:title>RexKramer1</dc:title></cc:Agent></dc:creator><dc:rights><cc:Agent><dc:title>GNU General Public License v3.0</dc:title></cc:Agent></dc:rights></cc:Work></rdf:RDF></metadata></svg>
