<?xml version="1.0" encoding="UTF-8" standalone="no"?>
<svg
   xmlns:dc="http://purl.org/dc/elements/1.1/"
   xmlns:cc="http://creativecommons.org/ns#"
   xmlns:rdf="http://www.w3.org/1999/02/22-rdf-syntax-ns#"
   xmlns:svg="http://www.w3.org/2000/svg"
   xmlns="http://www.w3.org/2000/svg"
   xmlns:sodipodi="http://sodipodi.sourceforge.net/DTD/sodipodi-0.dtd"
   xmlns:inkscape="http://www.inkscape.org/namespaces/inkscape"
   width="80mm"
   height="80mm"
   viewBox="-18 -25 80 80"
   version="1.1"
   id="svg1542"
   inkscape:version="1.0.1 (3bc2e813f5, 2020-09-07)"
   sodipodi:docname="B29.svg">
  <defs
     id="defs1536" />
  <sodipodi:namedview
     id="base"
     pagecolor="#ffffff"
     bordercolor="#666666"
     borderopacity="1.0"
     inkscape:pageopacity="0.0"
     inkscape:pageshadow="2"
     inkscape:zoom="5.6"
     inkscape:cx="150.13887"
     inkscape:cy="152.49006"
     inkscape:document-units="mm"
     inkscape:current-layer="layer8"
     inkscape:document-rotation="0"
     showgrid="false"
     inkscape:window-width="1920"
     inkscape:window-height="1121"
     inkscape:window-x="-9"
     inkscape:window-y="-9"
     inkscape:window-maximized="1"
     inkscape:snap-global="false" />
<metadata
     id="metadata1539">
    <rdf:RDF>
      <cc:Work
         rdf:about="">
        <dc:format>image/svg+xml</dc:format>
        <dc:type
           rdf:resource="http://purl.org/dc/dcmitype/StillImage" />
        <dc:title></dc:title>
        <dc:creator>
          <cc:Agent>
            <dc:title>RexKramer1</dc:title>
          </cc:Agent>
        </dc:creator>
        <dc:rights>
          <cc:Agent>
            <dc:title>GNU General Public License v3.0</dc:title>
          </cc:Agent>
        </dc:rights>
      </cc:Work>
    </rdf:RDF>
  </metadata>
  <g
     inkscape:groupmode="layer"
     id="layer8"
     inkscape:label="Outline"
     style="display:inline">
    <path
       style="fill:none;stroke:#000000;stroke-width:0.264583px;stroke-linecap:butt;stroke-linejoin:miter;stroke-opacity:1"
       d="m 21.686384,0.30710565 -0.685082,0.30710566 -0.354353,0.66145829 -0.212611,0.6614584 -0.07087,0.7323289 -0.04725,1.34654 0.02362,4.9491259 -1.901693,0.2716702 V 7.7248884 L 18.390905,7.1697357 18.071988,6.6972655 20.150857,6.5791481 18.757069,6.3783482 17.729447,6.4374069 17.705822,6.2720423 17.552269,6.1421131 17.42234,6.2247954 v 0.2362351 l -0.885882,-0.082682 -1.535528,0.1653646 1.299293,0.1771763 1.015811,-0.082682 -0.366164,0.141741 -0.141741,0.342541 -0.07087,0.2598587 -0.04725,2.0670572 -3.378162,0.4606584 -0.01181,-1.9725632 -0.2008,-0.4488466 -0.129929,-0.1299294 1.204799,-0.059059 0.850446,-0.1299295 -1.523716,-0.1535528 -0.944941,0.1181177 0.01181,-0.2362351 -0.08268,-0.1063059 -0.129929,0.011811 -0.08268,0.141741 0.04725,0.2126118 -0.992188,-0.1535531 -1.500093,0.1771764 1.34654,0.1653646 1.027623,-0.070871 -0.366164,0.1535528 -0.188989,0.3897881 -0.04725,0.4842819 0.03544,1.7953866 -10.76050908,1.464659 -0.37797618,0.27167 -0.24804687,0.484282 0.047247,0.566965 0.35435269,0.87407 0.29529389,0.318917 0.42522325,0.02362 14.5520833,0.224423 1.157552,0.212611 0.47247,0.732329 0.519718,-0.661458 2.196986,0.02362 0.141741,0.2008 0.118118,2.988374 0.437035,7.06343 -5.04362,1.157552 -0.484282,0.27167 -0.165365,0.318917 0.02362,0.377976 0.307105,0.448847 0.389789,0.129929 5.126302,0.543343 0.05906,1.441032 0.259859,0.318918 0.01181,0.496094 h 0.141741 l 0.07087,0.496094 h 0.09449 l 0.07087,-0.472472 0.188988,0.01181 -0.02362,-0.54334 0.248047,-0.18899 V 29.45852 l 0.07087,-1.322917 5.409785,-0.519718 0.34254,-0.188989 0.09449,-0.295294 0.02363,-0.425222 -0.2008,-0.354353 -0.377976,-0.248046 -5.031809,-1.263858 0.519717,-8.906064 -0.01181,-1.145741 0.118118,-0.09449 2.232422,-0.04725 0.295294,0.295294 0.2008,0.330729 0.318917,-0.448846 0.248046,-0.283483 1.322917,-0.212611 14.634765,-0.248047 0.425223,-0.2008 0.318918,-0.826823 0.03544,-0.507905 -0.0945,-0.496094 L 42.876677,11.670016 42.42783,11.504651 31.962614,10.146299 31.891744,8.031995 31.832684,7.689454 31.561012,7.3705367 32.694942,7.3351017 33.663505,7.2051725 32.26972,7.0634315 31.230283,7.1815489 V 6.9098773 l -0.08268,-0.082682 -0.14174,-0.011811 -0.07087,0.082682 V 7.2051719 L 30.013677,7.0752427 28.478149,7.2524188 29.730195,7.4414069 30.8405,7.3705369 30.427089,7.4886545 30.320782,7.8075719 30.190853,8.3627243 30.261723,9.9336879 26.836313,9.5202764 26.777253,7.276042 26.647324,6.9216892 26.458335,6.7327013 27.344216,6.7681363 28.58445,6.59096 27.202476,6.4137839 l -1.07487,0.094494 -0.01181,-0.2362351 -0.118118,-0.094494 h -0.09449 l -0.09449,0.1535531 V 6.5200898 L 24.981875,6.4374078 23.3991,6.579149 24.556652,6.7917605 25.761451,6.6854546 25.277169,6.7917605 25.206299,6.9453133 25.111809,7.2524189 25.099999,9.2722292 23.186494,8.9651237 23.139244,3.6616453 23.032939,2.4095991 22.832139,1.4174116 22.30061,0.60240044 Z"
       id="path3262" />
  </g>
  <g
     inkscape:groupmode="layer"
     id="layer9"
     inkscape:label="Accent">
    <path
       id="path3293"
       style="fill:none;stroke:#000000;stroke-width:0.264583px;stroke-linecap:butt;stroke-linejoin:miter;stroke-opacity:1"
       d="m 21.114292,28.080004 0.167044,-3.15712 -0.06682,-0.200453 -0.200451,0.150339 m 1.336349,3.274052 -0.167044,-3.240643 0.116931,-0.217156 0.300678,0.133634 m -1.085782,2.973372 -0.05011,0.851924 0.0167,0.902034 0.217157,0.100226 0.267269,-0.100225 0.03341,-0.835219 -0.06682,-0.91874 z m 0.217156,-8.218536 -0.200452,8.201833 h 0.417609 z m 8.569331,-9.7219293 0.484425,1.1693043 0.300678,0.719474 0.367496,-0.719474 0.501129,-0.935443 m -6.381059,4.543581 0.300678,-1.77066 0.150339,0.01671 0.400904,1.687138 m -1.252826,-5.2618736 0.300679,0.6013564 0.451017,1.8040692 0.400904,-1.26953 0.534539,-0.952148 m -9.772042,4.994599 0.367496,-1.637025 0.133635,-0.01671 0.467721,1.753956 m -1.319643,-5.1449329 0.451017,1.0022609 0.3842,1.1526 0.334087,-1.1526 0.534539,-1.2361218 m -6.798668,0.8352178 0.684878,1.453278 0.150339,0.23386 0.08352,-0.200452 0.751695,-1.6203212 m 9.855566,-1.0189652 -0.08352,6.0302684 m -2.722808,-6.0302684 0.05011,6.0636774 M 21.06418,1.353052 21.247927,0.8519216 22.06644,0.86862607 22.317005,1.302939 M 20.947249,2.1047475 20.930543,1.787365 21.064178,1.353052 h 1.26953 l 0.133635,0.4009043 0.05011,0.5011303 m -1.987813,0.534539 c 0.100227,0 0.334087,-0.066817 0.334087,-0.066817 V 2.2216779 l 0.417609,-0.050113 0.0167,-0.3674956 h 0.851921 l 0.06682,0.4009043 0.350791,0.066817 0.08352,0.4844259 0.400904,-0.100226 L 22.751318,1.4365737 22.266892,0.75169553 21.648831,0.43431298 21.014066,0.71828686 20.663275,1.4866867 20.512936,1.9377041 Z" />
  </g>
</svg>
