<?xml version="1.0" encoding="UTF-8" standalone="no"?>
<svg
   xmlns:dc="http://purl.org/dc/elements/1.1/"
   xmlns:cc="http://creativecommons.org/ns#"
   xmlns:rdf="http://www.w3.org/1999/02/22-rdf-syntax-ns#"
   xmlns:svg="http://www.w3.org/2000/svg"
   xmlns="http://www.w3.org/2000/svg"
   xmlns:sodipodi="http://sodipodi.sourceforge.net/DTD/sodipodi-0.dtd"
   xmlns:inkscape="http://www.inkscape.org/namespaces/inkscape"
   width="80mm"
   height="80mm"
   viewBox="-26 -21 80 80"
   version="1.1"
   id="svg1542"
   inkscape:version="1.0.1 (3bc2e813f5, 2020-09-07)"
   sodipodi:docname="B712.svg">
  <defs
     id="defs1536" />
  <sodipodi:namedview
     id="base"
     pagecolor="#ffffff"
     bordercolor="#666666"
     borderopacity="1.0"
     inkscape:pageopacity="0.0"
     inkscape:pageshadow="2"
     inkscape:zoom="3.959798"
     inkscape:cx="146.60622"
     inkscape:cy="160.47447"
     inkscape:document-units="mm"
     inkscape:current-layer="layer2"
     inkscape:document-rotation="0"
     showgrid="false"
     inkscape:window-width="1920"
     inkscape:window-height="1017"
     inkscape:window-x="-8"
     inkscape:window-y="-8"
     inkscape:window-maximized="1"
     inkscape:snap-global="false" />
<metadata
     id="metadata1539">
    <rdf:RDF>
      <cc:Work
         rdf:about="">
        <dc:format>image/svg+xml</dc:format>
        <dc:type
           rdf:resource="http://purl.org/dc/dcmitype/StillImage" />
        <dc:title></dc:title>
        <dc:creator>
          <cc:Agent>
            <dc:title>RexKramer1</dc:title>
          </cc:Agent>
        </dc:creator>
        <dc:rights>
          <cc:Agent>
            <dc:title>GNU General Public License v3.0</dc:title>
          </cc:Agent>
        </dc:rights>
      </cc:Work>
    </rdf:RDF>
  </metadata>
  <g
     inkscape:groupmode="layer"
     id="layer2"
     inkscape:label="Outline"
     style="display:inline">
    <path
       style="fill:none;stroke:#000000;stroke-width:0.264583px;stroke-linecap:butt;stroke-linejoin:miter;stroke-opacity:1"
       d="m 14.68312,0.06681738 -0.801809,0.70158251 -0.801809,2.77292121 -0.183748,1.5702084 -0.0167,10.7910075 -12.41132832,6.598216 -0.30067823,0.88533 0.050113,0.567948 0.56794774,-0.267269 12.11064981,-2.722809 0.03341,3.374278 H 12.778829 L 12.728719,23.402788 12.57838,23.068701 12.428041,22.868249 H 10.92465 l -0.283974,0.350791 -0.06682,0.684878 0.0167,1.603617 0.167044,1.586912 0.434313,1.870887 1.202712,-0.03341 1.219418,1.369759 0.584652,1.820772 -5.7295906,3.741772 0.066817,1.286235 5.9300426,-1.820773 0.167044,0.768401 h 0.150339 l 0.150339,-0.768401 5.913338,1.753958 -0.06682,-1.286235 -5.545843,-3.725069 0.534539,-1.804069 1.169305,-1.302941 1.219417,0.0167 0.3842,-1.870887 0.183747,-1.670435 -0.06682,-1.937704 -0.06682,-0.434313 -0.133635,-0.200452 h -1.486687 l -0.183748,0.183748 -0.183747,0.467722 -0.03341,0.801808 -0.167043,4e-6 -0.0167,-3.390982 12.361215,2.789626 0.484426,0.267269 0.01669,-0.684878 L 28.831693,22.350405 16.386963,15.885832 16.45378,5.1950514 16.320145,3.5580256 15.484928,0.80180856 Z"
       id="path1414"
       sodipodi:nodetypes="cccccccccccccccccccccccccccccccccccccccccccccccccccccccc" />
  </g>
  <g
     inkscape:groupmode="layer"
     id="layer3"
     inkscape:label="Accent">
    <path
       id="path1470"
       style="fill:none;stroke:#000000;stroke-width:0.264583px;stroke-linecap:butt;stroke-linejoin:miter;stroke-opacity:1"
       d="m 16.371094,24.391276 -0.118121,3.29548 -0.460658,2.586773 m -2.834819,-5.882253 0.118118,3.319103 0.54334,2.563151 m 0.826823,1.807199 0.188988,3.23642 h 0.153553 l 0.106304,-3.23642 m -0.661456,-0.03544 0.212611,0.0118 -0.02362,-3.401785 0.283482,-2.031622 0.236235,1.913504 -0.04725,3.508092 0.318918,0.02363 m 1.361304,-7.748507 0.0443,2.740329 0.366165,1.901692 m -4.193179,-4.535715 -0.07088,2.622209 -0.354353,1.830824 m 4.020064,-13.240301 0.0042,5.554195 m -3.504537,-5.436756 0.02362,5.44522 m 2.319616,-18.135439 -0.01746,0.00423 -0.03352,-0.095278 0.01284,0.013875 z m -0.42983,-0.8414632 v 0.1336347 l -0.03687,-0.00194 V 2.2251998 Z m 0.517834,0.3090304 -0.04176,0.025057 -0.133634,-0.1085783 -5e-6,-0.058465 z m 0.325735,0.4343128 -0.09187,0.025057 -0.07517,-0.1252824 0.07517,-0.050113 z m 0.225508,0.5679478 c -0.05011,0 -0.11693,-0.00835 -0.11693,-0.00835 l -0.07517,-0.2004522 0.100226,-0.016704 z m -1.707694,-0.4649975 0.01746,0.00423 0.03352,-0.095278 -0.01284,0.013875 z m 0.42983,-0.8414632 v 0.1336347 l 0.03687,-0.00194 V 2.2300301 Z m -0.517834,0.3090304 0.04176,0.025057 0.133634,-0.1085783 5e-6,-0.058465 z m -0.325735,0.4343128 0.09187,0.025057 0.07517,-0.1252825 -0.07517,-0.050113 z m -0.225508,0.5679478 c 0.05011,0 0.11693,-0.00835 0.11693,-0.00835 l 0.07517,-0.2004522 -0.100226,-0.016704 z" />
  </g>
</svg>
