<?xml version="1.0" encoding="UTF-8" standalone="no"?>
<svg
   xmlns:dc="http://purl.org/dc/elements/1.1/"
   xmlns:cc="http://creativecommons.org/ns#"
   xmlns:rdf="http://www.w3.org/1999/02/22-rdf-syntax-ns#"
   xmlns:svg="http://www.w3.org/2000/svg"
   xmlns="http://www.w3.org/2000/svg"
   xmlns:sodipodi="http://sodipodi.sourceforge.net/DTD/sodipodi-0.dtd"
   xmlns:inkscape="http://www.inkscape.org/namespaces/inkscape"
   width="80mm"
   height="80mm"
   viewBox="-24 -17 80 80"
   version="1.1"
   id="svg8"
   inkscape:version="1.0.1 (3bc2e813f5, 2020-09-07)"
   sodipodi:docname="B722.svg">
  <title
     id="title139">Boeing 727-200</title>
  <defs
     id="defs2">
    <pattern
       id="EMFhbasepattern"
       patternUnits="userSpaceOnUse"
       width="6"
       height="6"
       x="0"
       y="0" />
  </defs>
  <sodipodi:namedview
     id="base"
     pagecolor="#ffffff"
     bordercolor="#666666"
     borderopacity="1.0"
     inkscape:pageopacity="0.0"
     inkscape:pageshadow="2"
     inkscape:zoom="1.8596309"
     inkscape:cx="243.82132"
     inkscape:cy="157.92258"
     inkscape:document-units="mm"
     inkscape:current-layer="layer2"
     inkscape:document-rotation="0"
     showgrid="false"
     inkscape:window-width="1920"
     inkscape:window-height="1001"
     inkscape:window-x="1911"
     inkscape:window-y="112"
     inkscape:window-maximized="1" />
  <metadata
     id="metadata5">
    <rdf:RDF>
      <cc:Work
         rdf:about="">
        <dc:format>image/svg+xml</dc:format>
        <dc:type
           rdf:resource="http://purl.org/dc/dcmitype/StillImage" />
        <dc:title>Boeing 727-200</dc:title>
        <dc:creator>
          <cc:Agent>
            <dc:title>RexKramer1</dc:title>
          </cc:Agent>
        </dc:creator>
        <dc:rights>
          <cc:Agent>
            <dc:title>GNU General Public License v3.0</dc:title>
          </cc:Agent>
        </dc:rights>
      </cc:Work>
    </rdf:RDF>
  </metadata>
  <g
     inkscape:groupmode="layer"
     id="layer2"
     inkscape:label="Outline">
    <path
       style="fill:none;stroke:#000000;stroke-width:0.264583px;stroke-linecap:butt;stroke-linejoin:miter;stroke-opacity:1"
       d="M 16.53974,0.26677001 15.970631,0.80030999 15.330383,2.7921926 14.903551,5.2642613 14.67235,7.0249433 V 17.517897 l -4.7485061,4.428382 -9.51479656,6.90045 -0.28455467,0.355693 -0.106708,0.33791 v 2.151943 L 6.0290021,28.935653 6.1357099,29.113498 H 6.242418 l 0.053354,-0.337907 3.0056087,-1.36942 0.088923,0.195633 h 0.1422774 l 0.088923,-0.355695 1.1382179,-0.533541 0.53354,-0.08892 0.03557,0.320122 h 0.2312 l 0.115601,-0.400153 2.071913,-0.435725 0.115601,0.346801 h 0.248985 l 0.05335,-0.462402 0.524648,-0.04446 0.01778,5.459892 -0.346801,-0.02668 -0.01778,-0.675817 -0.160062,-0.320122 -1.058188,0.0089 -0.213416,0.275664 -0.124493,1.538372 0.01779,1.200465 0.604678,2.516532 0.05335,0.480187 0.880341,-0.03557 -0.02668,-0.515755 0.142277,-0.204523 0.880341,0.675817 0.364586,1.956314 -0.160062,0.489077 0.168955,0.880343 0.266769,0.426831 -5.193122,4.624011 0.0089,2.000777 5.477677,-2.071915 0.01778,0.942589 0.222308,0.275661 h 0.222309 l 0.186739,-0.266769 -0.0089,-1.049295 5.451,2.125268 -0.02668,-2.000776 -5.193122,-4.570659 0.38237,-0.453509 0.08003,-0.898125 -0.186739,-0.444617 0.400155,-1.991883 0.95148,-0.68471 0.1156,0.204523 v 0.551325 l 0.862556,-0.0089 V 35.92503 l 0.284555,-1.102648 0.329016,-1.70733 -0.0089,-1.253818 -0.115601,-1.138219 -0.222308,-0.329017 -1.031511,0.0089 -0.195631,0.177847 -0.0089,0.693603 -0.284555,0.0089 0.02668,-5.308724 0.373478,0.08003 0.115601,0.311232 0.248985,0.04446 0.03557,-0.311232 2.214191,0.480185 0.02668,0.329018 0.275663,0.03557 0.08003,-0.30234 0.462401,0.07114 1.138219,0.53354 0.06225,0.320125 0.213416,0.04446 0.08003,-0.204523 2.916686,1.351635 0.06225,0.33791 0.186738,0.04446 0.09782,-0.204522 6.05568,2.792192 -0.04446,-2.240867 L 33.008342,29.08682 32.768249,28.828941 23.217882,21.937386 18.496053,17.428973 18.513838,7.1494361 18.318207,5.2464766 17.909159,3.0767472 17.144419,0.81809467 Z"
       id="path32" />
  </g>
  <g
     inkscape:groupmode="layer"
     id="layer4"
     inkscape:label="Accent">
    <path
       id="path90"
       style="fill:none;stroke:#000000;stroke-width:0.264583px;stroke-linecap:butt;stroke-linejoin:miter;stroke-opacity:1"
       d="m 16.914261,44.58071 -0.03773,-5.00511 -0.08803,-0.364697 0.113181,-1.886349 0.352118,-3.634364 -0.0503,-3.15649 -0.163484,-0.188635 -1.031204,0.02516 m 0.06288,-0.03774 -0.213787,0.238937 0.0503,3.143914 0.352118,3.508608 0.113181,1.936652 -0.113181,0.515602 0.02515,4.86678 m 2.489985,-13.217017 -0.03773,1.949228 0.07545,1.546804 -0.03773,0.779693 m -0.326957,-4.300876 -0.03773,1.496504 -0.603632,3.533759 m -3.106184,-4.891931 0.03773,1.30787 0.616207,3.596637 m -0.99348,-4.979961 0.07545,1.886349 -0.02515,1.534229 -0.100604,1.01863 m 4.187696,-18.410763 0.02515,8.664628 m -3.860724,-8.551447 0.02515,8.526297 M 17.120105,2.1340449 c -0.05659,0.081742 -0.132044,0.2892402 -0.132044,0.2892402 m -0.140832,0.290957 -0.09432,-0.050302 4e-6,0.069166 0.09432,0.012576 z m 0.792267,0.37727 -0.144624,-0.4590117 -0.333255,-0.5344654 -0.440149,-0.1509079 -0.0063,0.3709819 0.282953,0.1131809 0.276665,0.2326496 0.232649,0.414997 z M 16.052828,2.131575 c 0.05659,0.081742 0.132044,0.2892402 0.132044,0.2892402 m 0.138333,0.2955278 0.09432,-0.050302 -4e-6,0.069166 -0.09432,0.012576 z m -0.792267,0.3772699 0.144624,-0.4590116 0.333255,-0.5344654 0.440149,-0.1509079 0.0063,0.3709819 -0.282953,0.1131809 -0.276665,0.2326496 -0.232649,0.4149969 z" />
  </g>
</svg>
