<?xml version="1.0" encoding="UTF-8" standalone="no"?>
<svg
   xmlns:dc="http://purl.org/dc/elements/1.1/"
   xmlns:cc="http://creativecommons.org/ns#"
   xmlns:rdf="http://www.w3.org/1999/02/22-rdf-syntax-ns#"
   xmlns:svg="http://www.w3.org/2000/svg"
   xmlns="http://www.w3.org/2000/svg"
   xmlns:sodipodi="http://sodipodi.sourceforge.net/DTD/sodipodi-0.dtd"
   xmlns:inkscape="http://www.inkscape.org/namespaces/inkscape"
   width="80mm"
   height="80mm"
   viewBox="-26 -22 80 80"
   version="1.1"
   id="svg1542"
   inkscape:version="1.0.1 (3bc2e813f5, 2020-09-07)"
   sodipodi:docname="B737-400.svg">
  <defs
     id="defs1536" />
  <sodipodi:namedview
     id="base"
     pagecolor="#ffffff"
     bordercolor="#666666"
     borderopacity="1.0"
     inkscape:pageopacity="0.0"
     inkscape:pageshadow="2"
     inkscape:zoom="3.45"
     inkscape:cx="133.41842"
     inkscape:cy="150.16497"
     inkscape:document-units="mm"
     inkscape:current-layer="layer2"
     inkscape:document-rotation="0"
     showgrid="false"
     inkscape:window-width="1920"
     inkscape:window-height="1017"
     inkscape:window-x="-8"
     inkscape:window-y="-8"
     inkscape:window-maximized="1" />
<metadata
     id="metadata1539">
    <rdf:RDF>
      <cc:Work
         rdf:about="">
        <dc:format>image/svg+xml</dc:format>
        <dc:type
           rdf:resource="http://purl.org/dc/dcmitype/StillImage" />
        <dc:title></dc:title>
        <dc:creator>
          <cc:Agent>
            <dc:title>RexKramer1</dc:title>
          </cc:Agent>
        </dc:creator>
        <dc:rights>
          <cc:Agent>
            <dc:title>GNU General Public License v3.0</dc:title>
          </cc:Agent>
        </dc:rights>
      </cc:Work>
    </rdf:RDF>
  </metadata>
  <g
     inkscape:groupmode="layer"
     id="layer2"
     inkscape:label="Outline">
    <path
       style="fill:none;stroke:#000000;stroke-width:0.264583px;stroke-linecap:butt;stroke-linejoin:miter;stroke-opacity:1"
       d="M 14.499372,0.13363476 13.937504,0.75826699 13.382719,2.3977864 c 0,0 -0.407098,1.3814633 -0.519717,2.0906808 -0.164666,1.0369848 -0.224423,3.1419271 -0.224423,3.1419271 l -0.02362,6.2602307 -1.795387,1.228422 0.07087,-1.086681 -0.09449,-1.14574 -0.444446,-0.222397 c -1.2357328,-0.0039 -0.9847763,0.02554 -1.6107995,0.0216 l -0.1771761,0.791387 -0.1299294,0.720517 0.047247,1.07487 0.2007997,1.145741 0.1063059,0.08268 -8.12648938,4.098678 -0.4252232,0.377976 -0.21261161,0.472471 0.02362351,1.122116 9.01236988,-2.49228 3.5435272,-0.01181 0.03543,5.457031 0.106306,2.338727 0.188988,1.630021 0.248047,1.07487 -4.8900675,3.082869 -0.1417409,0.200801 0.023625,2.126114 5.9649364,-1.842632 0.318917,0.826823 0.177177,0.03544 0.330729,-0.885884 6.035807,1.854446 0.01181,-2.078868 -0.188988,-0.307107 -4.866443,-3.071056 0.354352,-1.795386 0.2008,-1.783577 0.04725,-1.582773 v -5.279856 l 3.460845,0.01181 9.012368,2.42141 0.01183,-1.275669 -0.496094,-0.637835 -8.185547,-4.134115 0.118118,-0.106306 0.153552,-1.192987 -0.02362,-1.452846 -0.224424,-1.063058 h -1.511904 l -0.460659,0.141741 -0.2008,0.767764 0.01181,1.464658 -1.665466,-1.181178 c 0,0 0.02867,-3.788065 -0.01181,-5.6814549 -0.01449,-0.6776131 -0.12993,-2.374163 -0.12993,-2.374163 L 16.217553,4.5829608 15.756895,2.4214094 15.225366,0.76776359 Z"
       id="path1999"
       sodipodi:nodetypes="cccscccccccccccccccccccccccccccccccccccccccccccccccccccsccccc" />
  </g>
</svg>
