<?xml version="1.0" encoding="UTF-8" standalone="no"?>
<svg
   width="80mm"
   height="80mm"
   viewBox="-21 -16 80 80"
   version="1.1"
   id="svg1542"
   inkscape:version="1.2.1 (9c6d41e410, 2022-07-14)"
   sodipodi:docname="B757-200(WL) mit Bitmap.svg"
   xmlns:inkscape="http://www.inkscape.org/namespaces/inkscape"
   xmlns:sodipodi="http://sodipodi.sourceforge.net/DTD/sodipodi-0.dtd"
   xmlns="http://www.w3.org/2000/svg"
   xmlns:svg="http://www.w3.org/2000/svg"
   xmlns:rdf="http://www.w3.org/1999/02/22-rdf-syntax-ns#"
   xmlns:cc="http://creativecommons.org/ns#"
   xmlns:dc="http://purl.org/dc/elements/1.1/">
  <title
     id="title7169">Boeing 757-200</title>
  <defs
     id="defs1536" />
  <sodipodi:namedview
     id="base"
     pagecolor="#ffffff"
     bordercolor="#666666"
     borderopacity="1.0"
     inkscape:pageopacity="0.0"
     inkscape:pageshadow="2"
     inkscape:zoom="3.959798"
     inkscape:cx="120.20815"
     inkscape:cy="135.61298"
     inkscape:document-units="mm"
     inkscape:current-layer="layer3"
     inkscape:document-rotation="0"
     showgrid="false"
     inkscape:snap-global="false"
     inkscape:window-width="1920"
     inkscape:window-height="1121"
     inkscape:window-x="2391"
     inkscape:window-y="140"
     inkscape:window-maximized="1"
     inkscape:showpageshadow="2"
     inkscape:pagecheckerboard="0"
     inkscape:deskcolor="#d1d1d1" />
  <metadata
     id="metadata1539">
    <rdf:RDF>
      <cc:Work
         rdf:about="">
        <dc:format>image/svg+xml</dc:format>
        <dc:type
           rdf:resource="http://purl.org/dc/dcmitype/StillImage" />
        <dc:creator>
          <cc:Agent>
            <dc:title>RexKramer1</dc:title>
          </cc:Agent>
        </dc:creator>
        <dc:rights>
          <cc:Agent>
            <dc:title>GNU General Public License v3.0</dc:title>
          </cc:Agent>
        </dc:rights>
        <dc:title>Boeing 757-200</dc:title>
      </cc:Work>
    </rdf:RDF>
  </metadata>
  <g
     inkscape:groupmode="layer"
     id="layer3"
     inkscape:label="Pfade">
    <path
       id="path2016"
       style="fill:none;stroke:#000000;stroke-width:0.264583px;stroke-linecap:butt;stroke-linejoin:miter;stroke-opacity:1"
       d="m 20.009114,0.39569382 0.206706,-0.0118118 m 0.113374,45.30249398 0.651464,-1.987809 6.49799,1.703842 -0.03341,-1.687136 -5.61266,-3.892114 -0.250565,-0.618061 0.233861,-1.486686 0.11693,-1.252826 V 25.758101 l 3.591435,0.0167 0.11693,1.002262 0.116931,0.01669 0.133634,-1.018965 1.503392,-0.03341 1.319641,0.350791 0.133636,0.952149 0.200454,0.06682 0.0167,-0.935445 2.889851,0.701585 0.200453,1.035669 c 0,0 0.167042,0.167042 0.183748,0.0167 0.01669,-0.150339 0.08352,-0.918739 0.08352,-0.918739 l 6.247426,1.553504 0.668174,0.367495 0.601355,0.634767 -0.03341,-0.384201 -0.634764,-1.603616 -0.283975,-0.400904 -0.400904,-0.317384 -11.425772,-6.130495 -0.01669,-0.684879 0.23386,-0.11693 0.05011,-0.935443 -0.0167,-1.403165 -0.11693,-0.467722 -0.100227,-0.217156 -1.870886,-0.01671 -0.100226,0.100226 -0.05011,0.718287 v 1.202713 l 0.150339,0.818513 c 0,0 -2.906556,-1.586913 -2.906556,-1.653731 0,-0.06682 -0.334087,-0.467721 -0.334087,-0.467721 l -0.167054,-0.534521 -0.0167,-11.4257722 -0.08352,-1.7706607 -0.7684,-2.4054257 -0.905921,-1.10838667 m -0.02953,0.005906 -0.968852,0.93544327 -0.734991,2.4054259 -0.167044,1.937704 V 17.138658 l -0.183748,0.551244 -0.668174,0.684878 -2.555764,1.38646 0.200452,-0.918738 -0.01671,-1.135896 -0.183748,-0.868626 -1.904295,0.03341 -0.08352,0.701582 -0.08352,0.835218 v 0.684878 l 0.08352,0.835217 0.167044,0.133635 0.0167,0.651469 L 1.4699824,26.994223 0.918739,27.562169 0.26726951,29.266012 0.25056518,29.600099 0.86862596,28.98204 1.2695302,28.631247 7.7341118,27.010926 7.8510423,27.946371 H 7.984677 l 0.2505651,-1.052375 2.8230349,-0.718287 0.06682,0.885332 h 0.183748 l 0.183748,-0.935445 1.319643,-0.367495 1.503391,0.0167 0.06682,0.968853 0.167044,0.0167 0.167043,-0.968852 3.541321,-0.03341 v 10.707486 l 0.15034,1.252826 0.167043,1.453277 -0.200452,0.65147 -5.696182,3.925523 v 1.653728 l 6.514695,-1.687137 0.668174,1.937702 0.200452,0.367496 0.267269,-0.334087" />
  </g>
  <g
     inkscape:groupmode="layer"
     id="layer2"
     inkscape:label="Accent">
    <path
       id="path6398"
       style="fill:none;stroke:#000000;stroke-width:0.264999"
       d="m 21.935731,25.766368 -0.02363,-8.728887 m -3.638013,8.811569 c 0.0118,-0.04725 -0.01182,-8.728888 -0.01182,-8.728888 m 1.83083,18.119234 -0.4016,3.366351 0.05906,2.728516 0.236234,4.039619 0.08268,0.295296 0.165364,-0.448847 0.259861,-3.956939 0.02363,-2.763951 z m 0.885881,8.409971 0.259861,-1.015812 -0.07087,-1.299292 0.401601,-2.137929 m -2.315106,4.523902 c 0,-0.129929 -0.295294,-1.157552 -0.295294,-1.157552 l 0.02363,-1.287481 -0.366164,-2.09068 m 7.358715,-19.064173 0.714611,0.34254 m -1.364258,-0.767765 0.661458,0.425225 0.02363,-1.582777 0.259858,-0.401598 0.330729,0.307105 0.06496,2.025717 0.502,0.265762 M 13.44436,20.44888 14.279578,20.098091 m -1.286235,0.634764 0.501129,-0.267269 0.08352,-2.021226 0.300681,-0.300678 0.35079,0.300678 0.0167,1.653729 0.567948,-0.300676 M 20.877794,2.1450949 c -0.08352,0.2463892 -0.0877,0.2505651 -0.0877,0.2505651 m -0.693228,-0.8728019 -0.01669,0.5846522 m -0.893699,0.00835 0.238038,0.4134326 M 18.639411,3.8030013 C 18.664468,3.7695926 19.031963,2.87591 19.031963,2.87591 l 0.405082,-0.4343129 0.643117,-0.4009043 0.722462,0.4176087 0.375848,0.434313 0.275622,0.5930043 0.05846,0.2589171 L 21.62948,3.6944229 21.345507,2.8257971 21.220225,2.2745536 20.101035,1.4978015 19.006901,2.3079623 18.823153,2.6838101 18.69787,3.2684622 18.555884,3.8531143" />
  </g>
</svg>
