<?xml version="1.0" encoding="UTF-8" standalone="no"?>
<svg
   xmlns:dc="http://purl.org/dc/elements/1.1/"
   xmlns:cc="http://creativecommons.org/ns#"
   xmlns:rdf="http://www.w3.org/1999/02/22-rdf-syntax-ns#"
   xmlns:svg="http://www.w3.org/2000/svg"
   xmlns="http://www.w3.org/2000/svg"
   xmlns:sodipodi="http://sodipodi.sourceforge.net/DTD/sodipodi-0.dtd"
   xmlns:inkscape="http://www.inkscape.org/namespaces/inkscape"
   width="80mm"
   height="80mm"
   viewBox="-21 -16 80 80"
   version="1.1"
   id="svg1542"
   inkscape:version="1.0.1 (3bc2e813f5, 2020-09-07)"
   sodipodi:docname="B757-200(WL).svg">
  <defs
     id="defs1536" />
  <sodipodi:namedview
     id="base"
     pagecolor="#ffffff"
     bordercolor="#666666"
     borderopacity="1.0"
     inkscape:pageopacity="0.0"
     inkscape:pageshadow="2"
     inkscape:zoom="1.979899"
     inkscape:cx="134.11965"
     inkscape:cy="139.22944"
     inkscape:document-units="mm"
     inkscape:current-layer="layer3"
     inkscape:document-rotation="0"
     showgrid="false"
     inkscape:snap-global="false"
     inkscape:window-width="1920"
     inkscape:window-height="1017"
     inkscape:window-x="-8"
     inkscape:window-y="-8"
     inkscape:window-maximized="1" />
<metadata
     id="metadata1539">
    <rdf:RDF>
      <cc:Work
         rdf:about="">
        <dc:format>image/svg+xml</dc:format>
        <dc:type
           rdf:resource="http://purl.org/dc/dcmitype/StillImage" />
        <dc:title></dc:title>
        <dc:creator>
          <cc:Agent>
            <dc:title>RexKramer1</dc:title>
          </cc:Agent>
        </dc:creator>
        <dc:rights>
          <cc:Agent>
            <dc:title>GNU General Public License v3.0</dc:title>
          </cc:Agent>
        </dc:rights>
      </cc:Work>
    </rdf:RDF>
  </metadata>
  <g
     inkscape:groupmode="layer"
     id="layer3"
     inkscape:label="Outline">
    <path
       id="path2016"
       style="fill:none;stroke:#000000;stroke-width:0.264583px;stroke-linecap:butt;stroke-linejoin:miter;stroke-opacity:1"
       d="m 20.009114,0.39569382 0.206706,-0.0118118 m 0.113374,45.30249398 0.651464,-1.987809 6.49799,1.703842 -0.03341,-1.687136 -5.61266,-3.892114 -0.250565,-0.618061 0.233861,-1.486686 0.11693,-1.252826 V 25.758101 l 3.591435,0.0167 0.11693,1.002262 0.116931,0.01669 0.133634,-1.018965 1.503392,-0.03341 1.319641,0.350791 0.133636,0.952149 0.200454,0.06682 0.0167,-0.935445 2.889851,0.701585 0.200453,1.035669 c 0,0 0.167042,0.167042 0.183748,0.0167 0.01669,-0.150339 0.08352,-0.918739 0.08352,-0.918739 l 6.247426,1.553504 0.668174,0.367495 0.601355,0.634767 -0.03341,-0.384201 -0.634764,-1.603616 -0.283975,-0.400904 -0.400904,-0.317384 -11.425772,-6.130495 -0.01669,-0.684879 0.23386,-0.11693 0.05011,-0.935443 -0.0167,-1.403165 -0.11693,-0.467722 -0.100227,-0.217156 -1.870886,-0.01671 -0.100226,0.100226 -0.05011,0.718287 v 1.202713 l 0.150339,0.818513 c 0,0 -2.906556,-1.586913 -2.906556,-1.653731 0,-0.06682 -0.334087,-0.467721 -0.334087,-0.467721 l -0.167054,-0.534521 -0.0167,-11.4257722 -0.08352,-1.7706607 -0.7684,-2.4054257 -0.905921,-1.10838667 m -0.02953,0.005906 -0.968852,0.93544327 -0.734991,2.4054259 -0.167044,1.937704 V 17.138658 l -0.183748,0.551244 -0.668174,0.684878 -2.555764,1.38646 0.200452,-0.918738 -0.01671,-1.135896 -0.183748,-0.868626 -1.904295,0.03341 -0.08352,0.701582 -0.08352,0.835218 v 0.684878 l 0.08352,0.835217 0.167044,0.133635 0.0167,0.651469 L 1.4699824,26.994223 0.918739,27.562169 0.26726951,29.266012 0.25056518,29.600099 0.86862596,28.98204 1.2695302,28.631247 7.7341118,27.010926 7.8510423,27.946371 H 7.984677 l 0.2505651,-1.052375 2.8230349,-0.718287 0.06682,0.885332 h 0.183748 l 0.183748,-0.935445 1.319643,-0.367495 1.503391,0.0167 0.06682,0.968853 0.167044,0.0167 0.167043,-0.968852 3.541321,-0.03341 v 10.707486 l 0.15034,1.252826 0.167043,1.453277 -0.200452,0.65147 -5.696182,3.925523 v 1.653728 l 6.514695,-1.687137 0.668174,1.937702 0.200452,0.367496 0.267269,-0.334087" />
  </g>
</svg>
