<?xml version="1.0" encoding="UTF-8" standalone="no"?>
<svg
   width="80mm"
   height="80mm"
   viewBox="-21 -13 80 80"
   version="1.1"
   id="svg1542"
   inkscape:version="1.2.1 (9c6d41e410, 2022-07-14)"
   sodipodi:docname="B757-300(WL) mit Bitmap.svg"
   xmlns:inkscape="http://www.inkscape.org/namespaces/inkscape"
   xmlns:sodipodi="http://sodipodi.sourceforge.net/DTD/sodipodi-0.dtd"
   xmlns="http://www.w3.org/2000/svg"
   xmlns:svg="http://www.w3.org/2000/svg"
   xmlns:rdf="http://www.w3.org/1999/02/22-rdf-syntax-ns#"
   xmlns:cc="http://creativecommons.org/ns#"
   xmlns:dc="http://purl.org/dc/elements/1.1/">
  <title
     id="title3851">Boeing 757-300</title>
  <defs
     id="defs1536" />
  <sodipodi:namedview
     id="base"
     pagecolor="#ffffff"
     bordercolor="#666666"
     borderopacity="1.0"
     inkscape:pageopacity="0.0"
     inkscape:pageshadow="2"
     inkscape:zoom="2.018219"
     inkscape:cx="151.37108"
     inkscape:cy="151.37108"
     inkscape:document-units="mm"
     inkscape:current-layer="layer4"
     inkscape:document-rotation="0"
     showgrid="false"
     inkscape:snap-global="false"
     inkscape:window-width="1920"
     inkscape:window-height="1121"
     inkscape:window-x="2391"
     inkscape:window-y="140"
     inkscape:window-maximized="1"
     inkscape:showpageshadow="2"
     inkscape:pagecheckerboard="0"
     inkscape:deskcolor="#d1d1d1">
    <inkscape:grid
       type="xygrid"
       id="grid2105" />
  </sodipodi:namedview>
  <metadata
     id="metadata1539">
    <rdf:RDF>
      <cc:Work
         rdf:about="">
        <dc:format>image/svg+xml</dc:format>
        <dc:type
           rdf:resource="http://purl.org/dc/dcmitype/StillImage" />
        <dc:creator>
          <cc:Agent>
            <dc:title>RexKramer1</dc:title>
          </cc:Agent>
        </dc:creator>
        <dc:rights>
          <cc:Agent>
            <dc:title>GNU General Public License v3.0</dc:title>
          </cc:Agent>
        </dc:rights>
        <dc:title>Boeing 757-300</dc:title>
      </cc:Work>
    </rdf:RDF>
  </metadata>
  <g
     inkscape:groupmode="layer"
     id="layer4"
     inkscape:label="Pfade">
    <path
       style="fill:none;stroke:#000000;stroke-width:0.264583px;stroke-linecap:butt;stroke-linejoin:miter;stroke-opacity:1"
       d="m 19.410449,0.40090428 -1.00226,0.86862592 -0.801809,2.2383823 -0.200452,1.8040693 0.06682,17.4059272 -3.507912,2.004522 -0.03341,-1.971113 v -0.7684 l -0.233861,-0.267269 -1.937704,0.100226 -0.228129,0.217648 -0.0253,2.797648 0.186614,1.093973 -11.35895509,6.214015 -1.1860686,0.88009 -0.82926941,1.810209 -0.00122,0.444446 0.71990554,-0.640036 0.69628197,-0.309306 0.8676425,-0.314515 6.08038179,-1.536801 0.066817,0.501131 h 0.3674957 l 0.1336347,-0.701582 2.8230339,-0.684879 0.100226,0.618061 0.283974,-0.05011 0.150339,-0.668173 1.286235,-0.334087 h 1.586913 l 0.11693,0.718285 0.267269,-0.03341 0.08352,-0.618062 3.4578,-0.05011 -0.01902,13.1474 0.283482,3.354538 -5.905877,3.874257 0.09449,1.984375 6.520089,-1.653646 0.803199,2.220611 0.425223,0.04725 0.472471,-2.267857 6.661831,1.748139 0.04725,-1.984375 -5.71689,-4.063243 0.377976,-5.38616 -0.09449,-11.079427 3.401786,0.02363 0.129929,0.73233 h 0.271671 l 0.04725,-0.767765 h 1.665457 l 1.252046,0.460658 0.141742,0.6024 0.307105,0.02363 0.2008,-0.566965 2.799387,0.74414 0.08268,0.73233 c 0,0 0.318916,0.02363 0.318916,-0.02363 0,-0.04725 0.153553,-0.578776 0.153553,-0.578776 l 6.79176,1.759951 0.87407,0.507905 0.519717,0.460658 -0.02067,-0.431128 -0.445896,-1.021717 -0.564015,-0.950847 -0.941991,-0.690987 -11.244792,-6.272042 0.165365,-1.322917 -0.04725,-1.854445 -0.118118,-0.732329 -0.165364,-0.177177 -2.043433,0.01181 -0.153553,0.236235 -0.05906,0.448847 0.01181,2.067057 -3.34272,-1.795398 0.03543,-16.7018228 -0.318917,-2.6103979 -0.720518,-2.1615514 z"
       id="path2108"
       sodipodi:nodetypes="ccccccccccccccccccccccccccccccccccccccccccccccccccccccccccscccccccccccccccccccccc" />
  </g>
  <g
     inkscape:groupmode="layer"
     id="layer6"
     inkscape:label="Accent">
    <path
       id="path7274"
       style="fill:none;stroke:#000000;stroke-width:0.264999"
       d="m 19.372706,53.885995 -0.115873,-0.486677 -0.254926,-2.120509 -0.06953,-2.537658 0.115874,-4.519121 0.208577,-1.877171 0.2781,1.900347 0.23175,4.565469 -0.09269,2.502898 -0.324451,2.595597 m 0.741592,-2.062573 0.03477,-1.599073 0.405561,-1.309387 0.509848,-1.494786 m -2.641951,4.495945 v -1.923523 l -0.347626,-1.066049 -0.393972,-1.390499 m 7.87949,-22.479719 0.672073,0.370798 m -1.506373,-0.926997 0.88065,0.556199 -0.02318,-1.923524 0.301273,-0.8343 0.393976,1.135575 -0.06953,1.946699 0.903825,0.486672 m -5.733985,5.26906 -0.03278,-8.521334 m -3.900147,8.504947 0.01638,-8.554109 m -4.998085,2.916917 0.753812,-0.327742 m -1.524008,0.721035 0.819359,-0.442452 -0.06555,-2.343367 0.409678,-0.901295 0.278582,0.639101 0.09832,2.31059 0.770197,-0.475226 M 20.130641,2.1346431 c -0.08352,0.246389 -0.0877,0.250565 -0.0877,0.250565 m -0.693228,-0.872802 -0.01669,0.584653 m -0.893699,0.0084 0.238038,0.413432 m -0.785104,1.273709 c 0.02506,-0.03341 0.392552,-0.927092 0.392552,-0.927092 l 0.405082,-0.434313 0.643117,-0.400904 0.722462,0.417609 0.375848,0.434313 0.275622,0.593004 0.05846,0.258917 0.116926,-0.05011 -0.283973,-0.868626 -0.125282,-0.551243 -1.11919,-0.776752 -1.094134,0.810161 -0.183748,0.375847 -0.125283,0.584652 -0.141986,0.584653" />
  </g>
</svg>
