<?xml version="1.0" encoding="UTF-8" standalone="no"?>
<svg
   xmlns:dc="http://purl.org/dc/elements/1.1/"
   xmlns:cc="http://creativecommons.org/ns#"
   xmlns:rdf="http://www.w3.org/1999/02/22-rdf-syntax-ns#"
   xmlns:svg="http://www.w3.org/2000/svg"
   xmlns="http://www.w3.org/2000/svg"
   xmlns:sodipodi="http://sodipodi.sourceforge.net/DTD/sodipodi-0.dtd"
   xmlns:inkscape="http://www.inkscape.org/namespaces/inkscape"
   width="80mm"
   height="80mm"
   viewBox="-21 -13 80 80"
   version="1.1"
   id="svg1542"
   inkscape:version="1.0.1 (3bc2e813f5, 2020-09-07)"
   sodipodi:docname="B757-300(WL).svg">
  <defs
     id="defs1536" />
  <sodipodi:namedview
     id="base"
     pagecolor="#ffffff"
     bordercolor="#666666"
     borderopacity="1.0"
     inkscape:pageopacity="0.0"
     inkscape:pageshadow="2"
     inkscape:zoom="2.8"
     inkscape:cx="162.98794"
     inkscape:cy="140.7406"
     inkscape:document-units="mm"
     inkscape:current-layer="layer4"
     inkscape:document-rotation="0"
     showgrid="false"
     inkscape:snap-global="false"
     inkscape:window-width="1920"
     inkscape:window-height="1017"
     inkscape:window-x="-8"
     inkscape:window-y="-8"
     inkscape:window-maximized="1">
    <inkscape:grid
       type="xygrid"
       id="grid2105" />
  </sodipodi:namedview>
<metadata
     id="metadata1539">
    <rdf:RDF>
      <cc:Work
         rdf:about="">
        <dc:format>image/svg+xml</dc:format>
        <dc:type
           rdf:resource="http://purl.org/dc/dcmitype/StillImage" />
        <dc:title></dc:title>
        <dc:creator>
          <cc:Agent>
            <dc:title>RexKramer1</dc:title>
          </cc:Agent>
        </dc:creator>
        <dc:rights>
          <cc:Agent>
            <dc:title>GNU General Public License v3.0</dc:title>
          </cc:Agent>
        </dc:rights>
      </cc:Work>
    </rdf:RDF>
  </metadata>
  <g
     inkscape:groupmode="layer"
     id="layer4"
     inkscape:label="Outline">
    <path
       style="fill:none;stroke:#000000;stroke-width:0.264583px;stroke-linecap:butt;stroke-linejoin:miter;stroke-opacity:1"
       d="m 19.410449,0.40090428 -1.00226,0.86862592 -0.801809,2.2383823 -0.200452,1.8040693 0.06682,17.4059272 -3.507912,2.004522 -0.03341,-1.971113 v -0.7684 l -0.233861,-0.267269 -1.937704,0.100226 -0.228129,0.217648 -0.0253,2.797648 0.186614,1.093973 -11.35895509,6.214015 -1.1860686,0.88009 -0.82926941,1.810209 -0.00122,0.444446 0.71990554,-0.640036 0.69628197,-0.309306 0.8676425,-0.314515 6.08038179,-1.536801 0.066817,0.501131 h 0.3674957 l 0.1336347,-0.701582 2.8230339,-0.684879 0.100226,0.618061 0.283974,-0.05011 0.150339,-0.668173 1.286235,-0.334087 h 1.586913 l 0.11693,0.718285 0.267269,-0.03341 0.08352,-0.618062 3.4578,-0.05011 -0.01902,13.1474 0.283482,3.354538 -5.905877,3.874257 0.09449,1.984375 6.520089,-1.653646 0.803199,2.220611 0.425223,0.04725 0.472471,-2.267857 6.661831,1.748139 0.04725,-1.984375 -5.71689,-4.063243 0.377976,-5.38616 -0.09449,-11.079427 3.401786,0.02363 0.129929,0.73233 h 0.271671 l 0.04725,-0.767765 h 1.665457 l 1.252046,0.460658 0.141742,0.6024 0.307105,0.02363 0.2008,-0.566965 2.799387,0.74414 0.08268,0.73233 c 0,0 0.318916,0.02363 0.318916,-0.02363 0,-0.04725 0.153553,-0.578776 0.153553,-0.578776 l 6.79176,1.759951 0.87407,0.507905 0.519717,0.460658 -0.02067,-0.431128 -0.445896,-1.021717 -0.564015,-0.950847 -0.941991,-0.690987 -11.244792,-6.272042 0.165365,-1.322917 -0.04725,-1.854445 -0.118118,-0.732329 -0.165364,-0.177177 -2.043433,0.01181 -0.153553,0.236235 -0.05906,0.448847 0.01181,2.067057 -3.34272,-1.795398 0.03543,-16.7018228 -0.318917,-2.6103979 -0.720518,-2.1615514 z"
       id="path2108"
       sodipodi:nodetypes="ccccccccccccccccccccccccccccccccccccccccccccccccccccccccccscccccccccccccccccccccc" />
  </g>
</svg>
