<?xml version="1.0" encoding="UTF-8" standalone="no"?>
<svg
   xmlns:dc="http://purl.org/dc/elements/1.1/"
   xmlns:cc="http://creativecommons.org/ns#"
   xmlns:rdf="http://www.w3.org/1999/02/22-rdf-syntax-ns#"
   xmlns:svg="http://www.w3.org/2000/svg"
   xmlns="http://www.w3.org/2000/svg"
   xmlns:sodipodi="http://sodipodi.sourceforge.net/DTD/sodipodi-0.dtd"
   xmlns:inkscape="http://www.inkscape.org/namespaces/inkscape"
   width="80mm"
   height="80mm"
   viewBox="-16 -16 80 80"
   version="1.1"
   id="svg1542"
   inkscape:version="1.0.1 (3bc2e813f5, 2020-09-07)"
   sodipodi:docname="B767-200.svg">
  <defs
     id="defs1536" />
  <sodipodi:namedview
     id="base"
     pagecolor="#ffffff"
     bordercolor="#666666"
     borderopacity="1.0"
     inkscape:pageopacity="0.0"
     inkscape:pageshadow="2"
     inkscape:zoom="2.8"
     inkscape:cx="120.45899"
     inkscape:cy="155.24563"
     inkscape:document-units="mm"
     inkscape:current-layer="layer7"
     inkscape:document-rotation="0"
     showgrid="false"
     inkscape:window-width="1920"
     inkscape:window-height="1017"
     inkscape:window-x="-8"
     inkscape:window-y="-8"
     inkscape:window-maximized="1" />
<metadata
     id="metadata1539">
    <rdf:RDF>
      <cc:Work
         rdf:about="">
        <dc:format>image/svg+xml</dc:format>
        <dc:type
           rdf:resource="http://purl.org/dc/dcmitype/StillImage" />
        <dc:title></dc:title>
        <dc:creator>
          <cc:Agent>
            <dc:title>RexKramer1</dc:title>
          </cc:Agent>
        </dc:creator>
        <dc:rights>
          <cc:Agent>
            <dc:title>GNU General Public License v3.0</dc:title>
          </cc:Agent>
        </dc:rights>
      </cc:Work>
    </rdf:RDF>
  </metadata>
  <g
     inkscape:groupmode="layer"
     id="layer7"
     inkscape:label="Outline">
    <path
       style="fill:none;stroke:#000000;stroke-width:0.264583px;stroke-linecap:butt;stroke-linejoin:miter;stroke-opacity:1"
       d="m 23.786988,-0.03340869 -1.169305,1.20271289 -0.835217,2.0045213 -0.534539,3.1738257 0.06682,9.2542078 -0.367496,0.601356 -3.908817,2.739513 0.200452,-0.668174 -0.03341,-2.605878 -0.434313,-0.367496 -1.971113,0.03341 -0.334087,0.300678 -0.100226,1.971113 0.367496,1.5368 h 0.300678 l 0.03341,0.801808 -14.80004949,10.289878 v 2.405425 l 7.55036409,-3.107008 0.3006783,0.23386 0.2672694,-0.06682 0.033409,-0.367495 3.5413207,-1.302938 0.26727,0.267269 0.200452,-0.06682 0.167043,-0.46772 3.040191,-1.135896 1.570209,-0.100227 0.233861,0.467723 h 0.300678 l 0.06682,-0.501132 3.340869,-0.167043 0.03341,9.822155 0.50113,3.808592 -7.182868,5.712886 -0.06682,1.904294 8.586034,-2.104748 0.300678,1.236123 0.334087,1.369756 0.300678,-0.03341 0.26727,-1.469983 0.434313,-1.269529 8.519214,2.27179 -0.03341,-1.80407 -7.383321,-5.846519 0.701581,-4.844261 -0.100225,-9.020346 3.30746,0.367495 0.200453,0.601358 0.334087,-0.03341 0.03341,-0.434314 1.570207,0.200451 2.939965,0.968854 0.23386,0.501129 0.334089,0.133636 0.100224,-0.334087 3.57473,1.202711 0.233863,0.501131 h 0.200451 l 0.167044,-0.334086 7.817633,3.274052 -0.03341,-2.405425 -15.000502,-10.223061 0.133633,-0.968852 0.467722,-0.133634 0.133636,-1.403165 V 16.06958 l -0.367495,-0.734991 -2.305201,0.03341 -0.267269,0.367495 -0.06682,1.837478 0.133636,1.135896 -3.57473,-2.539061 -0.334088,-0.668173 V 6.3476512 L 25.724692,3.0401908 24.722431,1.0356694 Z"
       id="path3827" />
  </g>
</svg>
