<?xml version="1.0" encoding="UTF-8" standalone="no"?>
<svg
   xmlns:dc="http://purl.org/dc/elements/1.1/"
   xmlns:cc="http://creativecommons.org/ns#"
   xmlns:rdf="http://www.w3.org/1999/02/22-rdf-syntax-ns#"
   xmlns:svg="http://www.w3.org/2000/svg"
   xmlns="http://www.w3.org/2000/svg"
   xmlns:sodipodi="http://sodipodi.sourceforge.net/DTD/sodipodi-0.dtd"
   xmlns:inkscape="http://www.inkscape.org/namespaces/inkscape"
   width="80mm"
   height="80mm"
   viewBox="-10 -9 80 80"
   version="1.1"
   id="svg1542"
   inkscape:version="1.0.1 (3bc2e813f5, 2020-09-07)"
   sodipodi:docname="B789.svg">
  <defs
     id="defs1536" />
  <sodipodi:namedview
     id="base"
     pagecolor="#ffffff"
     bordercolor="#666666"
     borderopacity="1.0"
     inkscape:pageopacity="0.0"
     inkscape:pageshadow="2"
     inkscape:zoom="1.979899"
     inkscape:cx="112.45122"
     inkscape:cy="107.34152"
     inkscape:document-units="mm"
     inkscape:current-layer="layer4"
     inkscape:document-rotation="0"
     showgrid="false"
     inkscape:window-width="1920"
     inkscape:window-height="1017"
     inkscape:window-x="-8"
     inkscape:window-y="-8"
     inkscape:window-maximized="1" />
<metadata
     id="metadata1539">
    <rdf:RDF>
      <cc:Work
         rdf:about="">
        <dc:format>image/svg+xml</dc:format>
        <dc:type
           rdf:resource="http://purl.org/dc/dcmitype/StillImage" />
        <dc:title></dc:title>
        <dc:creator>
          <cc:Agent>
            <dc:title>RexKramer1</dc:title>
          </cc:Agent>
        </dc:creator>
        <dc:rights>
          <cc:Agent>
            <dc:title>GNU General Public License v3.0</dc:title>
          </cc:Agent>
        </dc:rights>
      </cc:Work>
    </rdf:RDF>
  </metadata>
  <g
     inkscape:groupmode="layer"
     id="layer4"
     inkscape:label="Outline">
    <path
       style="fill:none;stroke:#000000;stroke-width:0.264583px;stroke-linecap:butt;stroke-linejoin:miter;stroke-opacity:1"
       d="m 30.168048,0.16704345 -1.135896,1.13589545 -0.935442,2.3051996 -0.701583,3.3742778 -0.233862,1.403165 0.03341,13.4302937 -5.311982,3.942226 0.400905,-1.937705 0.03341,-1.870886 -0.367495,-0.968852 -3.140417,0.03341 -0.467722,1.002261 0.03341,2.405426 0.400904,2.271792 0.634765,0.133633 0.100226,0.567949 -16.6709363,11.592814 -1.5367998,1.937705 -1.13589545,1.971112 0.0334087,0.668176 1.00226075,-1.135896 0.7683998,-0.734991 8.7864853,-3.875408 0.334087,0.835215 0.300678,-0.03341 0.400905,-1.202712 3.30746,-1.436573 0.26727,0.935442 0.267269,-0.06682 0.26727,-1.23612 2.906556,-1.035669 2.171565,-0.400905 0.334087,0.768401 0.267269,0.03341 0.200452,-0.868625 4.944485,-0.23386 0.300681,0.367496 0.100224,11.860083 0.467722,4.443357 0.701583,3.407688 -0.23386,0.668173 -7.316504,6.147199 -0.434313,0.768398 -0.167044,1.369758 8.552625,-3.173827 0.501132,-0.03341 0.701582,2.372016 0.534538,0.03341 0.567949,-2.438834 0.367496,0.03341 8.652848,3.173826 -0.200451,-1.637028 -0.367495,-0.534537 -7.38332,-6.247427 -0.133636,-0.501128 0.80181,-3.608139 0.400904,-4.677217 -0.03341,-11.25873 0.367496,-0.601355 4.877668,0.300677 0.467722,0.80181 h 0.200451 l 0.233863,-0.701583 2.539058,0.434311 2.438836,0.935445 0.267269,1.23612 0.434314,0.03341 0.167042,-0.868624 3.507912,1.469982 0.233862,1.135894 0.334087,0.03341 0.23386,-0.801807 8.819896,3.841999 1.904293,1.870887 -0.23386,-1.002263 -1.269531,-2.071338 -1.336347,-1.503392 -16.637527,-11.626223 0.267269,-0.567949 h 0.567947 l 0.467722,-2.472242 -0.06682,-2.472243 -0.467723,-0.868626 -3.140416,0.06682 -0.300678,0.534539 v 2.505652 L 38.219541,25.65788 33.074604,21.815875 33.108013,8.1851293 32.940969,7.0826423 32.10575,3.5413211 31.270535,1.3029389 Z"
       id="path3754" />
  </g>
</svg>
