<?xml version="1.0" encoding="UTF-8" standalone="no"?>
<svg
   xmlns:dc="http://purl.org/dc/elements/1.1/"
   xmlns:cc="http://creativecommons.org/ns#"
   xmlns:rdf="http://www.w3.org/1999/02/22-rdf-syntax-ns#"
   xmlns:svg="http://www.w3.org/2000/svg"
   xmlns="http://www.w3.org/2000/svg"
   xmlns:sodipodi="http://sodipodi.sourceforge.net/DTD/sodipodi-0.dtd"
   xmlns:inkscape="http://www.inkscape.org/namespaces/inkscape"
   width="80mm"
   height="80mm"
   viewBox="-10 -6 80 80"
   version="1.1"
   id="svg1542"
   inkscape:version="1.0.1 (3bc2e813f5, 2020-09-07)"
   sodipodi:docname="B78X.svg">
  <defs
     id="defs1536" />
  <sodipodi:namedview
     id="base"
     pagecolor="#ffffff"
     bordercolor="#666666"
     borderopacity="1.0"
     inkscape:pageopacity="0.0"
     inkscape:pageshadow="2"
     inkscape:zoom="1.979899"
     inkscape:cx="94.307688"
     inkscape:cy="121.08161"
     inkscape:document-units="mm"
     inkscape:current-layer="layer5"
     inkscape:document-rotation="0"
     showgrid="false"
     inkscape:window-width="1920"
     inkscape:window-height="1017"
     inkscape:window-x="-8"
     inkscape:window-y="-8"
     inkscape:window-maximized="1"
     viewbox-y="-6" />
<metadata
     id="metadata1539">
    <rdf:RDF>
      <cc:Work
         rdf:about="">
        <dc:format>image/svg+xml</dc:format>
        <dc:type
           rdf:resource="http://purl.org/dc/dcmitype/StillImage" />
        <dc:title></dc:title>
        <dc:creator>
          <cc:Agent>
            <dc:title>RexKramer1</dc:title>
          </cc:Agent>
        </dc:creator>
        <dc:rights>
          <cc:Agent>
            <dc:title>GNU General Public License v3.0</dc:title>
          </cc:Agent>
        </dc:rights>
      </cc:Work>
    </rdf:RDF>
  </metadata>
  <g
     inkscape:groupmode="layer"
     id="layer5"
     inkscape:label="Outline">
    <path
       style="fill:none;stroke:#000000;stroke-width:0.264583px;stroke-linecap:butt;stroke-linejoin:miter;stroke-opacity:1"
       d="M 30.001003,0.20045214 28.931925,1.2695302 27.996483,3.5079125 27.361718,5.9467469 27.061041,8.3521726 V 24.689022 l -0.267272,0.534539 -4.944485,3.541322 0.334086,-2.338609 -0.03341,-1.403165 -0.467722,-1.169304 H 18.57523 l -0.434313,1.503391 0.03341,2.238382 0.434313,2.171565 0.50113,0.167045 0.133635,0.400902 L 2.9399648,41.794271 1.0690781,43.832203 0.06681738,45.70309 v 1.035669 l 1.26953022,-1.436574 1.2695303,-1.002263 8.1183121,-3.474503 0.23386,0.501132 0.300679,0.133633 0.300678,-1.035669 3.407686,-1.503392 0.300679,0.634767 0.367495,0.06682 0.167044,-1.002262 2.472243,-1.002261 1.703843,-0.367495 1.002261,-0.133636 0.133634,0.53454 0.233861,0.100227 0.167044,-0.668173 5.078121,-0.233863 0.367496,1.503392 0.06682,13.964832 0.400904,3.775184 0.701583,3.107007 -0.133636,0.801809 -7.550364,6.347651 -0.367496,0.534537 -0.06682,1.33635 8.586032,-3.140416 0.434314,-0.03341 0.701582,2.572467 0.601356,-0.100225 0.567949,-2.472242 h 0.467723 l 8.586033,3.207234 -0.06682,-1.169305 -0.367495,-0.868627 -7.450138,-6.38106 -0.367496,-0.634764 0.768398,-2.839739 0.53454,-4.009043 -0.03341,-14.26551 0.400905,-1.236123 5.011304,0.334087 0.200451,0.501131 0.334086,0.03341 0.167045,-0.53454 2.138156,0.267271 1.637025,0.534538 1.436573,0.567947 0.06682,1.002262 0.334087,0.03341 0.167045,-0.734991 3.507912,1.536798 0.267269,0.902036 0.233862,0.03341 0.167042,-0.634765 8.819896,3.80859 1.135893,0.935442 0.935445,1.202714 L 59.834964,45.469227 58.899522,43.965836 56.995226,41.82768 40.792011,30.468726 v -0.768401 l 0.53454,0.100227 0.501129,-2.405425 0.03341,-2.271792 -0.567947,-1.236121 -2.973374,0.03341 -0.501129,1.169305 0.03341,1.837478 0.200454,1.703842 -4.977895,-3.80859 L 32.974377,8.2853553 32.506655,5.6794775 31.938708,3.4410951 31.070081,1.2695302 Z"
       id="path4920" />
  </g>
</svg>
