<?xml version="1.0" encoding="UTF-8" standalone="no"?>
<svg
   xmlns:dc="http://purl.org/dc/elements/1.1/"
   xmlns:cc="http://creativecommons.org/ns#"
   xmlns:rdf="http://www.w3.org/1999/02/22-rdf-syntax-ns#"
   xmlns:svg="http://www.w3.org/2000/svg"
   xmlns="http://www.w3.org/2000/svg"
   xmlns:sodipodi="http://sodipodi.sourceforge.net/DTD/sodipodi-0.dtd"
   xmlns:inkscape="http://www.inkscape.org/namespaces/inkscape"
   width="80mm"
   height="80mm"
   viewBox="-30 -26 80 80"
   version="1.1"
   id="svg1542"
   inkscape:version="1.0.1 (3bc2e813f5, 2020-09-07)"
   sodipodi:docname="Balloon.svg">
  <defs
     id="defs1536" />
  <sodipodi:namedview
     id="base"
     pagecolor="#ffffff"
     bordercolor="#666666"
     borderopacity="1.0"
     inkscape:pageopacity="0.0"
     inkscape:pageshadow="2"
     inkscape:zoom="1.979899"
     inkscape:cx="209.62029"
     inkscape:cy="178.37049"
     inkscape:document-units="mm"
     inkscape:current-layer="layer8"
     inkscape:document-rotation="0"
     showgrid="false"
     inkscape:window-width="1920"
     inkscape:window-height="1121"
     inkscape:window-x="-9"
     inkscape:window-y="-9"
     inkscape:window-maximized="1"
     inkscape:snap-global="false"
     viewbox-y="-26" />
<metadata
     id="metadata1539">
    <rdf:RDF>
      <cc:Work
         rdf:about="">
        <dc:format>image/svg+xml</dc:format>
        <dc:type
           rdf:resource="http://purl.org/dc/dcmitype/StillImage" />
        <dc:title></dc:title>
        <dc:creator>
          <cc:Agent>
            <dc:title>RexKramer1</dc:title>
          </cc:Agent>
        </dc:creator>
        <dc:rights>
          <cc:Agent>
            <dc:title>GNU General Public License v3.0</dc:title>
          </cc:Agent>
        </dc:rights>
      </cc:Work>
    </rdf:RDF>
  </metadata>
  <g
     inkscape:groupmode="layer"
     id="layer9"
     inkscape:label="Outline"
     style="display:inline">
    <path
       style="fill:none;stroke:#000000;stroke-width:0.114342px;stroke-linecap:butt;stroke-linejoin:miter;stroke-opacity:1"
       d="M 8.7956023,28.767246 8.836437,26.480404 8.6118358,26.296641 8.836437,26.031204 8.183055,23.172652 3.0376621,15.944599 0.54663841,11.20757 0.09743765,8.8798929 0.50580197,6.0621777 2.3434423,2.9586074 4.630284,1.5293313 7.8155275,0.34507422 10.674079,0.14089197 l 3.471098,0.40836446 3.144407,1.18425707 2.368515,1.9601497 1.306767,2.4093509 0.408364,2.8993885 -0.367528,1.9601504 -0.980075,2.368513 -2.082659,3.185243 -2.899389,4.410337 -1.796803,2.327679 -0.653384,2.776879 0.204183,0.285855 -0.245019,0.204181 0.122509,2.286842 z"
       id="path3306" />
  </g>
  <g
     inkscape:groupmode="layer"
     id="layer8"
     inkscape:label="Accent"
     style="display:inline">
    <path
       id="path3302"
       style="fill:none;stroke:#000000;stroke-width:0.114342px;stroke-linecap:butt;stroke-linejoin:miter;stroke-opacity:1"
       d="M 10.714915,22.539687 10.694497,0.28381957 M 9.9798593,22.62136 9.142712,17.904749 8.183055,10.186659 8.0401274,6.3888696 8.3259825,4.4899742 9.0406205,2.3256422 9.9798593,0.89636624 10.694497,0.26340127 11.470389,0.9984575 12.470883,2.6523337 13.328448,5.00043 13.450957,6.61347 v 1.8580586 l -0.428782,4.3286634 -0.510456,4.185737 -0.959656,5.635431 M 9.2039671,22.723451 8.0605465,19.415698 5.9370507,12.289737 5.2019949,8.9615666 5.1815754,7.5731266 5.3245029,5.9805048 6.0595604,4.0816097 7.2233988,2.6727519 8.46891,1.5497496 9.5306586,0.81469342 10.714915,0.26340127 l 1.470112,0.73505623 1.429276,1.0004933 1.51095,1.6742942 0.918819,1.9193137 0.265437,1.8172222 -0.10209,1.2863485 -0.735057,3.5936076 -1.572204,5.962123 -1.429275,4.512427 M 8.2712616,22.931423 5.3259368,16.535448 3.8821501,12.998171 2.9003752,10.02397 2.6260557,8.3636154 2.7271209,6.9487044 3.2180081,5.2161603 4.4307894,3.5124922 5.9900792,2.1697707 8.0691314,1.0869306 9.556232,0.5671673 l 1.169467,-0.3031951 1.371597,0.36094654 1.934675,0.80852056 1.862484,1.1117159 1.284971,1.2560944 0.924024,1.313846 0.563076,1.7181061 0.101065,1.371597 -0.27432,1.6747929 -0.952899,3.0752654 -2.902011,6.814673 -1.429349,3.190769 m -3.3822891,3.264878 1.7763851,-2e-6 0.969866,-0.07146 0.142928,0.245019 -0.163347,0.132717 -3.6854887,-0.01021 -0.1633457,-0.23481 0.091882,-0.173554 z m -1.7253404,-3.052525 0.6329647,0.265437 0.5717101,0.142927 1.3680217,0.08167 1.38844,-0.08167 0.653383,-0.142927 0.510456,-0.285855 -0.102092,-0.163346 -0.653383,-0.204183 -0.959657,-0.122509 -0.816729,-0.06126 -0.7146377,0.04084 -0.8371473,0.06126 -0.8371477,0.245017 z m 0.6942198,3.001479 1.0004931,0.06125 -0.4900381,-2.695205 1.3067667,0.122509 1.408857,-0.102091 -0.408364,2.613533 0.939239,-0.02042 M 8.8060524,28.72063 8.8728049,26.581136 8.6322086,26.26657 8.834338,26.107753 8.1268829,23.205742 6.3799009,20.938998 2.6116182,15.264916 0.60475472,11.482195 0.11386704,10.038408 0.0416779,8.9700058 0.22937018,7.1075211 1.1967071,4.4798292 3.4345764,2.1697707 6.3365882,0.84148676 9.0942203,0.29284789 l 1.6026027,-0.0433136 2.107929,0.14437858 2.09349,0.38982242 2.079053,0.80852061 2.208994,1.6603544 1.28497,1.7902957 0.650517,1.4908164 0.201317,1.6133252 -0.05775,0.8518342 -0.375383,2.1223662 -1.386035,3.031952 -2.541066,3.85491 -3.696093,5.125442 -0.693018,3.031953 0.173254,0.20213 -0.144378,0.115503 -0.01444,2.194556 z m 8.2e-6,-1.086258 c 0,-1.062442 -0.0016,-1.08841 -0.072455,-1.18426 -0.061246,-0.08284 -0.066519,-0.111026 -0.034089,-0.182203 0.021102,-0.04631 0.053991,-0.0842 0.07309,-0.0842 0.019097,0 0.027135,-0.03379 0.017865,-0.07509 C 8.6144499,25.324717 8.3453246,24.150472 8.2503149,23.751804 8.1126199,23.174036 8.150662,23.242406 7.5202427,22.439718 7.2994596,22.158605 6.9408234,21.688314 6.7232737,21.394628 6.5057235,21.100943 6.2870459,20.808091 6.237323,20.743848 6.1876005,20.679604 5.9177781,20.304154 5.6377188,19.909513 4.711242,18.603989 4.1133815,17.692057 2.4323707,15.020315 0.7208564,12.300092 0.02886439,10.518617 0.02886439,8.8326908 c 0,-0.8429482 0.14999547,-1.8485606 0.38874473,-2.6062577 C 0.85626003,4.8343249 1.621309,3.6707276 2.7209242,2.7232173 4.1569803,1.4858047 6.0451993,0.71563493 8.4055801,0.40455041 11.158538,0.0417266 13.896182,0.31755304 16.064768,1.1762382 c 0.369537,0.146324 1.131706,0.5239498 1.401682,0.6944806 0.343969,0.2172688 0.694799,0.4573746 0.850057,0.5817729 0.08207,0.065756 0.187194,0.1491109 0.233613,0.1852316 0.04642,0.03612 0.295703,0.2764089 0.553966,0.5339739 0.459214,0.4579749 0.669481,0.7132689 1.004165,1.2192006 0.513306,0.775948 0.882484,1.6954311 1.082648,2.6964644 0.0927,0.4635804 0.106703,0.6091186 0.121365,1.2609954 0.0181,0.8047808 -0.0022,1.0384358 -0.15787,1.8161324 -0.25405,1.269275 -0.797428,2.561722 -1.802986,4.288478 -0.102179,0.175463 -0.495941,0.811358 -0.568305,0.917768 -0.03121,0.04589 -0.261315,0.391303 -0.511353,0.767587 -0.250039,0.376285 -0.511446,0.766753 -0.580906,0.867708 -0.06946,0.100954 -0.295009,0.431351 -0.501219,0.734214 -0.559239,0.821356 -0.736877,1.079188 -1.034694,1.501801 -0.148753,0.211087 -0.395091,0.560811 -0.547418,0.777165 -0.152327,0.216355 -0.39282,0.55426 -0.534427,0.750901 -0.141608,0.196641 -0.321824,0.447029 -0.400481,0.556418 -0.07866,0.109389 -0.195575,0.270287 -0.259818,0.35755 -0.06424,0.08726 -0.184388,0.252445 -0.266987,0.367068 -0.0826,0.114624 -0.313612,0.426793 -0.513361,0.693711 -0.402798,0.538244 -0.391787,0.510827 -0.603733,1.503193 -0.04508,0.211086 -0.136748,0.616572 -0.203698,0.90108 -0.06695,0.284508 -0.143735,0.62772 -0.170634,0.762693 -0.04729,0.237286 -0.04661,0.247846 0.02042,0.319198 0.08645,0.09202 0.08704,0.135204 0.003,0.219214 -0.06306,0.06306 -0.06672,0.119614 -0.07509,1.159725 l -0.0088,1.093434 -1.893939,0.0086 -1.8939382,0.0086 z m 0.20024,0.766343 c 0,-0.242889 -0.0029,-0.252211 -0.07509,-0.241958 -0.068905,0.0098 -0.075898,0.0306 -0.084896,0.252622 -0.00971,0.239519 -0.00895,0.241957 0.07509,0.241957 0.083468,0 0.084896,-0.0042 0.084896,-0.252621 z m 1.1346944,0.0059 c 0,-0.194752 -0.01118,-0.25102 -0.05307,-0.267096 -0.093416,-0.03585 -0.1137955,0.0117 -0.1137955,0.265495 0,0.242637 0.0019,0.24833 0.083433,0.24833 0.08147,0 0.08343,-0.0058 0.08343,-0.246729 z m 1.094382,-0.01191 c -0.0088,-0.233145 -0.01633,-0.258643 -0.07649,-0.258643 -0.06017,0 -0.06771,0.0255 -0.07649,0.258643 -0.0097,0.258398 -0.0097,0.258644 0.07649,0.258644 0.08616,0 0.08623,-2.33e-4 0.07649,-0.258644 z m 1.092793,0.223298 c 0.01201,-0.01944 0.01138,-0.139585 -0.0014,-0.266987 -0.01979,-0.197095 -0.03271,-0.231641 -0.08662,-0.231641 -0.05695,0 -0.06336,0.02701 -0.06336,0.266987 0,0.242032 0.0061,0.266987 0.06478,0.266987 0.03563,0 0.07461,-0.01591 0.08662,-0.03535 z M 9.9345652,28.475795 c 0.01691,-0.20537 -0.013859,-0.219743 -0.4551063,-0.212581 l -0.3897248,0.0063 -0.010121,0.17622 -0.010121,0.176221 0.4272895,-0.0094 0.4272898,-0.0094 z m 1.0675378,-0.03104 -0.01009,-0.17521 -0.333734,-0.0074 c -0.470899,-0.01041 -0.483914,-0.0059 -0.483914,0.169315 0,0.07919 0.01001,0.153994 0.02225,0.166231 0.01223,0.01224 0.200746,0.02225 0.418911,0.02225 h 0.396662 z m 1.107921,0.0083 v -0.166867 l -0.30036,-0.0063 c -0.165199,-0.0035 -0.34166,-0.0072 -0.392137,-0.0083 -0.0875,-0.002 -0.09225,0.0061 -0.101865,0.173125 l -0.01009,0.17521 h 0.402224 0.402225 z m 0.417167,-4.76e-4 c 0,-0.127473 -0.0099,-0.149723 -0.06675,-0.149723 -0.05131,0 -0.06922,0.02581 -0.07744,0.111641 -0.01412,0.147427 0.01404,0.212869 0.08568,0.199073 0.04539,-0.0087 0.0585,-0.04483 0.0585,-0.160991 z M 9.3233476,28.186093 c 0.012455,-0.02016 -0.033026,-0.03337 -0.1148372,-0.03337 -0.074505,0 -0.1354629,0.01502 -0.1354629,0.03337 0,0.01835 0.051677,0.03337 0.1148368,0.03337 0.063161,0 0.1241191,-0.01502 0.1354633,-0.03337 z m 0.2097125,-0.325391 c -0.00906,-0.343329 -0.012701,-0.359222 -0.084562,-0.369428 -0.073991,-0.01051 -0.07509,-0.0053 -0.07509,0.358764 v 0.369428 h 0.084563 0.084562 z m 0.3904033,0.326369 c 0.024028,-0.03888 -0.1125212,-0.07769 -0.2186569,-0.06215 -0.041729,0.0061 -0.082053,0.02988 -0.089609,0.05283 -0.016712,0.05074 0.2771755,0.05963 0.3082659,0.0093 z m 0.5178916,-0.01968 c 0,-0.03961 -0.02933,-0.0496 -0.12257,-0.04172 -0.176057,0.01488 -0.187587,0.09379 -0.0137,0.09379 0.101228,0 0.136275,-0.01339 0.136275,-0.05208 z m 0.233614,-0.317354 c 0,-0.364021 -0.0011,-0.369272 -0.07509,-0.358763 -0.07186,0.0102 -0.0755,0.0261 -0.08456,0.369428 l -0.0095,0.358764 h 0.08456 0.08456 z m 0.333734,0.317354 c 0,-0.03961 -0.02934,-0.0496 -0.122571,-0.04172 -0.176057,0.01488 -0.187587,0.09379 -0.0137,0.09379 0.101227,0 0.136275,-0.01339 0.136275,-0.05208 z m 0.559004,0.01036 c -0.0076,-0.02294 -0.06397,-0.04172 -0.125151,-0.04172 -0.06118,0 -0.117502,0.01877 -0.125149,0.04172 -0.0096,0.02893 0.02874,0.04172 0.125149,0.04172 0.09641,0 0.134792,-0.01279 0.125151,-0.04172 z m 0.186244,-0.279518 c 0.0116,-0.17668 0.01299,-0.334369 0.0031,-0.350421 -0.0099,-0.01605 -0.04719,-0.02918 -0.08281,-0.02918 -0.06001,0 -0.06478,0.0258 -0.06478,0.35042 0,0.318645 0.0056,0.350421 0.06171,0.350421 0.0543,0 0.06425,-0.03859 0.08281,-0.321236 z m 0.34773,0.279518 c -0.0079,-0.0237 -0.06916,-0.04172 -0.141837,-0.04172 -0.07268,0 -0.133937,0.01802 -0.141837,0.04172 -0.0098,0.0294 0.03208,0.04172 0.141837,0.04172 0.109761,0 0.151637,-0.01232 0.141837,-0.04172 z m 0.433853,0 c -0.0076,-0.02294 -0.04144,-0.04172 -0.07509,-0.04172 -0.03365,0 -0.06744,0.01877 -0.07509,0.04172 -0.0088,0.02642 0.01872,0.04172 0.07509,0.04172 0.05636,0 0.0839,-0.01529 0.07509,-0.04172 z M 9.3233476,27.869046 V 27.668805 L 9.10946,27.658732 c -0.1485331,-0.007 -0.2223091,0.0032 -0.2414464,0.03337 -0.033765,0.05323 -0.037585,0.340362 -0.00497,0.372985 0.012991,0.01299 0.1218697,0.01924 0.2419572,0.01391 l 0.218341,-0.0097 z m 1.1180074,0 V 27.652135 H 10.024188 9.6070215 v 0.216927 0.216927 h 0.4171665 0.417167 z m 1.094903,0.188227 c 0.02945,-0.01867 0.0403,-0.08635 0.03337,-0.208073 l -0.01027,-0.180395 -0.408824,-0.0094 -0.408824,-0.0094 v 0.195705 c 0,0.107638 0.01001,0.205717 0.02225,0.217954 0.03216,0.03217 0.720468,0.02642 0.772293,-0.0065 z m 1.000942,-0.196571 -0.01001,-0.191897 -0.358764,-0.0095 -0.358764,-0.0095 v 0.20137 0.201369 h 0.368772 0.368773 z M 9.0063006,27.268325 c 0,-0.294798 -0.00468,-0.317047 -0.066746,-0.317047 -0.062063,0 -0.066747,0.02225 -0.066747,0.317047 0,0.294798 0.00468,0.317047 0.066747,0.317047 0.062063,0 0.066746,-0.02225 0.066746,-0.317047 z m 0.317047,0.266987 c 0,-0.03876 -0.1661168,-0.06389 -0.2385479,-0.0361 -0.027144,0.01042 -0.039499,0.03489 -0.027455,0.05438 0.027178,0.04398 0.2660017,0.02756 0.2660017,-0.01828 z m 0.5756906,0.0083 c -0.0079,-0.0237 -0.069157,-0.04172 -0.1418367,-0.04172 -0.07268,0 -0.1339369,0.01802 -0.1418368,0.04172 -0.0098,0.0294 0.032075,0.04172 0.1418368,0.04172 0.1097615,0 0.1516368,-0.01232 0.1418367,-0.04172 z m 0.2252698,-0.27533 c 0,-0.286076 -0.0036,-0.300868 -0.07509,-0.311025 -0.073415,-0.01043 -0.075089,-0.0035 -0.075089,0.311025 0,0.314514 0.00169,0.321451 0.075089,0.311024 0.07152,-0.01016 0.07509,-0.02495 0.07509,-0.311024 z m 0.317047,0.264971 c 0,-0.03961 -0.02933,-0.0496 -0.12257,-0.04172 -0.176057,0.01488 -0.187587,0.09379 -0.0137,0.09379 0.101228,0 0.136275,-0.01339 0.136275,-0.05208 z m 0.559005,0.01036 c -0.0076,-0.02294 -0.06397,-0.04172 -0.125151,-0.04172 -0.06118,0 -0.117501,0.01877 -0.12515,0.04172 -0.0096,0.02893 0.02874,0.04172 0.12515,0.04172 0.09641,0 0.134792,-0.01279 0.125151,-0.04172 z m 0.241956,-0.27533 c 0,-0.315935 -3e-4,-0.317047 -0.08343,-0.317047 -0.08314,0 -0.08343,0.0011 -0.08343,0.317047 0,0.315935 3.01e-4,0.317047 0.08343,0.317047 0.08314,0 0.08343,-0.0011 0.08343,-0.317047 z m 0.333734,0.283674 c 0,-0.01835 -0.06007,-0.03337 -0.133494,-0.03337 -0.07342,0 -0.133493,0.01502 -0.133493,0.03337 0,0.01835 0.06007,0.03337 0.133493,0.03337 0.07342,0 0.133494,-0.01502 0.133494,-0.03337 z m 0.533974,0 c 0,-0.01835 -0.06758,-0.03337 -0.15018,-0.03337 -0.0826,0 -0.15018,0.01502 -0.15018,0.03337 0,0.01835 0.06758,0.03337 0.15018,0.03337 0.0826,0 0.15018,-0.01502 0.15018,-0.03337 z m 0.20024,-0.283674 c 0,-0.294798 -0.0047,-0.317047 -0.06675,-0.317047 -0.06206,0 -0.06675,0.02225 -0.06675,0.317047 0,0.294798 0.0047,0.317047 0.06675,0.317047 0.06206,0 0.06675,-0.02225 0.06675,-0.317047 z m 0.233614,0.283674 c 0,-0.01835 -0.03755,-0.03337 -0.08343,-0.03337 -0.04589,0 -0.08343,0.01502 -0.08343,0.03337 0,0.01835 0.03755,0.03337 0.08343,0.03337 0.04589,0 0.08343,-0.01502 0.08343,-0.03337 z m -2.6430606,-0.293028 0.010121,-0.176221 -0.4272894,0.0094 -0.4272899,0.0094 -0.01051,0.146873 c -0.00678,0.09472 0.00507,0.156956 0.033371,0.175271 0.024136,0.01562 0.216589,0.02462 0.4276754,0.02 l 0.3837939,-0.0084 z m 1.1078856,0.0083 V 27.08272 l -0.408824,0.0094 -0.408824,0.0094 -0.01057,0.12866 c -0.01821,0.221763 -0.01822,0.221761 0.426687,0.221761 H 11.0087 Z m 1.101321,0 V 27.08272 l -0.408824,0.0094 -0.408824,0.0094 -0.01057,0.12866 c -0.01821,0.221763 -0.01822,0.221761 0.426687,0.221761 h 0.401528 z m 0.417167,5.62e-4 c 0,-0.144161 -0.0089,-0.16641 -0.06675,-0.16641 -0.05338,0 -0.06886,0.02577 -0.07731,0.12866 -0.01354,0.164834 0.01217,0.22956 0.08556,0.215427 0.04643,-0.0089 0.0585,-0.04562 0.0585,-0.177677 z M 9.3400345,26.984646 c 0,-0.01835 -0.059186,-0.03337 -0.1315241,-0.03337 -0.072338,0 -0.1408052,0.01502 -0.1521498,0.03337 -0.012598,0.02038 0.038588,0.03337 0.1315237,0.03337 0.083682,0 0.1521502,-0.01502 0.1521502,-0.03337 z m 0.2071602,-0.208584 c 0.01462,-0.244802 -0.00649,-0.300671 -0.1070402,-0.283269 -0.038415,0.0066 -0.052328,0.06875 -0.059807,0.266944 -0.00958,0.25392 -0.00838,0.258282 0.071324,0.258282 0.077062,0 0.081786,-0.01197 0.095523,-0.241957 z m 0.3601868,0.208584 c 0,-0.01835 -0.067581,-0.03337 -0.15018,-0.03337 -0.082599,0 -0.15018,0.01502 -0.15018,0.03337 0,0.01835 0.067581,0.03337 0.15018,0.03337 0.082599,0 0.15018,-0.01502 0.15018,-0.03337 z m 0.5339735,0 c 0,-0.01835 -0.06007,-0.03337 -0.133493,-0.03337 -0.07342,0 -0.133494,0.01502 -0.133494,0.03337 0,0.01835 0.06007,0.03337 0.133494,0.03337 0.07342,0 0.133493,-0.01502 0.133493,-0.03337 z m 0.233614,-0.235935 c 0,-0.260193 -0.0026,-0.268947 -0.07509,-0.258644 -0.06949,0.0099 -0.07582,0.02995 -0.08484,0.269309 -0.0097,0.257335 -0.0093,0.258643 0.07509,0.258643 0.08386,0 0.08484,-0.0031 0.08484,-0.269308 z m 0.333734,0.235935 c 0,-0.01835 -0.06007,-0.03337 -0.133494,-0.03337 -0.07342,0 -0.133493,0.01502 -0.133493,0.03337 0,0.01835 0.06007,0.03337 0.133493,0.03337 0.07342,0 0.133494,-0.01502 0.133494,-0.03337 z m 0.55066,0 c -0.01134,-0.01835 -0.07142,-0.03337 -0.133493,-0.03337 -0.06208,0 -0.122149,0.01502 -0.133494,0.03337 -0.01261,0.02041 0.03924,0.03337 0.133494,0.03337 0.09425,0 0.146106,-0.01297 0.133493,-0.03337 z M 11.77629,26.77129 c 0,-0.194752 -0.01118,-0.251021 -0.05307,-0.267096 -0.09342,-0.03585 -0.113796,0.0117 -0.113796,0.265495 0,0.242637 0.0019,0.24833 0.08343,0.24833 0.08147,0 0.08343,-0.0058 0.08343,-0.246729 z m 0.333734,0.213356 c 0,-0.01835 -0.06758,-0.03337 -0.15018,-0.03337 -0.0826,0 -0.15018,0.01502 -0.15018,0.03337 0,0.01835 0.06758,0.03337 0.15018,0.03337 0.0826,0 0.15018,-0.01502 0.15018,-0.03337 z m 0.433854,0 c 0,-0.01835 -0.03755,-0.03337 -0.08343,-0.03337 -0.04589,0 -0.08343,0.01502 -0.08343,0.03337 0,0.01835 0.03755,0.03337 0.08343,0.03337 0.04589,0 0.08343,-0.01502 0.08343,-0.03337 z m -3.2432508,-0.09587 c 0.027606,-0.01738 0.040053,-0.07623 0.033371,-0.157809 l -0.010653,-0.130096 -0.2252702,-0.0099 -0.2252702,-0.0099 v 0.146142 c 0,0.08038 0.00805,0.154193 0.017887,0.16403 0.029434,0.02943 0.3624189,0.02738 0.4099331,-0.0025 z m 1.1342138,-0.146068 0.01017,-0.158524 H 10.026018 9.6070228 v 0.147399 c 0,0.08649 0.017239,0.154507 0.041716,0.164602 0.022943,0.0095 0.2069147,0.01447 0.4088242,0.01112 l 0.367107,-0.0061 z m 1.103832,0.14431 c 0.02549,-0.01575 0.03781,-0.07709 0.03134,-0.156051 l -0.01065,-0.130096 H 11.158881 10.7584 l -0.0107,0.11164 c -0.0188,0.196226 -0.01064,0.200462 0.38618,0.200462 0.199534,0 0.381688,-0.01168 0.404786,-0.02595 z m 0.988518,-0.135967 v -0.15018 h -0.35042 -0.350421 l -0.01065,0.130096 c -0.0067,0.08131 0.0059,0.140805 0.03337,0.158656 0.02421,0.0157 0.186697,0.02474 0.361073,0.02008 l 0.317047,-0.0085 z M 9.2488926,26.528923 c -0.022593,-0.0091 -0.067649,-0.0097 -0.10012,-0.0013 -0.032472,0.0085 -0.013985,0.01594 0.041081,0.01662 0.055066,6.92e-4 0.081634,-0.0062 0.059039,-0.01538 z m 0.5837881,-10e-4 c -0.031906,-0.0084 -0.09198,-0.0087 -0.1334935,-6.92e-4 -0.041513,0.008 -0.015407,0.01482 0.058014,0.01519 0.073421,3.71e-4 0.1073872,-0.0062 0.075479,-0.01452 z m 0.5673473,0 c -0.03191,-0.0084 -0.09198,-0.0087 -0.133493,-6.92e-4 -0.04151,0.008 -0.01541,0.01482 0.05801,0.01519 0.07342,3.71e-4 0.107387,-0.0062 0.07548,-0.01452 z m 0.567347,0 c -0.03191,-0.0084 -0.09198,-0.0087 -0.133493,-6.92e-4 -0.04151,0.008 -0.01541,0.01482 0.05801,0.01519 0.07342,3.71e-4 0.107387,-0.0062 0.07548,-0.01452 z m 0.232529,0.0028 c -0.01109,-0.01109 -0.03988,-0.01227 -0.06396,-0.0026 -0.02662,0.01065 -0.01872,0.01856 0.02016,0.02016 0.03518,0.0015 0.05489,-0.0064 0.0438,-0.01753 z m 0.301445,-0.0028 c -0.03191,-0.0084 -0.09198,-0.0087 -0.133493,-6.92e-4 -0.04151,0.008 -0.01541,0.01482 0.05801,0.01519 0.07342,3.71e-4 0.107387,-0.0062 0.07548,-0.01452 z m 0.550272,-6.05e-4 c -0.0413,-0.008 -0.108881,-0.008 -0.15018,0 -0.0413,0.008 -0.0075,0.01446 0.07509,0.01446 0.0826,0 0.11639,-0.0065 0.07509,-0.01446 z m 0.249605,0.0034 c -0.01109,-0.01109 -0.03988,-0.01227 -0.06397,-0.0026 -0.02662,0.01065 -0.01872,0.01856 0.02017,0.02016 0.03518,0.0015 0.05489,-0.0064 0.0438,-0.01753 z m 0.20024,0 c -0.01109,-0.01109 -0.03988,-0.01227 -0.06397,-0.0026 -0.02662,0.01065 -0.01872,0.01856 0.02017,0.02016 0.03518,0.0015 0.05489,-0.0064 0.0438,-0.01753 z m 0.139021,-0.125787 c 0.05132,-0.06183 0.01233,-0.151068 -0.07526,-0.172271 -0.03927,-0.0095 -0.903275,-0.01313 -1.919999,-0.0081 -1.6586265,0.0083 -1.8520812,0.01477 -1.8825631,0.0631 -0.018687,0.02963 -0.024547,0.07843 -0.013025,0.108463 0.019058,0.04967 0.1938683,0.0546 1.9368801,0.0546 1.583741,0 1.922524,-0.0079 1.953965,-0.04583 z M 9.7180073,26.066898 c -0.0032,-0.05507 -0.059524,-0.40799 -0.1251619,-0.784275 C 9.5272074,24.906339 9.4357534,24.380708 9.389614,24.114556 9.343474,23.848403 9.301151,23.61629 9.295561,23.598749 c -0.00559,-0.01754 -0.1367857,-0.05035 -0.2915483,-0.07291 -0.1547622,-0.02256 -0.3932518,-0.07906 -0.5299761,-0.12556 -0.1367243,-0.0465 -0.2530464,-0.08008 -0.2584933,-0.07464 -0.00545,0.0054 0.01898,0.121355 0.054285,0.257573 0.035303,0.136218 0.087409,0.360304 0.1157897,0.497969 0.02838,0.137666 0.1049195,0.475571 0.1700861,0.750901 0.065167,0.275331 0.1570012,0.680756 0.2040754,0.900946 0.047075,0.22019 0.1030276,0.41169 0.1243391,0.425556 0.02131,0.01387 0.2189646,0.02144 0.4392287,0.01682 l 0.4004804,-0.0084 z m 1.8450117,0.09127 c 0.0375,-0.02483 0.07989,-0.27444 0.230871,-1.359454 0.04598,-0.330397 0.106641,-0.733868 0.134813,-0.896603 0.02817,-0.162735 0.04446,-0.302644 0.03619,-0.31091 -0.0083,-0.0083 -0.158617,9.94e-4 -0.334115,0.02055 -0.419854,0.04682 -1.405922,0.04538 -1.8805788,-0.0027 -0.2079095,-0.02108 -0.3837619,-0.03234 -0.3907828,-0.02503 -0.00702,0.0073 0.030904,0.246073 0.08428,0.530581 0.053374,0.284508 0.1262172,0.697503 0.1618721,0.917768 0.095372,0.589169 0.1882117,1.069199 0.215248,1.112945 0.026889,0.04351 1.6775135,0.05573 1.7421995,0.0129 z m 0.972443,-0.01618 c 0.01822,-0.02294 0.05938,-0.176879 0.09147,-0.342077 0.03209,-0.165199 0.109779,-0.518122 0.172652,-0.784274 0.06287,-0.266153 0.157872,-0.689442 0.21111,-0.940642 0.05324,-0.251201 0.113642,-0.519287 0.134231,-0.595747 0.02059,-0.07646 0.03269,-0.143671 0.0269,-0.149358 -0.0058,-0.0057 -0.119809,0.02636 -0.253364,0.07121 -0.133556,0.04485 -0.378187,0.10167 -0.543625,0.126262 -0.165438,0.02459 -0.309717,0.05363 -0.320619,0.06453 -0.03619,0.03619 -0.412909,2.524671 -0.388571,2.566779 0.02602,0.04502 0.833111,0.02953 0.86982,-0.01669 z m -0.428419,-2.628269 c 0.62078,-0.0754 1.120989,-0.240771 1.120989,-0.370593 0,-0.121081 -0.575719,-0.28838 -1.268188,-0.368524 -0.473976,-0.05486 -2.0924554,-0.05381 -2.5363764,0.0016 -0.6521721,0.08147 -1.163427,0.221599 -1.2358192,0.338732 -0.095943,0.155238 0.5882734,0.360172 1.4368314,0.430355 0.4678302,0.03869 2.0719072,0.01826 2.4825632,-0.03162 z M 8.2084123,23.027143 c 0.068306,-0.06182 0.071888,-0.05277 -0.428496,-1.081854 C 7.4110383,21.18666 6.5104548,19.272666 6.3195347,18.841566 6.0782102,18.296651 5.7035578,17.463936 5.6213257,17.289704 5.57801,17.197927 5.4053767,16.79995 5.2376955,16.40531 5.0700144,16.01067 4.9086536,15.63522 4.8791164,15.570976 4.7262453,15.238483 3.8244789,12.971374 3.6706104,12.532699 3.0272052,10.698371 2.770463,9.7782577 2.6605904,8.9129889 2.6020355,8.4518584 2.6102556,7.4624295 2.6763037,7.0219605 2.9738988,5.0372487 4.0938315,3.4189674 6.0694465,2.1189341 7.1034388,1.438526 8.7307776,0.73951962 9.9908171,0.4345502 10.34732,0.34826529 10.359069,0.32148811 10.040877,0.32046061 9.7525942,0.31953147 9.0931991,0.37601059 8.3388353,0.46625001 7.9458459,0.51326074 6.9061997,0.7122516 6.6868539,0.78244351 6.6317878,0.80006479 6.3990084,0.87020018 6.1695665,0.93829954 4.4505572,1.448509 2.9215432,2.4058393 1.9257084,3.5954187 0.99632362,4.7056206 0.47028542,5.8538036 0.20810017,7.344441 c -0.0872153,0.4958567 -0.0939107,0.597105 -0.0937932,1.4183679 1.2403e-4,0.8678012 0.002118,0.8934737 0.10549909,1.3683081 0.1227405,0.563676 0.33533247,1.223351 0.572392,1.776142 0.17058397,0.397778 0.66792424,1.386118 0.87484624,1.738539 0.062658,0.106717 0.128942,0.219993 0.1472976,0.251726 0.1070652,0.185094 0.3380317,0.572202 0.4010958,0.672251 0.040493,0.06424 0.3181161,0.507275 0.6169359,0.984514 0.2988199,0.477239 0.591449,0.942798 0.6502866,1.034575 0.058838,0.09178 0.2405016,0.377119 0.4036974,0.634094 0.2840642,0.447298 0.9991854,1.521011 1.3382046,2.009235 0.9797564,1.410957 2.8124083,3.847791 2.89378,3.847791 0.017425,0 0.057958,-0.02378 0.090072,-0.05284 z m 5.1538067,-0.01467 c 0.0869,-0.09603 1.552969,-2.097343 1.751408,-2.390834 0.02753,-0.04072 0.150558,-0.213853 0.273388,-0.384737 0.391454,-0.5446 1.108964,-1.574872 1.703874,-2.446594 0.15032,-0.220265 0.330396,-0.48308 0.400168,-0.584034 0.288469,-0.417392 1.362755,-2.040314 1.530233,-2.31172 1.02093,-1.654473 1.613999,-2.937727 1.977822,-4.27952 0.15425,-0.568877 0.288588,-1.5264469 0.288588,-2.0570651 0,-1.1655199 -0.36132,-2.6270156 -0.876547,-3.5455207 -0.0502,-0.0895 -0.09128,-0.1704764 -0.09128,-0.1799476 0,-0.065989 -0.501966,-0.790068 -0.780425,-1.125754 C 19.074735,3.1465278 18.361768,2.5123051 17.750123,2.1150412 16.375777,1.2224028 14.722004,0.65570117 12.844238,0.43393195 12.467953,0.3894917 11.96485,0.34493528 11.72623,0.33491771 c -0.238619,-0.0100174 -0.482662,-0.024184 -0.542317,-0.0314806 -0.20652,-0.025261 -0.107276,0.0422803 0.166867,0.11356175 0.629094,0.1635752 1.417354,0.43913647 2.16548,0.75701274 0.508889,0.216225 1.492188,0.759614 1.947787,1.0763822 0.09178,0.063811 0.211879,0.1472695 0.266893,0.1854641 0.198063,0.1375091 0.905452,0.7515703 1.104688,0.9589423 0.863252,0.8985061 1.441927,1.9110828 1.713606,2.9984999 0.162715,0.6512792 0.255772,1.423021 0.224404,1.8610249 -0.114023,1.5921244 -0.437837,2.748244 -1.581925,5.647982 -0.271371,0.687804 -0.839587,2.073032 -1.095169,2.66987 -0.06681,0.15602 -0.158465,0.373781 -0.203673,0.483914 -0.04521,0.110132 -0.118887,0.279495 -0.163733,0.376363 -0.04485,0.09687 -0.08154,0.183424 -0.08154,0.19235 0,0.0089 -0.08405,0.207503 -0.186778,0.441285 -0.102728,0.233781 -0.239222,0.545201 -0.303321,0.692044 -0.0641,0.146842 -0.143284,0.327058 -0.175967,0.40048 -0.19658,0.441614 -0.500518,1.11843 -0.644442,1.435054 -0.09178,0.201909 -0.230216,0.509779 -0.307638,0.684155 -0.07742,0.174376 -0.172064,0.384628 -0.210314,0.467227 -0.4175,0.901582 -0.574422,1.254297 -0.574422,1.291128 0,0.06339 0.04732,0.05384 0.1175,-0.02371 z m 0.247474,-0.942808 c 0.228269,-0.499756 0.455534,-0.998755 0.505032,-1.108887 0.301768,-0.671428 0.381702,-0.849804 0.583258,-1.301562 0.122841,-0.27533 0.279633,-0.628253 0.348426,-0.784274 0.20588,-0.466931 0.970024,-2.238737 1.050706,-2.436256 0.04124,-0.100954 0.153888,-0.371278 0.250334,-0.60072 0.34095,-0.811117 0.642474,-1.557331 0.950707,-2.352823 0.08535,-0.220264 0.198908,-0.513115 0.252359,-0.650781 0.127337,-0.327969 0.474931,-1.325386 0.616412,-1.768788 C 18.594919,9.724243 18.767775,8.5736564 18.688172,7.5959921 18.540409,5.7812052 17.760139,4.2412125 16.375661,3.0318687 16.095846,2.7874499 15.973744,2.6890063 15.681156,2.4719294 14.976304,1.948985 13.941021,1.3893908 12.973952,1.0086227 12.346102,0.76141742 11.265489,0.41897367 11.115095,0.41955596 c -0.01263,5.009e-5 0.127221,0.0770053 0.310775,0.17101422 1.047913,0.53669992 1.831078,1.08994982 2.615327,1.84754062 1.865501,1.8020901 2.591775,4.0199924 2.136655,6.5249386 -0.265851,1.4632156 -0.548251,2.8096976 -0.881935,4.2050446 -0.06804,0.284508 -0.157805,0.659958 -0.199485,0.834333 -0.04168,0.174377 -0.183826,0.722534 -0.31588,1.218128 -0.132054,0.495595 -0.269764,1.013717 -0.306023,1.151382 -0.03626,0.137665 -0.101144,0.370444 -0.144188,0.517287 -0.04304,0.146843 -0.133792,0.462221 -0.201662,0.700841 -0.147459,0.518443 -0.226047,0.784539 -0.453391,1.535175 -0.09451,0.31204 -0.19052,0.634928 -0.21336,0.717527 -0.02284,0.0826 -0.09047,0.30036 -0.150283,0.483914 -0.05982,0.183553 -0.243302,0.746729 -0.407748,1.251501 -0.164445,0.504772 -0.320507,0.975075 -0.346803,1.045118 -0.05213,0.138864 -0.03983,0.188786 0.04716,0.191379 0.03104,9.07e-4 0.16156,0.03697 0.290047,0.0801 0.128488,0.04313 0.248632,0.07957 0.266987,0.08098 0.01835,0.0014 0.220139,-0.406337 0.448408,-0.906094 z M 9.047847,22.764406 9.1728266,22.74329 9.1202631,22.619621 C 8.9947222,22.324249 8.2077969,19.963377 7.788658,18.62464 7.3345354,17.174164 7.1667298,16.613826 6.7842224,15.270616 6.28516,13.518115 6.1201906,12.906883 5.7753986,11.5328 5.1805728,9.1622704 5.1540775,9.0040712 5.1549708,7.8283554 5.155619,7.0037783 5.1617903,6.9123602 5.2465457,6.476734 5.3971333,5.7027333 5.6409466,5.0105564 5.9973265,4.3452907 6.2077279,3.9525282 6.2641713,3.8646685 6.5919907,3.4196381 7.3998039,2.3229944 8.567374,1.3491156 9.9506462,0.61815792 10.156293,0.50948894 10.314217,0.42032823 10.30159,0.42002296 10.198816,0.41753804 9.6074424,0.58478656 9.0063006,0.7863475 7.5856643,1.2626825 6.2723633,1.955766 5.2851699,2.7501425 4.8083257,3.1338505 4.1538882,3.8083279 3.900175,4.177549 3.3205729,5.0210267 3.0286603,5.6584319 2.8395756,6.493421 c -0.3998914,1.7659024 -0.144189,3.3218243 1.0722457,6.524493 0.2717277,0.715414 0.3286837,0.860547 0.5238844,1.334935 0.1132922,0.27533 0.2471392,0.605726 0.2974368,0.734214 0.050298,0.128488 0.1158476,0.286176 0.1456662,0.35042 0.029819,0.06424 0.1729254,0.39464 0.3180154,0.734214 0.2470809,0.578276 0.8500473,1.946037 1.0225107,2.319449 0.042386,0.09178 0.2082872,0.452209 0.3686662,0.800961 0.1603785,0.348752 0.3738638,0.806801 0.4744116,1.017888 0.1005483,0.211087 0.2919113,0.616573 0.4252518,0.901081 0.3330464,0.710619 0.7876638,1.644274 0.8221268,1.688415 0.020134,0.02579 0.113838,0.01446 0.3207605,-0.03877 0.1607735,-0.04136 0.3485561,-0.0847 0.4172953,-0.09632 z m 3.488639,-0.260112 c 0.12836,-0.356841 0.622973,-1.877767 0.805849,-2.477973 0.0783,-0.256975 0.163005,-0.527299 0.18824,-0.60072 0.09136,-0.265808 0.479946,-1.596051 0.701925,-2.402883 0.04545,-0.165198 0.103575,-0.367941 0.129166,-0.45054 0.04914,-0.158599 0.419865,-1.55347 0.585416,-2.202643 0.139698,-0.547796 0.313687,-1.269842 0.450343,-1.868908 0.0649,-0.284508 0.132374,-0.577359 0.149942,-0.650781 0.11165,-0.466621 0.341284,-1.613433 0.557996,-2.7866758 0.117044,-0.6336587 0.12028,-0.6731706 0.122951,-1.5018018 0.0026,-0.7999566 -0.0027,-0.8780546 -0.08818,-1.3015609 C 15.807998,4.6139156 14.899395,3.1678527 13.444959,1.970363 13.288938,1.8419055 13.093704,1.688104 13.011105,1.6285814 12.928506,1.5690584 12.790877,1.4689745 12.705264,1.4061723 12.336612,1.1357446 11.048759,0.41946707 10.931188,0.41946707 c -0.02063,0 0.06085,0.10137162 0.181055,0.22527022 0.657256,0.67744671 1.268723,1.66049671 1.676253,2.69489951 0.277532,0.7044365 0.518366,1.6923304 0.6224,2.5530624 0.04772,0.3948343 0.04826,2.0894698 9.08e-4,2.8891023 -0.113989,1.9253325 -0.423528,5.0133055 -0.667167,6.6556805 -0.03676,0.247798 -0.09602,0.660793 -0.131695,0.917768 -0.160245,1.154356 -0.544277,3.535583 -0.686242,4.255104 -0.04643,0.235313 -0.123705,0.655331 -0.30087,1.635295 -0.04148,0.229442 -0.07006,0.423018 -0.06351,0.43017 0.0066,0.0072 0.166251,0.02627 0.35489,0.04249 0.188639,0.01622 0.365507,0.03491 0.39304,0.04153 0.02753,0.0066 0.06741,0.01378 0.08862,0.01591 0.02121,0.0021 0.08313,-0.120027 0.1376,-0.271459 z m -2.695851,0.174998 c 0.045888,-0.01258 0.081183,-0.04395 0.078432,-0.06973 C 9.9121443,22.544695 9.7503254,21.649465 9.6904096,21.344569 9.6070595,20.920421 9.2713891,18.917172 9.2038936,18.441086 9.1687634,18.193289 9.1179307,17.870402 9.0909337,17.723559 9.0639368,17.576716 9.0120046,17.231302 8.97553,16.955972 8.9390558,16.680641 8.8865165,16.3127 8.8587766,16.138324 8.7492982,15.450137 8.4894457,13.382576 8.3722269,12.267013 8.0883581,9.5654432 8.0215005,8.6065541 8.0231898,7.2610084 8.0244863,6.239611 8.0324294,6.0838807 8.1152587,5.4588466 8.3900937,3.3849685 9.0669022,1.8003396 10.129408,0.74306924 10.291802,0.581476 10.396958,0.45973266 10.363088,0.47252863 10.32922,0.48532443 10.118967,0.59351102 9.8958614,0.71294296 8.463505,1.4797051 7.407193,2.3891359 6.4766786,3.6566846 6.4429918,3.702573 6.3468061,3.852753 6.2629331,3.9904181 5.8037448,4.7441057 5.4820793,5.5598728 5.3220314,6.376614 5.1309078,7.3519381 5.1471228,8.5655361 5.3648756,9.5831297 5.4802452,10.122274 5.6021711,10.645486 5.655328,10.829529 c 0.028773,0.09962 0.079529,0.302362 0.1127926,0.450541 0.061051,0.271962 0.3120646,1.23627 0.5696465,2.188384 0.07697,0.284508 0.1741143,0.644941 0.2158764,0.800961 0.076228,0.284783 0.4047109,1.423692 0.6352841,2.202643 0.067916,0.229441 0.1496221,0.507275 0.181569,0.617407 0.073485,0.253328 0.3377068,1.104665 0.590394,1.902282 0.063965,0.201909 0.1517436,0.479742 0.1950632,0.617407 0.1708584,0.542968 0.8842103,2.656527 1.004781,2.977018 l 0.059052,0.156968 0.2687082,-0.02049 c 0.1477893,-0.01127 0.3062534,-0.03078 0.3521418,-0.04336 z m 1.665927,-0.124938 c 0.01826,-0.06883 0.06472,-0.305366 0.103237,-0.525631 0.03852,-0.220264 0.08519,-0.468061 0.103712,-0.55066 0.01852,-0.0826 0.07647,-0.397978 0.128777,-0.700841 0.0523,-0.302863 0.139933,-0.805967 0.194733,-1.118008 0.195758,-1.114693 0.567562,-3.518603 0.62457,-4.038177 0.01208,-0.110132 0.04256,-0.335402 0.06773,-0.500601 0.06001,-0.393884 0.196164,-1.50729 0.281597,-2.302762 0.03745,-0.348752 0.09028,-0.829328 0.117384,-1.067948 0.02711,-0.23862 0.0966,-1.079628 0.154437,-1.8689083 C 13.370118,8.6883631 13.38834,8.2454766 13.390532,7.2610084 13.393081,6.1227046 13.389538,6.0533556 13.300783,5.49222 13.044544,3.8723726 12.491337,2.5009151 11.62478,1.3372347 11.363449,0.98629992 10.825777,0.38609372 10.772735,0.38609372 c -0.0192,0 -0.0279,4.26069498 -0.02273,11.12167428 l 0.0084,11.121675 0.317047,0.01864 c 0.174376,0.01026 0.335241,0.02152 0.357477,0.02503 0.02224,0.0035 0.05537,-0.04993 0.07364,-0.118761 z M 10.674969,11.497727 V 0.34932351 l -0.12515,0.0912256 C 10.33639,0.5961236 9.9435515,0.99181223 9.7424242,1.2538012 8.8455003,2.4221386 8.3144183,3.9360184 8.1350404,5.8357432 8.0184637,7.0703658 8.0739253,8.776081 8.3061753,11.098945 c 0.05414,0.541482 0.1073094,1.082131 0.1181553,1.201441 0.028955,0.318515 0.4108631,3.356086 0.44897,3.57095 0.017904,0.100955 0.054765,0.356261 0.081913,0.567347 0.083816,0.651723 0.4668904,3.031025 0.8032933,4.989319 0.088694,0.516309 0.2165955,1.158012 0.2378046,1.193097 0.00832,0.01377 0.1644235,0.02503 0.3468935,0.02503 h 0.331764 z" />
  </g>
</svg>
