<?xml version="1.0" encoding="UTF-8" standalone="no"?>
<svg
   xmlns:dc="http://purl.org/dc/elements/1.1/"
   xmlns:cc="http://creativecommons.org/ns#"
   xmlns:rdf="http://www.w3.org/1999/02/22-rdf-syntax-ns#"
   xmlns:svg="http://www.w3.org/2000/svg"
   xmlns="http://www.w3.org/2000/svg"
   xmlns:sodipodi="http://sodipodi.sourceforge.net/DTD/sodipodi-0.dtd"
   xmlns:inkscape="http://www.inkscape.org/namespaces/inkscape"
   width="80mm"
   height="80mm"
   viewBox="-32 -32 80 80"
   version="1.1"
   id="svg1542"
   inkscape:version="1.0.1 (3bc2e813f5, 2020-09-07)"
   sodipodi:docname="C25B.svg">
  <defs
     id="defs1536" />
  <sodipodi:namedview
     id="base"
     pagecolor="#ffffff"
     bordercolor="#666666"
     borderopacity="1.0"
     inkscape:pageopacity="0.0"
     inkscape:pageshadow="2"
     inkscape:zoom="11.2"
     inkscape:cx="159.51205"
     inkscape:cy="157.5887"
     inkscape:document-units="mm"
     inkscape:current-layer="layer2"
     inkscape:document-rotation="0"
     showgrid="false"
     inkscape:window-width="1920"
     inkscape:window-height="1121"
     inkscape:window-x="-9"
     inkscape:window-y="-9"
     inkscape:window-maximized="1" />
<metadata
     id="metadata1539">
    <rdf:RDF>
      <cc:Work
         rdf:about="">
        <dc:format>image/svg+xml</dc:format>
        <dc:type
           rdf:resource="http://purl.org/dc/dcmitype/StillImage" />
        <dc:title></dc:title>
        <dc:creator>
          <cc:Agent>
            <dc:title>RexKramer1</dc:title>
          </cc:Agent>
        </dc:creator>
        <dc:rights>
          <cc:Agent>
            <dc:title>GNU General Public License v3.0</dc:title>
          </cc:Agent>
        </dc:rights>
      </cc:Work>
    </rdf:RDF>
  </metadata>
  <g
     inkscape:groupmode="layer"
     id="layer2"
     inkscape:label="Outline"
     style="display:inline">
    <path
       style="fill:none;stroke:#000000;stroke-width:0.264583px;stroke-linecap:butt;stroke-linejoin:miter;stroke-opacity:1"
       d="M 8.1028645,0.02362351 7.5122767,0.70870534 7.2760416,1.7953869 7.2996652,6.5673363 0,7.0634301 0.07087053,7.9138763 6.3783482,8.8588169 l 0.047247,1.3701631 0.2362351,0.826823 0.3543527,-0.02362 0.070871,0.661459 0.5433409,0.377976 0.3543528,1.523716 -3.0828684,1.34654 0.023625,0.626024 3.200986,-0.496094 3.2127967,0.472469 V 14.918248 L 8.2682291,13.607143 8.6225818,12.036179 9.1895461,11.658203 9.236793,10.996745 9.5911457,11.008556 9.8510044,10.370721 9.8628154,8.8942515 16.21754,7.843005 16.193915,7.0752411 8.9533091,6.543712 V 1.8426339 L 8.6934523,0.6968936 Z"
       id="path1428" />
  </g>
  <g
     inkscape:groupmode="layer"
     id="layer3"
     inkscape:label="Accent">
    <path
       id="path856"
       style="fill:none;stroke:#000000;stroke-width:0.264583px;stroke-linecap:butt;stroke-linejoin:miter;stroke-opacity:1"
       d="m 7.9847476,13.595334 -0.025127,-2.286492 0.1586915,-0.300678 0.1753955,0.283973 -0.025479,2.315006 M 9.8628154,8.8942515 9.2375029,8.8198943 9.1122204,9.0537551 9.0704582,10.431864 9.2367916,10.996745 M 6.3783482,8.8588169 6.9991207,8.7697809 7.1244032,8.8950635 7.1661642,10.331637 7.0161831,11.032183 M 8.9533089,6.543712 8.9368253,9.0704595 8.7864862,9.1539813 8.7530775,11.058277 8.6225823,12.036179 m -1.3229171,-5.4688427 0.033542,2.5365318 0.1002263,0.033409 0.066817,2.1381559 0.1301438,0.796185 M 7.4000251,2.3051996 8.0180856,1.9878171 h 0.2171565 l 0.6013567,0.2672695 0.100226,0.9855565 H 8.6361465 L 8.5526247,2.8397387 8.1183119,2.6058779 7.6505902,2.8898516 7.6338844,3.1905299 7.3499106,3.2406431 Z" />
  </g>
</svg>
