<?xml version="1.0" encoding="UTF-8" standalone="no"?>
<svg
   width="80mm"
   height="80mm"
   viewBox="-27 -28 80 80"
   version="1.1"
   id="svg1542"
   inkscape:version="1.2.1 (9c6d41e410, 2022-07-14)"
   sodipodi:docname="C295 mit Bitmap.svg"
   xmlns:inkscape="http://www.inkscape.org/namespaces/inkscape"
   xmlns:sodipodi="http://sodipodi.sourceforge.net/DTD/sodipodi-0.dtd"
   xmlns="http://www.w3.org/2000/svg"
   xmlns:svg="http://www.w3.org/2000/svg"
   xmlns:rdf="http://www.w3.org/1999/02/22-rdf-syntax-ns#"
   xmlns:cc="http://creativecommons.org/ns#"
   xmlns:dc="http://purl.org/dc/elements/1.1/">
  <title
     id="title1227">C-295 Persuader</title>
  <defs
     id="defs1536" />
  <sodipodi:namedview
     id="base"
     pagecolor="#ffffff"
     bordercolor="#666666"
     borderopacity="1.0"
     inkscape:pageopacity="0.0"
     inkscape:pageshadow="2"
     inkscape:zoom="5.6"
     inkscape:cx="148.48214"
     inkscape:cy="151.96429"
     inkscape:document-units="mm"
     inkscape:current-layer="layer3"
     inkscape:document-rotation="0"
     showgrid="false"
     inkscape:snap-global="false"
     inkscape:window-width="1920"
     inkscape:window-height="1121"
     inkscape:window-x="2391"
     inkscape:window-y="140"
     inkscape:window-maximized="1"
     inkscape:showpageshadow="2"
     inkscape:pagecheckerboard="0"
     inkscape:deskcolor="#d1d1d1" />
  <metadata
     id="metadata1539">
    <rdf:RDF>
      <cc:Work
         rdf:about="">
        <dc:format>image/svg+xml</dc:format>
        <dc:type
           rdf:resource="http://purl.org/dc/dcmitype/StillImage" />
        <dc:creator>
          <cc:Agent>
            <dc:title>RexKramer1</dc:title>
          </cc:Agent>
        </dc:creator>
        <dc:rights>
          <cc:Agent>
            <dc:title>GNU General Public License v3.0</dc:title>
          </cc:Agent>
        </dc:rights>
        <dc:title>C-295 Persuader</dc:title>
      </cc:Work>
    </rdf:RDF>
  </metadata>
  <g
     inkscape:groupmode="layer"
     id="layer3"
     inkscape:label="Pfade">
    <path
       style="fill:none;stroke:#000000;stroke-width:0.264583px;stroke-linecap:butt;stroke-linejoin:miter;stroke-opacity:1"
       d="M 12.815755,0.01181176 12.402344,0.28348215 11.634579,1.452846 11.374721,2.9529389 11.386532,7.890253 11.008556,8.3390996 10.70145,8.8824405 10.666015,9.331287 9.9691215,9.343098 9.9100626,7.9847463 9.6383924,7.0398057 9.5084629,6.6027707 9.2840396,6.2720415 9.0359927,6.5909589 8.9651222,6.9925588 8.823381,7.2524172 8.6698282,8.3154754 8.6580172,9.3903452 0.64964685,10.417968 0.04724729,11.17392 0.03543552,11.670014 5.764137,12.366908 5.8350075,12.92206 H 5.964937 l 0.1063059,-0.531529 2.0434336,0.27167 0.047247,0.543341 0.1771764,0.01181 0.07087,-0.566964 0.2716705,0.03543 0.2834822,-0.01181 0.059059,0.566964 0.1653646,-0.01181 0.1299292,-0.54334 1.3701636,-0.01181 0.283482,0.354353 0.389788,0.177176 0.03544,7.098865 -0.377976,0.614211 -3.6734568,0.566965 0.059059,1.41741 4.4412198,0.236235 0.212612,0.248047 0.366164,0.271671 0.921317,0.01181 0.389788,-0.224424 0.177177,-0.354352 4.464843,-0.271671 -0.03543,-1.381975 -3.649833,-0.531529 -0.366164,-0.578776 -0.01181,-7.134301 0.425223,-0.177176 0.224424,-0.330729 1.452846,-0.03544 0.08268,0.543341 h 0.106306 l 0.141741,-0.519717 0.259858,0.01181 0.283483,-0.08268 0.09449,0.590588 h 0.212611 l 0.01181,-0.566965 1.996187,-0.283482 0.129929,0.555153 0.236235,-0.04725 0.02362,-0.555153 L 25.6197,11.57552 25.631511,11.150297 25.029112,10.323474 16.997118,9.3667216 16.973493,8.0319932 16.867187,7.3469113 16.701822,6.9925588 16.607328,6.5909589 16.335658,6.2602297 16.111235,6.5791473 16.052176,6.980747 15.910435,7.2169821 15.733259,8.0792401 15.721448,9.3312863 15.048177,9.3076637 14.918248,8.752511 14.611142,8.2209822 14.304036,7.9138763 14.32766,2.905692 13.961495,1.3937872 13.229167,0.30710565 Z"
       id="path1997" />
  </g>
  <g
     inkscape:groupmode="layer"
     id="layer2"
     inkscape:label="Accent">
    <path
       id="path1509"
       style="fill:#ffffff;stroke:#000000;stroke-width:0.266999"
       d="m 16.065662,7.0100446 0.637834,-0.023627 m -7.7130749,0.023627 0.614209,-0.0118 m 6.1584949,2.319263 0.217156,0.3507898 0.11693,0.4009046 0.03341,0.41761 0.267269,0.267269 0.267269,-0.300678 v -0.367495 l 0.08352,-0.4343137 0.233863,-0.3340867 m -8.3020618,0.083521 0.3006805,0.5178345 0.016695,0.5512439 0.3173835,0.317383 0.23386,-0.283974 0.1336337,-0.6013577 0.3006798,-0.5679476 m 2.8930763,14.0823633 -0.248047,-1.27567 -0.02363,-2.031622 0.129928,-3.118305 0.106307,-0.307104 0.118118,0.295293 0.14174,3.200985 0.0021,1.966293 z m 1.027621,-0.354354 0.153553,-0.389787 0.05906,-0.4016 0.165365,-0.87407 0.0118,-1.063059 m -2.385965,2.823009 c 0.0118,-0.05906 -0.259858,-0.54334 -0.259858,-0.54334 l -0.09449,-0.354351 -0.08268,-0.803201 -0.05906,-1.145739 m 2.923066,-7.025293 -0.0167,-0.601356 m -2.965024,0.5763 0.0084,-0.593005 m -0.659871,-0.0084 h 0.718289 l 0.208803,0.141986 0.158692,0.451017 0.04176,0.609709 0.275622,0.334086 1.503392,-0.0084 0.258918,-0.258918 0.05846,-0.534538 0.09187,-0.484428 c 0.101149,-0.153487 0.180844,-0.176106 0.342439,-0.242213 l 0.601356,0.0167 m -4.311335,-3.3227936 0.809104,-0.011827 -0.01773,-1.4351265 0.283483,-0.1299289 0.354351,0.2067057 0.301201,0.082682 h 0.921317 l 0.295293,-0.1358371 0.330729,-0.1476454 0.271672,0.1476454 -0.0059,1.4410346 0.844542,-0.023627 m -2.021429,-7.8965468 -4.7e-5,0.2902376 -0.110667,-0.0021 0.0021,-0.2902381 z m 0.580476,0.3173831 -0.139898,0.1085776 -0.11693,-0.052203 1.2e-5,-0.235948 z m 0.281886,0.4865138 -0.03134,-0.1378128 -0.05638,-0.1148419 -0.133634,0.1085802 0.08144,0.1795709 z m 0.106492,0.5846518 -0.05016,-0.2589186 -0.05846,0.010431 z m -1.329343,-1.3885487 4.7e-5,0.2902376 0.110667,-0.0021 -0.0021,-0.2902381 z m -0.580476,0.3173831 0.139898,0.1085776 0.11693,-0.052203 -1.2e-5,-0.235948 z m -0.281886,0.4865138 0.01881,-0.1399008 0.05638,-0.1148419 0.146162,0.1106682 -0.08144,0.1795709 z m -0.106492,0.5846518 0.05016,-0.2589186 0.05846,0.010431 z" />
  </g>
</svg>
