<?xml version="1.0" encoding="UTF-8" standalone="no"?>
<svg
   xmlns:dc="http://purl.org/dc/elements/1.1/"
   xmlns:cc="http://creativecommons.org/ns#"
   xmlns:rdf="http://www.w3.org/1999/02/22-rdf-syntax-ns#"
   xmlns:svg="http://www.w3.org/2000/svg"
   xmlns="http://www.w3.org/2000/svg"
   xmlns:sodipodi="http://sodipodi.sourceforge.net/DTD/sodipodi-0.dtd"
   xmlns:inkscape="http://www.inkscape.org/namespaces/inkscape"
   width="80mm"
   height="80mm"
   viewBox="-27 -28 80 80"
   version="1.1"
   id="svg1542"
   inkscape:version="1.0.1 (3bc2e813f5, 2020-09-07)"
   sodipodi:docname="C295.svg">
  <defs
     id="defs1536" />
  <sodipodi:namedview
     id="base"
     pagecolor="#ffffff"
     bordercolor="#666666"
     borderopacity="1.0"
     inkscape:pageopacity="0.0"
     inkscape:pageshadow="2"
     inkscape:zoom="5.6"
     inkscape:cx="177.15615"
     inkscape:cy="153.66694"
     inkscape:document-units="mm"
     inkscape:current-layer="layer3"
     inkscape:document-rotation="0"
     showgrid="false"
     inkscape:snap-global="false"
     inkscape:window-width="1920"
     inkscape:window-height="1017"
     inkscape:window-x="-8"
     inkscape:window-y="-8"
     inkscape:window-maximized="1" />
<metadata
     id="metadata1539">
    <rdf:RDF>
      <cc:Work
         rdf:about="">
        <dc:format>image/svg+xml</dc:format>
        <dc:type
           rdf:resource="http://purl.org/dc/dcmitype/StillImage" />
        <dc:title></dc:title>
        <dc:creator>
          <cc:Agent>
            <dc:title>RexKramer1</dc:title>
          </cc:Agent>
        </dc:creator>
        <dc:rights>
          <cc:Agent>
            <dc:title>GNU General Public License v3.0</dc:title>
          </cc:Agent>
        </dc:rights>
      </cc:Work>
    </rdf:RDF>
  </metadata>
  <g
     inkscape:groupmode="layer"
     id="layer3"
     inkscape:label="Outline">
    <path
       style="fill:none;stroke:#000000;stroke-width:0.264583px;stroke-linecap:butt;stroke-linejoin:miter;stroke-opacity:1"
       d="M 12.815755,0.01181176 12.402344,0.28348215 11.634579,1.452846 11.374721,2.9529389 11.386532,7.890253 11.008556,8.3390996 10.70145,8.8824405 10.666015,9.331287 9.9691215,9.343098 9.9100626,7.9847463 9.6383924,7.0398057 9.5084629,6.6027707 9.2840396,6.2720415 9.0359927,6.5909589 8.9651222,6.9925588 8.823381,7.2524172 8.6698282,8.3154754 8.6580172,9.3903452 0.64964685,10.417968 0.04724729,11.17392 0.03543552,11.670014 5.764137,12.366908 5.8350075,12.92206 H 5.964937 l 0.1063059,-0.531529 2.0434336,0.27167 0.047247,0.543341 0.1771764,0.01181 0.07087,-0.566964 0.2716705,0.03543 0.2834822,-0.01181 0.059059,0.566964 0.1653646,-0.01181 0.1299292,-0.54334 1.3701636,-0.01181 0.283482,0.354353 0.389788,0.177176 0.03544,7.098865 -0.377976,0.614211 -3.6734568,0.566965 0.059059,1.41741 4.4412198,0.236235 0.212612,0.248047 0.366164,0.271671 0.921317,0.01181 0.389788,-0.224424 0.177177,-0.354352 4.464843,-0.271671 -0.03543,-1.381975 -3.649833,-0.531529 -0.366164,-0.578776 -0.01181,-7.134301 0.425223,-0.177176 0.224424,-0.330729 1.452846,-0.03544 0.08268,0.543341 h 0.106306 l 0.141741,-0.519717 0.259858,0.01181 0.283483,-0.08268 0.09449,0.590588 h 0.212611 l 0.01181,-0.566965 1.996187,-0.283482 0.129929,0.555153 0.236235,-0.04725 0.02362,-0.555153 L 25.6197,11.57552 25.631511,11.150297 25.029112,10.323474 16.997118,9.3667216 16.973493,8.0319932 16.867187,7.3469113 16.701822,6.9925588 16.607328,6.5909589 16.335658,6.2602297 16.111235,6.5791473 16.052176,6.980747 15.910435,7.2169821 15.733259,8.0792401 15.721448,9.3312863 15.048177,9.3076637 14.918248,8.752511 14.611142,8.2209822 14.304036,7.9138763 14.32766,2.905692 13.961495,1.3937872 13.229167,0.30710565 Z"
       id="path1997" />
  </g>
</svg>
