<?xml version="1.0" encoding="UTF-8" standalone="no"?>
<svg
   xmlns:dc="http://purl.org/dc/elements/1.1/"
   xmlns:cc="http://creativecommons.org/ns#"
   xmlns:rdf="http://www.w3.org/1999/02/22-rdf-syntax-ns#"
   xmlns:svg="http://www.w3.org/2000/svg"
   xmlns="http://www.w3.org/2000/svg"
   xmlns:sodipodi="http://sodipodi.sourceforge.net/DTD/sodipodi-0.dtd"
   xmlns:inkscape="http://www.inkscape.org/namespaces/inkscape"
   width="80mm"
   height="80mm"
   viewBox="-29 -29 80 80"
   version="1.1"
   id="svg1542"
   inkscape:version="1.0.1 (3bc2e813f5, 2020-09-07)"
   sodipodi:docname="C750.svg">
  <defs
     id="defs1536" />
  <sodipodi:namedview
     id="base"
     pagecolor="#ffffff"
     bordercolor="#666666"
     borderopacity="1.0"
     inkscape:pageopacity="0.0"
     inkscape:pageshadow="2"
     inkscape:zoom="5.6"
     inkscape:cx="169.28525"
     inkscape:cy="159.00094"
     inkscape:document-units="mm"
     inkscape:current-layer="layer6"
     inkscape:document-rotation="0"
     showgrid="false"
     inkscape:snap-global="false"
     inkscape:window-width="1920"
     inkscape:window-height="1017"
     inkscape:window-x="-8"
     inkscape:window-y="-8"
     inkscape:window-maximized="1" />
<metadata
     id="metadata1539">
    <rdf:RDF>
      <cc:Work
         rdf:about="">
        <dc:format>image/svg+xml</dc:format>
        <dc:type
           rdf:resource="http://purl.org/dc/dcmitype/StillImage" />
        <dc:title></dc:title>
        <dc:creator>
          <cc:Agent>
            <dc:title>RexKramer1</dc:title>
          </cc:Agent>
        </dc:creator>
        <dc:rights>
          <cc:Agent>
            <dc:title>GNU General Public License v3.0</dc:title>
          </cc:Agent>
        </dc:rights>
      </cc:Work>
    </rdf:RDF>
  </metadata>
  <g
     inkscape:groupmode="layer"
     id="layer6"
     inkscape:label="Outline">
    <path
       style="fill:none;stroke:#000000;stroke-width:0.264583px;stroke-linecap:butt;stroke-linejoin:miter;stroke-opacity:1"
       d="M 10.795945,0.01181176 10.512463,0.34254093 10.051804,1.7835751 9.8037575,3.0119978 9.7801328,7.4177826 0.5433397,15.048176 l -0.3189174,0.348447 -0.2126116,0.419318 -0.03543527,0.460658 0.22442336,-0.242141 0.28348213,-0.17127 5.09086688,-2.763951 1.8426337,-0.815011 0.9331288,-0.2008 -0.047247,1.878069 0.082682,1.311105 0.2362351,0.944941 0.8032003,-0.01181 0.082682,-0.118117 0.035435,0.54334 0.7323293,0.779576 0.106306,0.708705 v 0.248047 l -3.8742567,3.449033 0.023625,0.826823 3.8388207,-2.173363 0.01181,0.767764 0.153553,0.661458 0.06496,-4e-6 0.147647,-0.637834 0.05906,-0.8032 3.803385,2.279669 V 21.92262 l -3.803385,-3.543527 -0.02362,-0.307105 0.129929,-0.555153 0.803199,-0.850446 -0.01181,-0.649647 0.08268,0.01181 0.07087,0.224423 0.791388,0.02362 0.248046,-0.94494 0.153553,-1.476469 -0.02362,-1.712705 0.862258,0.2008 1.889881,0.897693 4.606585,2.669457 0.47247,0.27167 0.377976,0.366165 -0.02362,-0.413412 L 20.741443,15.284412 20.351655,14.918248 11.68469,7.3916727 11.693042,3.040089 11.498915,1.7617148 11.100037,0.35914343 Z"
       id="path3746"
       sodipodi:nodetypes="ccccccccccccccccccccccccccccccccccccccccccccccccccccccccc" />
  </g>
</svg>
