<?xml version="1.0" encoding="UTF-8" standalone="no"?>
<svg
   width="360mm"
   height="360mm"
   viewBox="-142 -9 360 360"
   version="1.1"
   id="svg1542"
   inkscape:version="1.2.1 (9c6d41e410, 2022-07-14)"
   sodipodi:docname="CVN-65.svg"
   xml:space="preserve"
   xmlns:inkscape="http://www.inkscape.org/namespaces/inkscape"
   xmlns:sodipodi="http://sodipodi.sourceforge.net/DTD/sodipodi-0.dtd"
   xmlns="http://www.w3.org/2000/svg"
   xmlns:svg="http://www.w3.org/2000/svg"
   xmlns:rdf="http://www.w3.org/1999/02/22-rdf-syntax-ns#"
   xmlns:cc="http://creativecommons.org/ns#"
   xmlns:dc="http://purl.org/dc/elements/1.1/"><title
     id="title294">CVN-65 USS Enterprise</title><defs
     id="defs1536" /><sodipodi:namedview
     id="base"
     pagecolor="#ffffff"
     bordercolor="#666666"
     borderopacity="1.0"
     inkscape:pageopacity="0.0"
     inkscape:pageshadow="2"
     inkscape:zoom="0.5"
     inkscape:cx="507"
     inkscape:cy="579"
     inkscape:document-units="mm"
     inkscape:current-layer="layer4"
     inkscape:document-rotation="0"
     showgrid="false"
     inkscape:window-width="1920"
     inkscape:window-height="1121"
     inkscape:window-x="2391"
     inkscape:window-y="140"
     inkscape:window-maximized="1"
     inkscape:snap-global="false"
     inkscape:showpageshadow="2"
     inkscape:pagecheckerboard="0"
     inkscape:deskcolor="#d1d1d1" /><metadata
     id="metadata1539"><rdf:RDF><cc:Work
         rdf:about=""><dc:format>image/svg+xml</dc:format><dc:type
           rdf:resource="http://purl.org/dc/dcmitype/StillImage" /><dc:creator><cc:Agent><dc:title>RexKramer1</dc:title></cc:Agent></dc:creator><dc:rights><cc:Agent><dc:title>GNU General Public License v3.0</dc:title></cc:Agent></dc:rights><dc:title>CVN-65 USS Enterprise</dc:title></cc:Work></rdf:RDF></metadata><g
     inkscape:groupmode="layer"
     id="layer4"
     inkscape:label="Outline"
     style="display:inline"><path
       id="path373"
       style="fill:none;stroke:#000000;stroke-width:1.26775;stroke-dasharray:none"
       d="m 59.16723,323.40884 0.0821,2.58178 0.684004,-0.10758 0.0273,0.99505 H 59.08513 l -0.0821,2.25908 0.300916,0.13446 0.0273,4.03403 0.629282,0.18827 0.273623,3.3617 -39.261357,5.97038 -0.574549,-1.42536 -0.109465,-0.94127 -4.488672,0.0258 -0.851234,-8.48146 -2.398947,1.21709 -5.3008819,-0.11413 -2.050712,-1.52136 -0.7738459,-1.74955 v -3.68922 l 1.5090079,-2.28199 1.934621,-0.5325 v -2.77646 l -1.741162,0.0386 -0.154775,-11.06771 -2.3215689,-0.15214 -2.78586505,-0.60856 0.0773,-5.09645 4.95265795,0.0386 0.154775,-3.8794 -10.17615,-6.46566 0.232136,-28.449 h -0.851128 l -0.154767,-2.35804 1.005995,-0.53253 -1.005995,-0.6846 v -0.98886 l -1.392938,-0.22816 0.154775,-4.71615 1.934637,-2.0538 0.386918,-2.20598 -1.315556,-0.0767 0.232154,-5.2486 -1.315548,-0.15215 -0.0773,-3.34691 2.24416,-2.12988 0.154773,-2.20597 -1.238159,-0.22817 0.464315,-4.56402 -0.386909,-1.52128 -1.3155665,-0.30432 0.3095555,-4.25975 1.238162,-1.67343 -0.154768,-15.59377 -1.4703335,-0.3803 0.0773,-2.66237 2.0894145,-1.29307 0.464302,-2.35805 -1.470322,-1.74954 -1.0833945,-0.15222 0.2321515,-2.58619 1.77987,-1.21713 -2.3989415,-0.15209 -4.6431366,1.2931 -0.0773,-2.96658 7.3516121,-4.48792 v -0.76069 h -1.238163 l -1.7798805,-1.36921 -0.0773,-0.9128 1.6250915,-1.06491 -0.619072,-0.83681 1.702454,-1.44526 -3.7144805,-0.45634 -1.392945,-0.68464 0.464324,-3.42299 5.1074075,-0.6846 -0.619071,-1.5975 c 0,0 -1.547689,0.15226 -1.547689,-0.2281 0,-0.38036 0.0773,-3.65121 0.0773,-3.65121 l 2.166769,-1.67352 -0.386899,-3.1947 -1.857245,-1.06496 -0.0774,-1.74955 2.166787,-1.29312 -2.7084695,-7.45464 v -1.36921 l -2.244194,0.0766 v -1.06497 l 2.089408,-0.0767 v -10.8776 l 3.2501925,-1.06496 -0.0774,-3.72723 -2.47633,0.0767 0.386906,-1.52146 1.160769,-0.15199 -0.541697,-8.74781 1.470332,-0.15207 -0.0773,-6.54171 -0.541684,-0.76068 -2.0120395,0.45636 v -1.59743 l 2.2441925,-0.0768 -1.547719,-6.84604 1.392962,0.0767 -0.619082,-3.80336 22.2869479,-6.08528 0.541694,-1.06496 -2.244173,-1.14117 0.386918,-2.205865 1.31555,-0.07615 -0.309563,-3.195011 -1.392928,0.152142 -2.012019,-0.912817 0.464317,-4.03153 3.404946,-1.67348 -0.07741,-2.129866 1.083384,-0.304263 v -2.510628 l -0.541696,-0.456393 v -2.890546 l 1.083414,-2.053801 -0.0774,-1.445274 -0.619091,-0.152127 0.154768,-6.61782 0.77385,-0.608552 -0.309546,-0.456446 -1.702473,0.152136 -0.773846,-0.4564 V 68.35582 l 1.238157,-0.912803 1.392929,0.53247 0.541698,-16.126168 0.541697,-1.825606 -1.470325,-0.228197 0.61908,-1.597408 1.392963,-0.2282 0.154768,-9.051956 -1.547711,-0.228196 -0.309503,-2.053803 1.625092,-0.152135 0.619092,-5.172547 -1.470344,-0.07613 v -1.445205 h 1.625111 v -0.760662 l -1.238182,-1.901673 0.619091,-3.879403 -1.006021,0.07612 v -1.44524 l 1.392902,-0.152142 1.083399,-2.053801 V 8.0347083 l 2.16679,-1.2170717 1.547698,-0.2281859 1.160789,-5.4007433 3.095406,0.1521393 0.124707,5.4217414 v 0 m -0.20216,-0.097097 14.935356,0.3042785 0.232172,-5.6289479 3.018023,0.1521403 0.696455,5.1725465 1.77988,0.076056 1.702466,1.9016727 1.470335,12.5510328 1.470304,-0.07612 0.154769,1.559362 -1.160765,0.266218 0.193455,6.199443 1.160789,0.03806 0.116086,1.331171 -1.083405,0.03806 v 3.004641 l -0.967299,1.064935 0.116085,1.635437 0.541697,0.03806 0.270815,8.785718 0.735157,0.418368 0.0389,0.608534 1.702485,0.152138 0.0773,1.255098 h -1.741175 l 0.23216,6.389613 1.97332,-0.03806 0.19345,1.255106 -1.663768,0.152133 0.0774,3.993509 7.196814,10.23099 v 2.282002 l -0.928597,1.787575 -2.012037,1.293137 -3.327562,0.03808 v 3.575138 l 0.773843,0.114093 -0.193454,4.373834 -0.735158,0.152144 0.193451,6.237477 h 0.696476 l 0.0389,7.226346 0.348243,0.304264 1.122097,-0.114089 3.637098,3.270865 -1.160773,0.41839 0.0774,0.64661 h 1.586383 l 1.083403,0.98883 -0.348225,0.87463 3.327566,0.15227 0.0389,1.67343 -0.928641,0.0384 0.116117,0.87463 3.985334,4.7543 1.044711,-0.0767 3.404934,3.27073 -0.348231,1.0269 3.172807,3.38496 -0.154788,31.87211 0.735171,0.15204 0.502991,0.83686 4.37227,0.0386 0.1161,4.06962 -1.93464,0.49431 -3.869258,-0.0767 0.232154,0.95087 0.812539,0.0386 0.0774,7.18829 -1.160789,0.19005 v 1.06496 l 0.967329,-0.0767 0.889925,0.72261 -0.889925,0.5706 -0.967329,0.19012 0.0773,1.29307 0.657784,-0.0386 0.0389,1.8256 -0.69647,-0.0386 0.0773,32.74685 0.580385,0.0386 0.0774,7.15023 -0.580383,0.11412 -0.116111,2.89047 h 0.580397 l 0.309565,0.98891 -0.0389,1.02691 -0.464324,1.10294 -0.464312,-0.11406 0.116101,1.82555 h 1.547712 l -0.0773,7.87292 -1.470328,0.11418 v 1.82559 l 0.657769,0.0386 -0.0774,7.15027 1.044702,0.45636 0.232186,3.15676 -1.934642,0.0767 v 27.49819 l -6.50035,0.91279 -0.116085,0.49446 0.967289,0.76066 -0.116087,0.72266 -0.386918,-0.0386 v 12.96941 l -0.889935,0.11412 0.116096,4.60201 1.006019,-0.0766 -0.0774,1.93973 -0.69647,-0.0767 0.0389,1.4453 -1.431639,-0.11417 -0.116098,-1.59735 -0.657764,0.0386 0.270878,5.66692 -1.006015,-0.11405 0.0773,1.93972 -1.005997,0.11411 -0.193464,2.70035 -0.851224,2.62429 -1.006031,1.93971 -2.012001,1.52136 -3.172791,1.02689 -0.270825,-0.87475 -4.217503,-0.11411 v 0.98885 l 2.205473,0.57051 -0.0389,1.7115 0.270844,0.0386 -0.0389,3.1187 0.773851,0.30433 -0.0389,0.83673 c 0,0 -0.967329,-0.22819 -0.967329,-0.0766 0,0.15217 0.23216,1.17905 0.23216,1.17905 l -1.586398,0.83672 0.154768,1.02692 1.19947,0.15211 0.541698,1.14099 -0.425607,0.76069 -0.928602,0.19016 0.193451,1.40727 0.503015,-0.0386 0.116085,1.63543 0.928647,-0.0386 0.116097,3.00467"
       inkscape:label="path373" /></g><g
     inkscape:groupmode="layer"
     id="layer5"
     inkscape:label="Accent"><path
       id="path578"
       style="fill:none;stroke:#000000;stroke-width:0.808366"
       d="m -4.9477819,165.2041 -12.7168531,-0.076 v -0.60239 l 13.4829231,0.22589 m -0.9959,52.78694 -12.4870231,-0.22592 v -0.45182 l 12.7168531,0.0761 m -0.459652,7.68089 -12.4104281,-0.076 0.0766,-0.45187 12.4870211,0.15068 m 0.76608,28.53956 -13.3297051,-0.22588 0.0766,-0.60242 13.2531111,0.22592 M 48.944358,6.5893381 l 0.216661,1.9168865 1.625103,0.2129768 5.633645,89.1351196 19.067715,20.127349 0.541707,93.71424 M 30.093314,6.163434 30.743347,9.0387602 45.260822,8.9322487 44.935786,6.6958825 M -6.3087184,145.56345 l 3.0334855,-1.81039 0.866734,-21.83105 -2.058453,-10.22355 23.7263169,-6.17644 4.983603,-97.3352049 1.950109,0.4259538 -0.216661,-2.3428598 M 27.276461,245.24153 3.5501592,109.4623 28.359867,245.66748 M 18.067628,216.27527 1.1666931,109.99469 H 2.9001342 L 19.584403,215.63631 m -0.630643,10.14844 3.75377,-0.48945 m -6.35842,4.3675 10.571844,-2.4096 -0.612872,-2.40976 -3.677156,0.45188 -1.685375,-8.88571 -3.983591,0.90363 1.685365,8.58446 -3.064301,1.05427 0.612871,2.25906 m 12.870058,22.7413 -1.302327,-6.70195 11.874161,-2.03313 0.919277,-1.12954 m -12.257181,9.93989 -0.99592,-6.7019 -13.023266,2.56027 -1.072497,-1.65663 m 16.777018,11.06941 -0.842672,-5.1205 16.623851,-3.0121 -0.229851,-8.05742 M 29.21916,257.67528 28.376488,252.1029 c 0,0 -17.849552,3.38858 -17.849552,3.08743 0,-0.30121 -1.7619739,-5.49708 -1.7619739,-5.49708 l -0.61286,-2.40965 m 23.9015419,21.76233 -2.221633,-11.82243 11.874171,-2.03317 1.608771,-2.03319 m -12.180616,16.2653 -1.685346,-11.6719 -12.410423,1.95791 -2.528039,-1.73193 m 19.688113,23.64487 -2.298207,-12.65072 12.02738,-1.73202 1.685344,-1.28008 m -11.950775,15.58755 -2.374809,-12.19895 -12.563639,2.33433 -1.455546,-1.3554 m 25.816722,62.19971 -8.809866,-51.13029 11.491151,-1.95785 1.685346,-1.80725 m -4.826255,55.12128 -9.039707,-51.13031 -13.406299,2.0332 -1.072514,-1.43072 m -13.8659529,22.36476 2.834479,-0.2259 -0.383028,-5.79827 -10.035589,-6.25007 0.0766,-119.58009 -1.761976,-7.60556 m 37.0013949,174.55079 -0.383009,-3.84043 -10.26542,1.65664 -2.374838,-18.90088 -12.1805819,-0.0761 0.30645,-10.24112 -3.294124,-0.15062 M 50.209598,331.6217 36.420251,333.88077 1.7170411,142.4623 -0.27475585,142.61289 35.117924,334.48322 33.585757,334.33264 -1.2706529,143.0647 l -1.149104,0.67784 34.7798019,192.09619 m -0.306435,0.15059 22.599203,-3.91568 -40.44876,-225.15384 -4.5964539,1.05416 40.4742879,223.58031 1.516752,-0.0535 -40.458889,-223.48927 1.685366,-0.41418 40.154843,223.69057 -1.38187,0.23029 m -48.9688469,-95.16929 -0.10835,-13.36491 -0.920882,0.10647 0.162516,-98.77271 h 2.0042691 l 0.162515,98.826 -0.866715,0.0537 -0.0542,13.09881 v 0 m -2.38347605,-7e-5 4.22524695,0.42592 v 0 m -5.30863395,2.12988 c 0.758375,0 6.28367995,0.21304 6.28367995,0.21304 v -2.98186 c 0,0 -1.083396,0.85192 -1.083396,0.1065 0,-0.7455 0.216671,-9.05205 0.216671,-9.05205 l -4.98360195,-0.42589 0.541693,9.58444 h -0.975056 z m -4.11691605,50.26498 21.1261939,0.10644 -0.108351,-21.08567 -7.2587459,0.21296 -7.367077,-3.5143 -5.741996,0.10643 m 18.4358089,55.38401 0.61285,11.89774 v 0 M 77.788268,264.97954 H 66.909984 l -0.766075,28.61489 -11.950765,-0.30121 v 17.0936 l 3.447354,25.2263 -35.545889,5.72298 -1.532167,-0.52712 0.0766,-3.16271 -1.149119,-1.43074 -0.536256,-16.26529 -11.0314799,0.5271 m 70.3256689,-81.85355 -5.362526,-0.22596 -7.277719,3.84038 -7.890559,-0.0761 0.153199,20.63288 20.300983,-0.30125 M 63.245082,230.59852 h 0.812538 l -0.595879,-7.18828 h 1.462584 c 0,0 1.083394,-0.53245 0.866721,-0.63896 -0.216679,-0.10644 -3.629372,-0.21294 -3.629372,-0.21294 l -4.171071,1.01165 0.595871,1.17139 3.5752,-1.2246 h 1.137578 z m -2.11264,-19.7013 0.325036,1.54416 5.57948,0.0538 -0.162535,-1.59746 z m 1.895946,10.22345 c 0,0 2.1668,0.47923 2.1668,0.21293 0,-0.26623 -0.433392,-3.40784 -0.433392,-3.40784 l 2.979341,0.0537 -0.162525,-1.65062 -0.812545,-0.21301 -0.162507,-0.69228 0.866703,0.10649 -0.162498,-1.22461 -1.895946,-1.06496 -2.762642,0.15974 -2.329306,0.90522 0.0541,1.54416 2.708477,-0.0537 -0.216661,1.11823 -2.762659,-0.21298 0.21667,1.2779 2.491796,0.10648 0.0542,3.14159 m -11.971426,-8.46631 5.796154,-0.15973 0.108345,4.57923 -5.687808,-0.47923 -0.108355,-2.66232 -0.216651,-1.38448 m -0.162539,-0.26618 0.0541,-2.55586 0.920881,-0.37277 2.491806,-0.10644 c 0,0 -0.270876,-1.22474 0,-1.22474 0.270803,0 2.220956,0.213 2.220956,0.213 l 0.108362,1.33113 4.821074,-0.47921 0.0541,-1.06493 4.387733,0.42609 0.433382,1.2246 h 5.633645 l 0.108345,-1.59732 2.76267,0.21294 -0.108357,8.94542 1.083386,0.10643 0.108357,6.2832 -0.866715,0.0537 0.0541,3.14158 -3.196001,0.0537 0.108346,-1.9702 c 0,0 1.029222,0.5857 1.029222,0 0,-0.5857 -0.162515,-2.60906 -0.162515,-2.60906 h -0.975033 l 0.0542,-1.70392 1.083395,-0.37276 v -3.08832 l -2.112624,0.63902 -3.791876,5.16493 1.679266,0.26614 -0.162509,1.11821 -2.220972,0.0537 -0.108345,2.28956 -4.062726,-0.31948 -0.216681,-1.91689 -3.68355,-5.16499 -1.354235,-1.97004 -2.383459,-0.0536 -0.108357,4.952 -0.0541,1.49088 2.925178,2.82213 m -2.984961,-19.90962 -0.0766,-6.85255 h 2.37484 l -0.153208,6.47602 12.487015,0.30125 0.22984,-3.23796 2.068384,-2.03325 3.140909,2.03325 -0.229812,3.01209 0.842673,0.30117 -0.229812,5.42185 4.213408,0.22581 0.0766,2.5603 -4.366628,-0.15052 0.153202,2.40962 5.132699,0.0761 0.0766,7.68093 -5.285908,-0.0761 0.153188,1.95792 -13.099883,-0.076 0.0766,2.86155 -0.766058,-0.0761 -0.153198,1.6566 -0.459664,-0.15055 -0.0766,-1.50604 h -0.842683 l 0.153207,-2.78628 h -2.681268 l -1.072501,0.67776 -0.689465,3.08737 -1.302327,1.20486 -2.604672,-0.45184 -3.447333,-3.53917 0.459662,-2.86155 2.987681,-2.03308 2.987692,-0.52712 v -4.89463 l -4.596443,-0.5272 -1.149118,-0.3765 0.38304,-2.2591 1.761953,-0.15051 -1.072488,-0.8283 -0.536267,0.0761 v -4.14162 l 1.915186,-1.05426 1.915187,0.30126 0.0766,-1.88257 1.235293,0.13648 m 23.776533,-36.19853 -5.200283,0.10649 -7.475429,4.25966 -7.475407,0.10651 v 20.8727 H 78.19574 m 0,-73.16111 h -5.741995 l -7.258717,3.94029 H 57.61126 l 0.216668,20.55331 20.367799,-0.21304 M 51.068445,106.12288 45.569236,11.953055 h 1.641604 l 5.854996,94.235425 z m 1.477557,13.24351 -0.766081,-13.20474 h 0.41042 l 0.793431,13.20474 z m -2.079348,0.242 -0.273594,-9.0899 4.186034,-0.10763 0.43775,8.92863 m -4.404902,2.90448 c 0,-0.215 0.136797,-2.55479 0.136797,-2.55479 l 5.280457,-0.3765 -0.0273,2.55479 m -8.430516,0.49109 12.925294,-0.67995 -0.348248,-2.62435 -12.575096,0.7606 z m -17.506646,-1.0826 -0.355669,-5e-5 -0.109465,-13.01653 -0.738747,-0.0814 -0.0534,-95.199564 1.77986,0.07612 0.0246,95.123444 -0.478804,0.0543 -0.0412,12.58622 z m -2.407662,2.50107 -0.0821,-2.63559 4.815333,0.13451 -0.0548,2.6356 m -8.603445,0.12897 11.962656,-0.23197 -0.154769,-2.58641 H 31.62545 l 0.309565,-8.97592 H 27.29189 l 0.619082,8.67169 -4.024024,0.30425 z"
       inkscape:export-filename="..\Shapes PNG\CVN-65.png"
       inkscape:export-xdpi="24.280001"
       inkscape:export-ydpi="24.280001" /></g></svg>
