<?xml version="1.0" encoding="UTF-8" standalone="no"?>
<svg
   xmlns:dc="http://purl.org/dc/elements/1.1/"
   xmlns:cc="http://creativecommons.org/ns#"
   xmlns:rdf="http://www.w3.org/1999/02/22-rdf-syntax-ns#"
   xmlns:svg="http://www.w3.org/2000/svg"
   xmlns="http://www.w3.org/2000/svg"
   xmlns:sodipodi="http://sodipodi.sourceforge.net/DTD/sodipodi-0.dtd"
   xmlns:inkscape="http://www.inkscape.org/namespaces/inkscape"
   width="80mm"
   height="80mm"
   viewBox="-30 -29 80 80"
   version="1.1"
   id="svg1542"
   inkscape:version="1.0.1 (3bc2e813f5, 2020-09-07)"
   sodipodi:docname="D328.svg">
  <defs
     id="defs1536" />
  <sodipodi:namedview
     id="base"
     pagecolor="#ffffff"
     bordercolor="#666666"
     borderopacity="1.0"
     inkscape:pageopacity="0.0"
     inkscape:pageshadow="2"
     inkscape:zoom="3.959798"
     inkscape:cx="153.46855"
     inkscape:cy="179.06122"
     inkscape:document-units="mm"
     inkscape:current-layer="layer2"
     inkscape:document-rotation="0"
     showgrid="false"
     inkscape:window-width="1920"
     inkscape:window-height="1017"
     inkscape:window-x="-8"
     inkscape:window-y="-8"
     inkscape:window-maximized="1">
    <inkscape:grid
       type="xygrid"
       id="grid1414" />
  </sodipodi:namedview>
<metadata
     id="metadata1539">
    <rdf:RDF>
      <cc:Work
         rdf:about="">
        <dc:format>image/svg+xml</dc:format>
        <dc:type
           rdf:resource="http://purl.org/dc/dcmitype/StillImage" />
        <dc:title></dc:title>
        <dc:creator>
          <cc:Agent>
            <dc:title>RexKramer1</dc:title>
          </cc:Agent>
        </dc:creator>
        <dc:rights>
          <cc:Agent>
            <dc:title>GNU General Public License v3.0</dc:title>
          </cc:Agent>
        </dc:rights>
      </cc:Work>
    </rdf:RDF>
  </metadata>
  <g
     inkscape:groupmode="layer"
     id="layer2"
     inkscape:label="Outline">
    <path
       style="fill:none;stroke:#000000;stroke-width:0.137993px;stroke-linecap:butt;stroke-linejoin:miter;stroke-opacity:1"
       d="M 10.635975,0.0881685 10.043547,0.75029398 9.6863471,1.4995416 9.4685424,2.4578813 9.3988444,3.0503097 9.3814193,7.057912 9.2420237,7.632916 9.1723271,8.1904954 7.4647399,8.1556453 V 6.7616972 L 7.3601928,6.0647222 6.9594324,5.2980517 6.5760977,6.0472987 6.454126,6.7094237 V 8.1730698 L 1.5230339,8.7132248 0.28590393,9.9677798 V 10.21172 l 8.83414967,0.226517 0.1742431,1.533344 0.03485,2.543955 0.069696,1.028038 0.6969753,4.530334 -2.7878968,0.575002 v 0.940916 l 3.1886568,0.261366 3.328053,-0.261366 -0.01743,-0.836369 -2.892445,-0.679549 0.453034,-2.578807 0.383336,-1.951527 0.104546,-1.097734 -0.03485,-2.509108 0.226518,-1.481071 9.025817,-0.139394 L 21.020882,9.9677798 19.853458,8.7132248 14.887515,8.2079189 14.87009,6.8488183 14.765544,6.0472987 14.347359,5.2806272 13.981448,6.0298743 13.842054,6.6919992 V 8.1730698 H 12.134467 L 12.047345,7.6067784 11.925374,7.1450336 11.907949,3.1200063 11.820828,2.4404557 11.611736,1.569238 11.210975,0.73286894 Z"
       id="path1416"
       sodipodi:nodetypes="cccccccccccccccccccccccccccccccccccccccccccccccccccc" />
  </g>
</svg>
