<?xml version="1.0" encoding="UTF-8" standalone="no"?>
<svg
   xmlns:dc="http://purl.org/dc/elements/1.1/"
   xmlns:cc="http://creativecommons.org/ns#"
   xmlns:rdf="http://www.w3.org/1999/02/22-rdf-syntax-ns#"
   xmlns:svg="http://www.w3.org/2000/svg"
   xmlns="http://www.w3.org/2000/svg"
   xmlns:sodipodi="http://sodipodi.sourceforge.net/DTD/sodipodi-0.dtd"
   xmlns:inkscape="http://www.inkscape.org/namespaces/inkscape"
   width="80mm"
   height="80mm"
   viewBox="-26 -27 80 80"
   version="1.1"
   id="svg1542"
   inkscape:version="1.0.1 (3bc2e813f5, 2020-09-07)"
   sodipodi:docname="DH8C.svg">
  <defs
     id="defs1536" />
  <sodipodi:namedview
     id="base"
     pagecolor="#ffffff"
     bordercolor="#666666"
     borderopacity="1.0"
     inkscape:pageopacity="0.0"
     inkscape:pageshadow="2"
     inkscape:zoom="3.959798"
     inkscape:cx="110.44077"
     inkscape:cy="172.51986"
     inkscape:document-units="mm"
     inkscape:current-layer="layer2"
     inkscape:document-rotation="0"
     showgrid="false"
     inkscape:window-width="1920"
     inkscape:window-height="1017"
     inkscape:window-x="-8"
     inkscape:window-y="-8"
     inkscape:window-maximized="1">
    <inkscape:grid
       type="xygrid"
       id="grid1414" />
  </sodipodi:namedview>
<metadata
     id="metadata1539">
    <rdf:RDF>
      <cc:Work
         rdf:about="">
        <dc:format>image/svg+xml</dc:format>
        <dc:type
           rdf:resource="http://purl.org/dc/dcmitype/StillImage" />
        <dc:title></dc:title>
        <dc:creator>
          <cc:Agent>
            <dc:title>RexKramer1</dc:title>
          </cc:Agent>
        </dc:creator>
        <dc:rights>
          <cc:Agent>
            <dc:title>GNU General Public License v3.0</dc:title>
          </cc:Agent>
        </dc:rights>
      </cc:Work>
    </rdf:RDF>
  </metadata>
  <g
     inkscape:groupmode="layer"
     id="layer2"
     inkscape:label="Outline">
    <path
       style="fill:none;stroke:#000000;stroke-width:0.119744px;stroke-linecap:butt;stroke-linejoin:miter;stroke-opacity:1"
       d="m 14.488505,0.15897396 -0.453601,0.48383964 -0.619919,1.5271187 -0.39312,1.6480781 -0.09073,7.0610346 -2.283118,0.01512 -0.09072,-1.6631983 -0.06048,-0.2721608 -0.317519,-0.6350392 -0.2721604,0.6199205 -0.090725,0.2872795 v 1.6631983 l -9.28367073,0.80136 -0.39312002,1.224718 4.14287585,0.34776 0.13608,0.24192 0.1814396,-0.226799 2.5703987,0.151199 0.1965592,0.36288 0.1663191,-0.347759 2.192399,0.151199 0.1058398,0.8316 0.3653129,0.93878 0.379546,-0.930156 0.02673,-0.860662 2.368154,0.01604 0.0107,4.629395 0.866006,6.051358 -3.742006,0.470424 -0.0107,1.646482 4.009293,0.02138 0.128297,0.320742 0.149681,-0.320742 c 0,0 4.062749,0.09622 4.062749,0.03207 0,-0.06415 -0.04277,-1.603718 -0.04277,-1.603718 l -3.731315,-0.555955 1.004996,-6.051358 0.09622,-4.586629 2.309352,0.02138 0.03207,0.844624 0.395584,0.866007 0.384893,-0.844624 0.05345,-0.919464 2.266587,-0.07484 0.117605,0.267286 0.14968,-0.310051 2.715627,-0.09622 0.06415,0.256595 0.138989,-0.288668 L 28.6877,13.211354 28.270734,11.896307 19.00125,10.95546 18.958484,9.373126 18.862261,9.1165302 18.541517,8.4215868 18.1887,9.1272227 18.145933,9.4051999 18.12455,10.944768 15.783122,10.934072 15.804505,3.8242608 15.47307,2.1777782 14.88504,0.65959296 Z"
       id="path1416" />
  </g>
</svg>
