<?xml version="1.0" encoding="UTF-8" standalone="no"?>
<svg
   width="80mm"
   height="80mm"
   viewBox="-27 -24 80 80"
   version="1.1"
   id="svg1542"
   inkscape:version="1.2.1 (9c6d41e410, 2022-07-14)"
   sodipodi:docname="E175.svg"
   xmlns:inkscape="http://www.inkscape.org/namespaces/inkscape"
   xmlns:sodipodi="http://sodipodi.sourceforge.net/DTD/sodipodi-0.dtd"
   xmlns="http://www.w3.org/2000/svg"
   xmlns:svg="http://www.w3.org/2000/svg"
   xmlns:rdf="http://www.w3.org/1999/02/22-rdf-syntax-ns#"
   xmlns:cc="http://creativecommons.org/ns#"
   xmlns:dc="http://purl.org/dc/elements/1.1/">
  <title
     id="title1907">Embraer ERJ-175</title>
  <defs
     id="defs1536" />
  <sodipodi:namedview
     id="base"
     pagecolor="#ffffff"
     bordercolor="#666666"
     borderopacity="1.0"
     inkscape:pageopacity="0.0"
     inkscape:pageshadow="2"
     inkscape:zoom="4"
     inkscape:cx="125.375"
     inkscape:cy="134.375"
     inkscape:document-units="mm"
     inkscape:current-layer="layer2"
     inkscape:document-rotation="0"
     showgrid="false"
     inkscape:window-width="1920"
     inkscape:window-height="1121"
     inkscape:window-x="2391"
     inkscape:window-y="140"
     inkscape:window-maximized="1"
     inkscape:showpageshadow="2"
     inkscape:pagecheckerboard="0"
     inkscape:deskcolor="#d1d1d1" />
  <metadata
     id="metadata1539">
    <rdf:RDF>
      <cc:Work
         rdf:about="">
        <dc:format>image/svg+xml</dc:format>
        <dc:type
           rdf:resource="http://purl.org/dc/dcmitype/StillImage" />
        <dc:creator>
          <cc:Agent>
            <dc:title>RexKramer1</dc:title>
          </cc:Agent>
        </dc:creator>
        <dc:rights>
          <cc:Agent>
            <dc:title>GNU General Public License v3.0</dc:title>
          </cc:Agent>
        </dc:rights>
        <dc:title>Embraer ERJ-175</dc:title>
      </cc:Work>
    </rdf:RDF>
  </metadata>
  <g
     inkscape:groupmode="layer"
     id="layer2"
     inkscape:label="Pfade"
     style="display:inline;opacity:1">
    <path
       style="opacity:1;fill:none;stroke:#000000;stroke-width:0.264583px;stroke-linecap:butt;stroke-linejoin:miter;stroke-opacity:1"
       d="M 13.315013,-0.07913591 12.635317,0.54103041 12.077239,1.5617503 11.689672,3.1715925 11.738987,10.175801 9.5161334,11.281923 9.5482686,10.903652 9.4972695,9.1204527 9.3763733,8.8025783 8.1008554,8.8255211 7.9968212,9.0862974 7.8574564,9.3591945 l 9.708e-4,1.4647065 0.1597315,0.707339 0.2005862,-0.02537 0.015109,0.377859 -7.55296685,3.491453 -0.51491359,1.906259 0.005566,0.637811 0.5698895,-1.020823 4.10157315,-1.039831 0.143591,0.211366 0.1414264,-0.03667 0.068188,-0.307713 2.1331049,-0.561977 0.1318827,0.223282 0.1536497,0.01047 0.1152271,-0.331747 0.7778971,-0.195785 1.1455938,-0.02181 0.1101151,0.43609 0.1300278,0.01068 0.1261118,-0.438152 1.629856,-0.02603 -0.01649,4.878585 0.326885,2.265091 0.268919,1.037127 -3.9563929,2.786771 -0.1858887,0.355988 0.066375,0.838086 4.4683405,-0.972157 0.18387,0.766186 0.300231,0.564367 0.295282,-0.0026 0.127244,-0.308229 0.207657,-0.568799 0.125493,-0.509016 4.426704,1.024465 0.002,-1.122176 -4.052908,-2.858621 0.387977,-1.562597 0.209677,-1.690975 -0.0069,-4.854755 1.665291,-0.02634 0.09768,0.365325 0.188981,-0.0016 0.05597,-0.354855 1.146005,0.02544 0.804818,0.181972 0.08556,0.329995 0.200895,0.01006 0.06839,-0.28409 2.214589,0.65397 0.06174,0.306579 0.165462,0.01037 0.12745,-0.284606 4.072881,1.086616 0.457179,0.9528 0.141736,-0.0012 -0.01738,-0.637706 -0.583022,-1.837616 -7.460955,-3.561236 -0.01459,-0.318802 0.248141,0.0096 0.14695,-0.757264 -0.06106,-1.5823039 -0.227816,-0.3878143 -1.216462,0.022427 -0.175109,0.2377722 -0.0308,0.5318176 0.05008,1.676897 -2.147114,-1.044368 -0.0261,-7.0516601 -0.42876,-1.7562768 -0.552803,-1.08189874 z"
       id="path1413" />
  </g>
  <g
     inkscape:groupmode="layer"
     id="layer3"
     inkscape:label="Accent">
    <path
       id="path1876"
       style="fill:#ffffff;stroke:#000000;stroke-width:0.264999"
       d="m 13.144095,26.550376 -0.221937,-2.652482 0.150042,-4.246047 0.138985,-0.153227 0.141739,0.16247 0.189351,4.278166 -0.292946,2.610204 z m 0.67368,-0.520391 0.02783,-0.830481 0.122293,-0.726064 0.30274,-1.487715 m -1.657102,3.066461 -0.05452,-0.888227 -0.03002,-0.759814 -0.292663,-1.377279 m 13.522264,-6.075928 0.07012,-1.439339 m -11.01904,-0.435374 0.06391,-4.73642 m -3.221828,4.658738 0.05283,-4.666164 m 6.265276,1.448775 -0.0148,-1.695429 -0.185854,-0.2406003 -0.165432,0.1851993 0.01063,1.699639 m 0.690005,0.222133 -0.340452,-0.09743 -0.05576,0.378477 c 0,0 -0.188363,0.07252 -0.188776,0.02528 -4.12e-4,-0.04725 -0.11125,-0.566015 -0.11125,-0.566015 L 16.991319,11.39067 m -8.4656925,0.472902 -0.014795,-1.695428 0.1816271,-0.2438077 0.1686392,0.1822837 0.019002,1.699566 m -0.685993,0.234141 0.3386989,-0.10336 0.062354,0.377447 c 0,0 0.1896004,0.06922 0.1891882,0.02198 -4.123e-4,-0.04725 0.1013553,-0.567872 0.1013553,-0.567872 L 9.4972089,11.45607 M 0.7106959,17.072668 0.685985,15.596356 m 12.791499,-13.3312488 -0.0023,-0.2672592 0.319914,0.049409 0.338184,0.2288305 -0.136039,0.203735 -0.293973,-0.187454 z m 1.18366,0.8820311 -0.176887,0.034016 -0.216391,-0.4322098 0.157702,-0.2021845 0.107873,0.1791951 z m -1.566879,-0.8745105 -0.0023,-0.2672593 -0.319004,0.054985 -0.334138,0.2346978 0.139573,0.2013298 0.290657,-0.192556 z m -1.168086,0.9025545 0.177453,0.030924 0.208815,-0.4359205 -0.161206,-0.1994015 -0.104729,0.1810505 z" />
  </g>
</svg>
