<?xml version="1.0" encoding="UTF-8" standalone="no"?>
<svg
   xmlns:dc="http://purl.org/dc/elements/1.1/"
   xmlns:cc="http://creativecommons.org/ns#"
   xmlns:rdf="http://www.w3.org/1999/02/22-rdf-syntax-ns#"
   xmlns:svg="http://www.w3.org/2000/svg"
   xmlns="http://www.w3.org/2000/svg"
   xmlns:sodipodi="http://sodipodi.sourceforge.net/DTD/sodipodi-0.dtd"
   xmlns:inkscape="http://www.inkscape.org/namespaces/inkscape"
   width="80mm"
   height="80mm"
   viewBox="-27 -24 80 80"
   version="1.1"
   id="svg1542"
   inkscape:version="1.0.1 (3bc2e813f5, 2020-09-07)"
   sodipodi:docname="E175.svg">
  <defs
     id="defs1536" />
  <sodipodi:namedview
     id="base"
     pagecolor="#ffffff"
     bordercolor="#666666"
     borderopacity="1.0"
     inkscape:pageopacity="0.0"
     inkscape:pageshadow="2"
     inkscape:zoom="2.8"
     inkscape:cx="123.46678"
     inkscape:cy="148.71111"
     inkscape:document-units="mm"
     inkscape:current-layer="layer2"
     inkscape:document-rotation="0"
     showgrid="false"
     inkscape:window-width="1920"
     inkscape:window-height="1017"
     inkscape:window-x="-8"
     inkscape:window-y="-8"
     inkscape:window-maximized="1" />
<metadata
     id="metadata1539">
    <rdf:RDF>
      <cc:Work
         rdf:about="">
        <dc:format>image/svg+xml</dc:format>
        <dc:type
           rdf:resource="http://purl.org/dc/dcmitype/StillImage" />
        <dc:title></dc:title>
        <dc:creator>
          <cc:Agent>
            <dc:title>RexKramer1</dc:title>
          </cc:Agent>
        </dc:creator>
        <dc:rights>
          <cc:Agent>
            <dc:title>GNU General Public License v3.0</dc:title>
          </cc:Agent>
        </dc:rights>
      </cc:Work>
    </rdf:RDF>
  </metadata>
  <g
     inkscape:groupmode="layer"
     id="layer2"
     inkscape:label="Outline"
     style="display:inline;opacity:1">
    <path
       style="opacity:1;fill:none;stroke:#000000;stroke-width:0.264583px;stroke-linecap:butt;stroke-linejoin:miter;stroke-opacity:1"
       d="M 13.418155,0.07087084 12.733073,0.68508216 12.166109,1.7008931 11.764509,3.3072919 11.752699,10.311664 9.5202772,11.398346 9.5557122,11.02037 9.5202762,9.2367935 9.4021585,8.9178762 8.126489,8.9296872 8.0201831,9.1895458 l -0.141741,0.2716705 -0.011811,1.4646587 0.1535528,0.708706 0.2008,-0.02362 0.011811,0.377976 -7.58314752,3.425409 -0.53152903,1.901693 v 0.637835 l 0.57877605,-1.015811 4.1104911,-1.003999 0.141741,0.212611 0.141741,-0.03543 0.070871,-0.307106 2.1379278,-0.543341 0.1299292,0.224424 0.1535525,0.01181 0.1181177,-0.330729 0.779576,-0.188989 1.1457405,-0.01181 0.1063054,0.437035 0.1299297,0.01181 0.1299298,-0.437035 1.6300219,-0.01181 -0.05906,4.878256 0.307106,2.267857 0.259858,1.039434 -3.9805613,2.752139 -0.1889882,0.354353 0.059059,0.838633 4.4766545,-0.933127 0.177177,0.767762 0.295294,0.566965 h 0.295294 l 0.129929,-0.307107 0.212612,-0.566965 0.12993,-0.507902 4.417596,1.063056 0.01181,-1.122115 -4.027808,-2.89388 0.401598,-1.559152 0.224425,-1.689081 0.03543,-4.854631 1.665457,-0.01181 0.09449,0.366164 h 0.188988 l 0.05906,-0.354353 1.14574,0.03544 0.803199,0.188988 0.08268,0.330729 0.2008,0.01181 0.07087,-0.283482 2.208798,0.67327 0.05906,0.307106 0.165365,0.01181 0.129929,-0.283483 4.063244,1.122117 0.448847,0.956753 h 0.141741 l -0.01181,-0.637833 -0.566964,-1.842634 -7.429594,-3.626209 -0.01181,-0.318917 0.248047,0.01181 0.153553,-0.755953 -0.04725,-1.5827762 -0.224423,-0.3897876 -1.216611,0.011811 -0.177177,0.2362351 -0.03544,0.5315286 0.03544,1.6772701 -2.137918,-1.063065 0.03544,-7.0516194 L 14.528458,1.570967 13.985117,0.48428547 Z"
       id="path1413" />
  </g>
</svg>
