<?xml version="1.0" encoding="UTF-8" standalone="no"?>
<svg
   xmlns:dc="http://purl.org/dc/elements/1.1/"
   xmlns:cc="http://creativecommons.org/ns#"
   xmlns:rdf="http://www.w3.org/1999/02/22-rdf-syntax-ns#"
   xmlns:svg="http://www.w3.org/2000/svg"
   xmlns="http://www.w3.org/2000/svg"
   xmlns:sodipodi="http://sodipodi.sourceforge.net/DTD/sodipodi-0.dtd"
   xmlns:inkscape="http://www.inkscape.org/namespaces/inkscape"
   width="80mm"
   height="80mm"
   viewBox="-36 -37 80 80"
   version="1.1"
   id="svg1542"
   inkscape:version="1.0.1 (3bc2e813f5, 2020-09-07)"
   sodipodi:docname="E300 mit Bitmap.svg">
  <title
     id="title1426">Extra EA-300</title>
  <defs
     id="defs1536" />
  <sodipodi:namedview
     id="base"
     pagecolor="#ffffff"
     bordercolor="#666666"
     borderopacity="1.0"
     inkscape:pageopacity="0.0"
     inkscape:pageshadow="2"
     inkscape:zoom="22.4"
     inkscape:cx="155.97504"
     inkscape:cy="153.86631"
     inkscape:document-units="mm"
     inkscape:current-layer="layer4"
     inkscape:document-rotation="0"
     showgrid="false"
     inkscape:window-width="1920"
     inkscape:window-height="1121"
     inkscape:window-x="-9"
     inkscape:window-y="-9"
     inkscape:window-maximized="1"
     inkscape:snap-global="false" />
  <metadata
     id="metadata1539">
    <rdf:RDF>
      <cc:Work
         rdf:about="">
        <dc:format>image/svg+xml</dc:format>
        <dc:type
           rdf:resource="http://purl.org/dc/dcmitype/StillImage" />
        <dc:title>Extra EA-300</dc:title>
        <dc:creator>
          <cc:Agent>
            <dc:title>RexKramer1</dc:title>
          </cc:Agent>
        </dc:creator>
        <dc:rights>
          <cc:Agent>
            <dc:title>GNU General Public License v3.0</dc:title>
          </cc:Agent>
        </dc:rights>
      </cc:Work>
    </rdf:RDF>
  </metadata>
  <g
     inkscape:groupmode="layer"
     id="layer4"
     inkscape:label="Path"
     style="display:inline">
    <path
       style="fill:none;stroke:#000000;stroke-width:0.264583px;stroke-linecap:butt;stroke-linejoin:miter;stroke-opacity:1"
       d="M 4.057338,0.07677641 3.8919734,0.25395275 3.8506323,0.53743489 3.6734562,0.54924668 3.5730561,0.65555248 3.5723388,1.8589186 3.3065751,1.8766362 3.2895741,1.6418341 3.1832682,1.5178106 3.0651505,1.6241164 3.053339,1.8957868 0.18898809,2.1202102 0.1594587,1.8012928 H 0.11680748 L 0.09449404,2.0965867 0.01771763,2.1143037 v 0.8150114 l 3.62620897,0.7087052 0.023625,0.2539526 -0.1063059,0.011811 0.011811,0.053153 0.088588,-0.00591 0.2185176,2.0257161 -1.4646579,0.2480469 0.017718,0.5964935 1.4233167,0.1003999 0.1181174,-0.1771761 0.064965,0.5610582 h 0.029529 L 4.128209,6.7149826 4.2286089,6.9039707 5.6696432,6.8094767 5.6578322,6.2129831 4.204985,5.9531249 4.4235025,3.9333146 l 0.076777,0.00591 V 3.8860677 L 4.4353143,3.8742567 4.4530308,3.614398 8.0497105,2.9293163 8.0615233,2.1202102 5.0672433,1.9135045 5.0436197,1.6595517 4.9904668,1.6063988 4.9136905,1.5237165 4.836914,1.5886812 4.8073846,1.694987 V 1.8898809 L 4.494373,1.8603515 4.5002791,0.63783482 4.4235025,0.54334076 4.2640437,0.53743489 4.1990793,0.25985863 Z"
       id="path1415"
       sodipodi:nodetypes="cccccccccccccccccccccccccccccccccccccccccccccccccccccc" />
  </g>
  <g
     inkscape:groupmode="layer"
     id="layer5"
     inkscape:label="Accent">
    <path
       id="path1423"
       style="fill:none;stroke:#000000;stroke-width:0.264583px;stroke-linecap:butt;stroke-linejoin:miter;stroke-opacity:1"
       d="m 3.5789621,1.883975 0.064964,0.9035993 M 4.494373,1.883975 4.435313,2.763951 M 4.0424515,2.4471866 3.8587037,2.51818 3.6457233,2.7770973 3.8336474,4.4851166 4.0466277,4.5686384 4.2846646,4.4892928 4.4350037,2.7854497 4.2763125,2.5474127 Z M 4.0549798,6.6107447 3.9171689,6.0052121 4.1802624,6.001037 Z" />
  </g>
</svg>
