<?xml version="1.0" encoding="UTF-8" standalone="no"?>
<svg
   width="80mm"
   height="80mm"
   viewBox="-29 -27 80 80"
   version="1.1"
   id="svg1542"
   inkscape:version="1.2.1 (9c6d41e410, 2022-07-14)"
   sodipodi:docname="E35L mit Bitmap.svg"
   xmlns:inkscape="http://www.inkscape.org/namespaces/inkscape"
   xmlns:sodipodi="http://sodipodi.sourceforge.net/DTD/sodipodi-0.dtd"
   xmlns="http://www.w3.org/2000/svg"
   xmlns:svg="http://www.w3.org/2000/svg"
   xmlns:rdf="http://www.w3.org/1999/02/22-rdf-syntax-ns#"
   xmlns:cc="http://creativecommons.org/ns#"
   xmlns:dc="http://purl.org/dc/elements/1.1/">
  <title
     id="title3533">Embraer Legacy 600 / ERJ-135</title>
  <defs
     id="defs1536" />
  <sodipodi:namedview
     id="base"
     pagecolor="#ffffff"
     bordercolor="#666666"
     borderopacity="1.0"
     inkscape:pageopacity="0.0"
     inkscape:pageshadow="2"
     inkscape:zoom="5.6"
     inkscape:cx="111.51786"
     inkscape:cy="164.01786"
     inkscape:document-units="mm"
     inkscape:current-layer="layer4"
     inkscape:document-rotation="0"
     showgrid="false"
     inkscape:snap-global="false"
     inkscape:window-width="1920"
     inkscape:window-height="1121"
     inkscape:window-x="2391"
     inkscape:window-y="140"
     inkscape:window-maximized="1"
     inkscape:showpageshadow="2"
     inkscape:pagecheckerboard="0"
     inkscape:deskcolor="#d1d1d1" />
  <metadata
     id="metadata1539">
    <rdf:RDF>
      <cc:Work
         rdf:about="">
        <dc:format>image/svg+xml</dc:format>
        <dc:type
           rdf:resource="http://purl.org/dc/dcmitype/StillImage" />
        <dc:creator>
          <cc:Agent>
            <dc:title>RexKramer1</dc:title>
          </cc:Agent>
        </dc:creator>
        <dc:rights>
          <cc:Agent>
            <dc:title>GNU General Public License v3.0</dc:title>
          </cc:Agent>
        </dc:rights>
        <dc:title>Embraer Legacy 600 / ERJ-135</dc:title>
      </cc:Work>
    </rdf:RDF>
  </metadata>
  <g
     inkscape:groupmode="layer"
     id="layer4"
     inkscape:label="Pfade">
    <path
       style="opacity:1;fill:none;stroke:#000000;stroke-width:0.264583px;stroke-linecap:butt;stroke-linejoin:miter;stroke-opacity:1"
       d="M 10.453404,0.09449898 9.9809339,0.8740749 9.2840404,3.3545434 v 0.826823 L 9.106864,4.2049914 v 0.3661645 l 0.2008,0.023625 0.011811,9.5320871 -9.26041619,4.594772 -0.0354353,1.204799 2.72851579,-0.696893 0.070871,0.118117 0.1535527,-0.02362 0.047247,-0.165365 1.3111051,-0.224423 0.023625,0.106305 0.2952944,-0.01181 0.035435,-0.177176 1.6772694,-0.318917 0.047247,0.165364 h 0.3779758 l 0.023625,-0.212611 2.4804684,0.188988 0.035435,3.614397 -0.2952946,-0.01182 -0.059059,-0.460658 -0.1889882,-0.165365 H 7.878443 l -0.1889882,0.165365 -0.047247,2.799386 0.2834819,1.393787 0.8622583,-0.01181 0.7913876,0.177176 0.295294,1.535527 0.4134114,1.299294 -3.4962798,1.370164 -0.1063058,1.192987 3.7325156,-0.614211 0.177175,0.720516 0.2008,-0.0118 0.141741,-0.732329 3.803387,0.590589 -0.236236,-1.299294 -3.389973,-1.27567 0.34254,-1.570964 0.259858,-1.216609 0.8032,-0.259858 0.838634,0.03543 0.283482,-1.405599 -0.08268,-2.657658 -0.118117,-0.224424 -1.122117,-0.01181 -0.09449,0.153553 v 0.531528 l -0.366164,-0.04725 -0.01181,-3.614398 2.527716,-0.2008 0.03543,0.141741 0.413411,0.03544 0.02363,-0.177177 1.61821,0.295294 v 0.177177 l 0.4016,0.04725 0.07087,-0.165365 1.228422,0.224423 0.05906,0.177177 0.165365,0.03543 0.04725,-0.165365 2.799386,0.566965 -0.09449,-1.110305 -9.366724,-4.464844 -0.118118,-9.5084639 0.188988,0.011811 -0.02363,-0.3779764 -0.153552,-0.035435 -0.07087,-0.921317 -0.696894,-2.3741631 z"
       id="path2579" />
  </g>
  <g
     inkscape:groupmode="layer"
     id="layer3"
     inkscape:label="Accent">
    <path
       id="path3530"
       style="opacity:1;fill:#ffffff;stroke:#000000;stroke-width:0.266999"
       d="m 10.415828,30.901228 0.08268,-1.13393 0.0945,-6.945312 0.271669,6.86263 0.07087,1.240234 m 0.909505,-8.587147 H 11.63244 l 0.14174,3.141927 -0.05906,0.685083 m -2.3977838,-3.838821 0.2716689,0.08268 -0.070869,3.165552 0.082682,0.673269 m 2.6458339,-3.90969 0.03544,2.456847 0.236233,1.133927 m -3.531718,-3.649832 0.035436,2.504094 -0.2244249,1.192985 m 2.9883759,-11.90625 0.07087,4.642022 M 9.3173362,14.128534 9.2937092,18.723307 M 11.107957,3.3330034 10.70079,3.0218851 m 0.555418,0.2714448 -0.152426,0.219245 -0.288151,-0.215068 -0.206717,-0.012536 -0.0062,-0.4322253 0.281888,0.050121 z m 0.16078,0.8352185 -0.03967,-0.2025398 -0.01879,-0.1419895 0.02088,-0.029233 z M 9.7979307,3.3288273 10.205098,3.017709 m -0.5554179,0.2714448 0.1524259,0.219245 0.288151,-0.215068 0.206717,-0.012536 0.0062,-0.4322253 -0.281888,0.050121 z M 9.4888997,4.1243723 9.5285728,3.9218325 9.547364,3.779843 9.5264843,3.7506103 Z" />
  </g>
</svg>
