<?xml version="1.0" encoding="UTF-8" standalone="no"?>
<svg
   xmlns:dc="http://purl.org/dc/elements/1.1/"
   xmlns:cc="http://creativecommons.org/ns#"
   xmlns:rdf="http://www.w3.org/1999/02/22-rdf-syntax-ns#"
   xmlns:svg="http://www.w3.org/2000/svg"
   xmlns="http://www.w3.org/2000/svg"
   xmlns:sodipodi="http://sodipodi.sourceforge.net/DTD/sodipodi-0.dtd"
   xmlns:inkscape="http://www.inkscape.org/namespaces/inkscape"
   width="80mm"
   height="80mm"
   viewBox="-29 -27 80 80"
   version="1.1"
   id="svg1542"
   inkscape:version="1.0.1 (3bc2e813f5, 2020-09-07)"
   sodipodi:docname="E35L.svg">
  <defs
     id="defs1536" />
  <sodipodi:namedview
     id="base"
     pagecolor="#ffffff"
     bordercolor="#666666"
     borderopacity="1.0"
     inkscape:pageopacity="0.0"
     inkscape:pageshadow="2"
     inkscape:zoom="5.6"
     inkscape:cx="160.61181"
     inkscape:cy="162.12888"
     inkscape:document-units="mm"
     inkscape:current-layer="layer4"
     inkscape:document-rotation="0"
     showgrid="false"
     inkscape:snap-global="false"
     inkscape:window-width="1920"
     inkscape:window-height="1017"
     inkscape:window-x="-8"
     inkscape:window-y="-8"
     inkscape:window-maximized="1" />
<metadata
     id="metadata1539">
    <rdf:RDF>
      <cc:Work
         rdf:about="">
        <dc:format>image/svg+xml</dc:format>
        <dc:type
           rdf:resource="http://purl.org/dc/dcmitype/StillImage" />
        <dc:title></dc:title>
        <dc:creator>
          <cc:Agent>
            <dc:title>RexKramer1</dc:title>
          </cc:Agent>
        </dc:creator>
        <dc:rights>
          <cc:Agent>
            <dc:title>GNU General Public License v3.0</dc:title>
          </cc:Agent>
        </dc:rights>
      </cc:Work>
    </rdf:RDF>
  </metadata>
  <g
     inkscape:groupmode="layer"
     id="layer4"
     inkscape:label="Outline">
    <path
       style="opacity:1;fill:none;stroke:#000000;stroke-width:0.264583px;stroke-linecap:butt;stroke-linejoin:miter;stroke-opacity:1"
       d="M 10.453404,0.09449898 9.9809339,0.8740749 9.2840404,3.3545434 v 0.826823 L 9.106864,4.2049914 v 0.3661645 l 0.2008,0.023625 0.011811,9.5320871 -9.26041619,4.594772 -0.0354353,1.204799 2.72851579,-0.696893 0.070871,0.118117 0.1535527,-0.02362 0.047247,-0.165365 1.3111051,-0.224423 0.023625,0.106305 0.2952944,-0.01181 0.035435,-0.177176 1.6772694,-0.318917 0.047247,0.165364 h 0.3779758 l 0.023625,-0.212611 2.4804684,0.188988 0.035435,3.614397 -0.2952946,-0.01182 -0.059059,-0.460658 -0.1889882,-0.165365 H 7.878443 l -0.1889882,0.165365 -0.047247,2.799386 0.2834819,1.393787 0.8622583,-0.01181 0.7913876,0.177176 0.295294,1.535527 0.4134114,1.299294 -3.4962798,1.370164 -0.1063058,1.192987 3.7325156,-0.614211 0.177175,0.720516 0.2008,-0.0118 0.141741,-0.732329 3.803387,0.590589 -0.236236,-1.299294 -3.389973,-1.27567 0.34254,-1.570964 0.259858,-1.216609 0.8032,-0.259858 0.838634,0.03543 0.283482,-1.405599 -0.08268,-2.657658 -0.118117,-0.224424 -1.122117,-0.01181 -0.09449,0.153553 v 0.531528 l -0.366164,-0.04725 -0.01181,-3.614398 2.527716,-0.2008 0.03543,0.141741 0.413411,0.03544 0.02363,-0.177177 1.61821,0.295294 v 0.177177 l 0.4016,0.04725 0.07087,-0.165365 1.228422,0.224423 0.05906,0.177177 0.165365,0.03543 0.04725,-0.165365 2.799386,0.566965 -0.09449,-1.110305 -9.366724,-4.464844 -0.118118,-9.5084639 0.188988,0.011811 -0.02363,-0.3779764 -0.153552,-0.035435 -0.07087,-0.921317 -0.696894,-2.3741631 z"
       id="path2579" />
  </g>
</svg>
