<?xml version="1.0" encoding="UTF-8" standalone="no"?>
<svg
   width="80mm"
   height="80mm"
   viewBox="-34 -34 80 80"
   version="1.1"
   id="svg1542"
   inkscape:version="1.2.1 (9c6d41e410, 2022-07-14)"
   sodipodi:docname="EC35.svg"
   inkscape:export-filename="..\Shapes PNG\EC35.png"
   inkscape:export-xdpi="45.639999"
   inkscape:export-ydpi="45.639999"
   xmlns:inkscape="http://www.inkscape.org/namespaces/inkscape"
   xmlns:sodipodi="http://sodipodi.sourceforge.net/DTD/sodipodi-0.dtd"
   xmlns="http://www.w3.org/2000/svg"
   xmlns:svg="http://www.w3.org/2000/svg"
   xmlns:rdf="http://www.w3.org/1999/02/22-rdf-syntax-ns#"
   xmlns:cc="http://creativecommons.org/ns#"
   xmlns:dc="http://purl.org/dc/elements/1.1/">
  <title
     id="title1760">Airbus Helicopters H135 / EC35</title>
  <defs
     id="defs1536" />
  <sodipodi:namedview
     id="base"
     pagecolor="#ffffff"
     bordercolor="#666666"
     borderopacity="1.0"
     inkscape:pageopacity="0.0"
     inkscape:pageshadow="2"
     inkscape:zoom="11.2"
     inkscape:cx="153.97321"
     inkscape:cy="145.84821"
     inkscape:document-units="mm"
     inkscape:current-layer="layer2"
     inkscape:document-rotation="0"
     showgrid="true"
     inkscape:window-width="1920"
     inkscape:window-height="1121"
     inkscape:window-x="2391"
     inkscape:window-y="140"
     inkscape:window-maximized="1"
     inkscape:snap-global="false"
     inkscape:showpageshadow="2"
     inkscape:pagecheckerboard="0"
     inkscape:deskcolor="#d1d1d1">
    <inkscape:grid
       type="xygrid"
       id="grid1430" />
  </sodipodi:namedview>
  <metadata
     id="metadata1539">
    <rdf:RDF>
      <cc:Work
         rdf:about="">
        <dc:format>image/svg+xml</dc:format>
        <dc:type
           rdf:resource="http://purl.org/dc/dcmitype/StillImage" />
        <dc:creator>
          <cc:Agent>
            <dc:title>RexKramer1</dc:title>
          </cc:Agent>
        </dc:creator>
        <dc:rights>
          <cc:Agent>
            <dc:title>GNU General Public License v3.0</dc:title>
          </cc:Agent>
        </dc:rights>
        <dc:title>Airbus Helicopters H135 / EC35</dc:title>
      </cc:Work>
    </rdf:RDF>
  </metadata>
  <g
     inkscape:groupmode="layer"
     id="layer2"
     inkscape:label="Pfade"
     style="display:inline">
    <path
       style="display:inline;opacity:1;fill:none;stroke:#000000;stroke-width:0.176;stroke-linecap:butt;stroke-linejoin:miter;stroke-opacity:1;stroke-dasharray:none"
       d="m 4.5262285,1.0018037 -0.637168,0.212389 -0.232617,0.586598 -0.0708,0.728193 0.02022,0.202275 -0.141593,-0.01012 -0.02023,-0.627054 -0.121366,0.01012 0.06069,3.206066 0.09102,-0.01011 -0.01012,-0.202275 0.141593,0.02023 0.101139,0.869784 0.303413,0.839444 0.242732,0.353982 0.0809,2.235144 -1.345135,-0.02023 -0.121366,0.8293303 h 0.13148 l 0.04046,-0.2326173 h 1.264223 l 0.121365,1.5676363 0.121367,0.525916 0.192161,-0.02023 0.05057,-2.0834383 1.213654,0.01011 0.01011,0.2326183 0.111252,0.01011 0.09102,-0.8394433 -1.405817,0.01012 -0.03033,-2.265486 0.303414,-0.374209 0.273072,-0.707965 0.06069,-1.001263 h 0.13148 l 0.01012,0.24273 0.161821,0.02023 -0.04046,-1.517067 v -1.689001 l -0.131479,-0.03034 v 0.627054 l -0.161821,0.02023 -0.05057,-0.849556 -0.202276,-0.566372 -0.21239,-0.202276 z"
       id="path1448" />
  </g>
  <g
     inkscape:groupmode="layer"
     id="layer3"
     inkscape:label="Accent"
     style="display:inline">
    <path
       id="path1566"
       style="display:inline;fill:none;stroke:#000000;stroke-width:0.176;stroke-linecap:butt;stroke-linejoin:miter;stroke-opacity:1;stroke-dasharray:none"
       d="m 4.3037255,4.8753787 -0.171934,-0.192162 m 0.74842,0 -0.151706,0.192162 m 0.06069,-0.677623 0.131479,0.121365 m -0.748421,-0.02023 0.202276,-0.161819 m -0.09102,-0.13148 0.252846,-0.111251 0.313527,0.131479 m -0.242731,3.145384 0.192162,-0.05057 m -0.556258,0.01012 0.21239,0.09102 m 0.0708,-0.151707 -0.06069,0.141593 0.06069,4.4500613 0.07079,0.394437 0.111252,-0.505689 -0.05057,-0.434891 0.08091,-0.707965 -0.101137,-0.262959 -0.03033,-2.9835633 z m -3.428575,-6.99873197 3.256641,4.06573897 0.202277,-0.04046 0.202275,0.08091 3.701648,-3.054359 0.394438,-0.13147997 0.131479,0.15170697 -3.125162,2.548671 -0.495576,0.273071 -0.45512,0.364097 0.02023,0.161821 -0.05057,0.202275 3.003795,3.671299 0.13148,0.313527 -0.02023,0.171934 -0.09102,0.09102 -2.579016,-3.094816 -0.182048,-0.434892 -0.414666,-0.576486 -0.202276,0.06069 -0.202275,-0.03033 -0.96081,0.718077 -2.720611,2.316055 -0.273073,0.161821 -0.192162,-0.01012 -0.121366,-0.151706 3.135277,-2.579013 0.53603,-0.313527 0.414666,-0.32364 -0.03034,-0.252844 0.0708,-0.13148 -3.044253,-3.72186797 -0.131479,-0.343868 z m 3.064479,4.90518197 0.252845,0.475347 0.232617,-0.01011 0.192162,-0.343868 -0.151708,-0.242732 -0.171933,0.03034 -0.222504,-0.05057 z m 0.768648,1.739568 0.202276,-0.45512 0.101137,0.06069 -0.141592,0.485461 z m -1.082175,-0.424778 0.303413,0.414665 -0.101138,0.111252 z m -0.04046,-0.161821 -0.05057,-1.911503 0.151708,-0.232617 0.323641,-0.192162 0.323642,0.0809 0.222503,-0.101137 0.495575,0.364097 -0.01011,1.962072 m -0.981038,-3.074588 -0.02023,0.748419 0.262958,0.09102 0.273073,-0.101138 -0.07079,-0.728191 -0.04046,-0.353982 -0.182047,-0.161821 -0.171935,0.161821 z m 0.444913,-1.945397 -0.06069,0.161821 -0.101138,0.05057 -0.01011,1.243994 0.131478,0.151707 0.04046,0.333755 c 0,0 0.404552,0.03033 0.445007,0.02022 0.04046,-0.01011 0.171934,-0.09102 0.171934,-0.09102 l 0.06069,-0.434892 -0.0809,-0.728191 -0.242732,-0.536031 z m -0.424685,0.0036 0.06069,0.161821 0.101138,0.05057 0.01012,1.243993 -0.131479,0.151707 -0.04046,0.333755 c 0,0 -0.404552,0.03033 -0.445008,0.02023 -0.04046,-0.01011 -0.171934,-0.09102 -0.171934,-0.09102 l -0.06069,-0.434892 0.0809,-0.728191 0.242732,-0.53603 z m 1.051834,1.73957 0.05057,2.134007 0.182048,0.01012 -0.01012,-2.134008 z m -1.891279,0.02023 0.151707,0.02023 -0.01012,2.113778 h -0.131477 z"
       inkscape:export-filename="..\Shapes PNG\EC35.png"
       inkscape:export-xdpi="149.08"
       inkscape:export-ydpi="149.08" />
  </g>
</svg>
