<?xml version="1.0" encoding="UTF-8" standalone="no"?>
<svg
   xmlns:dc="http://purl.org/dc/elements/1.1/"
   xmlns:cc="http://creativecommons.org/ns#"
   xmlns:rdf="http://www.w3.org/1999/02/22-rdf-syntax-ns#"
   xmlns:svg="http://www.w3.org/2000/svg"
   xmlns="http://www.w3.org/2000/svg"
   xmlns:sodipodi="http://sodipodi.sourceforge.net/DTD/sodipodi-0.dtd"
   xmlns:inkscape="http://www.inkscape.org/namespaces/inkscape"
   width="80mm"
   height="80mm"
   viewBox="-34 -34 80 80"
   version="1.1"
   id="svg1542"
   inkscape:version="1.0.1 (3bc2e813f5, 2020-09-07)"
   sodipodi:docname="EC35.svg">
  <defs
     id="defs1536" />
  <sodipodi:namedview
     id="base"
     pagecolor="#ffffff"
     bordercolor="#666666"
     borderopacity="1.0"
     inkscape:pageopacity="0.0"
     inkscape:pageshadow="2"
     inkscape:zoom="8"
     inkscape:cx="152.70547"
     inkscape:cy="141.23829"
     inkscape:document-units="mm"
     inkscape:current-layer="layer2"
     inkscape:document-rotation="0"
     showgrid="true"
     inkscape:window-width="1920"
     inkscape:window-height="1017"
     inkscape:window-x="-8"
     inkscape:window-y="-8"
     inkscape:window-maximized="1"
     inkscape:snap-global="false"
     viewbox-y="-40"
     viewbox-x="-34">
    <inkscape:grid
       type="xygrid"
       id="grid1430" />
  </sodipodi:namedview>
<metadata
     id="metadata1539">
    <rdf:RDF>
      <cc:Work
         rdf:about="">
        <dc:format>image/svg+xml</dc:format>
        <dc:type
           rdf:resource="http://purl.org/dc/dcmitype/StillImage" />
        <dc:title></dc:title>
        <dc:creator>
          <cc:Agent>
            <dc:title>RexKramer1</dc:title>
          </cc:Agent>
        </dc:creator>
        <dc:rights>
          <cc:Agent>
            <dc:title>GNU General Public License v3.0</dc:title>
          </cc:Agent>
        </dc:rights>
      </cc:Work>
    </rdf:RDF>
  </metadata>
  <g
     inkscape:groupmode="layer"
     id="layer2"
     inkscape:label="Outline"
     style="display:inline">
    <path
       id="path1174"
       style="fill:none;stroke:#000000;stroke-width:0.0916915px;stroke-linecap:butt;stroke-linejoin:miter;stroke-opacity:1"
       d="m 8.267982,4.3111757 3.221074,3.134793 0.201317,-0.263674 -0.109809,-0.249026 -3.257677,-3.120145 m 0.347729,-1.977556 3.568804,-2.38771702 0.384332,-0.117189 0.329429,0.117189 -4.044644,2.62209402 -0.237921,0.10254 m -2.635424,1.640639 -4.008041,2.695337 -0.384333,0.04394 -0.146412,-0.175782 4.209358,-2.724634 m -0.07321,-2.578148 -2.836742,-2.753931 -0.12811,0.336917 2.983153,2.929714 z m 1.562397,-1.74815402 -0.815293,0.217521 -0.297646,0.60077 -0.09059,0.745783 0.02588,0.20716202 -0.181177,-0.01036 -0.02588,-0.64220302 -0.155294,0.01036 0.07765,3.28351802 0.116471,-0.01036 -0.01294,-0.207163 0.181176,0.02072 0.129412,0.890797 0.388235,0.859723 0.310587,0.362533 0.10353,2.289142 -1.721174,-0.02072 -0.155294,0.849364 h 0.168235 l 0.05176,-0.238237 h 1.617644 l 0.155294,1.6055063 0.155294,0.538621 0.245882,-0.02072 0.06471,-2.1337683 1.552938,0.01036 0.01294,0.238236 0.142353,0.01036 0.11647,-0.859722 -1.798821,0.01036 -0.03882,-2.320215 0.388235,-0.38325 0.349411,-0.725067 0.07765,-1.025452 h 0.168235 l 0.01294,0.248594 0.207059,0.02072 -0.05176,-1.553716 V 0.46507868 l -0.168236,-0.03107 V 1.0762107 l -0.207059,0.02072 -0.06471,-0.87008002 -0.258822,-0.580054 -0.271765,-0.207162 z" />
  </g>
  <g
     inkscape:groupmode="layer"
     id="layer3"
     inkscape:label="Accent"
     style="display:inline">
    <path
       id="path1566"
       style="fill:none;stroke:#000000;stroke-width:0.0916915px;stroke-linecap:butt;stroke-linejoin:miter;stroke-opacity:1"
       d="m 6.91025,3.2928417 -0.22,-0.196805 m 0.957645,0 -0.194117,0.196805 m 0.07765,-0.693994 0.168235,0.124298 m -0.957646,-0.02072 0.258824,-0.16573 m -0.116471,-0.134655 0.323529,-0.11394 0.401176,0.134656 m -0.310588,3.221369 0.245882,-0.05179 m -0.711763,0.01036 0.271764,0.09322 m 0.09059,-0.155372 -0.07765,0.145014 0.07765,4.5575643 0.09059,0.403966 0.142353,-0.517905 -0.06471,-0.4453983 0.103529,-0.725068 -0.129411,-0.26931 -0.03882,-3.05564 z m -4.387052,-7.167806 4.167052,4.163957 0.258823,-0.04143 0.258823,0.08286 4.736463,-3.12814602 0.504706,-0.134656 0.168234,0.155372 -3.998817,2.61024202 -0.634116,0.279668 -0.582352,0.372892 0.02588,0.165729 -0.06471,0.207163 3.843523,3.75999 0.168235,0.321101 -0.02588,0.176088 -0.11647,0.09322 L 8.217307,4.2872087 7.984366,3.8418107 7.453779,3.2513987 7.194955,3.3135487 6.936132,3.2824687 5.706723,4.0178947 2.225552,6.3898997 1.876141,6.5556287 1.630258,6.5452687 1.474965,6.3898977 5.486723,3.7485817 6.172604,3.4274797 6.703192,3.0960207 6.664372,2.8370687 6.754962,2.7024137 2.859675,-1.1093683 2.69144,-1.4615433 Z m 3.92117,5.023679 0.323529,0.486831 0.297647,-0.01036 0.245882,-0.352176 -0.194118,-0.248594 -0.219999,0.03107 -0.284706,-0.05179 z m 0.983528,1.781594 0.258824,-0.466115 0.129411,0.06215 -0.181176,0.497189 z m -1.384703,-0.43504 0.388234,0.424682 -0.129412,0.113939 z m -0.05176,-0.16573 -0.06471,-1.957681 0.194117,-0.238237 0.414117,-0.196804 0.414117,0.08287 0.284706,-0.103581 0.634116,0.372892 -0.01294,2.009472 m -1.255292,-3.148863 -0.02588,0.766499 0.33647,0.09322 0.349411,-0.103581 -0.09059,-0.745783 -0.05176,-0.362534 -0.23294,-0.16572902 -0.22,0.16572902 z m 0.569291,-1.99239402 -0.07765,0.16573 -0.129411,0.05179 -0.01294,1.274047 0.168235,0.15537102 0.05176,0.341818 c 0,0 0.517646,0.03107 0.569411,0.02072 0.05176,-0.01036 0.22,-0.09322 0.22,-0.09322 l 0.07765,-0.44539902 -0.10353,-0.745783 -0.310588,-0.548979 z m -0.543408,0.0036 0.07765,0.16573 0.129412,0.05179 0.01294,1.274047 -0.168235,0.15537102 -0.05176,0.341818 c 0,0 -0.517646,0.03107 -0.569411,0.02072 -0.05177,-0.01036 -0.22,-0.09322 -0.22,-0.09322 l -0.07765,-0.44539902 0.10353,-0.745783 0.310588,-0.548979 z m 1.34588,1.78159302 0.06471,2.18556 0.232942,0.01036 -0.01294,-2.185559 z m -2.419997,0.02072 0.194118,0.02072 -0.01294,2.164843 H 5.849083 Z m 1.358822,-1.88517402 -0.815293,0.21752 -0.297646,0.60077 -0.09059,0.745783 0.02588,0.20716202 -0.181177,-0.01036 -0.02588,-0.64220302 -0.155294,0.01036 0.07765,3.28351802 0.116471,-0.01036 -0.01294,-0.207162 0.181176,0.02072 0.129412,0.890796 0.388235,0.859723 0.310587,0.362534 0.10353,2.289141 -1.721174,-0.02072 -0.155294,0.849364 H 5.24085 l 0.05176,-0.238237 h 1.617644 l 0.155294,1.6055063 0.155294,0.538621 0.245882,-0.02072 0.06471,-2.1337693 1.552938,0.01036 0.01294,0.238236 0.142353,0.01036 0.11647,-0.859721 -1.798821,0.01036 -0.03882,-2.320215 0.388235,-0.38325 0.349411,-0.725067 0.07765,-1.025452 h 0.168235 l 0.01294,0.248594 0.207059,0.02072 -0.05176,-1.553716 V 0.46504868 l -0.168236,-0.03107 V 1.0761807 l -0.207059,0.02072 -0.06471,-0.87008002 -0.258822,-0.580054 -0.271765,-0.207162 z" />
  </g>
</svg>
