<?xml version="1.0" encoding="UTF-8" standalone="no"?>
<svg
   xmlns:dc="http://purl.org/dc/elements/1.1/"
   xmlns:cc="http://creativecommons.org/ns#"
   xmlns:rdf="http://www.w3.org/1999/02/22-rdf-syntax-ns#"
   xmlns:svg="http://www.w3.org/2000/svg"
   xmlns="http://www.w3.org/2000/svg"
   xmlns:sodipodi="http://sodipodi.sourceforge.net/DTD/sodipodi-0.dtd"
   xmlns:inkscape="http://www.inkscape.org/namespaces/inkscape"
   width="80mm"
   height="80mm"
   viewBox="-33 -30 80 80"
   version="1.1"
   id="svg1542"
   inkscape:version="1.0.1 (3bc2e813f5, 2020-09-07)"
   sodipodi:docname="EC45.svg">
  <defs
     id="defs1536" />
  <sodipodi:namedview
     id="base"
     pagecolor="#ffffff"
     bordercolor="#666666"
     borderopacity="1.0"
     inkscape:pageopacity="0.0"
     inkscape:pageshadow="2"
     inkscape:zoom="7.9195959"
     inkscape:cx="148.93188"
     inkscape:cy="161.00093"
     inkscape:document-units="mm"
     inkscape:current-layer="layer6"
     inkscape:document-rotation="0"
     showgrid="false"
     inkscape:window-width="1920"
     inkscape:window-height="1121"
     inkscape:window-x="-9"
     inkscape:window-y="-9"
     inkscape:window-maximized="1"
     viewbox-x="-33" />
<metadata
     id="metadata1539">
    <rdf:RDF>
      <cc:Work
         rdf:about="">
        <dc:format>image/svg+xml</dc:format>
        <dc:type
           rdf:resource="http://purl.org/dc/dcmitype/StillImage" />
        <dc:title></dc:title>
        <dc:creator>
          <cc:Agent>
            <dc:title>RexKramer1</dc:title>
          </cc:Agent>
        </dc:creator>
        <dc:rights>
          <cc:Agent>
            <dc:title>GNU General Public License v3.0</dc:title>
          </cc:Agent>
        </dc:rights>
      </cc:Work>
    </rdf:RDF>
  </metadata>
  <g
     inkscape:groupmode="layer"
     id="layer6"
     inkscape:label="Outline"
     style="display:inline">
    <path
       style="fill:none;stroke:#000000;stroke-width:0.264583px;stroke-linecap:butt;stroke-linejoin:miter;stroke-opacity:1"
       d="M 5.1144902,1.3819754 4.6243025,1.500093 4.3644438,1.8012928 4.2758555,2.0139044 h -0.059059 l -0.094494,-0.1358352 0.00591,0.2834821 0.064964,-0.017718 -0.029529,0.1712704 -0.00591,0.8976934 -0.076777,0.076777 L 4.0278089,3.189174 4.0396199,2.7875743 3.96875,2.6989862 3.9274088,3.047433 1.7658575,0.04724702 1.6536458,0.51381138 3.7325149,3.3604446 4.1754557,4.0455265 4.1872667,4.4294083 4.1104897,4.4707493 V 4.8782549 L 4.1754547,4.9609369 4.1695447,5.68736 3.9569376,5.681455 -0.02952992,8.4926529 0.4547526,8.61077 3.7325149,6.2425129 l 0.053153,0.041341 0.053153,-0.094494 0.088588,-0.07087 0.059059,0.064965 h 0.035435 l 0.035435,-0.1535527 0.076777,-0.029529 0.053153,0.3838818 0.1712703,0.832729 0.5315291,0.9980932 0.011811,0.5256231 -0.2007999,-0.00591 0.017716,0.3779761 0.1712706,-0.011811 0.023625,1.5768696 -1.3701638,0.188988 0.011811,-0.183082 -0.088588,-0.01772 -0.1181177,1.559152 0.059059,-0.0059 0.064965,-0.838635 1.4233165,-0.177177 0.1122117,0.986282 -0.135835,0.05906 H 4.7010772 l 0.017716,0.188988 0.289388,-0.04134 0.1122119,0.1004 0.076776,-0.165365 V 11.72317 l 0.053153,-0.03544 0.047247,-0.496093 1.3170132,0.200798 -0.035435,0.832728 h 0.07087 l 0.1122117,-1.192987 0.059059,-0.03543 v -0.08268 l -0.059059,-0.05315 0.00591,-0.17127 -0.041341,-0.01181 -0.035435,0.177176 -1.3878814,-0.177176 V 9.1186763 l 0.2067058,0.00591 V 8.7584176 L 5.3389135,8.7111704 V 8.1796415 L 5.6637366,7.6540184 5.8763484,7.1343011 5.982654,6.8094777 8.4631227,10.228981 8.5635228,10.099052 V 9.8096638 L 6.0594305,6.31929 6.0889599,5.6991728 6.0535245,5.6046787 6.035808,4.9314086 6.1066785,4.8900675 6.0771492,4.7365147 5.94722,4.6833617 6.0830552,4.618397 6.3192903,4.6774557 10.252604,1.8603515 10.169922,1.7835751 9.7742279,1.7186105 6.2897601,4.2286086 6.3133848,2.8052921 6.2425143,2.7344214 6.1834556,2.8289154 6.1657391,3.6793619 6.0830568,3.6675509 6.0594321,3.4254101 6.1421144,3.2127983 6.0830557,3.1655514 6.0653392,2.5513401 6.0417146,2.2855756 6.0299036,2.1320227 h 0.082682 l 0.023621,-0.23033 -0.064965,0.1063058 H 5.9413131 L 5.8113839,1.7008929 5.4865605,1.4469401 Z"
       id="path2703" />
  </g>
  <g
     inkscape:groupmode="layer"
     id="layer7"
     inkscape:label="Accent">
    <path
       id="path2739"
       style="fill:none;stroke:#000000;stroke-width:0.264583px;stroke-linecap:butt;stroke-linejoin:miter;stroke-opacity:1"
       d="m 4.5652435,11.297944 c 0,0 0.1181177,0.761861 0.1358337,0.950849 0.017716,0.188988 0.011814,1.163456 0.011814,1.163456 M 6.4551245,4.6715493 6.4433085,6.2720423 M 6.4905598,3.1478328 V 4.0159969 M 3.7443267,3.5553385 3.7679517,5.7287016 M 4.1695446,5.68736 4.7719493,5.268043 4.7778548,5.1144902 4.9668424,4.8723494 4.1754551,4.0455265 M 4.1341148,6.0003732 4.9255021,5.4097843 5.0672433,5.4806548 5.3507253,5.3625371 5.7050781,5.899972 5.6046782,6.3133834 5.982654,6.8094777 M 6.0594305,6.31929 5.3507253,5.3625371 5.4334076,5.2030785 5.3861607,5.0908666 5.94722,4.6833617 M 4.0809605,3.2895741 4.5770553,3.9923735 4.5239023,4.2404204 4.9668431,4.8723494 c 0,0 0.088588,-0.041341 0.1122119,-0.035435 0.023625,0.00591 0.2185175,0.088588 0.2185175,0.088588 L 6.2897601,4.2286086 M 5.3459678,1.6378228 5.5290499,1.7027878 5.8893085,2.2402227 5.9011195,2.7835636 5.8420605,2.9193985 5.8243425,3.2087866 5.546766,3.2146966 5.458178,2.8839675 5.2750957,2.6063912 5.2750942,2.0217093 Z m -0.4381833,-0.019612 -0.1830821,0.064965 -0.3602586,0.5374349 -0.011811,0.5433409 0.059059,0.1358349 0.017718,0.2893881 0.2775765,0.00591 0.088588,-0.3307291 0.1830823,-0.2775763 1.5e-6,-0.5846819 z" />
  </g>
</svg>
