<?xml version="1.0" encoding="UTF-8" standalone="no"?>
<svg
   xmlns:dc="http://purl.org/dc/elements/1.1/"
   xmlns:cc="http://creativecommons.org/ns#"
   xmlns:rdf="http://www.w3.org/1999/02/22-rdf-syntax-ns#"
   xmlns:svg="http://www.w3.org/2000/svg"
   xmlns="http://www.w3.org/2000/svg"
   xmlns:sodipodi="http://sodipodi.sourceforge.net/DTD/sodipodi-0.dtd"
   xmlns:inkscape="http://www.inkscape.org/namespaces/inkscape"
   width="80mm"
   height="80mm"
   viewBox="-34 -31 80 80"
   version="1.1"
   id="svg1542"
   inkscape:version="1.0.1 (3bc2e813f5, 2020-09-07)"
   sodipodi:docname="F18H.svg">
  <defs
     id="defs1536" />
  <sodipodi:namedview
     id="base"
     pagecolor="#ffffff"
     bordercolor="#666666"
     borderopacity="1.0"
     inkscape:pageopacity="0.0"
     inkscape:pageshadow="2"
     inkscape:zoom="11.2"
     inkscape:cx="161.28356"
     inkscape:cy="154.25137"
     inkscape:document-units="mm"
     inkscape:current-layer="layer2"
     inkscape:document-rotation="0"
     showgrid="false"
     inkscape:window-width="1920"
     inkscape:window-height="1121"
     inkscape:window-x="-9"
     inkscape:window-y="-9"
     inkscape:window-maximized="1"
     inkscape:snap-global="false" />
<metadata
     id="metadata1539">
    <rdf:RDF>
      <cc:Work
         rdf:about="">
        <dc:format>image/svg+xml</dc:format>
        <dc:type
           rdf:resource="http://purl.org/dc/dcmitype/StillImage" />
        <dc:title></dc:title>
        <dc:creator>
          <cc:Agent>
            <dc:title>RexKramer1</dc:title>
          </cc:Agent>
        </dc:creator>
        <dc:rights>
          <cc:Agent>
            <dc:title>GNU General Public License v3.0</dc:title>
          </cc:Agent>
        </dc:rights>
      </cc:Work>
    </rdf:RDF>
  </metadata>
  <g
     inkscape:groupmode="layer"
     id="layer2"
     inkscape:label="Outline"
     style="display:inline">
    <path
       style="fill:none;stroke:#000000;stroke-width:0.264583px;stroke-linecap:butt;stroke-linejoin:miter;stroke-opacity:1"
       d="m 6.5437128,0.08268229 -0.2008,0.38978795 -0.1338085,0.5198402 -0.066991,0.37785326 -0.047247,0.5079055 v 0.1771763 l -0.059059,0.1063058 v 0.047247 L 6.1012622,2.3469605 6.0532372,3.4285668 6.049062,3.6812201 5.9404839,3.7668297 5.8527859,3.9276091 5.706623,4.6751287 5.6356297,5.4247361 5.5395796,6.0073002 5.3996806,6.6274489 5.2890144,7.2225412 5.2117569,7.6464141 5.1658199,8.0347901 5.119883,8.5776812 5.1240581,9.0829878 4.3013693,9.4671876 4.2804884,9.3794899 4.2429038,9.2625594 4.1886145,9.3836661 4.1719113,9.5089487 3.0694246,10.043488 3.0735997,9.868092 3.0485437,9.6592876 2.9900784,9.4713638 2.9357891,9.6384072 2.9065566,9.868092 v 0.250565 L 0.50113088,11.233672 V 10.93717 L 0.47189828,10.91211 0.41343308,10.8787 0.40090478,10.59055 0.32573518,10.56967 0.30903098,10.52373 0.40925705,10.51953 0.39255285,10.44854 0.2338616,10.164595 0.17122031,9.9766711 c 0,0 -0.07516956,0.1879239 -0.07516956,0.2046279 0,0.0167 -0.01252826,0.133635 -0.01252826,0.133635 l -0.12528259,0.208804 0.12110651,0.0084 0.02505652,1.858359 -0.20462824,0.171219 0.01252826,0.455194 0.15033911,0.0042 0.0083522,0.05011 0.12945868,0.0042 0.0167043,0.367496 h 0.0417609 v -0.238037 l 0.0918739,-0.1921 0.050113,-0.0084 0.045937,-0.05846 0.0208804,0.158691 4.48094076,0.179571 0.041761,-0.04176 0.079346,0.0042 -0.4050803,1.177656 -0.012528,0.421785 0.00835,0.254741 -1.6203216,1.741428 V 17.4978 l 0.012528,0.129458 0.1127543,0.175396 0.1378108,0.06264 0.1753958,-0.0084 2.129804,-1.035669 -0.045937,-0.380024 0.3006783,0.831041 h 0.492778 c 0,0 0.1169305,-0.150339 0.1169305,-0.221332 0,-0.07099 0.054289,-0.413433 0.054289,-0.413433 l 0.016703,0.522011 -0.041761,0.121106 0.1837478,-0.0042 -0.045937,-0.104402 0.00418,-0.538715 0.087698,0.392552 0.1002263,0.250565 0.5053062,-0.01253 0.1211067,-0.279797 0.058465,-0.375848 0.041761,0.0042 0.00418,0.171219 2.0629867,0.914563 0.1921002,0.01253 0.146163,-0.0877 0.1085781,-0.175396 -0.02506,-0.760048 -1.5743845,-1.637026 0.020881,-0.321558 -0.025056,-0.354967 -0.4134326,-1.144248 0.09605,-0.01253 -0.00835,0.05429 4.4224751,-0.229685 0.01671,-0.171219 0.07517,0.100226 0.03341,-0.0042 0.02506,0.104402 0.05429,0.07517 0.0084,0.279798 c 0,0 0.05011,0.0167 0.05011,-0.0042 0,-0.02088 -0.0167,-0.400904 -0.0167,-0.400904 l 0.125282,0.0084 0.01253,-0.07517 h 0.179572 l -0.02088,-0.421785 -0.150339,-0.208804 0.0084,-1.816598 0.179571,-0.0042 -0.196275,-0.229684 -0.0084,-0.175396 -0.07099,-0.1378108 -0.05429,0.1294588 -0.03758,0.11693 -0.08352,0.108579 -0.01253,0.154515 -0.04594,0.0167 0.02506,0.388376 -0.09605,0.02923 -0.02088,0.07099 -0.0084,0.254741 -2.317728,-1.115015 -0.01253,-0.2213325 -0.0167,-0.2589172 -0.06682,-0.1545154 -0.06264,0.1962761 -0.02088,0.2213327 L 10.051872,10.0434 8.9660575,9.5256529 8.9368251,9.387842 8.8950643,9.2667356 8.8616553,9.3460812 8.8282467,9.4504834 8.0389665,9.0871639 8.0097338,8.4732793 7.9345643,7.7341118 7.8552187,7.2371576 7.6380622,6.1346709 7.5294838,5.4456165 7.4710183,4.8693167 7.3666164,4.2094951 7.2914467,3.9380493 7.2079251,3.8461756 7.0784664,3.679132 7.0367056,2.3260801 7.1076988,2.1924453 7.1035229,2.1089236 7.0367056,2.0003454 6.9907686,1.5367998 6.9155989,1.0565498 6.7360273,0.4927782 Z"
       id="path1430"
       sodipodi:nodetypes="cccccccccccccccccccccccccccccccccccccccccccccsccccccccccccccccccccccccccccccccscccccccccccccccccccccccccccccccsccccccccccccccccccccccccccccccccccccccccccccccccccc" />
  </g>
  <g
     inkscape:groupmode="layer"
     id="layer3"
     inkscape:label="accent">
    <path
       id="path1459"
       style="fill:none;stroke:#000000;stroke-width:0.264583px;stroke-linecap:butt;stroke-linejoin:miter;stroke-opacity:1"
       d="m -0.0531529,10.524274 0.67327009,-0.01772 m 11.82947381,0.05906 0.614211,-0.01181 m -0.493782,1.991157 0.367496,-0.23386 m -0.300679,0.350791 -0.0083,-1.745604 m -12.21923354,0.11693 0.008352,1.453278 m 0.0835219,0.30903 -0.0668174,-0.242213 -0.29232605,-0.23386 M 7.5713826,16.43015 7.6776882,15.969492 7.7131232,15.260787 M 5.5751488,16.418341 5.4570312,15.969494 5.4334076,15.390718 m 0.1063059,1.086681 1.9961867,-0.02362 M 8.031994,13.18192 7.7130766,12.213355 l -0.094494,0.236236 -0.1063058,0.685081 0.047247,1.535529 0.047247,0.54334 0.8386347,0.377977 0.023625,-0.531529 m -3.8270104,0.153552 0.094494,0.425224 0.8740698,-0.4016 c 0,0 0.023625,-0.484282 0.023625,-0.566964 0,-0.08268 -0.047247,-1.488281 -0.047247,-1.488281 l -0.047248,-0.6024 -0.1181177,-0.4016 -0.3071056,0.980376 m 1.0243562,-7.1280273 0.9855565,0.00835 M 6.1221426,4.6688644 6.531399,4.5018211 7.0575854,4.6103992 M 6.5564556,3.432743 6.3142425,3.5830822 6.2223686,3.9589299 6.1221426,4.6688644 V 6.0219166 L 6.1346706,7.1703402 6.214016,8.2018334 6.5982159,8.3521726 7.0659375,8.2185379 7.1494594,7.1745162 7.1160505,5.9968599 7.0408811,4.5435818 6.8654855,3.7334211 6.7819637,3.5747298 Z" />
  </g>
</svg>
