<?xml version="1.0" encoding="UTF-8" standalone="no"?>
<svg
   xmlns:dc="http://purl.org/dc/elements/1.1/"
   xmlns:cc="http://creativecommons.org/ns#"
   xmlns:rdf="http://www.w3.org/1999/02/22-rdf-syntax-ns#"
   xmlns:svg="http://www.w3.org/2000/svg"
   xmlns="http://www.w3.org/2000/svg"
   xmlns:sodipodi="http://sodipodi.sourceforge.net/DTD/sodipodi-0.dtd"
   xmlns:inkscape="http://www.inkscape.org/namespaces/inkscape"
   width="80mm"
   height="80mm"
   viewBox="-35 -32 80 80"
   version="1.1"
   id="svg1542"
   inkscape:version="1.0.1 (3bc2e813f5, 2020-09-07)"
   sodipodi:docname="F35A.svg">
  <defs
     id="defs1536" />
  <sodipodi:namedview
     id="base"
     pagecolor="#ffffff"
     bordercolor="#666666"
     borderopacity="1.0"
     inkscape:pageopacity="0.0"
     inkscape:pageshadow="2"
     inkscape:zoom="2.8"
     inkscape:cx="136.51952"
     inkscape:cy="148.25611"
     inkscape:document-units="mm"
     inkscape:current-layer="layer4"
     inkscape:document-rotation="0"
     showgrid="false"
     inkscape:window-width="1920"
     inkscape:window-height="1121"
     inkscape:window-x="-9"
     inkscape:window-y="-9"
     inkscape:window-maximized="1"
     inkscape:snap-global="false" />
<metadata
     id="metadata1539">
    <rdf:RDF>
      <cc:Work
         rdf:about="">
        <dc:format>image/svg+xml</dc:format>
        <dc:type
           rdf:resource="http://purl.org/dc/dcmitype/StillImage" />
        <dc:title></dc:title>
        <dc:creator>
          <cc:Agent>
            <dc:title>RexKramer1</dc:title>
          </cc:Agent>
        </dc:creator>
        <dc:rights>
          <cc:Agent>
            <dc:title>GNU General Public License v3.0</dc:title>
          </cc:Agent>
        </dc:rights>
      </cc:Work>
    </rdf:RDF>
  </metadata>
  <g
     inkscape:groupmode="layer"
     id="layer4"
     inkscape:label="Outline"
     style="display:inline">
    <path
       style="opacity:1;fill:none;stroke:#000000;stroke-width:0.264583px;stroke-linecap:butt;stroke-linejoin:miter;stroke-opacity:1"
       d="M 5.6377167,0.06681702 5.2451647,0.88532988 5.169995,1.2444734 4.9194298,3.1320644 4.7607383,4.326425 4.5602865,4.9444859 4.1092688,4.4934687 3.8921123,4.9194293 3.7793579,7.462666 3.3868062,8.2519463 0.07099347,10.490329 v 1.607793 l 3.65407573,0.906211 -0.2672694,0.69323 -1.6161456,1.073254 0.02088,0.897859 2.7353365,0.689054 0.2088042,-1.586913 0.1670436,-0.739167 0.3006781,0.668174 H 6.0260921 L 6.30589,14.065059 6.49799,14.912804 6.6900904,16.35773 9.4713641,15.681204 9.4504832,14.758289 7.8343375,13.668331 7.5545398,13.008509 11.22532,12.085594 11.212791,10.473625 7.9011554,8.231066 7.4960751,7.4334335 7.3916729,4.9236055 7.1786926,4.4684121 6.7443796,4.9444859 6.5856883,4.5435815 6.4395251,3.7208927 6.1680798,1.3739321 6.0260927,0.83939298 Z"
       id="path2020" />
  </g>
  <g
     inkscape:groupmode="layer"
     id="layer5"
     inkscape:label="Accent">
    <path
       id="path2047"
       style="fill:none;stroke:#000000;stroke-width:0.264583px;stroke-linecap:butt;stroke-linejoin:miter;stroke-opacity:1"
       d="m 5.0530646,14.014946 h 1.2110648 m 0.8769781,-1.971113 -0.1336347,0.643117 -0.025056,0.776752 -0.041761,0.776752 0.1419871,0.367496 0.1085781,-0.133635 0.7600476,1.052374 0.041761,-1.444926 z m -2.9900776,-0.02506 0.200452,1.244474 -0.016703,0.9605 -0.1503392,0.45937 -0.07517,-0.133635 -0.7767518,1.018965 -0.050113,-1.469983 z M 5.0363601,3.1738257 5.6794775,3.0318387 6.2808339,3.1821778 M 5.6126602,1.8541823 5.3370384,2.0212258 5.1449385,2.3636649 4.9945993,3.7668297 5.1950514,4.8192036 5.662773,5.0781209 6.1388468,4.7774428 6.2975381,3.6164908 6.097086,2.2216779 5.8882816,1.9460562 Z" />
  </g>
</svg>
