<?xml version="1.0" encoding="UTF-8" standalone="no"?>
<svg
   xmlns:dc="http://purl.org/dc/elements/1.1/"
   xmlns:cc="http://creativecommons.org/ns#"
   xmlns:rdf="http://www.w3.org/1999/02/22-rdf-syntax-ns#"
   xmlns:svg="http://www.w3.org/2000/svg"
   xmlns="http://www.w3.org/2000/svg"
   xmlns:sodipodi="http://sodipodi.sourceforge.net/DTD/sodipodi-0.dtd"
   xmlns:inkscape="http://www.inkscape.org/namespaces/inkscape"
   width="80mm"
   height="80mm"
   viewBox="-36 -33 80 80"
   version="1.1"
   id="svg1542"
   inkscape:version="1.0.1 (3bc2e813f5, 2020-09-07)"
   sodipodi:docname="F5.svg">
  <title
     id="title1428">F5</title>
  <defs
     id="defs1536" />
  <sodipodi:namedview
     id="base"
     pagecolor="#ffffff"
     bordercolor="#666666"
     borderopacity="1.0"
     inkscape:pageopacity="0.0"
     inkscape:pageshadow="2"
     inkscape:zoom="2.8"
     inkscape:cx="185.1122"
     inkscape:cy="142.75046"
     inkscape:document-units="mm"
     inkscape:current-layer="layer4"
     inkscape:document-rotation="0"
     showgrid="false"
     inkscape:window-width="1920"
     inkscape:window-height="1121"
     inkscape:window-x="-9"
     inkscape:window-y="-9"
     inkscape:window-maximized="1"
     inkscape:snap-global="false" />
  <metadata
     id="metadata1539">
    <rdf:RDF>
      <cc:Work
         rdf:about="">
        <dc:format>image/svg+xml</dc:format>
        <dc:type
           rdf:resource="http://purl.org/dc/dcmitype/StillImage" />
        <dc:title>F5</dc:title>
      </cc:Work>
    </rdf:RDF>
  </metadata>
  <g
     inkscape:groupmode="layer"
     id="layer4"
     inkscape:label="Outline"
     style="display:inline">
    <path
       style="fill:none;stroke:#000000;stroke-width:0.264583px;stroke-linecap:butt;stroke-linejoin:miter;stroke-opacity:1"
       d="M 4.4433558,0.05011304 H 4.3765385 V 0.70158249 L 4.1092688,1.8458301 3.9589299,3.0485432 3.9255213,4.2094951 3.9505773,6.1722555 H 3.8921121 L 3.8754089,6.0553253 3.4661525,6.4061165 3.4494493,6.7819642 3.1237147,7.3081511 l -0.066817,0.492778 -0.016706,0.4426654 -0.9103868,0.492778 -0.075169,-0.050113 0.016704,-0.2505652 -0.041761,-0.058465 -0.025057,0.050113 v 0.2839739 l -0.050113,0.016703 0.050113,0.058465 L 1.3447003,9.170684 1.3614043,8.9284712 1.3948133,8.8700062 1.3530523,8.8449502 1.3447023,8.569329 1.4115193,8.502512 1.3614063,8.469103 V 8.2519466 l -0.050113,-0.1169305 -0.033409,0.100226 0.00835,0.2255089 -0.075169,0.041761 0.058465,0.041761 0.016704,0.2839738 -0.066817,0.041761 0.041761,0.050113 0.00835,0.2589176 L 0.51783275,9.64676 0.45936755,9.63841 0.45101555,8.669558 0.50112855,8.661208 V 8.58604 L 0.45101565,8.57769 0.43431135,8.3688859 0.35914175,8.3271249 0.35078975,8.1016162 0.28397235,8.0347992 0.23385935,8.1016162 V 8.4523986 L 0.16704345,8.5693291 H 0.06681738 l 0.01670434,0.066817 0.12528259,0.00835 0.0167043,1.6453779 0.0334087,0.06682 -0.15869128,0.150339 0.0167043,0.367496 0.13363476,0.0084 0.0417608,0.04176 0.0501131,-0.05011 h 0.13363474 l -0.008352,-0.367495 0.008352,-0.05011 3.12371257,0.325735 0.041761,0.927091 0.025056,0.50113 -1.3781084,0.851922 v 0.509482 l 1.503391,0.100226 0.1336349,0.826865 0.041761,0.07517 h 0.3841999 l 0.016703,-0.05846 h 0.1085781 l 0.00835,0.05846 H 4.869313 l 0.016703,-0.05011 0.016706,-0.0084 0.1252826,-0.843569 1.5117432,-0.100226 v -0.517835 l -1.3864606,-0.876978 0.066817,-0.818513 -0.016703,-0.593004 3.1237126,-0.292326 0.050113,0.0167 -0.00835,0.3842 0.1252826,-0.0084 0.025056,0.05846 0.066818,-0.05011 h 0.1586912 l -0.016703,-0.359143 -0.1169305,-0.133635 -0.00835,-0.06682 0.00835,-0.02506 -0.00835,-1.6370262 H 8.753077 V 8.5609791 H 8.661203 L 8.586034,8.4607531 8.594384,8.1016096 8.535919,8.0347926 8.477454,8.1016096 8.494157,8.3354705 8.3939308,8.3939355 v 0.1670436 h -0.075169 l 0.00835,0.075169 0.041761,0.016703 0.00835,0.9772042 -0.066817,-0.00835 -0.7684,-0.434313 V 8.9284727 l 0.058465,-0.058465 -0.050113,-0.041761 -0.00835,-0.2756215 0.058465,-0.041761 -0.050113,-0.041761 -0.00835,-0.2756217 -0.033409,-0.058465 -0.033409,0.07517 0.00835,0.2422128 -0.058465,0.066817 0.058465,0.041761 -0.00835,0.2672694 -0.07517,0.041761 0.07517,0.066817 0.00835,0.2338607 L 6.8320776,8.8115422 6.8237247,8.7781335 6.88219,8.7363725 6.8237247,8.7029638 V 8.4356944 l -0.033409,-0.066817 -0.033409,0.058465 V 8.6862596 L 6.7067945,8.7447249 5.7713512,8.22689 5.721238,7.3081511 5.3704468,6.7652598 5.3286858,6.389412 4.9361338,6.0469729 4.952837,6.1806079 4.9027241,6.172255 V 4.1844385 L 4.8693167,3.0318387 4.7273297,1.837478 4.4600603,0.80180856 4.4517079,0.70993467 Z"
       id="path2020" />
  </g>
  <g
     inkscape:groupmode="layer"
     id="layer5"
     inkscape:label="Accent">
    <path
       id="path2050"
       style="fill:none;stroke:#000000;stroke-width:0.264583px;stroke-linecap:butt;stroke-linejoin:miter;stroke-opacity:1"
       d="m 5.1617371,12.177921 -0.141741,1.523716 M 3.6616444,12.236979 3.7915736,13.72526 M 4.9373139,6.3311013 5.0790551,7.3232887 4.9963728,7.9965586 M 3.9333147,6.2366073 3.7325149,7.311477 3.8388207,7.9729353 M 4.405785,10.807756 4.346726,12.366908 4.417597,13.902437 4.476656,12.366908 Z M 5.4452194,6.9098773 5.3507256,7.6540179 5.2089846,8.5989582 5.1617376,9.2604166 5.2089841,10.76051 M 3.3781622,6.9098773 3.4608442,7.6422061 3.6380206,8.6580169 3.6734556,9.3549106 3.5907736,10.772321 M 4.405785,4.2640437 4.2167968,4.3349145 3.9805617,4.7955729 4.0041864,6.2247954 4.1577392,6.5082774 4.4294094,6.5909597 4.7010798,6.4492187 4.9136916,6.1184895 4.8782562,4.7365142 4.594774,4.3349145 Z" />
  </g>
</svg>
