<?xml version="1.0" encoding="UTF-8" standalone="no"?>
<svg
   xmlns:dc="http://purl.org/dc/elements/1.1/"
   xmlns:cc="http://creativecommons.org/ns#"
   xmlns:rdf="http://www.w3.org/1999/02/22-rdf-syntax-ns#"
   xmlns:svg="http://www.w3.org/2000/svg"
   xmlns="http://www.w3.org/2000/svg"
   xmlns:sodipodi="http://sodipodi.sourceforge.net/DTD/sodipodi-0.dtd"
   xmlns:inkscape="http://www.inkscape.org/namespaces/inkscape"
   width="80mm"
   height="80mm"
   viewBox="-27 -28 80 80"
   version="1.1"
   id="svg1542"
   inkscape:version="1.0.1 (3bc2e813f5, 2020-09-07)"
   sodipodi:docname="FA7X.svg">
  <defs
     id="defs1536" />
  <sodipodi:namedview
     id="base"
     pagecolor="#ffffff"
     bordercolor="#666666"
     borderopacity="1.0"
     inkscape:pageopacity="0.0"
     inkscape:pageshadow="2"
     inkscape:zoom="3.959798"
     inkscape:cx="160.29069"
     inkscape:cy="183.76638"
     inkscape:document-units="mm"
     inkscape:current-layer="layer2"
     inkscape:document-rotation="0"
     showgrid="true"
     inkscape:window-width="1920"
     inkscape:window-height="1017"
     inkscape:window-x="-8"
     inkscape:window-y="-8"
     inkscape:window-maximized="1"
     inkscape:snap-global="false">
    <inkscape:grid
       type="xygrid"
       id="grid1430" />
  </sodipodi:namedview>
<metadata
     id="metadata1539">
    <rdf:RDF>
      <cc:Work
         rdf:about="">
        <dc:format>image/svg+xml</dc:format>
        <dc:type
           rdf:resource="http://purl.org/dc/dcmitype/StillImage" />
        <dc:title></dc:title>
        <dc:creator>
          <cc:Agent>
            <dc:title>RexKramer1</dc:title>
          </cc:Agent>
        </dc:creator>
        <dc:rights>
          <cc:Agent>
            <dc:title>GNU General Public License v3.0</dc:title>
          </cc:Agent>
        </dc:rights>
      </cc:Work>
    </rdf:RDF>
  </metadata>
  <g
     inkscape:groupmode="layer"
     id="layer2"
     inkscape:label="Outline"
     style="display:inline">
    <path
       style="fill:none;stroke:#000000;stroke-width:0.264583px;stroke-linecap:butt;stroke-linejoin:miter;stroke-opacity:1"
       d="m 13.14632,0.05011304 -0.785105,1.28623456 -0.50113,2.0546344 -0.06682,0.5846521 v 4.9611907 l -3.4745041,2.9399652 -7.58377271,4.777442 -0.13363477,0.133635 -0.63476511,1.302939 0.01670435,0.300678 0.90203464,-0.584652 7.6839988,-3.173826 3.1571209,-0.651469 0.100226,1.403165 -1.085782,0.01384 -0.150339,0.754562 -0.01671,0.835217 0.200453,0.7684 0.300678,0.88533 0.601356,-0.03341 0.601357,0.651469 -3.7083652,2.655991 -0.016703,1.419869 4.0591552,-1.720547 0.283974,0.785104 0.534539,-0.0167 0.183748,-0.751696 4.025747,1.670435 -0.0167,-1.403165 -3.608139,-2.622583 0.567948,-0.634765 0.65147,-0.0167 0.350791,-1.236121 0.06682,-0.785105 -0.03341,-0.751695 -0.150339,-0.484426 -0.968852,-0.03341 -0.05011,-1.369756 3.240644,0.668174 7.583772,3.207234 c 0,0 0.818513,0.701582 0.818513,0.601356 V 18.023993 L 25.52424,16.72105 25.390605,16.620824 17.923762,11.893494 14.465963,8.9368248 V 3.9589299 l -0.06682,-0.534539 -0.517835,-2.121452 z"
       id="path1432"
       sodipodi:nodetypes="ccccccccccccccccccccccccccccccccccccccccsccccccccc" />
  </g>
</svg>
