<?xml version="1.0" encoding="UTF-8" standalone="no"?>
<svg
   xmlns:dc="http://purl.org/dc/elements/1.1/"
   xmlns:cc="http://creativecommons.org/ns#"
   xmlns:rdf="http://www.w3.org/1999/02/22-rdf-syntax-ns#"
   xmlns:svg="http://www.w3.org/2000/svg"
   xmlns="http://www.w3.org/2000/svg"
   xmlns:sodipodi="http://sodipodi.sourceforge.net/DTD/sodipodi-0.dtd"
   xmlns:inkscape="http://www.inkscape.org/namespaces/inkscape"
   width="80mm"
   height="80mm"
   viewBox="-35 -34 80.000002 80.000002"
   version="1.1"
   id="svg1542"
   inkscape:version="1.0.1 (3bc2e813f5, 2020-09-07)"
   sodipodi:docname="GAZL.svg">
  <defs
     id="defs1536" />
  <sodipodi:namedview
     id="base"
     pagecolor="#ffffff"
     bordercolor="#666666"
     borderopacity="1.0"
     inkscape:pageopacity="0.0"
     inkscape:pageshadow="2"
     inkscape:zoom="15.839192"
     inkscape:cx="160.33084"
     inkscape:cy="155.49783"
     inkscape:document-units="mm"
     inkscape:current-layer="layer6"
     inkscape:document-rotation="0"
     showgrid="false"
     inkscape:snap-global="false"
     inkscape:window-width="1920"
     inkscape:window-height="1121"
     inkscape:window-x="-9"
     inkscape:window-y="-9"
     inkscape:window-maximized="1" />
<metadata
     id="metadata1539">
    <rdf:RDF>
      <cc:Work
         rdf:about="">
        <dc:format>image/svg+xml</dc:format>
        <dc:type
           rdf:resource="http://purl.org/dc/dcmitype/StillImage" />
        <dc:title></dc:title>
        <dc:creator>
          <cc:Agent>
            <dc:title>RexKramer1</dc:title>
          </cc:Agent>
        </dc:creator>
        <dc:rights>
          <cc:Agent>
            <dc:title>GNU General Public License v3.0</dc:title>
          </cc:Agent>
        </dc:rights>
      </cc:Work>
    </rdf:RDF>
  </metadata>
  <g
     inkscape:groupmode="layer"
     id="layer6"
     inkscape:label="Outline"
     style="display:inline">
    <path
       style="fill:none;stroke:#000000;stroke-width:0.264583px;stroke-linecap:butt;stroke-linejoin:miter;stroke-opacity:1"
       d="m 6.6065686,8.9451769 c 0,0 -0.1419871,0.2672697 -0.091874,-0.00835 C 6.5648075,8.6612023 6.0553251,5.3704463 6.0553251,5.3704463 L 6.3058903,4.3264246 6.3977642,3.3826291 10.097777,0.53453904 9.9474377,0.3006782 6.5564554,2.8480909 6.4228207,3.0568953 6.4645815,2.3970736 6.3727076,1.9042954 6.2056642,1.453278 5.9718033,1.1776564 5.6293644,1.0816064 5.2869254,1.1693042 5.0447123,1.453278 4.8693166,1.8792388 4.7857946,2.3803692 4.8442596,3.2406431 4.8609626,3.4577996 0.30902852,1.6203215 0.20391022,1.9238658 4.2763108,3.5580256 4.668863,3.5329696 l 0.1837478,0.066817 0.083522,0.726639 0.242213,1.1275433 0.1753958,3.5162648 -0.7266392,0.025056 -0.00835,-0.058465 H 4.5602874 V 9.529829 h 0.050113 l 0.00835,-0.1252826 0.7349913,0.016703 -0.00835,0.5094828 0.041761,0.4343128 0.1336347,0.342439 0.083522,0.0084 0.1336347,-0.292326 0.033409,-0.567948 -0.00835,-0.2422131 0.016703,-0.1837476 0.8101611,4e-7 v 0 z"
       id="path2664"
       sodipodi:nodetypes="cscccccccccccccccccccccccccccccccccccccccccccc" />
  </g>
  <g
     inkscape:groupmode="layer"
     id="layer7"
     inkscape:label="Accent">
    <path
       id="path2715"
       style="fill:none;stroke:#000000;stroke-width:0.264583px;stroke-linecap:butt;stroke-linejoin:miter;stroke-opacity:1"
       d="m 4.5856287,2.9450064 0.2067057,0.011811 M 4.5206641,3.2462063 4.5088523,1.8465132 m 0.029529,2.9411272 V 3.6064648 m 0.3720704,0.6496465 -0.3779761,-0.00591 m 2.2147043,-0.00591 H 6.3455804 M 6.7176507,4.8171698 6.7294617,3.2107711 M 6.741274,2.6083715 6.7294622,1.8051721 m -0.6351748,0.3461326 -0.218518,0.047247 0.01181,0.5787761 0.147647,0.4665642 0.07087,-0.011811 z m -0.011812,-0.2775763 -0.3012,0.059059 1e-6,-0.4960939 0.159458,0.1358352 z M 5.1762165,2.1299954 5.3947341,2.1772424 5.3829231,2.7560185 5.235276,3.2225827 5.164406,3.2107717 Z m 0.011812,-0.2775763 0.3011997,0.059059 -4e-7,-0.4960938 -0.1594587,0.1358352 z M 6.0553251,5.3704463 5.7018396,4.521876 M 5.779706,9.4296491 5.9735101,7.2740152 M 6.3977642,3.3826291 5.7963337,3.8131705 5.583722,4.0021587 M 6.3160508,9.4591898 5.6309691,4.3328878 5.583722,4.0021587 5.4892279,3.9430999 V 3.8367941 L 4.8526108,3.5997867" />
  </g>
</svg>
