<?xml version="1.0" encoding="UTF-8" standalone="no"?>
<svg
   xmlns:dc="http://purl.org/dc/elements/1.1/"
   xmlns:cc="http://creativecommons.org/ns#"
   xmlns:rdf="http://www.w3.org/1999/02/22-rdf-syntax-ns#"
   xmlns:svg="http://www.w3.org/2000/svg"
   xmlns="http://www.w3.org/2000/svg"
   xmlns:sodipodi="http://sodipodi.sourceforge.net/DTD/sodipodi-0.dtd"
   xmlns:inkscape="http://www.inkscape.org/namespaces/inkscape"
   width="80mm"
   height="80mm"
   viewBox="-31 -25 80 80"
   version="1.1"
   id="svg1542"
   inkscape:version="1.0.1 (3bc2e813f5, 2020-09-07)"
   sodipodi:docname="H47.svg">
  <defs
     id="defs1536" />
  <sodipodi:namedview
     id="base"
     pagecolor="#ffffff"
     bordercolor="#666666"
     borderopacity="1.0"
     inkscape:pageopacity="0.0"
     inkscape:pageshadow="2"
     inkscape:zoom="7.9195959"
     inkscape:cx="143.05811"
     inkscape:cy="143.9971"
     inkscape:document-units="mm"
     inkscape:current-layer="layer2"
     inkscape:document-rotation="0"
     showgrid="false"
     inkscape:window-width="1920"
     inkscape:window-height="1121"
     inkscape:window-x="-9"
     inkscape:window-y="-9"
     inkscape:window-maximized="1"
     inkscape:snap-global="false" />
<metadata
     id="metadata1539">
    <rdf:RDF>
      <cc:Work
         rdf:about="">
        <dc:format>image/svg+xml</dc:format>
        <dc:type
           rdf:resource="http://purl.org/dc/dcmitype/StillImage" />
        <dc:title></dc:title>
        <dc:creator>
          <cc:Agent>
            <dc:title>RexKramer1</dc:title>
          </cc:Agent>
        </dc:creator>
        <dc:rights>
          <cc:Agent>
            <dc:title>GNU General Public License v3.0</dc:title>
          </cc:Agent>
        </dc:rights>
      </cc:Work>
    </rdf:RDF>
  </metadata>
  <g
     inkscape:groupmode="layer"
     id="layer2"
     inkscape:label="Outline"
     style="display:inline">
    <path
       style="fill:none;stroke:#000000;stroke-width:0.264583px;stroke-linecap:butt;stroke-linejoin:miter;stroke-opacity:1"
       d="M 9.1777343,6.5437128 8.7406992,6.5909597 8.3981585,6.7917596 8.3745339,5.8822544 h -0.07087 L 8.2918524,6.8744419 8.0807268,7.4250816 7.9157713,8.2749151 7.5890529,8.2682291 6.8035712,7.8666294 3.0651503,8.2091704 3.0533393,8.1264881 2.1320222,8.2150761 2.143834,8.2800409 0.04134115,8.4276879 0.02362351,8.5635231 0.1063058,9.2604166 7.1047712,8.6580169 7.7071706,8.522182 l 0.00591,1.4646576 -0.2716705,0.1535524 -0.1653646,0.33073 0.011811,5.197172 -0.047247,-0.01181 -1.6772694,-3.815197 -0.779576,0.354353 0.8740701,1.937128 -0.094494,0.07087 0.3720703,0.767764 0.1063059,-0.01772 1.2284226,2.781669 0.017716,1.441034 0.035435,0.183082 0.2480468,0.259859 -0.02953,0.08268 0.1535531,0.313012 -0.047247,0.259858 0.1830821,-0.0059 0.017716,0.478376 0.094494,0.460659 0.1535528,0.466564 -4.5770556,5.799573 0.5728703,0.460658 h 0.064965 l 1.2756695,-1.671364 0.1063059,0.04134 0.5256231,-0.667364 -0.023625,-0.1004 2.2973863,-2.911598 0.047247,-0.57287 0.141741,0.141741 0.4075057,0.118118 0.2775762,0.04134 0.2480469,-0.03543 0.4429408,-0.141741 0.2952941,-0.295294 0.124024,-0.289388 0.177176,-0.472471 0.07087,-0.549246 0.555153,0.129929 7.022089,0.986282 0.118117,-0.738235 -0.06496,-0.07087 -2.04934,-0.27167 -0.01181,-0.08268 -0.891788,-0.12993 -0.02362,0.07087 -3.632115,-0.549247 -0.820917,0.342541 -0.03544,-0.224423 0.05315,-0.01181 0.124024,-0.437035 0.141741,-0.17127 0.08268,-0.289388 -0.02953,-6.968936 1.116211,1.576869 -0.03543,0.1004 0.490187,0.655552 0.1004,-0.01181 1.192988,1.771763 0.626023,-0.460658 0.0059,-0.03543 -3.484462,-4.990468 V 10.482933 L 11.043992,10.311663 10.884533,10.069522 10.606957,9.9159691 10.553804,9.100958 10.488839,8.5044641 10.264416,7.4473122 10.116769,7.0102771 10.778227,6.5555245 12.296038,3.1655506 12.40825,3.1832671 12.756696,2.4095982 12.733073,2.3328218 13.595331,0.46065847 13.571707,0.40159969 12.88072,0.09449405 9.7919457,6.626395 9.4257811,6.5732421 Z"
       id="path1414" />
  </g>
  <g
     inkscape:groupmode="layer"
     id="layer3"
     inkscape:label="Accent">
    <path
       id="path1449"
       style="fill:none;stroke:#000000;stroke-width:0.264583px;stroke-linecap:butt;stroke-linejoin:miter;stroke-opacity:1"
       d="m 10.114481,20.187201 0.04176,-0.334087 m -0.04176,-1.545151 0.626413,0.0167 0.09187,0.250565 -0.100226,0.810161 -0.100226,0.476073 -0.434313,-0.03341 -0.05011,-0.375848 -0.08352,-0.659822 -0.0167,-0.30903 z m -1.7957171,0.701582 -0.1670433,0.785104 0.1169302,0.467722 -0.4092564,-0.02506 M 7.592125,18.541823 c 0,0.06682 0.083521,1.085783 0.083521,1.085783 m 1.0440223,-0.927091 0.025056,-0.417609 0.1252826,-0.534539 0.3340867,-0.425961 0.083522,0.01671 0.2672696,0.459369 0.1586913,0.668174 0.058465,0.701583 0.050113,0.275621 -0.016703,0.526187 -0.1252826,1.03567 -0.2255088,1.144247 -0.5011304,-0.02506 -0.1503389,-0.810161 -0.1085784,-1.1526 -0.033409,-0.643117 z m -0.3674957,3.215586 c 0.058465,-0.08352 0.5930043,-1.035669 0.5930043,-1.035669 l 0.2839738,0.11693 0.2171565,-0.11693 0.3507912,-0.467722 0.7767526,0.108578 m -3.2322912,-2.839738 0.3090304,0.801808 0.6514695,0.342439 0.5762998,1.110839 -0.1837478,0.200452 -0.1085781,0.233861 0.1837476,0.409257 -0.6180606,0.893682 m -0.868626,-5.955099 1.7372517,4.059156 0.1503392,-0.05846 0.1837478,0.03341 0.2422131,0.141987 0.1837478,0.317383 0.8936828,0.03341 M 8.5913225,8.5140036 8.6343936,9.1186756 8.81157,9.5793339 9.1422991,10.110863 9.3549106,10.087238 9.5675221,9.7210741 9.7683221,9.4139683 9.9100631,8.9651217 9.8982521,8.4926513 9.8001757,8.460082 M 8.9769346,7.1697357 9.390346,7.1579247 10.288039,7.66583 10.110863,7.9256886 9.874628,7.66583 9.6265811,7.6303949 9.3076637,7.4768421 8.9414992,7.524089 Z M 8.1855468,7.7012648 8.2800408,7.9847471 8.504464,7.6658294 8.8824404,7.5949594 V 7.2642298 l -0.3071059,0.07087 z M 9.5793339,7.6067707 10.063616,6.9925596 m -2.3505394,1.582775 0.921317,-0.141741 M 11.020368,11.882626 10.099051,10.666015 10.063616,9.8037575 9.673828,9.1541107 9.5084634,9.1068638 9.3430988,8.8233815 9.0123697,8.8588169 8.7643228,8.7052641 8.5989582,8.3627231 M 10.55971,9.8628162 9.5911457,8.752511 9.7210752,8.5044641 9.7092634,8.1855468 9.4966516,7.7721353 M 9.815569,6.6972655 9.4730283,7.7485117 9.1659225,7.6422061 8.8588169,7.7603235 8.6462054,7.9847471 8.6580164,8.2918526 7.9138758,8.3272878" />
  </g>
</svg>
