<?xml version="1.0" encoding="UTF-8" standalone="no"?>
<svg
   xmlns:dc="http://purl.org/dc/elements/1.1/"
   xmlns:cc="http://creativecommons.org/ns#"
   xmlns:rdf="http://www.w3.org/1999/02/22-rdf-syntax-ns#"
   xmlns:svg="http://www.w3.org/2000/svg"
   xmlns="http://www.w3.org/2000/svg"
   xmlns:sodipodi="http://sodipodi.sourceforge.net/DTD/sodipodi-0.dtd"
   xmlns:inkscape="http://www.inkscape.org/namespaces/inkscape"
   width="80mm"
   height="80mm"
   viewBox="-33 -31 80 80"
   version="1.1"
   id="svg1542"
   inkscape:version="1.0.1 (3bc2e813f5, 2020-09-07)"
   sodipodi:docname="H64 (Apache).svg">
  <defs
     id="defs1536" />
  <sodipodi:namedview
     id="base"
     pagecolor="#ffffff"
     bordercolor="#666666"
     borderopacity="1.0"
     inkscape:pageopacity="0.0"
     inkscape:pageshadow="2"
     inkscape:zoom="7.9195959"
     inkscape:cx="130.75792"
     inkscape:cy="143.35278"
     inkscape:document-units="mm"
     inkscape:current-layer="layer2"
     inkscape:document-rotation="0"
     showgrid="false"
     inkscape:window-width="1920"
     inkscape:window-height="1121"
     inkscape:window-x="-9"
     inkscape:window-y="-9"
     inkscape:window-maximized="1"
     inkscape:snap-global="false" />
<metadata
     id="metadata1539">
    <rdf:RDF>
      <cc:Work
         rdf:about="">
        <dc:format>image/svg+xml</dc:format>
        <dc:type
           rdf:resource="http://purl.org/dc/dcmitype/StillImage" />
        <dc:title></dc:title>
        <dc:creator>
          <cc:Agent>
            <dc:title>RexKramer1</dc:title>
          </cc:Agent>
        </dc:creator>
        <dc:rights>
          <cc:Agent>
            <dc:title>GNU General Public License v3.0</dc:title>
          </cc:Agent>
        </dc:rights>
      </cc:Work>
    </rdf:RDF>
  </metadata>
  <g
     inkscape:groupmode="layer"
     id="layer2"
     inkscape:label="Outline"
     style="display:inline">
    <path
       style="fill:none;stroke:#000000;stroke-width:0.265;stroke-linecap:butt;stroke-linejoin:miter;stroke-opacity:1;stroke-miterlimit:4;stroke-dasharray:none"
       d="M 5.1246893,0.00456801 5.0674952,1.0854187 4.8577825,1.3609299 4.8196543,1.5728615 4.6290073,1.9331449 4.5336833,2.4205873 4.4955551,2.7596776 4.438361,2.7384845 4.4955551,2.5901329 H 4.343037 L 4.247713,2.8444506 4.4955547,2.9716097 4.5336827,3.2259269 4.343035,3.2895059 4.381163,3.5226306 4.5718107,3.6285962 4.5603227,4.0723738 H 4.283967 L 4.1289378,4.7092711 4.2570054,4.7317502 4.0547929,5.2562543 4.0615312,5.0239738 3.8997609,4.8591298 3.7447317,4.9940027 0.96094239,1.5847281 0.61044099,1.4123912 0.32060335,1.4423618 0.14535267,1.622192 3.7110295,5.8481933 3.7312488,6.0804738 3.6099217,6.0579947 3.5020752,5.8182218 3.3942287,5.9680796 l 0.013481,0.1798298 -0.1550293,0.044959 0.00674,-0.2547592 0.026962,-0.059943 -0.1078476,-0.292224 -0.087625,0.097408 -0.1213275,-0.00749 -0.067404,-0.089915 -0.1213275,0.1198863 0.020219,0.2322804 0.026962,0.6294045 -0.094366,0.1273796 0.1011065,0.1723368 -0.00674,0.9890639 h 0.1819914 l 0.00674,-0.2322801 0.067404,0.029971 0.00675,0.1948154 0.1617698,-0.00749 V 7.3168103 l 0.1348081,0.014989 0.060664,0.1648445 0.1145871,-0.00749 0.026962,-0.1123934 0.1213275,-0.00749 0.0337,0.142365 0.1280681,-0.014989 V 7.3317927 l 0.3302801,-0.014989 0.040443,0.3296878 -0.3437607,0.2472658 -3.59937901,3.7089897 -0.0471829,0.262252 v 0.329688 l 0.19547188,0.209801 3.76114903,-3.9637487 0.0337,-0.3147013 0.074145,-0.059943 0.1550292,0.5544753 -0.1213275,-0.00749 0.1011064,1.3487238 0.1078465,0.7642769 0.1078463,0.232281 0.1752509,3.461724 0.1011059,0.142365 0.00674,0.531997 -1.0380227,-0.01499 -0.00674,-0.157351 -0.1550293,0.0075 0.1617694,1.768327 0.121328,-0.01499 -0.053924,-0.674362 h 0.074145 l -0.020219,-0.30721 0.5864153,0.01499 -0.013481,0.427097 0.3639821,0.217294 0.080884,0.719321 0.1482892,-0.01499 0.020219,-0.621912 0.1819909,0.0075 0.094366,-0.164844 -0.00674,0.989065 0.1078466,0.02997 0.0337,-1.026527 0.094366,-0.269746 -0.0337,-0.28473 h 0.5594525 l 0.1819909,0.974085 0.114587,-0.0075 -0.1617697,-1.738355 -0.094366,-0.0075 -0.074144,0.164844 H 5.7196727 l 0.013481,-0.509517 h -0.087626 l -0.020219,0.494532 -0.3505012,0.0075 0.047182,-0.606926 0.040443,-0.03747 0.1617697,-3.469218 0.2426547,-0.46456 L 5.894926,9.7220281 5.888187,8.740456 5.7533788,8.6205701 5.9488508,8.0286294 6.10388,8.2234455 9.3527576,12.104773 9.6358551,12.254631 9.9122116,12.239642 10.100943,12.022347 6.5487471,7.8188249 6.2926118,7.8113304 6.2993508,7.6914437 6.0634367,7.5715571 l 0.026962,-0.3221952 0.2426552,0.029978 0.040443,0.2023079 0.1145871,-0.014989 0.0337,-0.089915 0.114587,0.022477 0.00674,0.1049002 0.1415487,-0.014989 0.047183,-0.194816 0.2426544,0.022477 0.026963,0.1348717 0.1011066,-0.074929 0.053925,0.059943 0.094366,-0.052448 0.094365,-0.014989 -0.013478,-0.546982 0.141548,-0.1648444 -0.1280673,-0.1573506 -0.026963,-0.4046174 0.033702,-0.029971 0.020217,-0.35966 -0.033702,-0.037462 -0.00674,-0.3072094 -0.33028,0.014988 v 0.82422 L 6.825101,6.1179383 V 5.8032365 L 6.3937144,5.8182241 6.3397911,5.7133232 9.9054678,2.0492899 10.006574,1.6072081 9.9324299,1.4273784 9.7774004,1.2700272 6.1106175,5.1738339 6.0499537,4.7542307 c 0,0 0.094366,-0.022479 0.101106,-0.059944 0.00674,-0.037462 -0.0337,-0.6069251 -0.0337,-0.6069251 L 5.9690707,3.9300109 5.7668583,3.9674776 5.76012,2.9559349 5.9151493,2.8585269 5.9286303,2.5588104 5.7196774,2.5363314 5.659014,1.9518842 5.5039843,1.4123944 5.3422145,1.1576357 5.2276275,1.0901997 Z"
       id="path1414" />
  </g>
  <g
     inkscape:groupmode="layer"
     id="layer3"
     inkscape:label="Accent"
     style="display:inline">
    <path
       id="path1457"
       style="fill:none;stroke:#000000;stroke-width:0.265;stroke-linecap:butt;stroke-linejoin:miter;stroke-opacity:1;stroke-miterlimit:4;stroke-dasharray:none"
       d="M 5.3893908,2.3415116 5.4702758,1.3749263 5.2411017,1.1126743 5.0254087,1.1276623 4.8568984,1.5772371 4.9310424,2.341514 Z m 0.3453706,12.7101944 -0.095324,1.260992 m -0.028597,-1.2398 -0.1048563,1.250396 M 5.3058043,15.65571 5.7061641,15.6981 m -0.4861512,0.709971 v -0.264916 l 0.066727,-0.03179 -0.038128,-0.466249 -0.076259,-0.211931 0.095324,-0.349688 m -0.2955035,1.229204 -0.047662,-0.656989 0.019067,-0.593407 m -0.2859722,0.667583 0.2764387,-0.04239 m 1.3154684,-0.625196 0.095324,1.017271 m -2.4402889,-0.996079 0.076259,0.921903 M 6.0779296,7.24203 7.4315273,7.2950162 M 7.4452149,6.5000774 7.1014529,6.2003628 6.0398,5.9704405 M 2.9036477,7.3056093 4.2030794,7.3168069 M 2.8178564,6.3201264 3.731252,6.0804734 4.0856629,6.0658119 M 4.7827567,5.1063965 5.153479,5.308705 5.5444228,5.1288752 5.5511611,4.2222331 5.436574,3.8550806 5.4837568,2.9634241 5.6387883,2.4913713 4.6145672,2.510502 4.7827544,2.8360437 4.8636393,3.8475869 4.7557928,4.2522042 Z M 6.3397911,5.7133223 6.0398,5.9704409 5.582246,6.5426559 5.648973,6.7863776 5.639443,7.1042748 6.0634382,7.5715653 m -1.74577,0.4945336 0.6449752,-0.6863131 0.1620505,0.1165621 0.2669063,-0.1801414 0.5572512,0.712427 m -2.2378182,-2.1804387 0.2316457,0.00568 0.6577344,0.7735497 0.028597,0.2649147 0.038128,0.2225276 -0.4236155,0.531624 M 3.7447305,4.9940022 4.1047245,5.5041911 4.3906962,5.9068609 4.8196527,6.3413203 4.9721709,6.2565483 5.1532859,6.2459513 5.305804,6.2883373 6.0112002,5.6207528 6.1106142,5.1738316 v 0" />
  </g>
</svg>
