<?xml version="1.0" encoding="UTF-8" standalone="no"?>
<svg
   xmlns:dc="http://purl.org/dc/elements/1.1/"
   xmlns:cc="http://creativecommons.org/ns#"
   xmlns:rdf="http://www.w3.org/1999/02/22-rdf-syntax-ns#"
   xmlns:svg="http://www.w3.org/2000/svg"
   xmlns="http://www.w3.org/2000/svg"
   xmlns:sodipodi="http://sodipodi.sourceforge.net/DTD/sodipodi-0.dtd"
   xmlns:inkscape="http://www.inkscape.org/namespaces/inkscape"
   width="80mm"
   height="80mm"
   viewBox="-35 -33 80 80"
   version="1.1"
   id="svg1542"
   inkscape:version="1.0.1 (3bc2e813f5, 2020-09-07)"
   sodipodi:docname="HUNT.svg">
  <defs
     id="defs1536" />
  <sodipodi:namedview
     id="base"
     pagecolor="#ffffff"
     bordercolor="#666666"
     borderopacity="1.0"
     inkscape:pageopacity="0.0"
     inkscape:pageshadow="2"
     inkscape:zoom="11.2"
     inkscape:cx="163.0477"
     inkscape:cy="159.36526"
     inkscape:document-units="mm"
     inkscape:current-layer="layer4"
     inkscape:document-rotation="0"
     showgrid="false"
     inkscape:window-width="1920"
     inkscape:window-height="1121"
     inkscape:window-x="-9"
     inkscape:window-y="-9"
     inkscape:window-maximized="1"
     inkscape:snap-global="false" />
<metadata
     id="metadata1539">
    <rdf:RDF>
      <cc:Work
         rdf:about="">
        <dc:format>image/svg+xml</dc:format>
        <dc:type
           rdf:resource="http://purl.org/dc/dcmitype/StillImage" />
        <dc:title></dc:title>
        <dc:creator>
          <cc:Agent>
            <dc:title>RexKramer1</dc:title>
          </cc:Agent>
        </dc:creator>
        <dc:rights>
          <cc:Agent>
            <dc:title>GNU General Public License v3.0</dc:title>
          </cc:Agent>
        </dc:rights>
      </cc:Work>
    </rdf:RDF>
  </metadata>
  <g
     inkscape:groupmode="layer"
     id="layer4"
     inkscape:label="Outline"
     style="display:inline">
    <path
       style="fill:none;stroke:#000000;stroke-width:0.264583px;stroke-linecap:butt;stroke-linejoin:miter;stroke-opacity:1"
       d="M 5.2535166,0.11693042 5.0614167,0.30903039 4.8442602,0.93544333 4.6521602,2.3135518 4.5769905,4.159382 4.6187516,4.2178472 3.9589299,4.7022731 3.9004647,4.6605123 0.48442602,7.984677 0.45101732,6.7569077 0.37584776,6.7819637 v 1.3446998 l -0.17539562,0.1837478 -0.1503391,0.6347651 0.02505651,1.4198696 0.08352173,0.0167 4.08421252,-1.9544083 0.3424391,0.4760738 0.050113,2.4137775 0.066817,0.993909 -1.0523736,1.227769 -0.1503391,0.567948 0.050113,0.534539 h 0.1085781 l 1.2361217,-0.643117 0.091874,0.317382 0.5763001,-0.0084 0.058465,-0.317382 1.2027127,0.626413 0.1670436,0.0167 0.016703,-0.634765 -0.1252826,-0.467721 -1.0440215,-1.211065 0.066817,-0.893683 0.041761,-2.5223559 0.334087,-0.4760738 4.0758607,1.9126477 0.108578,0.0167 0.0167,-1.4365738 L 10.373396,8.4022836 10.223057,8.1684227 6.6316229,4.6605102 6.5815098,4.6855663 5.9216882,4.2011401 5.9550969,4.1426749 5.8799295,2.3051996 5.6544209,0.9521477 5.4456165,0.30903039 Z"
       id="path2021" />
  </g>
  <g
     inkscape:groupmode="layer"
     id="layer5"
     inkscape:label="Accent">
    <path
       id="path2040"
       style="fill:none;stroke:#000000;stroke-width:0.264583px;stroke-linecap:butt;stroke-linejoin:miter;stroke-opacity:1"
       d="m 4.6715494,12.384626 0.4193172,-0.525623 0.3956939,0.01181 0.4252233,0.519717 M 5.273949,14.132766 5.1617374,13.72526 l 0.056102,-1.878069 0.026576,-0.891787 0.035435,-0.09449 0.041341,0.09449 0.026576,0.891787 0.032482,1.866258 z M 5.9467468,8.9117681 5.9300432,7.592125 5.8214648,6.4228207 5.7212388,5.562547 5.7880561,4.6688644 5.9467474,4.1844385 M 4.5686383,8.8616551 4.6020463,7.7090555 4.6855681,6.6984424 4.8275549,5.5124339 4.7607376,4.7189776 4.6020463,4.2261993 m -0.8769772,0.6431174 0.4176084,1.3029388 0.07517,1.1525998 0.016703,1.1442478 M 6.8404295,4.8526124 6.4478772,6.0720295 6.3392991,6.6900903 6.2808323,8.4272862 M 4.8609644,2.5891735 5.2869253,2.4638909 5.6961817,2.6058779 M 5.0614167,1.6537302 5.2618687,1.7205476 5.42056,1.6620824 5.6794775,2.2634388 5.7045335,3.6415472 5.520786,3.825295 5.2618684,3.9338734 4.9778946,3.8085908 4.8359078,3.6498995 V 2.3051996 Z" />
  </g>
</svg>
