<?xml version="1.0" encoding="UTF-8" standalone="no"?>
<svg
   xmlns:dc="http://purl.org/dc/elements/1.1/"
   xmlns:cc="http://creativecommons.org/ns#"
   xmlns:rdf="http://www.w3.org/1999/02/22-rdf-syntax-ns#"
   xmlns:svg="http://www.w3.org/2000/svg"
   xmlns="http://www.w3.org/2000/svg"
   xmlns:sodipodi="http://sodipodi.sourceforge.net/DTD/sodipodi-0.dtd"
   xmlns:inkscape="http://www.inkscape.org/namespaces/inkscape"
   width="80mm"
   height="80mm"
   viewBox="-30 -30 80 80"
   version="1.1"
   id="svg1542"
   inkscape:version="1.0.1 (3bc2e813f5, 2020-09-07)"
   sodipodi:docname="J328.svg">
  <defs
     id="defs1536" />
  <sodipodi:namedview
     id="base"
     pagecolor="#ffffff"
     bordercolor="#666666"
     borderopacity="1.0"
     inkscape:pageopacity="0.0"
     inkscape:pageshadow="2"
     inkscape:zoom="3.959798"
     inkscape:cx="177.79282"
     inkscape:cy="171.17037"
     inkscape:document-units="mm"
     inkscape:current-layer="layer4"
     inkscape:document-rotation="0"
     showgrid="false"
     inkscape:window-width="1536"
     inkscape:window-height="897"
     inkscape:window-x="-8"
     inkscape:window-y="-8"
     inkscape:window-maximized="1" />
<metadata
     id="metadata1539">
    <rdf:RDF>
      <cc:Work
         rdf:about="">
        <dc:format>image/svg+xml</dc:format>
        <dc:type
           rdf:resource="http://purl.org/dc/dcmitype/StillImage" />
        <dc:title></dc:title>
        <dc:creator>
          <cc:Agent>
            <dc:title>RexKramer1</dc:title>
          </cc:Agent>
        </dc:creator>
        <dc:rights>
          <cc:Agent>
            <dc:title>GNU General Public License v3.0</dc:title>
          </cc:Agent>
        </dc:rights>
      </cc:Work>
    </rdf:RDF>
  </metadata>
  <g
     inkscape:groupmode="layer"
     id="layer4"
     inkscape:label="Outline">
    <path
       style="fill:none;stroke:#000000;stroke-width:0.264583px;stroke-linecap:butt;stroke-linejoin:miter;stroke-opacity:1"
       d="M 10.63058,0.14174107 9.9218749,0.77957589 9.4257811,2.1024925 9.2604166,2.9529389 V 8.031994 L 8.7643228,8.2918526 7.1579239,8.2446055 7.2051711,7.6776412 7.1579239,6.6382068 7.0398065,6.2838541 6.0239954,6.2602294 5.7405134,6.6854527 v 1.2284226 l 0.023625,0.3307291 -4.3939731,0.5669645 -1.25204612,1.2520461 0.0236235,0.377976 8.97693452,0.212612 0.1771764,0.879975 -0.017719,3.165551 0.4252233,2.982468 -0.1712704,0.377977 0.029529,1.635928 0.431129,0.0059 0.1240235,0.655553 -2.8171037,0.596494 -0.1476471,0.24214 0.017716,0.785482 3.2305158,0.177177 0.05315,-0.05906 0.07087,0.159459 c 0,0 0.09449,0.01772 0.09449,-0.0059 0,-0.02362 0.01772,-0.135835 0.01772,-0.135835 l 0.05906,0.05906 3.248233,-0.206706 -0.02953,-0.838635 -0.236235,-0.236235 -2.69308,-0.537434 0.118117,-0.673271 0.448847,0.01181 -0.03543,-1.783573 -0.09449,-0.242141 0.484282,-2.828916 0.0059,-3.36635 0.165365,-0.868164 8.959217,-0.08268 -0.02362,-0.34254 L 19.820126,8.9060638 15.40253,8.3509114 15.4734,7.7839471 15.414341,6.531901 15.260789,6.2720423 h -1.051247 l -0.177176,0.1653646 -0.05906,0.6496465 0.01181,1.1457405 -1.653646,-0.011811 -0.401599,-0.1889881 0.01181,-5.0790551 -0.09449,-0.7441406 -0.53153,-1.44103418 z"
       id="path2171" />
  </g>
</svg>
