<?xml version="1.0" encoding="UTF-8" standalone="no"?>
<svg
   xmlns:dc="http://purl.org/dc/elements/1.1/"
   xmlns:cc="http://creativecommons.org/ns#"
   xmlns:rdf="http://www.w3.org/1999/02/22-rdf-syntax-ns#"
   xmlns:svg="http://www.w3.org/2000/svg"
   xmlns="http://www.w3.org/2000/svg"
   xmlns:sodipodi="http://sodipodi.sourceforge.net/DTD/sodipodi-0.dtd"
   xmlns:inkscape="http://www.inkscape.org/namespaces/inkscape"
   width="80mm"
   height="80mm"
   viewBox="-35 -34 80 80"
   version="1.1"
   id="svg1542"
   inkscape:version="1.0.1 (3bc2e813f5, 2020-09-07)"
   sodipodi:docname="L159.svg">
  <defs
     id="defs1536" />
  <sodipodi:namedview
     id="base"
     pagecolor="#ffffff"
     bordercolor="#666666"
     borderopacity="1.0"
     inkscape:pageopacity="0.0"
     inkscape:pageshadow="2"
     inkscape:zoom="11.2"
     inkscape:cx="163.7754"
     inkscape:cy="157.18506"
     inkscape:document-units="mm"
     inkscape:current-layer="layer4"
     inkscape:document-rotation="0"
     showgrid="false"
     inkscape:window-width="1920"
     inkscape:window-height="1121"
     inkscape:window-x="-9"
     inkscape:window-y="-9"
     inkscape:window-maximized="1"
     inkscape:snap-global="false" />
<metadata
     id="metadata1539">
    <rdf:RDF>
      <cc:Work
         rdf:about="">
        <dc:format>image/svg+xml</dc:format>
        <dc:type
           rdf:resource="http://purl.org/dc/dcmitype/StillImage" />
        <dc:title></dc:title>
        <dc:creator>
          <cc:Agent>
            <dc:title>RexKramer1</dc:title>
          </cc:Agent>
        </dc:creator>
        <dc:rights>
          <cc:Agent>
            <dc:title>GNU General Public License v3.0</dc:title>
          </cc:Agent>
        </dc:rights>
      </cc:Work>
    </rdf:RDF>
  </metadata>
  <g
     inkscape:groupmode="layer"
     id="layer4"
     inkscape:label="Outline"
     style="display:inline">
    <path
       id="path2035"
       style="fill:none;stroke:#000000;stroke-width:0.264583px;stroke-linecap:butt;stroke-linejoin:miter;stroke-opacity:1"
       d="m 1.6370259,6.5752479 -0.068906,-0.2108922 -0.035497,0.00209 -0.01044,0.2025404 -0.066817,0.00626 -0.045937,-1.0064369 -0.066817,0.00627 -0.018792,1.010611 L 0.67026199,6.6462436 0.48025007,6.5230491 0.46980988,5.9279567 0.44475331,5.6669513 0.37375983,5.4372665 0.26726962,5.2869274 0.18165982,5.4289144 0.12319462,5.6356307 0.04176094,5.6878317 0.03967284,5.9446609 0.09605,6.0052139 v 2.1465085 l 0.07516956,0.3048542 0.0876978,0.2526533 0.09605,-0.00627 0.11901845,-0.6159728 0.0730815,-0.035496 3.54967339,0.7663117 0.1085781,1.3154672 0.139899,1.010612 -0.054289,0.05638 -1.7277777,0.487468 -0.064965,0.271671 v 0.431129 l 2.3091982,0.27167 0.059059,0.248047 0.047247,-0.01181 0.011811,-0.230329 2.3151044,-0.307105 -0.023625,-0.407506 -0.064965,-0.301199 -1.7215633,-0.448848 -0.026577,-0.05315 0.1328822,-1.039434 0.082682,-1.2904339 3.5819166,-0.817966 0.059059,0.047247 0.035435,0.348447 0.088588,0.2657645 h 0.082682 L 9.5616142,8.3863483 9.6088635,7.8371001 9.58524,5.9295015 9.6915458,5.7287017 9.6561105,5.6401135 9.5793341,5.569243 9.5143695,5.374349 9.4139695,5.2503255 9.343099,5.3861607 9.2190756,5.7168899 9.2545108,6.5082776 9.0359933,6.632301 8.4040644,6.5791481 8.3509115,5.5338077 H 8.2918527 L 8.280041,6.5496187 8.2032645,6.5141834 8.1678293,6.3665365 8.1264881,6.3783482 8.1087705,6.5141834 7.5299944,6.4669364 V 6.3251953 L 7.4768415,6.2188895 7.4473122,6.3133836 7.4177828,6.4492188 6.8153832,6.3842541 V 6.3015718 L 6.7858538,6.2188895 6.7563244,6.2779483 6.726795,6.3960659 5.5810547,6.2897601 5.3861607,5.9708427 5.4275019,4.7542318 5.2798549,2.5867746 5.2089844,1.0039993 5.1676432,0.56696429 5.0377139,0.242141 4.7837612,0.11221169 M 4.8856013,0.11203783 4.6183965,0.2126116 4.5002791,0.51971725 4.4530319,0.99218749 4.2994791,4.1695499 4.2404204,4.8310082 4.3231027,5.9176895 4.1459263,6.2838541 2.9942538,6.4228207 2.9608452,6.3309467 2.9399642,6.2140165 l -0.033409,0.1169302 -0.041761,0.091874 -0.6013565,0.058465 -0.00835,-0.1586913 -0.029233,-0.09605 -0.037585,0.1044019 -0.025057,0.1545154 -0.5637716,0.075169 -0.00835,-0.09605" />
  </g>
  <g
     inkscape:groupmode="layer"
     id="layer5"
     inkscape:label="Accent">
    <path
       id="path2053"
       style="fill:none;stroke:#000000;stroke-width:0.264583px;stroke-linecap:butt;stroke-linejoin:miter;stroke-opacity:1"
       d="M 5.6105842,8.8470051 5.6342076,6.5791481 5.3861607,6.531901 5.5751489,6.2956659 M 4.0986792,8.81157 4.1104909,6.6145832 4.2876673,6.5673363 4.1104909,6.2956659 m 0.7441407,2.8230097 -0.047247,1.1929874 0.023623,1.417411 0.011812,0.933128 -0.011812,-0.933128 0.047247,-1.429223 z m 0.5315291,1.9843754 -0.342541,1.511904 m -0.720517,-1.441034 0.283482,1.476469 M 4.4294083,4.8664434 5.3507253,4.8428184 M 4.4294083,3.5435267 4.8546316,3.4254093 5.3152902,3.5789621 M 4.8310082,2.5867745 4.547526,2.8111979 4.405785,3.6143972 4.3821603,4.9136905 4.500278,6.0003721 4.8782541,6.2011718 5.1617363,6.0358072 5.3507242,4.8428198 5.3152891,3.5435267 5.1499244,2.811198 Z" />
  </g>
</svg>
