<?xml version="1.0" encoding="UTF-8" standalone="no"?>
<svg
   xmlns:dc="http://purl.org/dc/elements/1.1/"
   xmlns:cc="http://creativecommons.org/ns#"
   xmlns:rdf="http://www.w3.org/1999/02/22-rdf-syntax-ns#"
   xmlns:svg="http://www.w3.org/2000/svg"
   xmlns="http://www.w3.org/2000/svg"
   xmlns:sodipodi="http://sodipodi.sourceforge.net/DTD/sodipodi-0.dtd"
   xmlns:inkscape="http://www.inkscape.org/namespaces/inkscape"
   width="80mm"
   height="80mm"
   viewBox="-35 -32 80 80"
   version="1.1"
   id="svg1542"
   inkscape:version="1.0.1 (3bc2e813f5, 2020-09-07)"
   sodipodi:docname="LYNX.svg">
  <defs
     id="defs1536" />
  <sodipodi:namedview
     id="base"
     pagecolor="#ffffff"
     bordercolor="#666666"
     borderopacity="1.0"
     inkscape:pageopacity="0.0"
     inkscape:pageshadow="2"
     inkscape:zoom="11.2"
     inkscape:cx="160.42077"
     inkscape:cy="151.70294"
     inkscape:document-units="mm"
     inkscape:current-layer="layer4"
     inkscape:document-rotation="0"
     showgrid="false"
     inkscape:window-width="1920"
     inkscape:window-height="1121"
     inkscape:window-x="-9"
     inkscape:window-y="-9"
     inkscape:window-maximized="1" />
<metadata
     id="metadata1539">
    <rdf:RDF>
      <cc:Work
         rdf:about="">
        <dc:format>image/svg+xml</dc:format>
        <dc:type
           rdf:resource="http://purl.org/dc/dcmitype/StillImage" />
        <dc:title></dc:title>
        <dc:creator>
          <cc:Agent>
            <dc:title>RexKramer1</dc:title>
          </cc:Agent>
        </dc:creator>
        <dc:rights>
          <cc:Agent>
            <dc:title>GNU General Public License v3.0</dc:title>
          </cc:Agent>
        </dc:rights>
      </cc:Work>
    </rdf:RDF>
  </metadata>
  <g
     inkscape:groupmode="layer"
     id="layer4"
     inkscape:label="Outline"
     style="display:inline">
    <path
       style="fill:none;stroke:#000000;stroke-width:0.264583px;stroke-linecap:butt;stroke-linejoin:miter;stroke-opacity:1"
       d="M 5.328686,0.50948253 5.0948253,0.5762999 4.8108515,0.90203463 4.4600603,1.9293519 4.259608,3.5162646 4.234552,3.0318387 4.0675086,3.0067826 4.0591557,3.7501261 0.52618687,0.07516955 0.25056518,0.40925646 4.0340994,4.3347777 4.0842125,6.4729338 4.0173949,6.5648077 3.7835342,6.531399 0.07516955,10.206355 v 0.100226 l 0.25056518,0.26727 3.71671677,-3.7250694 0.016706,0.1670433 0.1085781,0.058465 0.050113,-0.041761 -0.016706,-0.3257346 0.1252826,-0.1002263 -0.025056,-0.1252826 0.1419868,0.00835 0.4677217,2.6559909 0.1670433,4.7106257 -0.2088041,0.07517 -0.025056,-0.200453 -0.016703,-0.993908 -0.033409,-0.0167 -0.033409,1.044021 -0.1002261,0.141987 0.00835,0.175396 0.07517,0.09187 0.025056,1.027317 h 0.033409 v -1.052374 l 0.058465,-0.09187 0.00835,0.242213 0.1837479,0.05011 0.033409,0.359144 0.07517,0.417608 0.1252826,-0.167043 1.7957172,-0.30903 0.1002261,-0.334087 -0.058465,-0.15034 -1.6704347,-0.05846 -0.066817,-0.05846 -0.041761,-0.283974 0.1921,-4.5936953 0.5261869,-2.6726951 0.1169305,0.033409 0.1503389,0.1670434 -0.00835,0.4510175 0.083522,0.041761 0.075169,-0.1252825 3.5413208,3.649899 0.292326,-0.325735 L 6.4979925,6.3727094 6.4645838,4.4350053 6.5648098,4.3347793 6.7903184,4.3598353 10.523738,0.6431173 10.206355,0.34243909 6.5230469,4.0257473 6.5063412,3.1320647 l -0.066817,-0.025056 -0.058465,0.016703 0.00835,0.6180608 H 6.3225941 L 6.2808333,2.939964 6.3810594,2.8647945 V 2.6476388 L 6.2223686,2.6058779 6.1471992,1.9377041 5.9885079,1.2194172 5.8298164,0.90203463 5.5959557,0.58465209 Z"
       id="path2074" />
  </g>
  <g
     inkscape:groupmode="layer"
     id="layer5"
     inkscape:label="Accent">
    <path
       id="path2119"
       style="fill:none;stroke:#000000;stroke-width:0.264583px;stroke-linecap:butt;stroke-linejoin:miter;stroke-opacity:1"
       d="M 6.3225941,3.7417724 6.2956659,4.258138 M 4.259608,3.5162646 4.2345149,4.0041853 m 0.064964,0.6023994 C 4.3349145,4.984561 4.4766555,6.1539249 4.4766555,6.1539249 M 6.2366072,4.7601375 6.0712426,6.248419 M 5.38715,14.048363 c 0.066817,0.05846 -0.2255094,1.07742 -0.2255094,1.07742 M 6.39016,6.4669362 5.7405134,5.7227956 5.6283018,5.4038782 5.7700428,5.1085845 6.4645838,4.4350053 M 4.4433558,6.4896354 4.978655,5.8822544 5.2798548,5.7877603 5.5751489,5.8940662 c 0,0 0.3543524,0.3366349 0.377976,0.3484467 0.023625,0.011811 0.1105509,0.2554857 0.1105509,0.2554857 M 4.0842125,6.4729338 4.8310082,5.7405134 4.9255021,5.468843 4.8073846,5.0849609 4.0340994,4.3347777 M 6.5230469,4.0257473 6.2956659,4.258138 6.2779494,4.3939732 5.6578322,4.9609374 5.2739501,5.0790551 5.0081854,4.9668432 4.2286097,4.1518321 4.2345152,4.0041853 4.0809624,3.8860677 m 1.5111599,-1.0324434 0.041761,0.3674958 0.392552,0.033409 -0.025057,-0.334087 z M 5.959618,2.3357897 5.7675178,2.2188593 5.4584876,2.1687461 l 0.00835,0.3674957 0.2756215,0.025056 0.2589173,0.058465 z m -0.9316101,0.5039489 -0.041761,0.3674958 -0.392552,0.033409 0.025057,-0.334087 z M 4.6605122,2.321904 4.8526124,2.2049736 5.1616426,2.1548604 5.1532904,2.5223561 4.8776689,2.5474126 4.6187516,2.6058779 Z" />
  </g>
</svg>
