<?xml version="1.0" encoding="UTF-8" standalone="no"?>
<svg
   xmlns:dc="http://purl.org/dc/elements/1.1/"
   xmlns:cc="http://creativecommons.org/ns#"
   xmlns:rdf="http://www.w3.org/1999/02/22-rdf-syntax-ns#"
   xmlns:svg="http://www.w3.org/2000/svg"
   xmlns="http://www.w3.org/2000/svg"
   xmlns:sodipodi="http://sodipodi.sourceforge.net/DTD/sodipodi-0.dtd"
   xmlns:inkscape="http://www.inkscape.org/namespaces/inkscape"
   width="80mm"
   height="80mm"
   viewBox="-35 -35 80 80"
   version="1.1"
   id="svg1542"
   inkscape:version="1.0.1 (3bc2e813f5, 2020-09-07)"
   sodipodi:docname="M326.svg">
  <defs
     id="defs1536" />
  <sodipodi:namedview
     id="base"
     pagecolor="#ffffff"
     bordercolor="#666666"
     borderopacity="1.0"
     inkscape:pageopacity="0.0"
     inkscape:pageshadow="2"
     inkscape:zoom="11.2"
     inkscape:cx="152.71391"
     inkscape:cy="158.473"
     inkscape:document-units="mm"
     inkscape:current-layer="layer6"
     inkscape:document-rotation="0"
     showgrid="false"
     inkscape:window-width="1920"
     inkscape:window-height="1121"
     inkscape:window-x="-9"
     inkscape:window-y="-9"
     inkscape:window-maximized="1"
     inkscape:snap-global="false" />
<metadata
     id="metadata1539">
    <rdf:RDF>
      <cc:Work
         rdf:about="">
        <dc:format>image/svg+xml</dc:format>
        <dc:type
           rdf:resource="http://purl.org/dc/dcmitype/StillImage" />
        <dc:title></dc:title>
        <dc:creator>
          <cc:Agent>
            <dc:title>RexKramer1</dc:title>
          </cc:Agent>
        </dc:creator>
        <dc:rights>
          <cc:Agent>
            <dc:title>GNU General Public License v3.0</dc:title>
          </cc:Agent>
        </dc:rights>
      </cc:Work>
    </rdf:RDF>
  </metadata>
  <g
     inkscape:groupmode="layer"
     id="layer6"
     inkscape:label="Outline"
     style="display:inline">
    <path
       style="fill:none;stroke:#000000;stroke-width:0.264583px;stroke-linecap:butt;stroke-linejoin:miter;stroke-opacity:1"
       d="M 5.562547,0.25056518 5.3453905,0.59300427 5.1699948,1.353052 5.0113035,2.8063301 4.9946004,3.9004647 4.8359091,3.867056 4.5769916,3.9422255 v 0.334087 L 0.55124339,5.1031774 0.48442602,4.3848906 0.33408691,4.0006907 0.20045214,4.2930167 0.14198693,5.955099 0.30903039,7.2830946 0.35079125,7.2747417 0.4593695,6.573159 0.61806079,6.4812851 4.8442602,6.4395243 5.0050395,6.5543667 5.0572405,8.0473176 5.1783471,9.329376 3.5079125,9.6676391 l 0.050113,0.8477449 1.6787865,0.01253 0.1294588,0.250565 0.2463893,0.150339 0.2338607,-0.187924 0.083522,-0.233861 1.6412019,0.03758 0.050113,-0.8477456 -1.6203216,-0.380024 0.087698,-1.361404 0.041761,-1.4115171 0.1419871,-0.087698 4.1927898,0.058465 0.1921,0.07517 0.09605,0.8059846 h 0.04176 L 11.01234,5.7797025 10.95805,4.5394049 10.807712,4.0549787 10.64902,4.3222484 10.594731,5.1198808 6.5731598,4.2846635 6.5481038,3.9422244 6.3643562,3.867055 6.1388473,3.9088157 6.0970866,2.6810464 5.9634519,1.3279944 5.7212388,0.47607278 Z"
       id="path2637" />
  </g>
  <g
     inkscape:groupmode="layer"
     id="layer7"
     inkscape:label="Accent">
    <path
       id="path2656"
       style="fill:none;stroke:#000000;stroke-width:0.264583px;stroke-linecap:butt;stroke-linejoin:miter;stroke-opacity:1"
       d="m 10.665724,6.5648077 c 0,-0.066817 -0.06682,-1.503391 -0.06682,-1.503391 M 0.48442602,6.6733858 0.54289123,5.0447122 M 5.5708991,10.223059 5.5458425,9.1539812 5.5708991,8.3020597 5.5959561,9.1539812 Z M 6.1243955,6.5496185 6.1539249,3.9392206 M 5.0199961,6.5496185 4.9963728,3.8978795 M 6.0037791,9.3391619 5.9227037,10.502141 M 5.1877124,9.3760302 c 0.016706,0.1252826 0.076603,1.1605318 0.076603,1.1605318 M 5.5541949,1.4198693 5.2034035,1.7456041 5.0948253,3.1070081 4.9946004,3.9004647 5.3119818,4.359834 5.5792512,4.4266516 5.7797035,4.3431298 6.1388473,3.9088157 6.0052121,2.6893996 5.9383948,1.7372519 Z" />
  </g>
</svg>
