<?xml version="1.0" encoding="UTF-8" standalone="no"?>
<svg
   xmlns:dc="http://purl.org/dc/elements/1.1/"
   xmlns:cc="http://creativecommons.org/ns#"
   xmlns:rdf="http://www.w3.org/1999/02/22-rdf-syntax-ns#"
   xmlns:svg="http://www.w3.org/2000/svg"
   xmlns="http://www.w3.org/2000/svg"
   xmlns:sodipodi="http://sodipodi.sourceforge.net/DTD/sodipodi-0.dtd"
   xmlns:inkscape="http://www.inkscape.org/namespaces/inkscape"
   width="80mm"
   height="80mm"
   viewBox="-36 -32 80 80"
   version="1.1"
   id="svg1542"
   inkscape:version="1.0.1 (3bc2e813f5, 2020-09-07)"
   sodipodi:docname="MIRA (Mirage 3e).svg">
  <defs
     id="defs1536" />
  <sodipodi:namedview
     id="base"
     pagecolor="#ffffff"
     bordercolor="#666666"
     borderopacity="1.0"
     inkscape:pageopacity="0.0"
     inkscape:pageshadow="2"
     inkscape:zoom="7.9195959"
     inkscape:cx="156.0549"
     inkscape:cy="158.04497"
     inkscape:document-units="mm"
     inkscape:current-layer="layer6"
     inkscape:document-rotation="0"
     showgrid="false"
     inkscape:window-width="1920"
     inkscape:window-height="1121"
     inkscape:window-x="-9"
     inkscape:window-y="-9"
     inkscape:window-maximized="1"
     inkscape:snap-global="false" />
<metadata
     id="metadata1539">
    <rdf:RDF>
      <cc:Work
         rdf:about="">
        <dc:format>image/svg+xml</dc:format>
        <dc:type
           rdf:resource="http://purl.org/dc/dcmitype/StillImage" />
        <dc:title></dc:title>
        <dc:creator>
          <cc:Agent>
            <dc:title>RexKramer1</dc:title>
          </cc:Agent>
        </dc:creator>
        <dc:rights>
          <cc:Agent>
            <dc:title>GNU General Public License v3.0</dc:title>
          </cc:Agent>
        </dc:rights>
      </cc:Work>
    </rdf:RDF>
  </metadata>
  <g
     inkscape:groupmode="layer"
     id="layer6"
     inkscape:label="Outline"
     style="display:inline">
    <path
       style="fill:none;stroke:#000000;stroke-width:0.264583px;stroke-linecap:butt;stroke-linejoin:miter;stroke-opacity:1"
       d="M 4.346726,0.09449405 4.3222494,0.98138029 4.113445,1.6662584 4.0340994,2.079691 3.967282,2.7854497 3.933873,3.3826299 3.925523,4.8066753 3.862881,4.8150253 3.875409,4.7022707 3.7459502,4.9319555 3.5162654,4.9611885 3.4619764,5.4038536 3.4494484,5.7379406 3.4703294,6.5773338 0.15451703,12.189993 0.0709953,12.59925 0.05011486,13.016859 3.583084,13.300833 l 0.1044019,0.05429 0.058465,0.09605 0.037585,1.052373 0.066817,0.668174 0.020881,0.02088 0.045937,0.238037 H 4.334778 l 0.025056,0.167043 0.054289,0.01253 0.00418,0.313207 0.016706,-0.313207 0.037585,-0.02088 0.016703,-0.17122 c 0,0 0.4259609,0.02506 0.4301368,0.0042 0.00418,-0.02088 0.025056,-0.238037 0.025056,-0.238037 l 0.050113,-0.02088 0.045937,-0.956323 0.037585,-0.789281 0.033409,-0.07099 0.070993,-0.05429 3.578906,-0.28815 L 8.7238434,12.603427 8.6361454,12.206699 5.2785721,6.585687 5.2952753,5.9175133 5.2535145,5.3245091 5.1908733,4.9570134 4.9737168,4.9277809 4.8484342,4.6855678 4.8526093,4.8024983 4.7774399,4.7983232 4.781615,3.1529451 4.7315059,2.764569 4.6521602,2.0462823 4.5561101,1.5702085 4.3640102,0.95632377 Z"
       id="path2641" />
  </g>
  <g
     inkscape:groupmode="layer"
     id="layer7"
     inkscape:label="Accent">
    <path
       id="path2654"
       style="fill:none;stroke:#000000;stroke-width:0.264583px;stroke-linecap:butt;stroke-linejoin:miter;stroke-opacity:1"
       d="m 4.3821614,10.677827 -0.1653645,1.630023 0.1770399,3.134599 0.165501,-3.122788 z m 0.8964107,-4.09214 -0.093211,1.6589185 -0.070871,1.4055989 -0.00296,3.6965946 m -1.6412006,-6.7694654 0.1676913,2.4232243 0.035435,1.2520461 0.014031,3.102519 M 4.8487256,4.9668433 4.7719493,6.5909597 M 3.8801618,4.9491256 3.9864675,6.5909597 M 4.204985,2.7993861 4.063244,3.3545385 4.0219029,4.9136905 4.1518321,5.0613373 4.3585378,5.132208 4.5829614,5.0672433 4.7069848,4.9136905 4.6597376,3.1655506 4.5061848,2.8052921 Z" />
  </g>
</svg>
