<?xml version="1.0" encoding="UTF-8" standalone="no"?>
<svg
   xmlns:dc="http://purl.org/dc/elements/1.1/"
   xmlns:cc="http://creativecommons.org/ns#"
   xmlns:rdf="http://www.w3.org/1999/02/22-rdf-syntax-ns#"
   xmlns:svg="http://www.w3.org/2000/svg"
   xmlns="http://www.w3.org/2000/svg"
   xmlns:sodipodi="http://sodipodi.sourceforge.net/DTD/sodipodi-0.dtd"
   xmlns:inkscape="http://www.inkscape.org/namespaces/inkscape"
   width="80mm"
   height="80mm"
   viewBox="-32 -30 80 80"
   version="1.1"
   id="svg1542"
   inkscape:version="1.0.1 (3bc2e813f5, 2020-09-07)"
   sodipodi:docname="NH90.svg">
  <defs
     id="defs1536" />
  <sodipodi:namedview
     id="base"
     pagecolor="#ffffff"
     bordercolor="#666666"
     borderopacity="1.0"
     inkscape:pageopacity="0.0"
     inkscape:pageshadow="2"
     inkscape:zoom="5.6"
     inkscape:cx="178.29438"
     inkscape:cy="177.95347"
     inkscape:document-units="mm"
     inkscape:current-layer="layer2"
     inkscape:document-rotation="0"
     showgrid="false"
     inkscape:snap-global="false"
     inkscape:window-width="1920"
     inkscape:window-height="1121"
     inkscape:window-x="-9"
     inkscape:window-y="-9"
     inkscape:window-maximized="1" />
<metadata
     id="metadata1539">
    <rdf:RDF>
      <cc:Work
         rdf:about="">
        <dc:format>image/svg+xml</dc:format>
        <dc:type
           rdf:resource="http://purl.org/dc/dcmitype/StillImage" />
        <dc:title></dc:title>
        <dc:creator>
          <cc:Agent>
            <dc:title>RexKramer1</dc:title>
          </cc:Agent>
        </dc:creator>
        <dc:rights>
          <cc:Agent>
            <dc:title>GNU General Public License v3.0</dc:title>
          </cc:Agent>
        </dc:rights>
      </cc:Work>
    </rdf:RDF>
  </metadata>
  <g
     inkscape:groupmode="layer"
     id="layer2"
     inkscape:label="Outline"
     style="display:inline">
    <path
       style="fill:none;stroke:#000000;stroke-width:0.264583px;stroke-linecap:butt;stroke-linejoin:miter;stroke-opacity:1"
       d="M 8.1517206,0.56794775 7.6338858,0.73499119 7.1327554,1.2862346 c 0,0 -0.3841999,0.968852 -0.4844259,1.0022607 -0.1002263,0.033409 -0.2004523,0.016704 -0.2004523,0.016704 L 6.5982164,2.4555389 6.4144686,3.3408691 6.3810599,4.2261993 6.3643567,5.22846 0.38419995,0.13363476 0.08352173,0.35079125 0.03340869,0.58465209 0.16704345,0.93544333 6.3643557,6.2140165 V 8.953529 l -0.567948,0.050113 -5.77970336,5.829817 0.25056517,0.250565 0.48442602,0.03341 0.33408687,-0.267269 4.4099473,-4.510173 0.1336347,0.952147 0.2338609,0.801809 0.3674954,0.06682 0.3507912,1.753957 0.3173828,1.236121 0.4844259,2.238382 0.066817,0.01671 0.334087,1.904296 0.066817,0.417608 H 7.3165032 v -0.88533 l -0.1503391,0.03341 -0.016703,0.818512 c 0,0 -0.4677216,-0.08352 -0.4009043,0.0167 0.066817,0.100226 0.033409,0.902034 0.033409,0.902034 l 0.3507912,0.08352 0.050113,1.436574 h 0.1252826 l 0.00418,-1.46163 0.2088044,-0.01253 0.020881,0.104402 0.2965022,0.267269 0.025056,0.563772 0.1378109,0.05846 0.1127543,-0.100226 0.1294588,-0.505306 0.2797976,-0.283974 0.029233,-0.129459 3.1487692,0.0042 v -0.977204 l -3.2740518,0.01253 0.016703,-0.28815 0.2046283,-1.277883 0.3800239,-2.121451 0.4844259,-2.033754 0.233861,-1.048198 0.087698,-0.714111 0.4510177,-0.108578 0.30903,-0.638941 0.06264,-0.743344 5.194003,4.45535 0.318918,-0.2008 L 16.229357,14.6466 16.05218,14.37493 10.689638,9.7092626 10.677827,9.2131688 10.477027,9.0478043 9.8864398,8.9178748 9.8982508,6.3192887 10.370721,6.3074777 16.217541,0.44884673 15.993117,0.16536458 15.603329,0.15355282 15.331659,0.3189174 9.8982513,5.7405134 9.874628,3.5907739 9.6502044,2.4450335 9.7683221,2.3269159 9.6147693,2.3151041 9.390346,1.8190104 9.1186756,1.2638579 8.469029,0.68508183 Z"
       id="path1414" />
  </g>
  <g
     inkscape:groupmode="layer"
     id="layer3"
     inkscape:label="Accent">
    <path
       id="path1480"
       style="fill:none;stroke:#000000;stroke-width:0.264583px;stroke-linecap:butt;stroke-linejoin:miter;stroke-opacity:1"
       d="m 7.8510423,12.979276 0.5512435,-0.0167 m 1.4365737,-2.13816 -0.3006783,-0.233861 -0.2839739,-0.03341 -0.2839738,0.200452 0.033409,0.400905 0.4510172,0.434313 m -2.8731478,-0.902034 0.334087,-0.150339 0.3006783,0.167043 v 0.551244 l -0.2505651,0.250565 m 0.9187388,8.41899 0.4510175,0.03341 m 1.4699824,-9.2208 -0.5011304,1.018965 -0.9187391,1.186009 -0.083522,8.03479 M 6.4144686,10.72419 l 0.8519215,1.486687 0.5512435,0.701582 0.033409,8.084903 M 9.9056768,9.9724942 9.8054508,12.227581 M 6.3643557,9.6384072 v 2.3051998 l 0.2171562,1.737252 M 10.228981,6.5437127 V 8.9414991 M 5.9885603,6.4964658 6.0239953,8.9060638 M 9.8982513,6.3429128 8.7406992,7.2406065 8.9651228,7.5240884 8.9296874,7.831194 8.8470051,8.0674294 10.666015,9.7328867 M 5.5279017,10.394345 7.6422061,8.2564173 8.1146763,8.4808408 8.5989582,8.2800409 9.4848398,9.2013578 9.5557106,9.7210752 10.63058,10.595145 M 6.3783482,8.9769346 7.5122767,8.1028645 7.2878534,7.8075707 7.2996652,7.4532179 7.5240884,7.1815475 6.3665364,6.2011718 m 0,-0.8858816 c 0.059059,0.035435 0.2834822,0.2362351 0.2834822,0.2362351 L 6.7327009,6.0948659 7.6185825,7.0161829 8.1146763,6.8390065 8.5398995,7.0870534 9.8628162,5.846819 M 9.3125054,3.860956 9.1353284,3.8963912 9.0408345,3.6010974 8.6392348,3.4002973 V 3.1758742 l 0.2716701,0.082682 0.2716705,0.188988 z m 0.106305,-0.6378349 0.106306,0.2126116 0.09449,0.3307293 0.04725,0.023624 -0.03544,-0.4252233 -0.05906,-0.2362351 z M 9.5133044,2.6207216 8.9227168,2.1718749 8.2494472,2.0655691 l 0.011811,0.7559523 0.4370353,0.059059 0.3425409,0.082682 0.295294,0.2126117 0.259859,-0.2007999 z M 6.8980653,3.8624442 7.0752418,3.8978794 7.1697357,3.6025856 7.5713354,3.4017855 V 3.1773624 L 7.2996653,3.2600444 7.0279948,3.4490324 Z M 6.7917595,3.2246093 6.6854539,3.4372209 6.5909597,3.7679502 6.5437128,3.7915744 6.5791481,3.3663511 6.6382068,3.130116 Z M 6.6972655,2.6222098 7.2878534,2.1733631 7.9611235,2.0670573 7.9493116,2.8230096 7.5122767,2.8820684 7.1697358,2.9647507 6.874442,3.1773624 6.6145832,2.9765625 Z" />
  </g>
</svg>
