<?xml version="1.0" encoding="UTF-8" standalone="no"?>
<svg
   xmlns:dc="http://purl.org/dc/elements/1.1/"
   xmlns:cc="http://creativecommons.org/ns#"
   xmlns:rdf="http://www.w3.org/1999/02/22-rdf-syntax-ns#"
   xmlns:svg="http://www.w3.org/2000/svg"
   xmlns="http://www.w3.org/2000/svg"
   xmlns:sodipodi="http://sodipodi.sourceforge.net/DTD/sodipodi-0.dtd"
   xmlns:inkscape="http://www.inkscape.org/namespaces/inkscape"
   width="80mm"
   height="80mm"
   viewBox="-35 -35 80 80"
   version="1.1"
   id="svg1542"
   inkscape:version="1.0.1 (3bc2e813f5, 2020-09-07)"
   sodipodi:docname="PC9.svg">
  <defs
     id="defs1536" />
  <sodipodi:namedview
     id="base"
     pagecolor="#ffffff"
     bordercolor="#666666"
     borderopacity="1.0"
     inkscape:pageopacity="0.0"
     inkscape:pageshadow="2"
     inkscape:zoom="11.2"
     inkscape:cx="150.64015"
     inkscape:cy="159.05932"
     inkscape:document-units="mm"
     inkscape:current-layer="layer3"
     inkscape:document-rotation="0"
     showgrid="false"
     inkscape:snap-global="false"
     inkscape:window-width="1536"
     inkscape:window-height="897"
     inkscape:window-x="-8"
     inkscape:window-y="-8"
     inkscape:window-maximized="1" />
<metadata
     id="metadata1539">
    <rdf:RDF>
      <cc:Work
         rdf:about="">
        <dc:format>image/svg+xml</dc:format>
        <dc:type
           rdf:resource="http://purl.org/dc/dcmitype/StillImage" />
        <dc:title></dc:title>
        <dc:creator>
          <cc:Agent>
            <dc:title>RexKramer1</dc:title>
          </cc:Agent>
        </dc:creator>
        <dc:rights>
          <cc:Agent>
            <dc:title>GNU General Public License v3.0</dc:title>
          </cc:Agent>
        </dc:rights>
      </cc:Work>
    </rdf:RDF>
  </metadata>
  <g
     inkscape:groupmode="layer"
     id="layer3"
     inkscape:label="Outline">
    <path
       style="fill:none;stroke:#000000;stroke-width:0.265;stroke-linecap:butt;stroke-linejoin:miter;stroke-opacity:1;stroke-miterlimit:4;stroke-dasharray:none"
       d="M 5.0456377,0.03388688 4.9006698,0.19947682 4.7597357,0.53043915 4.6798765,0.95255022 4.4745249,1.0780427 4.3718497,1.2948024 l 0.034225,0.136901 0.1597178,0.1825343 -0.034225,1.6428116 -1.3347836,0.01141 -3.13731267,0.2395768 v 0.3650693 l -0.12549245,0.022815 0.09126725,0.079859 0.03422524,0.6730961 3.68491633,0.4335199 0.7643638,0.011411 0.06845,1.3461926 L 4.736919,7.7747823 4.5657932,8.6418214 3.4477687,8.8585809 3.4363584,9.1551997 3.2994579,9.1323848 3.3222729,9.6001291 4.9993097,9.8739313 6.6535292,9.6571706 V 9.1437928 H 6.5394449 L 6.5052196,8.8928084 5.524096,8.6646397 5.2959284,7.7861926 5.4100121,6.805069 5.5126874,5.7440871 l -0.011405,-0.673096 0.8784473,0.011411 3.6278743,-0.4563364 0.01141,-0.6616881 0.09127,-0.045635 -0.03422,-0.079859 -0.079857,-0.034226 V 3.4966295 L 8.946623,3.393952 8.9123977,3.2456429 H 8.7869053 L 8.7983156,3.393952 6.8702939,3.2570515 H 5.501285 L 5.4898747,1.61424 5.6886723,1.4549843 5.7088407,1.2533098 5.6120366,1.0879375 5.3942284,0.9265982 5.3175928,0.53938347 5.1896832,0.19386644 Z"
       id="path2011"
       sodipodi:nodetypes="ccccccccccccccccccccccccccccccccccccccccccccccccccccccc" />
  </g>
</svg>
