<?xml version="1.0" encoding="UTF-8" standalone="no"?>
<svg
   xmlns:dc="http://purl.org/dc/elements/1.1/"
   xmlns:cc="http://creativecommons.org/ns#"
   xmlns:rdf="http://www.w3.org/1999/02/22-rdf-syntax-ns#"
   xmlns:svg="http://www.w3.org/2000/svg"
   xmlns="http://www.w3.org/2000/svg"
   xmlns:sodipodi="http://sodipodi.sourceforge.net/DTD/sodipodi-0.dtd"
   xmlns:inkscape="http://www.inkscape.org/namespaces/inkscape"
   width="80mm"
   height="80mm"
   viewBox="-20 -33 80 80"
   version="1.1"
   id="svg1542"
   inkscape:version="1.0.1 (3bc2e813f5, 2020-09-07)"
   sodipodi:docname="Q4.svg">
  <defs
     id="defs1536" />
  <sodipodi:namedview
     id="base"
     pagecolor="#ffffff"
     bordercolor="#666666"
     borderopacity="1.0"
     inkscape:pageopacity="0.0"
     inkscape:pageshadow="2"
     inkscape:zoom="5.6"
     inkscape:cx="83.70681"
     inkscape:cy="27.917509"
     inkscape:document-units="mm"
     inkscape:current-layer="layer9"
     inkscape:document-rotation="0"
     showgrid="false"
     inkscape:window-width="1920"
     inkscape:window-height="1121"
     inkscape:window-x="-9"
     inkscape:window-y="-9"
     inkscape:window-maximized="1" />
<metadata
     id="metadata1539">
    <rdf:RDF>
      <cc:Work
         rdf:about="">
        <dc:format>image/svg+xml</dc:format>
        <dc:type
           rdf:resource="http://purl.org/dc/dcmitype/StillImage" />
        <dc:title></dc:title>
        <dc:creator>
          <cc:Agent>
            <dc:title>RexKramer1</dc:title>
          </cc:Agent>
        </dc:creator>
        <dc:rights>
          <cc:Agent>
            <dc:title>GNU General Public License v3.0</dc:title>
          </cc:Agent>
        </dc:rights>
      </cc:Work>
    </rdf:RDF>
  </metadata>
  <g
     inkscape:groupmode="layer"
     id="layer9"
     inkscape:label="Outline">
    <path
       style="fill:none;stroke:#000000;stroke-width:0.264583px;stroke-linecap:butt;stroke-linejoin:miter;stroke-opacity:1"
       d="m 20.078623,0.11693042 -0.484426,0.28397386 -0.350791,0.76839992 -0.116931,0.8185129 0.0167,1.1358955 0.01671,3.5580256 L 0.41760891,8.7864856 0.15033937,9.0871639 V 9.5381812 L 3.4410954,9.5882943 18.007285,8.9869377 18.49171,9.387842 19.159884,9.3377291 v 3.4577989 l 0.100226,0.434313 -2.405425,0.434313 -0.01671,-0.868626 h -0.100226 l -0.0167,0.835218 -0.116931,0.0167 0.03341,0.902035 2.021226,0.467721 1.403165,0.05011 1.586912,-0.11693 1.787366,-0.45937 v -0.826865 l -0.07517,-0.0167 v -0.893683 h -0.09187 l -0.0167,0.868626 -2.355313,-0.3842 0.03341,-0.467722 0.02506,-3.4243902 0.643117,-0.00835 0.542891,-0.3591435 14.549483,0.5930043 3.282405,0.016706 L 39.95682,9.0537556 39.672845,8.786486 20.955618,6.6650359 20.972318,2.9817277 20.938908,1.9210019 20.788569,1.0022629 20.471186,0.37584996 Z"
       id="path3813" />
  </g>
</svg>
