<?xml version="1.0" encoding="UTF-8" standalone="no"?>
<svg
   xmlns:dc="http://purl.org/dc/elements/1.1/"
   xmlns:cc="http://creativecommons.org/ns#"
   xmlns:rdf="http://www.w3.org/1999/02/22-rdf-syntax-ns#"
   xmlns:svg="http://www.w3.org/2000/svg"
   xmlns="http://www.w3.org/2000/svg"
   xmlns:sodipodi="http://sodipodi.sourceforge.net/DTD/sodipodi-0.dtd"
   xmlns:inkscape="http://www.inkscape.org/namespaces/inkscape"
   width="80mm"
   height="80mm"
   viewBox="-20 -19 80 80"
   version="1.1"
   id="svg1542"
   inkscape:version="1.0.1 (3bc2e813f5, 2020-09-07)"
   sodipodi:docname="R135.svg">
  <defs
     id="defs1536" />
  <sodipodi:namedview
     id="base"
     pagecolor="#ffffff"
     bordercolor="#666666"
     borderopacity="1.0"
     inkscape:pageopacity="0.0"
     inkscape:pageshadow="2"
     inkscape:zoom="3.959798"
     inkscape:cx="198.42491"
     inkscape:cy="186.26914"
     inkscape:document-units="mm"
     inkscape:current-layer="layer5"
     inkscape:document-rotation="0"
     showgrid="false"
     inkscape:window-width="1920"
     inkscape:window-height="1121"
     inkscape:window-x="-9"
     inkscape:window-y="-9"
     inkscape:window-maximized="1"
     inkscape:snap-global="false" />
<metadata
     id="metadata1539">
    <rdf:RDF>
      <cc:Work
         rdf:about="">
        <dc:format>image/svg+xml</dc:format>
        <dc:type
           rdf:resource="http://purl.org/dc/dcmitype/StillImage" />
        <dc:title></dc:title>
        <dc:creator>
          <cc:Agent>
            <dc:title>RexKramer1</dc:title>
          </cc:Agent>
        </dc:creator>
        <dc:rights>
          <cc:Agent>
            <dc:title>GNU General Public License v3.0</dc:title>
          </cc:Agent>
        </dc:rights>
      </cc:Work>
    </rdf:RDF>
  </metadata>
  <g
     inkscape:groupmode="layer"
     id="layer5"
     inkscape:label="Outline"
     style="display:inline">
    <path
       style="opacity:1;fill:none;stroke:#000000;stroke-width:0.264583px;stroke-linecap:butt;stroke-linejoin:miter;stroke-opacity:1"
       d="m 20.579753,0.06681738 -0.434312,0.33408689 -0.501131,1.57020843 -0.567948,2.4054258 -0.247525,2.3149849 -0.08656,1.1595189 -0.367496,0.868626 -0.06681,7.9178597 0.200453,0.400904 -0.06682,0.334087 -4.944486,3.808591 v -2.171565 l -0.233861,-0.601356 -0.100226,-0.334087 -1.837478,-0.03341 -0.167043,0.400904 -0.233861,0.668174 v 2.104747 l 0.334087,1.135896 0.400904,0.06682 -4.4767644,3.441096 0.1670433,-0.65147 0.016703,-1.403165 -0.1670437,-0.718287 -0.300678,-0.367495 -1.8541825,0.0167 -0.2171565,0.317382 -0.066817,0.618061 v 2.171565 l 0.3006783,1.035672 0.434313,0.183748 c 0,0 -5.02800794,3.958928 -4.99459927,3.89211 0.0334087,-0.06682 -0.11693041,-1.018963 -0.11693041,-1.018963 L 0.08352173,30.084527 0.28397387,31.170308 0,32.089047 l 0.01670434,1.269529 0.21715649,0.501132 16.06958017,-7.366617 0.851922,-0.03341 0.835217,0.400905 0.534539,0.7684 0.233861,5.479026 0.551243,4.075859 -5.662773,4.326427 v 2.138156 l 6.781964,-1.670436 6.330946,1.854184 -0.11693,-2.355313 -5.044711,-4.259609 0.634765,-4.744035 0.11693,-2.522355 -0.03341,-2.037929 0.835217,-1.169305 0.701583,-0.334087 0.952148,0.08352 15.635268,7.734112 c 0,0 0.283972,-0.434313 0.317381,-0.517834 0.03341,-0.08352 -0.100225,-1.637025 -0.100225,-1.637025 l -0.183747,-0.65147 0.150339,-1.052375 -0.317384,-0.01669 -0.167042,0.818512 -4.877671,-3.908816 0.601356,-0.03341 0.250566,-1.65373 0.01669,-2.138156 -0.300678,-0.517835 h -1.870887 l -0.400905,0.584652 -0.01669,1.971113 0.05011,0.584652 -4.46006,-3.491208 0.534538,-0.08352 0.400904,-1.302939 -0.06682,-2.3052 -0.183748,-0.334087 -0.217156,-0.350791 h -1.753955 l -0.167045,0.283974 -0.23386,0.734991 0.05011,2.021226 -5.044711,-3.842 -0.0167,-0.451017 0.250573,-0.3675 0.03341,-7.9178593 -0.350791,-0.7349911 -0.0049,-1.2460805 -0.429421,-2.2451275 -0.517835,-2.4471867 -0.3842,-1.57856068 z"
       id="path3317"
       sodipodi:nodetypes="cccccccccccccccccccccccccccccccscccccccccccccccccccccccccscccccccccccccccccccccccccccccccccc" />
  </g>
  <g
     inkscape:groupmode="layer"
     id="layer6"
     inkscape:label="Accent">
    <path
       id="path3433"
       style="fill:none;stroke:#000000;stroke-width:0.264583px;stroke-linecap:butt;stroke-linejoin:miter;stroke-opacity:1"
       d="m 21.582014,37.233987 -1.119191,4.727328 m -1.1526,-4.744034 1.135896,4.727331 M 22.45064,17.405928 22.350414,27.912962 M 18.49171,17.389223 18.54182,27.662396 m 1.916141,14.033103 -0.283482,-2.338729 -0.05906,-2.291481 0.05906,-2.456845 0.07087,-1.181176 0.212612,-0.826821 0.236235,0.850445 0.09449,1.204799 0.07087,2.409599 -0.118117,2.315104 z M 35.033667,25.477957 h 1.063058 m -2.539526,0 h 1.051245 m -0.909505,-2.114304 2.362351,-0.03543 m -7.063431,-2.551344 h 1.027623 m -2.50409,0.02362 1.027623,-0.01181 M 27.686756,18.56808 h 2.078869 m 3.886067,7.535901 0.885881,0.696892 m 0.316726,1.496263 0.150339,-0.651468 v -3.290756 l -0.217156,-0.167044 -0.100227,0.167044 -0.133634,3.407686 z m -6.057586,-4.67087 0.188988,-1.157553 -0.01181,-2.893879 -0.2008,-0.165365 -0.153552,0.177177 -0.03544,0.968563 -0.03544,2.752139 z m -1.251247,-2.378339 0.952148,0.885331 M 6.2975381,26.576612 7.1494599,25.891735 M 6.2641294,25.25697 7.3332077,25.20686 m -2.4889475,0.0167 H 5.8298164 M 4.8442602,23.118814 7.1995728,23.085404 M 6.0135642,27.979777 5.8632253,27.328309 v -3.290756 l 0.2171563,-0.167044 0.1002263,0.167044 0.1336346,3.407686 z m 6.4124028,-7.321016 1.051246,-0.01181 m -2.480468,0.01181 0.87407,-0.01181 m 0.555152,1.370162 1.098494,-0.838635 m -1.370164,2.232422 -0.188988,-1.157552 0.01181,-2.89388 0.2008,-0.165365 0.153552,0.177177 0.03544,0.968563 0.03544,2.75214 z m -0.980376,-4.937314 2.090681,0.02362 M 19.14095,4.399879 21.881278,4.393969 M 19.436244,3.2187036 h 2.161552 m -0.484424,2.2774021 -0.0185,0.6186864 -0.333888,0.012221 0.0099,-0.6310107 z m 0.31723,0.1838413 0.16131,0.1710966 -0.190421,0.366758 -0.01658,-0.016581 z m 0.383709,0.9672536 0.188988,-0.2126115 -0.188988,-0.283482 -0.165364,0.3071057 z m -1.736606,-1.1516138 0.0185,0.6186864 0.333888,0.012221 -0.0099,-0.6310107 z m -0.31723,0.1838413 -0.16131,0.1710966 0.190421,0.366758 0.01658,-0.016581 z m -0.383709,0.9672536 -0.188988,-0.2126115 0.188988,-0.283482 0.165364,0.3071057 z" />
  </g>
</svg>
