<?xml version="1.0" encoding="UTF-8" standalone="no"?>
<svg
   xmlns:dc="http://purl.org/dc/elements/1.1/"
   xmlns:cc="http://creativecommons.org/ns#"
   xmlns:rdf="http://www.w3.org/1999/02/22-rdf-syntax-ns#"
   xmlns:svg="http://www.w3.org/2000/svg"
   xmlns="http://www.w3.org/2000/svg"
   xmlns:sodipodi="http://sodipodi.sourceforge.net/DTD/sodipodi-0.dtd"
   xmlns:inkscape="http://www.inkscape.org/namespaces/inkscape"
   width="80mm"
   height="80mm"
   viewBox="-31 -32 80 80"
   version="1.1"
   id="svg1542"
   inkscape:version="1.0.1 (3bc2e813f5, 2020-09-07)"
   sodipodi:docname="S61.svg">
  <defs
     id="defs1536" />
  <sodipodi:namedview
     id="base"
     pagecolor="#ffffff"
     bordercolor="#666666"
     borderopacity="1.0"
     inkscape:pageopacity="0.0"
     inkscape:pageshadow="2"
     inkscape:zoom="11.2"
     inkscape:cx="156.88082"
     inkscape:cy="158.56831"
     inkscape:document-units="mm"
     inkscape:current-layer="layer10"
     inkscape:document-rotation="0"
     showgrid="false"
     inkscape:window-width="1920"
     inkscape:window-height="1121"
     inkscape:window-x="-9"
     inkscape:window-y="-9"
     inkscape:window-maximized="1"
     inkscape:snap-global="false" />
<metadata
     id="metadata1539">
    <rdf:RDF>
      <cc:Work
         rdf:about="">
        <dc:format>image/svg+xml</dc:format>
        <dc:type
           rdf:resource="http://purl.org/dc/dcmitype/StillImage" />
        <dc:title></dc:title>
        <dc:creator>
          <cc:Agent>
            <dc:title>RexKramer1</dc:title>
          </cc:Agent>
        </dc:creator>
        <dc:rights>
          <cc:Agent>
            <dc:title>GNU General Public License v3.0</dc:title>
          </cc:Agent>
        </dc:rights>
      </cc:Work>
    </rdf:RDF>
  </metadata>
  <g
     inkscape:groupmode="layer"
     id="layer10"
     inkscape:label="Outline"
     style="display:inline">
    <path
       style="fill:none;stroke:#000000;stroke-width:0.264583px;stroke-linecap:butt;stroke-linejoin:miter;stroke-opacity:1"
       d="M 9.7720421,3.1237126 8.9034161,3.2740518 8.6528509,3.6415472 8.5860336,3.9422255 8.6361465,5.0614167 8.519216,5.4957297 3.9589299,0.01670434 3.5747298,0.35079125 8.4356944,6.2474252 7.8343381,6.2975381 7.6338858,6.0302687 H 7.4334337 L 7.1160512,6.3476512 V 6.5815119 L 6.8988947,7.0659381 7.0492336,8.0347901 0.03340869,10.323285 v 0.116931 L 0.26726951,10.791007 7.1327554,8.5359205 7.3165032,9.2040942 7.5336597,9.287616 7.7675205,9.1372768 7.9011554,8.2853553 8.4691031,8.1350161 8.4524,10.891233 l 0.2505651,1.436574 0.4844262,1.035669 0.083521,1.720548 0.050113,1.252826 -0.066817,0.05011 0.050113,0.350791 0.1169302,0.451017 0.050113,1.219418 -0.4009043,0.100226 -0.016703,-1.436574 H 8.9034185 l -0.050113,1.202713 -0.1336347,0.01671 0.016703,0.584653 h 0.133635 l -0.016706,1.219417 h 0.1336347 l 0.033409,-1.186009 0.3842002,0.150339 0.100226,0.434313 2.9900773,-0.300678 0.05011,-0.584652 -2.7729207,-0.400904 0.3006777,-4.877669 0.618061,-1.1526 0.200452,-1.336347 0.08352,-1.0022612 0.150339,0.3006782 h 0.08352 l 0.16705,-0.3340889 V 9.3043218 L 11.22532,9.2208 10.95805,9.3377304 10.907938,9.2375042 V 8.1350174 l 0.50113,0.1336347 -0.100226,0.2505652 0.300678,0.1670436 0.05011,0.4176086 0.133635,0.1336347 -0.183748,0.334087 0.551243,-0.016703 -0.217156,-0.3006783 0.200452,-0.1336347 0.01671,-0.233861 7.232981,2.3219038 0.150339,-0.217156 -0.05011,-0.250565 -7.249685,-2.3887218 0.23386,-1.0189649 -0.03341,-0.6848782 -0.133635,-0.233861 0.05011,-0.016703 -0.06682,-0.1670436 -0.167043,-0.033409 -0.03341,-0.033409 L 11.876791,6.0469763 11.626226,6.314246 11.342251,6.2808339 16.203215,0.46772168 15.935946,0.31738257 H 15.735493 L 10.941346,6.1304947 10.95805,4.2261993 10.857824,3.5079125 10.573851,3.2239386 Z"
       id="path4396" />
  </g>
  <g
     inkscape:groupmode="layer"
     id="layer11"
     inkscape:label="Accent">
    <path
       id="path4423"
       style="fill:none;stroke:#000000;stroke-width:0.264583px;stroke-linecap:butt;stroke-linejoin:miter;stroke-opacity:1"
       d="M 7.9178596,7.4250814 7.9011565,7.7675205 M 8.0097335,7.0742902 7.9763249,6.5815119 8.4356944,6.531399 8.4607505,7.2663901 m 2.9817265,-0.066817 0.200452,-0.8435696 m -0.65147,0.6514695 0.342439,0.041761 -0.06682,-0.3090302 -0.26727,0.00835 z M 8.9368248,4.9110775 8.6528509,4.8943744 8.6027378,3.9004658 l 0.3090304,-0.1921 m -0.091874,0.00835 0.7349911,-0.1252825 0.4426652,5e-7 0.8185135,0.1419868 0.158691,1.1609522 -0.442665,0.083522 M 9.2458552,9.9557897 8.99529,9.5715898 8.7614291,8.5526249 8.7864851,6.6984424 M 8.8115422,5.7379427 9.3377291,5.42056 9.3293791,5.2952774 8.9368272,5.3036274 8.9284772,4.902723 9.0871684,4.6521579 l 1.4198696,0.025056 0.04176,0.5930043 -0.334087,-0.00835 -0.0084,0.100226 0.476074,0.3842001 -0.05011,2.6726951 -0.125283,0.8018087 -0.317382,0.634765 -0.2589177,0.1920999 M 7.9256881,7.5122767 7.9729353,7.1697357 8.4335936,7.252418 8.409969,7.7721353 M 8.5044641,8.1146763 9.236793,7.9256881 9.4612165,8.0792409 9.673828,8.1501117 9.685639,9.3549106 9.4257803,9.3667216 9.3076629,16.831751 H 9.7210744 L 9.8510036,9.3785334 9.9100623,8.6934515 9.8982513,8.1028637 10.217169,7.8784404 10.878627,8.1501109 m 0.720517,-0.011811 -0.165364,-0.8622583 -0.507906,0.059059 -0.03543,0.6142114 -0.6024,-0.1889882 -0.129929,-0.3897878 0.767764,-0.9095052 0.2008,0.082682 0.188988,-0.2834823 M 8.519216,5.4957297 8.8588169,6.047619 8.7879464,6.3783482 9.532087,7.2642298 9.6856398,7.1461124 l 0.3071056,0.082682 0.9486006,-1.0983 M 7.0492336,8.0347901 7.8784412,7.7721353 7.9847471,8.0083704 9.1777343,7.7130766 9.1895453,7.5004649 9.2958511,7.3469121 8.4356934,6.2474252" />
  </g>
</svg>
