<?xml version="1.0" encoding="UTF-8" standalone="no"?>
<svg
   xmlns:dc="http://purl.org/dc/elements/1.1/"
   xmlns:cc="http://creativecommons.org/ns#"
   xmlns:rdf="http://www.w3.org/1999/02/22-rdf-syntax-ns#"
   xmlns:svg="http://www.w3.org/2000/svg"
   xmlns="http://www.w3.org/2000/svg"
   xmlns:sodipodi="http://sodipodi.sourceforge.net/DTD/sodipodi-0.dtd"
   xmlns:inkscape="http://www.inkscape.org/namespaces/inkscape"
   width="80mm"
   height="80mm"
   viewBox="-32 -36 80 80"
   version="1.1"
   id="svg1542"
   inkscape:version="1.0.1 (3bc2e813f5, 2020-09-07)"
   sodipodi:docname="SF25.svg">
  <defs
     id="defs1536" />
  <sodipodi:namedview
     id="base"
     pagecolor="#ffffff"
     bordercolor="#666666"
     borderopacity="1.0"
     inkscape:pageopacity="0.0"
     inkscape:pageshadow="2"
     inkscape:zoom="11.2"
     inkscape:cx="155.16543"
     inkscape:cy="162.54527"
     inkscape:document-units="mm"
     inkscape:current-layer="layer5"
     inkscape:document-rotation="0"
     showgrid="false"
     inkscape:snap-global="false"
     inkscape:window-width="1920"
     inkscape:window-height="1121"
     inkscape:window-x="-9"
     inkscape:window-y="-9"
     inkscape:window-maximized="1" />
<metadata
     id="metadata1539">
    <rdf:RDF>
      <cc:Work
         rdf:about="">
        <dc:format>image/svg+xml</dc:format>
        <dc:type
           rdf:resource="http://purl.org/dc/dcmitype/StillImage" />
        <dc:title></dc:title>
        <dc:creator>
          <cc:Agent>
            <dc:title>RexKramer1</dc:title>
          </cc:Agent>
        </dc:creator>
        <dc:rights>
          <cc:Agent>
            <dc:title>GNU General Public License v3.0</dc:title>
          </cc:Agent>
        </dc:rights>
      </cc:Work>
    </rdf:RDF>
  </metadata>
  <g
     inkscape:groupmode="layer"
     id="layer5"
     inkscape:label="Outline">
    <path
       style="fill:none;stroke:#000000;stroke-width:0.264583px;stroke-linecap:butt;stroke-linejoin:miter;stroke-opacity:1"
       d="M 7.5831472,-0.04724702 7.4668424,0.07516955 7.4543144,0.15033911 6.9030709,0.14198693 v 0.0584652 l 0.5428914,-0.004176 0.00835,0.0292326 -0.1670434,0.0125283 -0.070995,0.0918739 L 7.1870445,0.62223686 7.0993467,1.0565498 7.0617619,1.6286737 -0.00835217,1.1985368 0,1.933528 7.0241773,3.1237126 7.05341,3.9213451 l 0.1378109,1.0565498 0.1336345,1.0356693 -1.2027127,-0.00835 -0.050113,0.100226 0.00835,0.6013567 0.041761,0.091874 1.2110651,-0.00835 0.1085781,0.7182869 h 0.033409 L 7.5420126,6.8237234 8.8031909,6.8571321 8.8783603,6.6065669 8.8533043,6.2140149 8.7614304,6.0553237 7.625535,6.021915 7.8343394,4.9528367 7.9729366,3.9215015 8.0142777,3.1537372 15.189918,2.1969866 15.20173,1.4882812 8.0556176,1.6654576 8.0473184,1.2235933 7.9596207,0.6389412 7.9470924,0.34243909 7.8259857,0.23803692 7.7090555,0.22968475 v -0.0167043 l 0.6180606,0.008352 -0.00835,-0.050113 -0.6222368,-0.0167043 -0.020881,-0.0918739 z"
       id="path3178"
       sodipodi:nodetypes="cccccccccccccccccccccccccccccccccccccccccccccccc" />
  </g>
</svg>
