<?xml version="1.0" encoding="UTF-8" standalone="no"?>
<svg
   xmlns:dc="http://purl.org/dc/elements/1.1/"
   xmlns:cc="http://creativecommons.org/ns#"
   xmlns:rdf="http://www.w3.org/1999/02/22-rdf-syntax-ns#"
   xmlns:svg="http://www.w3.org/2000/svg"
   xmlns="http://www.w3.org/2000/svg"
   xmlns:sodipodi="http://sodipodi.sourceforge.net/DTD/sodipodi-0.dtd"
   xmlns:inkscape="http://www.inkscape.org/namespaces/inkscape"
   width="80mm"
   height="80mm"
   viewBox="-34 -36 80 80"
   version="1.1"
   id="svg1542"
   inkscape:version="1.0.1 (3bc2e813f5, 2020-09-07)"
   sodipodi:docname="SR22.svg">
  <defs
     id="defs1536" />
  <sodipodi:namedview
     id="base"
     pagecolor="#ffffff"
     bordercolor="#666666"
     borderopacity="1.0"
     inkscape:pageopacity="0.0"
     inkscape:pageshadow="2"
     inkscape:zoom="15.839192"
     inkscape:cx="155.84936"
     inkscape:cy="148.48814"
     inkscape:document-units="mm"
     inkscape:current-layer="layer5"
     inkscape:document-rotation="0"
     showgrid="false"
     inkscape:window-width="1920"
     inkscape:window-height="1121"
     inkscape:window-x="-9"
     inkscape:window-y="-9"
     inkscape:window-maximized="1"
     inkscape:snap-global="false" />
<metadata
     id="metadata1539">
    <rdf:RDF>
      <cc:Work
         rdf:about="">
        <dc:format>image/svg+xml</dc:format>
        <dc:type
           rdf:resource="http://purl.org/dc/dcmitype/StillImage" />
        <dc:title></dc:title>
        <dc:creator>
          <cc:Agent>
            <dc:title>RexKramer1</dc:title>
          </cc:Agent>
        </dc:creator>
        <dc:rights>
          <cc:Agent>
            <dc:title>GNU General Public License v3.0</dc:title>
          </cc:Agent>
        </dc:rights>
      </cc:Work>
    </rdf:RDF>
  </metadata>
  <g
     inkscape:groupmode="layer"
     id="layer5"
     inkscape:label="Outline"
     style="display:inline">
    <path
       style="fill:none;stroke:#000000;stroke-width:0.264583px;stroke-linecap:butt;stroke-linejoin:miter;stroke-opacity:1"
       d="M 5.7818546,-0.00590588 5.6519251,0.30710565 4.7778553,0.33072916 5.6223958,0.46656437 5.3684431,0.55515253 5.2621372,0.82091704 5.1735492,1.594587 5.1499256,2.2501395 5.0790551,2.3623512 2.515904,2.468657 2.4922805,2.4095982 0.32482329,2.5040922 0.20670573,2.6044922 0.1063058,2.8289154 0.04134115,3.141927 0.0531529,3.2895741 h 0.38978793 l 4.63020827,0.5315288 0.1240234,0.1299295 0.3219573,1.500093 0.138701,0.9272228 -1.7304223,0.2067057 -0.082682,0.147647 v 0.342541 l 1.842634,0.124023 0.070871,0.6437407 0.011811,4.1e-6 0.088588,-0.6555524 1.8662576,-0.1063059 V 6.7740421 L 7.6067707,6.5968657 5.8704426,6.3842539 6.0299015,5.4472461 6.3488188,3.9569382 6.5082774,3.8151972 11.327474,3.3013859 11.593238,3.336821 11.540086,2.8466333 11.439685,2.6103981 11.315662,2.515904 9.0596169,2.4095982 v 0.047247 L 6.4787482,2.368257 6.4019716,2.2501395 6.3842539,1.594587 6.337007,0.9095052 6.2425129,0.5846819 5.905878,0.46656437 6.7740421,0.36616444 5.9235956,0.32482329 Z"
       id="path2042"
       sodipodi:nodetypes="ccccccccccccccccccccccccccccccccccccccccccccccccccc" />
  </g>
  <g
     inkscape:groupmode="layer"
     id="layer6"
     inkscape:label="Accent">
    <path
       id="path2053"
       style="fill:none;stroke:#000000;stroke-width:0.264583px;stroke-linecap:butt;stroke-linejoin:miter;stroke-opacity:1"
       d="M 5.905878,6.3192895 5.8586308,7.2287947 M 5.6578311,6.3665364 V 7.2996652 M 5.2444197,2.3623512 5.4452194,2.4568452 5.6460193,2.3032924 h 0.2362351 l 0.2244233,0.094494 0.2008,-0.082682 M 5.2207961,1.9253162 5.4806548,1.6890811 5.7995721,1.6063988 6.0830544,1.6772693 6.3547246,1.9016927" />
  </g>
</svg>
