<?xml version="1.0" encoding="UTF-8" standalone="no"?>
<svg
   xmlns:dc="http://purl.org/dc/elements/1.1/"
   xmlns:cc="http://creativecommons.org/ns#"
   xmlns:rdf="http://www.w3.org/1999/02/22-rdf-syntax-ns#"
   xmlns:svg="http://www.w3.org/2000/svg"
   xmlns="http://www.w3.org/2000/svg"
   xmlns:sodipodi="http://sodipodi.sourceforge.net/DTD/sodipodi-0.dtd"
   xmlns:inkscape="http://www.inkscape.org/namespaces/inkscape"
   width="80mm"
   height="80mm"
   viewBox="-34 -32 80 80"
   version="1.1"
   id="svg1542"
   inkscape:version="1.0.1 (3bc2e813f5, 2020-09-07)"
   sodipodi:docname="TIGR.svg">
  <defs
     id="defs1536" />
  <sodipodi:namedview
     id="base"
     pagecolor="#ffffff"
     bordercolor="#666666"
     borderopacity="1.0"
     inkscape:pageopacity="0.0"
     inkscape:pageshadow="2"
     inkscape:zoom="15.839192"
     inkscape:cx="155.06147"
     inkscape:cy="150.68125"
     inkscape:document-units="mm"
     inkscape:current-layer="layer10"
     inkscape:document-rotation="0"
     showgrid="false"
     inkscape:snap-global="true"
     inkscape:window-width="1920"
     inkscape:window-height="1121"
     inkscape:window-x="-9"
     inkscape:window-y="-9"
     inkscape:window-maximized="1" />
<metadata
     id="metadata1539">
    <rdf:RDF>
      <cc:Work
         rdf:about="">
        <dc:format>image/svg+xml</dc:format>
        <dc:type
           rdf:resource="http://purl.org/dc/dcmitype/StillImage" />
        <dc:title></dc:title>
        <dc:creator>
          <cc:Agent>
            <dc:title>RexKramer1</dc:title>
          </cc:Agent>
        </dc:creator>
        <dc:rights>
          <cc:Agent>
            <dc:title>GNU General Public License v3.0</dc:title>
          </cc:Agent>
        </dc:rights>
      </cc:Work>
    </rdf:RDF>
  </metadata>
  <g
     inkscape:groupmode="layer"
     id="layer10"
     inkscape:label="Outline"
     style="display:inline">
    <path
       style="fill:none;stroke:#000000;stroke-width:0.264583px;stroke-linecap:butt;stroke-linejoin:miter;stroke-opacity:1"
       d="m 5.6544209,0.81851293 c -0.033409,0 -0.1920999,0.050113 -0.1920999,0.050113 L 5.2034035,1.3948128 5.0363601,2.0629867 l 0.025056,1.4115171 -0.3674956,-0.00835 0.00835,0.7099347 -0.083522,0.3841999 -0.07517,0.033409 0.016706,-0.1252826 -0.100226,-0.1085784 -0.1586913,0.00835 0.00835,0.4426651 L 0.75169553,2.2968475 0.40925646,2.2383823 0.16704345,2.3051996 0.06681738,2.4889475 3.4661517,4.8776688 3.3158125,4.927782 l 0.033409,2.0128735 0.3507912,-0.016706 0.00835,-0.5595953 0.1169302,-0.00835 0.07517,0.2338609 V 6.815371 l 0.2088042,-0.016706 0.016703,-0.2589172 0.058465,0.00835 0.016703,0.2672696 0.1921002,-0.016706 0.033409,-0.2589173 h 0.025056 l 0.016703,-0.200452 0.5595955,0.016703 0.00835,0.1753957 -0.4677216,0.6598216 -2.61423,3.8085906 -0.050113,0.300678 0.083522,0.225509 0.1837478,0.125282 2.7979778,-4.0758597 0.050113,0.2255086 -0.1252825,0.016703 -0.016703,0.6765261 0.075169,0.726639 0.2505651,0.4426651 0.07517,0.8936819 -0.2338609,0.133635 -0.033409,0.158691 0.083522,0.208805 0.2255086,0.125282 0.1336347,2.171565 -1.6787865,-0.02506 0.1586912,1.327996 h 0.1002261 l -0.033409,-0.559596 1.4699824,0.0167 0.041761,0.626413 0.1921,0.409257 0.058465,-0.968852 h 0.133635 l 0.1586912,0.05011 -0.07517,1.219417 0.133635,-0.0167 0.050113,-1.177657 0.091874,-0.01671 0.016706,-0.125282 h 1.0440214 l 0.083522,0.559595 c 0,0 0.1252825,0.02506 0.1169302,-0.0167 -0.00835,-0.04176 -0.1085781,-1.319643 -0.1085781,-1.319643 H 6.2557773 l 0.00835,-0.350791 -0.091874,0.0084 -0.033409,0.350792 -0.3090304,0.02506 0.141987,-2.18827 0.2171565,-0.192099 0.016703,-0.175396 L 6.1471989,10.657367 6.013564,10.573845 6.0302671,9.67181 6.2641278,9.0119884 6.3560017,8.4941539 V 7.8176278 H 6.2056626 L 6.3225931,7.5336539 6.222367,7.241328 V 6.5313932 l 0.4176086,0.2756218 0.1670436,0.2338607 3.7751818,2.6142301 0.375848,0.025056 0.175396,-0.091874 0.06682,-0.1085783 L 7.1244017,6.6065621 6.7402019,6.6232653 6.414467,6.3810522 l 0.4092564,-0.00835 0.041761,0.091874 0.1586913,0.00835 0.041761,-0.1252826 0.033409,0.025056 0.050113,0.1085781 h 0.100226 l 0.025056,-0.1085781 0.2422128,0.025056 -0.00835,0.2589173 0.1252826,0.033409 0.041761,-0.050113 0.1085784,0.058465 0.058465,-0.00835 0.00835,-1.5367997 L 7.6672923,5.1031679 7.500249,5.1198711 7.525305,5.5541841 7.291444,5.4957188 7.2997969,5.1699839 7.1411057,5.161631 V 5.4121962 L 7.0408796,5.4205491 7.0241765,5.1365753 6.8571329,5.1532811 6.873836,5.3620852 6.2223665,5.2200984 6.7067927,4.7106159 6.7652576,4.9194201 6.8988926,4.9611811 6.974062,4.8609548 6.9824149,4.3097116 9.3377278,0.90202511 V 0.6431173 L 9.2709105,0.47607383 9.0871626,0.34243909 6.5648064,4.0257473 6.5815095,3.4745038 6.2390707,3.4912096 6.2140147,2.2717923 6.1054363,1.4950402 6.0803802,1.3614055 5.8715761,0.91038814 Z"
       id="path3984" />
  </g>
  <g
     inkscape:groupmode="layer"
     id="layer11"
     inkscape:label="Accent">
    <path
       id="path4035"
       style="fill:none;stroke:#000000;stroke-width:0.264583px;stroke-linecap:butt;stroke-linejoin:miter;stroke-opacity:1"
       d="m 5.2201079,5.42056 0.2664526,0.3140474 0.5079056,-0.041341 0.082682,-0.3484468 m 0.147647,1.0512462 1.6300222,0.011812 M 3.336821,6.3133834 4.4684063,6.3392914 m 1.7539602,-1.119193 1.6324511,0.5026972 m -4.5120906,0 1.2927288,-0.3857588 M 3.7207031,5.5751489 3.7088913,5.2621372 3.6380208,5.2444197 3.5848678,4.9904668 M 6.013564,10.573845 5.971801,11.183593 m -0.6932347,-0.626457 0.041761,0.626413 m 0.5094864,2.188314 -0.066822,0.810109 M 5.4539618,13.355114 c -0.1268598,0.311088 0.016703,0.76004 0.016703,0.76004 m 0.7015883,-1.119143 c -0.033409,0.350792 -0.077387,1.508825 -0.077387,1.508825 M 5.1449385,6.6900903 C 5.0697688,6.9072458 5.462321,8.0180856 5.462321,8.0180856 L 5.7462948,8.0013825 6.0135642,7.2079262 6.0720295,6.7151479 M 5.2201079,5.42056 5.4372644,5.0614167 5.6711251,4.9778947 5.8047601,5.0447117 6.2223665,5.2200979 M 5.9467469,5.462321 6.0887339,5.8298164 6.0386209,6.1137905 6.4228208,6.5481032 M 6.222367,6.5313932 5.6794775,6.1806079 5.5541949,6.197311 5.3537426,6.4228196 5.0697688,6.9072458 4.9695348,7.5754113 M 6.5648064,4.0257473 6.289186,4.4182993 6.2223665,5.2200984 5.9467469,5.462321 M 4.3097172,4.8108515 5.2201079,5.42056 M 3.4661517,4.8776688 4.1009167,5.3203339 4.6354558,5.3370369 5.1616427,5.679476 5.1365867,5.9550975 5.295278,6.1806063 5.0363523,6.5313893 M 6.147199,5.1031776 6.0720295,4.6187516 6.1722556,3.9505777 M 5.1449385,5.1616427 5.22846,4.693921 5.1699948,3.9422255 m 0.233861,0.083522 0.025056,0.4844259 0.4259607,-0.016702 0.033409,-0.4760738 z m 0.041761,-0.9939087 0.4176088,-0.00835 0.058465,0.7015826 -0.5178346,-1.3e-6 z m -0.050113,-0.442665 0.00835,0.1419868 0.4426651,-0.00835 0.016704,-0.1252828 z" />
  </g>
</svg>
