<?xml version="1.0" encoding="UTF-8" standalone="no"?>
<svg
   xmlns:dc="http://purl.org/dc/elements/1.1/"
   xmlns:cc="http://creativecommons.org/ns#"
   xmlns:rdf="http://www.w3.org/1999/02/22-rdf-syntax-ns#"
   xmlns:svg="http://www.w3.org/2000/svg"
   xmlns="http://www.w3.org/2000/svg"
   xmlns:sodipodi="http://sodipodi.sourceforge.net/DTD/sodipodi-0.dtd"
   xmlns:inkscape="http://www.inkscape.org/namespaces/inkscape"
   width="80mm"
   height="80mm"
   viewBox="-27 -31 80 80"
   version="1.1"
   id="svg1542"
   inkscape:version="1.0.1 (3bc2e813f5, 2020-09-07)"
   sodipodi:docname="V22 slow.svg">
  <defs
     id="defs1536" />
  <sodipodi:namedview
     id="base"
     pagecolor="#ffffff"
     bordercolor="#666666"
     borderopacity="1.0"
     inkscape:pageopacity="0.0"
     inkscape:pageshadow="2"
     inkscape:zoom="11.2"
     inkscape:cx="154.00979"
     inkscape:cy="152.46793"
     inkscape:document-units="mm"
     inkscape:current-layer="layer8"
     inkscape:document-rotation="0"
     showgrid="false"
     inkscape:window-width="1920"
     inkscape:window-height="1121"
     inkscape:window-x="-9"
     inkscape:window-y="-9"
     inkscape:window-maximized="1"
     inkscape:snap-global="false" />
<metadata
     id="metadata1539">
    <rdf:RDF>
      <cc:Work
         rdf:about="">
        <dc:format>image/svg+xml</dc:format>
        <dc:type
           rdf:resource="http://purl.org/dc/dcmitype/StillImage" />
        <dc:title></dc:title>
        <dc:creator>
          <cc:Agent>
            <dc:title>RexKramer1</dc:title>
          </cc:Agent>
        </dc:creator>
        <dc:rights>
          <cc:Agent>
            <dc:title>GNU General Public License v3.0</dc:title>
          </cc:Agent>
        </dc:rights>
      </cc:Work>
    </rdf:RDF>
  </metadata>
  <g
     inkscape:groupmode="layer"
     id="layer8"
     inkscape:label="Outline"
     style="display:inline">
    <path
       style="fill:none;stroke:#000000;stroke-width:0.264583px;stroke-linecap:butt;stroke-linejoin:miter;stroke-opacity:1"
       d="m 13.028367,0.31891742 -0.366165,0.22442334 -0.01181,-0.18898809 -0.08268,-0.15355282 -0.2008,0.34254091 0.02362,0.33072919 -0.496093,1.03943455 -0.165365,0.9567521 0.02362,2.0906808 L 11.386533,5.3152902 11.126674,5.8350075 7.6185823,5.4806548 9.815569,2.3387277 9.4375927,2.0434338 6.9216886,5.3979725 6.6854535,5.5515253 6.4374066,5.327102 6.2129833,5.2562315 5.8822542,5.3389138 5.6460191,5.5633371 5.5633368,5.8940662 5.5397121,6.1657367 0.51971593,5.6578311 0.44884541,6.2129836 4.7010774,6.7445127 5.0081833,6.8980655 5.2326066,6.9098765 5.4924652,6.8035706 5.6578298,6.8390057 5.7523239,7.0634293 5.9295,7.1933585 6.0803805,7.1995709 6.15555,7.2997972 5.9258652,7.4668406 8.0055563,12.064712 8.4816301,11.851731 6.8446043,8.0807252 6.878013,7.8552166 l 3.871232,0.4635455 0.158691,1.6453781 0.392552,1.3196428 0.517835,1.102487 0.06682,2.681048 -1.102486,0.02506 -0.04176,-0.175396 -0.125283,-0.1921 -0.175395,0.292326 v 1.252826 l 0.175395,0.902035 h 0.05846 l 0.0167,0.158691 4.760738,0.0167 0.03341,-0.208804 0.07517,-0.0167 0.09187,-1.169305 -0.0167,-0.876978 -0.141987,-0.350791 -0.175395,0.350791 -1.135896,-0.03341 0.07517,-2.664343 0.593004,-1.311292 0.45937,-1.8875905 -0.0084,-0.8268653 4.034099,-0.4927782 0.05011,0.2923262 -1.628674,3.8503518 0.484426,0.208804 2.079691,-4.5602861 -0.158691,-0.1002261 -0.0167,-0.1670436 0.242213,-0.041761 0.133635,-0.091874 0.05011,-0.2672696 0.359144,0.091874 0.400904,-0.00835 0.283974,-0.200452 L 25.7664,6.356008 25.616061,5.7880603 20.688279,6.3225993 20.629819,5.9801603 20.429366,5.5876083 20.045166,5.4539736 19.635958,5.562547 19.535732,5.7212383 19.33528,5.562547 16.804572,2.2133258 16.403667,2.5724692 18.458302,5.5124339 14.950389,5.9467469 14.716528,5.4289123 14.29892,4.8943733 14.315624,2.8230343 14.165285,1.9711128 13.597337,0.69323034 Z"
       id="path836" />
  </g>
  <g
     inkscape:groupmode="layer"
     id="layer9"
     inkscape:label="Accent"
     style="display:inline">
    <path
       id="path884"
       style="fill:none;stroke:#000000;stroke-width:0.264583px;stroke-linecap:butt;stroke-linejoin:miter;stroke-opacity:1"
       d="m 19.64431,5.9383948 0.283974,-0.1670434 0.334087,0.050113 0.09187,0.233861 -0.05011,0.1085781 -0.208805,-0.1085781 -0.367495,0.1336347 0.108578,0.2839738 0.367496,-0.00835 0.359143,0.1837478 -0.0084,0.292326 m -1.194312,-0.4176108 0.258918,0.025056 0.150339,0.1753954 -0.108579,0.1419871 0.07517,0.4092564 m -1.227769,-1.7790121 0.785104,1.0273172 -0.02506,0.3340868 0.133634,0.2672696 0.275622,0.200452 -0.275622,0.7349912 M 6.4645817,7.0909946 6.623273,6.7402034 6.4896383,6.4228209 6.8738381,6.2557773 M 5.6711252,6.7569077 C 5.7212383,6.6483295 5.8882816,6.3225946 5.8882816,6.3225946 L 6.330947,6.3142417 6.3977644,6.0720287 6.1471992,5.9216895 5.896634,6.0135634 5.9550992,5.7379419 6.2975383,5.5876028 6.7318511,5.6126588 M 6.8404295,7.8009294 6.5063425,7.1160512 6.8571337,6.9490076 6.9490076,6.6483295 6.8905423,6.3643557 7.6338858,5.462321 M 12.467309,0.80910528 12.78032,0.51971725 m 1.435078,14.58101075 -0.116931,2.213326 m -2.196621,-2.280143 0.175396,2.3052 m 3.251861,-2.250195 0.01181,1.259254 0.148906,0.801706 m -4.754411,-2.13875 0.0069,1.363779 -0.0432,0.822218 m 3.649925,-8.7113157 1.052373,-0.1503389 m -4.560286,-10e-8 0.968852,0.083522 m 2.522356,-2.42213 0.69323,-0.041761 m -3.967281,-0.125283 0.734991,0.050113 m 2.514004,-1.0022606 -0.0507,7.7041633 m -2.496713,-7.6707546 0.0648,7.7573886 m 1.180084,-11.3219259 -0.507905,0.070871 -0.425224,0.3425409 -0.224423,1.0866817 0.354353,0.2598584 0.720517,-0.023625 -0.02362,-1.0512463 0.366165,2e-7 0.03544,1.0512463 0.67327,0.011811 L 14.26861,2.8348194 14.032366,1.689079 13.65439,1.4292204 Z" />
  </g>
</svg>
