<?xml version="1.0" encoding="UTF-8" standalone="no"?>
<svg
   width="80mm"
   height="80mm"
   viewBox="-35 -32 80 80"
   version="1.1"
   id="svg1542"
   inkscape:version="1.2.1 (9c6d41e410, 2022-07-14)"
   sodipodi:docname="VF35.svg"
   xml:space="preserve"
   xmlns:inkscape="http://www.inkscape.org/namespaces/inkscape"
   xmlns:sodipodi="http://sodipodi.sourceforge.net/DTD/sodipodi-0.dtd"
   xmlns="http://www.w3.org/2000/svg"
   xmlns:svg="http://www.w3.org/2000/svg"
   xmlns:rdf="http://www.w3.org/1999/02/22-rdf-syntax-ns#"
   xmlns:cc="http://creativecommons.org/ns#"
   xmlns:dc="http://purl.org/dc/elements/1.1/"><title
     id="title1044">F35B Lightning 2</title><defs
     id="defs1536" /><sodipodi:namedview
     id="base"
     pagecolor="#ffffff"
     bordercolor="#666666"
     borderopacity="1.0"
     inkscape:pageopacity="0.0"
     inkscape:pageshadow="2"
     inkscape:zoom="11.2"
     inkscape:cx="144.6875"
     inkscape:cy="147.54464"
     inkscape:document-units="mm"
     inkscape:current-layer="layer5"
     inkscape:document-rotation="0"
     showgrid="false"
     inkscape:window-width="1920"
     inkscape:window-height="1121"
     inkscape:window-x="2391"
     inkscape:window-y="140"
     inkscape:window-maximized="1"
     inkscape:snap-global="false"
     inkscape:showpageshadow="2"
     inkscape:pagecheckerboard="0"
     inkscape:deskcolor="#d1d1d1" /><metadata
     id="metadata1539"><rdf:RDF><cc:Work
         rdf:about=""><dc:format>image/svg+xml</dc:format><dc:type
           rdf:resource="http://purl.org/dc/dcmitype/StillImage" /><dc:creator><cc:Agent><dc:title>RexKramer1</dc:title></cc:Agent></dc:creator><dc:rights><cc:Agent><dc:title>GNU General Public License v3.0</dc:title></cc:Agent></dc:rights><dc:title>F35B Lightning 2</dc:title></cc:Work></rdf:RDF></metadata><g
     inkscape:groupmode="layer"
     id="layer4"
     inkscape:label="Pfade"
     style="display:inline"><path
       style="display:inline;opacity:1;fill:none;stroke:#000000;stroke-width:0.264583px;stroke-linecap:butt;stroke-linejoin:miter;stroke-opacity:1"
       d="M 5.6377167,0.06681702 5.2451647,0.88532988 5.169995,1.2444734 4.9194298,3.1320644 4.7607383,4.326425 4.5602865,4.9444859 4.1092688,4.4934687 3.8921123,4.9194293 3.7793579,7.462666 3.3868062,8.2519463 0.07099347,10.490329 v 1.607793 l 3.65407573,0.906211 -0.2672694,0.69323 -1.6161456,1.073254 0.02088,0.897859 2.7353365,0.689054 0.2088042,-1.586913 0.1670436,-0.739167 0.3006781,0.668174 H 6.0260921 L 6.30589,14.065059 6.49799,14.912804 6.6900904,16.35773 9.4713641,15.681204 9.4504832,14.758289 7.8343375,13.668331 7.5545398,13.008509 11.22532,12.085594 11.212791,10.473625 7.9011554,8.231066 7.4960751,7.4334335 7.3916729,4.9236055 7.1786926,4.4684121 6.7443796,4.9444859 6.5856883,4.5435815 6.4395251,3.7208927 6.1680798,1.3739321 6.0260927,0.83939298 Z"
       id="path2020" /></g><g
     inkscape:groupmode="layer"
     id="layer5"
     inkscape:label="Accent"
     style="display:inline"><path
       id="path2363"
       style="fill:none;stroke:#000000;stroke-width:0.276;stroke-dasharray:none"
       d="M 5.6583774,4.6493341 V 3.1292394 m 0.075168,-0.6681761 0.091874,1.6119713 -0.041759,0.4927785 M 5.3587418,4.9029643 5.0206755,5.5788541 5.0398317,6.1777959 5.3489631,6.5299474 5.4847976,6.3704883 5.6383511,6.3232417 5.8155267,6.3882075 5.9041145,6.5063228 6.2063295,6.2721161 6.1523314,5.6059376 5.82852,4.8799359 M 5.0418533,4.840866 4.7583708,5.3133377 4.7938064,5.8803001 4.6874995,5.8094315 V 6.0220427 L 4.8410531,6.1992183 4.8646804,6.8016189 5.0654806,7.0614768 5.1127272,8.5261334 5.2721859,8.6678756 5.4907031,8.5497581 5.608821,8.6560623 5.7151279,8.5497581 5.927738,8.6737819 6.1049147,8.4670758 6.0931143,7.1441591 6.3647858,6.7661833 6.3824884,6.2464641 6.5301372,6.010229 6.5065099,5.8094315 6.400203,5.8330588 6.4238302,5.3724007 6.1521587,4.8290603 Z m -6.008e-4,9.363068 0.6055324,0.224423 0.6055324,-0.224423 m 0.8887899,-2.160101 -0.1336347,0.643117 -0.025056,0.776752 -0.041761,0.776752 0.1419871,0.367496 0.1085781,-0.133635 0.7600476,1.052374 0.041761,-1.444926 z m -2.9900776,-0.02506 0.200452,1.244474 -0.016703,0.9605 -0.1503392,0.45937 -0.07517,-0.133635 -0.7767518,1.018965 -0.050113,-1.469983 z M 5.6316369,2.4656717 5.5320044,3.0670281 5.4645934,4.5620669 M 5.652988,2.3225095 5.4588614,2.4351409 5.3753397,2.7692279 5.2166483,4.1055753 5.3105488,4.4827544 5.6307973,4.7494302 5.9691831,4.4833479 6.0518655,4.0972233 5.9098786,2.7525234 5.8430611,2.4434931 Z" /></g></svg>
